<svg xmlns="http://www.w3.org/2000/svg" viewBox="0 0 203 203"><defs><style>.cls-1{fill:#c7b299;stroke:#000;stroke-miterlimit:10;stroke-width:3px;}.cls-2{fill:#9d1b4c;}.cls-3{fill:#1d1315;}</style></defs><title>author-img-gold</title><g id="Layer_2" data-name="Layer 2"><g id="Me"><g id="author-img-gold"><rect class="cls-1" x="1.5" y="1.5" width="200" height="200" rx="20" ry="20"/><g id="author-face"><path class="cls-2" d="M97.35,106.74c1.19-.14,2.26.58,3.37,1.07a2.46,2.46,0,0,0,2.32.09c2.76-1.47,5.37-.81,8,.3a52.62,52.62,0,0,0,7,2c.47.13,1.13.11,1.16.74s-.55.7-1,.85c-2,.73-3.42,2.31-5.18,3.4-2.65,1.63-5.14,3.47-8.29,4.19a14.09,14.09,0,0,1-9.5-1A33,33,0,0,1,87.7,113a6.26,6.26,0,0,0-1.89-1.08c-.59-.24-1.1-.65-1.06-1.24s.71-.42,1.12-.56L94,107.38A8.68,8.68,0,0,1,97.35,106.74Zm4.89,6.94a1.51,1.51,0,0,0-1.44.18c-.25.14-.63.26-.61.62s.45.34.72.42a14.55,14.55,0,0,1,3.08.84c1.49.82,2.53.06,3.67-.64.35-.22.59-.47.42-.94s-.27-.68-.77-.7c-.83,0-1.67-.13-2.5-.24S103,113.62,102.24,113.68Z"/><path class="cls-3" d="M200.73,183.06c1.34-2.83-.19-4.91-2.63-6-.95-.44-1.9-.86-2.86-1.29a6.93,6.93,0,0,1-3.36-3.61c-1.76-3.66-4.93-5.61-8.4-7.36-4.17-2.09-8.66-2.89-13.06-4-1.93-.51-3.92,0-5.89-.1-.76,0-1.25-.19-1.48-1a20.87,20.87,0,0,1-1-3.53,5.15,5.15,0,0,1,.74-2.53,25.07,25.07,0,0,0,1.81-6.75,5.1,5.1,0,0,0-.74-3.33,12.18,12.18,0,0,0-8.31-6.47,91.53,91.53,0,0,0-9.44-1.57c-3.79-.51-7.64-.57-11.47-.8a29.92,29.92,0,0,0-4-.24,1.21,1.21,0,0,1-.66-.12c-1.38-.64-1.59-.57-1.85.85-.54,2.95-1.24,5.87-1.57,8.86a10.46,10.46,0,0,0,.62,4.89,22.32,22.32,0,0,1,.77,4.61,27.46,27.46,0,0,1,.37,5.25,28.6,28.6,0,0,1-.08,4.72,3.23,3.23,0,0,1-.87,2c-.75.65-.63,1.68-1.11,2.46a14.74,14.74,0,0,0-2.18,5.39c-.39,2.59-2.5,2.89-4.06,3.9-1.76,1.14-3.59,2.18-5.26,3.44-2,1.5-4.38,2.07-6.62,3a42.53,42.53,0,0,1-12,3,20.3,20.3,0,0,1-9.55-1.11,12.37,12.37,0,0,1-2.61-2c-1.76-1.26-3.32-2.8-5.17-4a7.82,7.82,0,0,0-1.95-1.2c-1.31-.39-1.3-1.67-1.66-2.62-.83-2.12-1.65-4.24-2.49-6.34a28,28,0,0,0-1.23-2.52c-.31-.59-.07-.69.45-.59a10.06,10.06,0,0,1,1.12.19c.44.15.94.49,1.28,0a1.65,1.65,0,0,0,.16-1.54,9.75,9.75,0,0,1-.75-2.15,9.29,9.29,0,0,1,.44-4.62c.06-.14.12-.34.06-.44-.93-1.69-.06-3.49-.32-5.25a9.65,9.65,0,0,1,.38-5.38.86.86,0,0,0-.45-1.26.7.7,0,0,1-.43-.93c1.13-4.28.38-8.59.31-12.89,0-.45-.23-1,.44-1.28s1,.1,1.5.51c1.44,1.31,2.63,2.9,4.38,3.85a3.82,3.82,0,0,1,1.28,1.31,30.4,30.4,0,0,0,4.9,5c1.52,1.39,3.37,1.77,5.19,2.35a6.74,6.74,0,0,1,2.57,2.07,9.68,9.68,0,0,0,3.49,2.79,1.22,1.22,0,0,0,1.2,0,2.28,2.28,0,0,1,2.86.49,1,1,0,0,0,1.33.47,6.48,6.48,0,0,1,2.49.16,3.21,3.21,0,0,0,2.29-.57c.88-.59,2.09-.74,2.62-1.84a1.22,1.22,0,0,1,.71-.56c1.81-.69,3.38-1.89,5.3-2.31.22-.05.49-.07.57-.33.4-1.16,2.08-1.26,2.18-2.67,2.13-.8,2.76-3,4.07-4.53.48-.56,1-1.09,1.46-1.62,1.05-1.11,2.15-2.17,3.21-3.27.18-.19.58-.4.28-.75a.62.62,0,0,0-.76-.05c-1.73,1-16.12,8-18,9a14.6,14.6,0,0,1-7,1.55,8.85,8.85,0,0,1-2.85-.46,1.32,1.32,0,0,0-.56-.05c-2,.25-22-10.11-23.12-11.81a1.09,1.09,0,0,0-.57-.38,2,2,0,0,1-1.65-1.6c-.2-.8-1.25-1.41-2.09-1.86a1.45,1.45,0,0,1-.8-.88c-.49-1.35-1.53-2.37-2.21-3.62a31.67,31.67,0,0,1-3.22-9.31s0-.08,0-.12C64.94,110,65,110,66.64,109.5c.43-.12,1-.2.88-.84s-.63-.64-1.13-.48c-1,.3-1.47-.22-1.78-1.08a25,25,0,0,1-.73-4.19c-.38-2-.93-4-1.37-5.94a23.27,23.27,0,0,1-.32-9.17c.38-2,1-4.16,2.89-5.47.25-.17.46-.65.86-.22,1.19,1.29,2.86,1.64,4.41,2.08A58.7,58.7,0,0,0,89.6,86.05a9.84,9.84,0,0,0,8-4.59c1.09-1.68,2.22-3.32,3.16-5.08a3.08,3.08,0,0,1,2.84-1.48,2.54,2.54,0,0,1,2.61,1.5c.61,1.41,1.36,2.75,2.05,4.12,1.64,3.25,4.1,5.56,7.75,6.21a37.73,37.73,0,0,0,8.13,1,3.41,3.41,0,0,0,.51-.12,97.21,97.21,0,0,1-10.92-2.52c-.88-.26-1.19-.9-1.72-1.39a11.82,11.82,0,0,1-3.52-7.47c-.36-2.69,1.08-4.62,4.59-5.78a32.11,32.11,0,0,1,13.85-1.11,30.3,30.3,0,0,1,12.3,3.66c2,1.21,2.21,1.53,2,3.88a13.06,13.06,0,0,1-1.78,6.16,9.39,9.39,0,0,1-8.21,4.39,15.56,15.56,0,0,0-3.79.24c.08.28.34.29.56.29,3.3.07,6.62,0,9.78-1.17a6.72,6.72,0,0,0,3.14-2.47c.18-.27.39-.54.72-.45s.21.46.24.71c.25,2.33.57,4.67.64,7,0,.61.08,1.21.12,2A2.91,2.91,0,0,0,144,91.11a46.89,46.89,0,0,1,1.27-8.52c.67.14.83.87,1.45,1a1.49,1.49,0,0,0,.14-1.45,2.44,2.44,0,0,1,.61-2.84c.73-.76.89-2,2.17-2.32.19,0,.06-.34.06-.52,0-3-.14-5.89.15-8.85a11,11,0,0,0-.56-5.87c-.28-.62.29-1.2.4-1.79s-.16-1.3.06-1.92a.29.29,0,0,0,0-.22,5.28,5.28,0,0,1-1.4-2.79,27.89,27.89,0,0,0-1.19-4.32c-.16-.66-.92-1.3,0-2,0,0,0-.2-.08-.26-.66-.67-.46-1.5-.38-2.29,0-.4.21-.79-.5-.64-.41.09-.45-.3-.54-.6-.14-.47-.32-.92-.48-1.39-.47.23-.14.65-.41.86-.06,0-.14,0-.16-.06a11,11,0,0,1-1-2.59c-.09-.39-.14-1-.59-.16-.35-.21-.89-.21-.92-.81C142,39.06,140.86,38,140,36.6c-.64-1-1.65-1.61-2.24-2.66a6.17,6.17,0,0,0-3.2-2.78,4.5,4.5,0,0,1,3.34,1.47c.21.21.42.6.73.32s-.12-.47-.31-.69c-.36-.44-.63-.95-1-1.37a2.28,2.28,0,0,0-2.27-1c-.88.17-1.75-.76-2.73-.28,0,0-.14-.08-.14-.13-.17-1.16-.89-.61-1.44-.44-.33-.33,0-.51.08-.74s-.15-.69-.34-.52c-.95.85-1.43-.58-2.21-.4-.24.05-.53-.12-.79-.13-.47,0-1.25.48-.78-.7a1.43,1.43,0,0,0-1-1.14c-.74-.1-1.16.07-.91-1.13s-1-1.94-2.06-2.58a8.08,8.08,0,0,0-4.14-1c-1.68-.05-3.24-1-5-.8-.5-1.3-1.51-.13-2.21-.45-.2-.09-.52,0-.67-.1-1.12-.9-2.38-.48-3.62-.55a9.33,9.33,0,0,1-2.51-.31,10.93,10.93,0,0,0-5.65,0c-.9.18-2-.3-2.68.67-.12.16-.32-.11-.48-.21a1.39,1.39,0,0,0-1.53.12,56.9,56.9,0,0,1-6.47,3.16c-1.55.74-3.13,1.35-4.72,1.93a28.76,28.76,0,0,1-5.84,1.7,15.73,15.73,0,0,0-1.56.42c-.37.09-.75.25-1-.16a14.9,14.9,0,0,0-8.5,4.45c0,.5-.21.75-.71.71a3,3,0,0,1-.65,1.29c.71,1-.22,1.75-.67,2.17a4.22,4.22,0,0,0-1.3,2c-.13.49-.48.62-.82.85-.14.25-.31.5-.46.76.43,1.8-.41,3.43-.89,5-.71,2.36-1.42,4.75-2.36,7a18.61,18.61,0,0,1-1.85,3.85c-.91,1.31-1.57,2.76-3.07,3.55,0,1.21-1.18,1.4-1.81,1.67-1,.42-1.57,1.29-2.49,1.76-.5.25-.75,1-1.39,1.32-.2.1-.39.35-.58.35-1.29,0-1.45.5-.72,1.45.61-.09,1.11-.71,1.81-.21.25.18.46-.18.67-.34A6.69,6.69,0,0,1,52,62.29c-.82,1.42-2.1,2.19-3.07,3.21.41.48.78-.12,1.3.2-.7.66-1.12,1.55-2.14,1.79-.32.07-.62.1-.54.54.28.13.56.24.17.62-1.37,1.28-1.75,3.28-3.23,4.5a1.79,1.79,0,0,0-.13.14c1.13,1-.13,1.54-.4,2.29-.16.43-.82.93.1,1.36.19.09.27.89.1,1.16-.49.76-.67,1.74-1.51,2.25l-.47.64c.13.54.26,1.09.46,1.88.29-1.66,1.57-2.52,2.07-3.82.08-.19.2-.36.43-.3s.21.29.28.47c.22.64-.28,1.16-.28,1.8.41,0,.82,0,1-.53.13-.34.44-.21.67,0s.16.41,0,.67c-.39.61-1.28.76-1.45,1.61.29.37.76.09,1.14.27.08.55-.38.68-.71.91s-.43.39-.19.66.42,0,.59-.12a2.84,2.84,0,0,0,.25-.23c1.2-1,1.23-1,2,.56.3-1.6.6-3,1.81-4.18-.09,2.78.27,5.56-1.57,7.89-.56.72-.88,1.57-1.52,2.25-.8.84.56.52.71,1.1-1.13.16-1.45,1.29-2.23,1.9s-.23,1.15.08,1.22c1.61.38.58.89.07,1.35a1.06,1.06,0,0,0,.24.15c.39.16.93-.48,1.14,0s-.56.72-.83,1.1c-.66.9-1.81,1.17-2.5,2,0,0-.73.22,0,.49.38.15,0,.33-.2.41s-.67,0-.55.4.56.29.81.19A28.57,28.57,0,0,0,47.21,100a3.39,3.39,0,0,1,.62-.11,1.84,1.84,0,0,0-.44,1.67c.19.52-.37.71-.6,1s-.59.77-.06,1c.78.4.6,1.25,1,1.79a.37.37,0,0,1-.07.6c-1,.46-.83,1.5-1.26,2.23-.06.1-.14.28-.11.32.87.94-.07,2.3.78,3.23a.55.55,0,0,1,.09.54c-.3,2.19.36,4.23.87,6.3.32,1.29.67,2.59,1.07,3.82.93,2.76,1.9,5.54,4.61,7.27,1.51,1,3.25,1.52,4.68,2.63.22.18.8.59,1.06,0s-.23-.71-.67-.85a7.56,7.56,0,0,1-3.93-2.28.93.93,0,0,0-.39-.22c-.86-.35-.86-.35-.64-1.42a18.33,18.33,0,0,0,5.45,2.55,3.82,3.82,0,0,0,2,.23c.91-.15,1.43.74,2.13,1.14a25.16,25.16,0,0,0,3,1.48c.31.13.62.25.6.59s-.48.29-.73.29a35.22,35.22,0,0,0-6.56.36,8.39,8.39,0,0,0-3.38,1.63c-2.5,1.92-5.27,3.44-7.75,5.35-2.81,2.17-5.78,4.33-7,8,0,0,0,.07,0,.1.56,3.19-2.24,5-3.07,7.67a16.61,16.61,0,0,1-.91,2.46c-.77,1.62-2.26,2.09-3.78,2.47a45.87,45.87,0,0,1-9.72,1.07c-.09,0-.2-.08-.31-.12l-2.14.25c-.3.4-.7.31-1.09.21l-.46.09c-.27.32-.6.26-.94.13l-.44.1a8.51,8.51,0,0,1-3.45,1.16c-.37.42-.93.37-1.41.55a3,3,0,0,1-1.8,1.1l-1.08.79c0,.37-.2.59-.6.54a30.62,30.62,0,0,1-8.77,6.46c0,2.78,0,5.56,0,8.34v.08A20,20,0,0,0,20.93,201.5H182.3a20,20,0,0,0,19.06-16.76C200.53,184.48,200.3,183.94,200.73,183.06Zm-57-97.81a5.09,5.09,0,0,1,0,2.25A2.88,2.88,0,0,1,143.69,85.25ZM120.82,22.48a.9.9,0,0,1,.63-.7c.85,0,2.63,1.83,2.67,2.67,0,.22-.11.44-.33.28-.4-.29-.49-.08-.61.26s-.22.56-.54.51-.24-.37-.32-.58a6.3,6.3,0,0,1-.37-1.19c-.07-.38-.06-.66-.62-.57S120.73,22.83,120.82,22.48ZM78,63.77A4.26,4.26,0,0,0,80,61.34,5.81,5.81,0,0,1,82,59.06a28.79,28.79,0,0,0,3.56-3.76c.17-.18.19-.49.29-.74A10.13,10.13,0,0,1,90,49.44a12.3,12.3,0,0,0,3.76-3.74,3.19,3.19,0,0,1,1.51-1.34A4.06,4.06,0,0,0,97,42.45a5.15,5.15,0,0,1,2.51-2.51,6.82,6.82,0,0,0,2.58-2.56,2.75,2.75,0,0,1,1.1-1.07,2.72,2.72,0,0,0,1.16-1.07,21.51,21.51,0,0,1,3.81-3.57,3.12,3.12,0,0,1,1.54-.66c1.89-.2,3.67-.94,5.65-.63,1.39.22,2.87-.06,4.13.82a3.49,3.49,0,0,0,2.4.47,4.31,4.31,0,0,1,2.5.76c.66.42.87.93.14,1.56a4.17,4.17,0,0,1,1.54,1.19c1.35,1.43,2.82,2.74,4.24,4.09.45.43.21,1.11.7,1.57,1.81,1.74,2.49,4.1,3.43,6.33.74,1.75.86,3.69,2,5.34a5.19,5.19,0,0,1,.64,2.32,42.57,42.57,0,0,0,1.28,6.66c.61,2.86.69,5.79,1.07,8.68.1.82-.26.7-.94.7a15.61,15.61,0,0,1-3.37-.86,40.09,40.09,0,0,0-6.4-1.32,46.82,46.82,0,0,0-5.58-.62,31.78,31.78,0,0,0-9.7,1.43c-4.38,1.35-4.83,1.38-7.45,2.27-1.94.67-3.51-.08-5.25-.39-.58-.1-1.12-.47-1.76-.16a.79.79,0,0,1-.79-.07C96.77,70,95,69.49,93.39,68.78a38.73,38.73,0,0,0-14-3c-1,0-2-.14-3.29-.22C76.89,64.92,77.24,64.19,78,63.77ZM65.23,76.09c.34.84.59,1.47.87,2.08.19.46.6,1,1,.66s1.32.12,1.29-1c0-.5.75-1,1.23-1.52.19-.19.42.06.58.22a.69.69,0,0,1,.26.8c-.2.66.66,1.69,1.31,1.55,1.13-.25,2.36-.08,3.37-1,.49-.42,1.4-.32,2.1-.52a10,10,0,0,1,5,0,8.87,8.87,0,0,0,2.36-.09,8.94,8.94,0,0,1,2.83,0,15.42,15.42,0,0,0,4.22.32c.71,0,1-.41.71-1.18S91,74.91,92.11,73.9a2.85,2.85,0,0,0-.66-1c-2-1.68-4.14-3-7-3A17.18,17.18,0,0,0,77.9,71a2.87,2.87,0,0,1-2.14.08,2,2,0,0,1-1.12-2.68c.43-1.43,1.55-1.44,2.59-1.49a36.46,36.46,0,0,1,12.13,1.31,21.37,21.37,0,0,1,7.12,3.37,4.56,4.56,0,0,1,1.62,5.54c-.28.71-.53,1.44-.83,2.14a10,10,0,0,1-5.87,5.39,15,15,0,0,1-5.13.62A42.45,42.45,0,0,1,71.36,83.2a11.33,11.33,0,0,1-4.9-3A5.22,5.22,0,0,1,65.23,76.09Zm16.94-5.24c0-.38.34-.33.59-.33h.93a10.16,10.16,0,0,1,6.07,2.1c.19.14.38.33.23.57s-.32.08-.5,0c-.91-.46-1.64-1.08-2.89-.9-.61.09-1.61-.61-2.48-.84a10.18,10.18,0,0,0-1.33-.29C82.51,71.11,82.18,71.23,82.17,70.85ZM90.7,74c0-.11.19-.21.31-.26s.14.09.22.13c0,.21-.11.32-.27.35S90.64,74.12,90.7,74ZM44.32,76.77s-.06,0-.06-.07.05,0,.07-.07a.19.19,0,0,1,.06.07A.15.15,0,0,1,44.32,76.77Zm2,5.8a.37.37,0,0,0-.07-.12.22.22,0,0,1,.11,0s0,0,0,.08Zm.87.14c0-.77.67-1.19,1.13-1.81C48.64,82,47.76,82.26,47.2,82.71Zm1-2.72c-.68-1.57-.58-1.9.8-3C49.07,78,48.43,78.82,48.25,80ZM50.08,68.8c-.83,1-1.7,2-2.47,3.14-.44.63-1.3.24-1.6.89-.4-.11-.43-.33-.26-.54a24.42,24.42,0,0,1,3.82-4.05c.17-.15.41-.28.61-.06S50.25,68.6,50.08,68.8Zm3.29,58.44,0-.06,0,.07Zm3,0c-.57-.41-1.1-.86-1.71-1.34.84-.26,2.17.43,2.22,1.1C57,127.49,56.62,127.43,56.39,127.27ZM62,126.16c.62-.21.92.39,1.2.62,1,.75,2.24,0,3.1.8a4.1,4.1,0,0,0,.37.27C65.24,128.42,63,127.57,62,126.16Zm5.74,6.07c-1.19.09-1.91-.76-2.85-1.1-.27-.1-.43-.94-.37-1.41s.66-.32,1-.26a8.49,8.49,0,0,0,2.75-.26.75.75,0,0,0,.69-.67c0-.41-.44-.36-.62-.55-.73-.78-1.9-1-2.82-2.06,1.94.51,3.64.56,5.19,1.32a3.85,3.85,0,0,1,1.78,2.43c.21.62.21,1.45-.91,1.4a.93.93,0,0,0-.62.27C70,132.27,68.89,132.15,67.74,132.23Z"/><path class="cls-3" d="M113.72,78a8.33,8.33,0,0,0,4,0,1.08,1.08,0,0,1,.79,0c1.59,1,3.36.55,5.06.7a1.61,1.61,0,0,0,1.62-.64c.31-.43.77-.74,1.28-.37,1.47,1.06,3.44.64,4.91,1.72.23.16.79.5,1,.07s-.27-.64-.54-.87-.67-.73,0-.92,1.16-.62,1.13-1.26a2.13,2.13,0,0,0-1.34-2,17.14,17.14,0,0,1-2.75-1.68c-.49-.3-.8-1-1.28-1-2-.35-3.84-1.4-5.75-1a11.08,11.08,0,0,0-7.75,2.61c-.53.39-1.4.85-1,1.81a1.62,1.62,0,0,1-.07,1.41C112.7,77.18,112.82,77.88,113.72,78Z"/><path class="cls-3" d="M108.72,100.62a5.5,5.5,0,0,1,1.23.27,2,2,0,0,0,2-.5,13.27,13.27,0,0,0,1.35-2.2.33.33,0,0,0,0-.42c-.8-1.33-4-2.38-5.35-1.68a6.29,6.29,0,0,0-3,2.59c-.19.37-.39.52-.65.1-.71-1.16-2.2-.64-3.09-1.42,0,0-.34.15-.46.29-.73.82-1.18.4-1.55-.33a5.9,5.9,0,0,0-1.89-2.14,1.76,1.76,0,0,0-2.13-.11,5.38,5.38,0,0,0-2.29,1.77c-.65,1.06-1.67.48-2.63,0,.22.57-.12,1.25.51,1.62,1.4.84,2.67,2,4.51,1.74a6.75,6.75,0,0,1,1.62,0,3.66,3.66,0,0,1,3,1.32c.44.62,3.14,1,3.75.49a7.92,7.92,0,0,1,2.83-1.65.4.4,0,0,0,.21-.25c0-.19-.11-.28-.29-.26s-.59.07-.5-.37a.64.64,0,0,1,.6-.46c.35,0,.7,0,1-.09.78-.14,1.1.11.69.85S108.18,100.61,108.72,100.62Z"/><path class="cls-3" d="M139.11,73.67c0,1.79.7,4.71,1.33,5.33C141.1,76.82,140.59,74.63,139.11,73.67Z"/></g></g></g></g></svg>