<svg xmlns="http://www.w3.org/2000/svg" viewBox="0 0 262.79 327.45"><defs><style>.cls-1{opacity:0.75;}.cls-2{fill:#5b92d9;}.cls-3{fill:#a7bf4e;}.cls-4{fill:#f20746;}</style></defs><title>cmlove-tree</title><g id="Layer_2" data-name="Layer 2"><g id="Intro"><g class="cls-1"><path class="cls-2" d="M150.87,290.8a6.7,6.7,0,0,0-2.67,5l2.88-2.4-10.38,34L137.89,324a4.23,4.23,0,0,1,3.43-.18q.81-16.45,1.63-32.9c.14-2.85,2-5.28,3.78-7.51-.06,2-.13,4.05-.19,6.07,4.15-8.54-2.2-18.45-9.21-24.85-2.89-2.65-6.06-5.16-9.82-6.25s-8.25-.48-10.89,2.42c-3.19,3.5-3.51,9.81-8,11.34A28.93,28.93,0,0,1,117,257.88c4.32-4,2.2-11.14-.21-16.53a5.91,5.91,0,0,0-1.69-2.48c-1.45-1-3.44-.51-5.13,0-12.5,4.09-25.83,8.76-33.61,19.37,2.11-8.52,10.92-13.3,18.85-17l43.36-20.55c7.68-3.64,15.91-7.8,19.68-15.42,1.35-2.73,2-6.13.42-8.74-1.87-3.1-6-3.88-9.62-3.79a36.61,36.61,0,0,0-28.79,15.59c-1.68-1.48-.43-4.38,1.43-5.63s4.23-1.76,5.76-3.4,1.14-5.16-1.1-5.22a23.22,23.22,0,0,0-21.86,14.64c-1.43,3.78-1.83,7.9-3.42,11.62-4.7,10.94-17.92,15.11-29.71,16.81,7.43-2.61,15-5.32,21.07-10.36s10.31-13,8.79-20.7c-.76-3.83-5.36-5.85-9.21-5.18s-7,3.24-10,5.72L64.69,220.8a36.66,36.66,0,0,1,10-12.23,26.33,26.33,0,0,0-24.46,11.51c-2.47,3.79-3.92,8.18-6.41,11.95-8,12-24,14.93-38.28,16.79,6.42-4.86,15.3-4.46,22.83-7.28a28.16,28.16,0,0,0,17.69-22.22,6.58,6.58,0,0,0-.3-3.71c-1.36-2.9-5.45-2.89-8.57-2.18A61.83,61.83,0,0,0,6.6,230.6l.16-3.53L0,227.68a179.81,179.81,0,0,1,23.27-12.45,25.92,25.92,0,0,0-18.79,1.12c4.6-4.83,12.06-5.11,18.72-5.46,23.79-1.24,47-7.51,70-13.75,11.27-3,22.56-6.11,33.39-10.48a20.06,20.06,0,0,0,7-4c3.13-3.13,4-7.79,4.64-12.18a201.09,201.09,0,0,0,1.9-24.26c0-2.39,3.25-3.1,5.64-3.07l13.5.16a5.87,5.87,0,0,1,3.77.9c1.25,1,1.43,2.85,1.51,4.47q.68,13,1.34,26.05c.33,6.35,7.35,10.35,13.7,10.8s12.72-1.36,19-.74c7.54.75,14.27,4.84,21.3,7.66a66.08,66.08,0,0,0,26.3,4.71c-2.75-.36-3.31,4-1.73,6.33s4.19,4.36,3.82,7.11a45.28,45.28,0,0,0-20.14-13.07c-2.82-.88-6-1.46-8.63-.13s-4,5.31-1.83,7.32a113,113,0,0,1,20.18,25.09,123.49,123.49,0,0,1-25.12-30.67,17.75,17.75,0,0,0-19.8-7.87,3.9,3.9,0,0,0-2.13,1.26c-1,1.42-.06,3.36.89,4.81q5.52,8.39,11,16.78c3.69,5.62,7.45,11.3,12.47,15.76,3.55,3.15,7.68,5.63,11,9.06s5.69,8.22,4.63,12.84a32.32,32.32,0,0,0-9.64-13.82c-2.08-1.75-4.62-3.29-7.33-3.06s-5.26,3-4.31,5.57A21.66,21.66,0,0,1,206,261.3a112.24,112.24,0,0,0,.71-28.07c-.47-4.76-2.68-10.78-7.47-10.63-2.27.07-4.19,1.64-5.81,3.23a52.06,52.06,0,0,0-13.82,24,13.68,13.68,0,0,0-.42,6.65c1.62,6.53,11,9.47,11.27,16.19l-10.21-9.54c-1.19-1.11-2.52-2.29-4.15-2.38-3.28-.18-5,3.8-5.69,7q-2.62,11.63-5.26,23.25a69.71,69.71,0,0,1,13.69-46c.9-1.19-.44-3-1.93-3.14s-2.86.8-4.07,1.68L156.9,255.13c.32-3.18,3.25-5.35,5.86-7.19a157.09,157.09,0,0,0,25.8-22.79c2.37-2.61,4.77-5.62,4.75-9.14,0-2.53-1.29-4.87-2.76-6.93-2.75-3.88-6.53-7.37-11.21-8.28S169.15,202.38,168,207c-2,7.6,7.77,16.07,3.15,22.41-.65-6.15-3.16-14.07-9.34-14a8.4,8.4,0,0,0-5.21,2.2c-8.15,6.92-5.18,21.06-12.27,29.07q1-6.6,2.05-13.2a7.36,7.36,0,0,0-.12-4c-1.53-3.57-6.83-2.52-10.35-.87-5,2.33-10.43,5.2-12.09,10.43s1.28,11,5.24,14.81,8.92,6.53,12.91,10.35a30.86,30.86,0,0,1,9,26.59M145.71,302a1.19,1.19,0,0,0-1.15-1.63,2.94,2.94,0,0,0-.21,1.87.81.81,0,0,0,1.26-.29M29.45,212.15a1.4,1.4,0,0,0-1.53,1.26,1.49,1.49,0,0,0,1.23.23,1.73,1.73,0,0,0,.24-1.31m116.77,82.15c.46-.28,0-1.18-.48-1s0,1.18.5,1m-2-4.66c-.23.26.27.69.5.43S144.37,289.55,144.14,289.81Z"/><path class="cls-3" d="M57.77,66.58A16.27,16.27,0,0,0,47.3,54.74c-1.57-.53-.87-3.25.75-3.59s3.15.84,4.22,2.11c3.65,4.35,5,10.71,9.76,13.8a20.37,20.37,0,0,0,6.5,2.33l12,2.82a2,2,0,0,0,1.26,0c1.1-.48.52-2.11,0-3.18-2.3-4.42-1.1-9.75-1.35-14.72S76.9,43.48,72,44.11L76.32,40l7.44,12.49c1.08,1.8,2.57,3.83,4.66,3.71-2.54.18-4.56,2.49-5.09,5a12.53,12.53,0,0,0,1.15,7.42,27.41,27.41,0,0,0,5,7.65c3.45,3.75,10.13,6.2,13.19,2.12,1.49-2,1.44-4.84,3-6.77,1.76-2.18-.7-5.15-2.77-7s-3.67-5.75-1.16-7a6.37,6.37,0,0,1,4.46,7.09c-.37,2,3.09,1.76,4.55.35,8.66-8.31,8-24.25-1.27-31.84,1.55-1.32,4,.25,4.87,2.08s1.28,4.06,2.91,5.29c2.11,1.59,5.15.62,7.43-.71a29.2,29.2,0,0,0,9.19-8.47c.26,3.16-2.37,5.79-5,7.5s-5.74,3.15-7.34,5.89-.5,7.25,2.66,7.5c1.59.13,3-.84,4.54-1.31s3.64-.09,4,1.46a29.57,29.57,0,0,0-23.4,18.86,30.37,30.37,0,0,0,5.53,29.62c5.55,6.41,13.66,10.24,22,11.77s16.93.91,25.3-.44c7-1.14,14.44-3,19.28-8.29,3.3-3.57,5-8.29,6.64-12.87,1.51-4.26,3-8.75,2.27-13.2-.59-3.41-2.49-6.43-4.37-9.33-4.49-6.9-9.67-14.1-17.44-16.83a5.11,5.11,0,1,0,5.24-8.77,36,36,0,0,1-12.91-12.26l10.77,8.61a8.06,8.06,0,0,0,3.92,2.08c3.94.45,6.05-4.43,6.86-8.31,1.53,1.63,1.23,4.29.23,6.28S180,43,179.1,45c-2.34,5.34.48,11.55,4.09,16.13s8.18,8.67,10.06,14.2c1.28,3.79,6.53,4.9,10.13,3.14s5.81-5.43,7.62-9c1.42-2.8,2.74-5.83,2.46-9s-2.74-6.26-5.88-6.21c5.51-1.74,8.6-7.43,11.13-12.63q1.06-2.19,2.14-4.38c1.78,0,2.43,2.6,1.57,4.17s-2.51,2.5-3.71,3.82c-2.34,2.6-2.7,6.37-3,9.86q-.44,6.34-.88,12.7c-.11,1.64,1,4.06,2.34,3.14a35,35,0,0,1,21.38-5.88C229,67.91,220,72.62,211.11,77.3l-10.17,5.35a28.27,28.27,0,0,0-6.33,4.1c-3.46,3.25-5,8-6.48,12.49a5.86,5.86,0,0,0-.38,3.49c.81,2.63,4.42,2.79,7.14,2.42l19.73-2.65a17.66,17.66,0,0,0,6-1.55c3.6-1.94,5.36-6,6.85-9.85,1.83,1.63.27,4.55-1,6.67s-1.19,5.92,1.27,5.88a17.12,17.12,0,0,1,13.2,6.08A46.49,46.49,0,0,0,214.9,106c-2.77.42-6.29,2.72-4.86,5.12.63,1.06,2,1.41,2.89,2.25s.82,2.86-.41,2.8A15.78,15.78,0,0,0,200,108.8c-3.74-.17-7.39,1-10.92,2.27q-5.86,2.07-11.62,4.42c-4.17,1.7-8.42,3.61-11.44,7s-4.46,8.5-2.26,12.43c1.06,1.9-.24,4.42-2.16,5.45s-4.2,1-6.38.89L140,140.66c-.24-6.7-.81-14.16-5.75-18.7a23.93,23.93,0,0,0-7.87-4.3q-8.14-3.14-16.54-5.54c-3.65-1.05-7.48-2-11.22-1.33-5.74,1-10.11,5.57-14,9.87-1.25-1.13-.15-3.23,1.21-4.22s3.12-1.9,3.33-3.57c.27-2.21-2.36-3.55-4.54-4a34.42,34.42,0,0,0-22.84,3.38,9.5,9.5,0,0,1-10.4-1.13c6.27.49,12.32-2.14,18.05-4.72a4.8,4.8,0,0,0,2.31-1.67,4.38,4.38,0,0,0,0-3.41,23.31,23.31,0,0,0-9.3-12.6c2.82-1.27,6,1,7.57,3.72s2.3,5.85,4.41,8.11c2.9,3.1,7.55,3.65,11.79,4l17,1.4c2.85.24,6.73-.33,7-3.17a5.58,5.58,0,0,0-.86-3l-4.45-8.74a14.76,14.76,0,0,0-3.27-4.75c-3.48-3-9-2.22-12.73-4.82A73,73,0,0,0,55.48,69l2.29-2.44m94.85,71.08-1.38.7a2,2,0,0,0,3.17,0,1.77,1.77,0,0,0-1.84-.79Z"/><path class="cls-3" d="M87.39,25.34a13.49,13.49,0,0,1,10.23-.49c1.76.64,3.77,1.64,5.36.64.81-.51,1.77.38,2.32,1.16l2.91,4.16c-.67,1-2-.19-2.84-1-2.36-2.31-6.19-1.65-9.46-1.23S88.43,28.47,87.39,25.34Z"/><path class="cls-4" d="M152.54,104.17a5.59,5.59,0,0,1-3.38-.4,54,54,0,0,1-12.31-6.17,23.66,23.66,0,0,1-7.65-7.54c-1.79-3.13-2.38-7.13-.79-10.38a10,10,0,0,1,8.26-5.3A12.69,12.69,0,0,1,146,78c1.07,1,2.55-.63,3.32-1.89A11,11,0,1,1,167.72,88a80,80,0,0,1-13.1,14.88,5.8,5.8,0,0,1-2.08,1.34M143.74,98c.71.45,1.55-.92.83-1.35-.53-.34-.86.65-.72,1.27Z"/><path class="cls-3" d="M208.66,24.56a13.83,13.83,0,0,1-9.61,2.66c-1-.11-2.22-.61-2.19-1.61a2,2,0,0,1,.85-1.35,10.18,10.18,0,0,1,10.95-1.2,1,1,0,0,1,.55.52C209.32,24,209,24.32,208.66,24.56Z"/><path class="cls-3" d="M49.93,94.91a13.14,13.14,0,0,1,13.27-.62,2.34,2.34,0,0,1,1.39,1.53A21.17,21.17,0,0,1,49.93,94.91Z"/><path class="cls-3" d="M102.83,92.83c.34,1.21-.92,2.39-2.18,2.47a6.44,6.44,0,0,1-3.52-1.23l-6.31-3.74a10.75,10.75,0,0,1,10.91,1.14A2.86,2.86,0,0,1,102.83,92.83Z"/><path class="cls-3" d="M94.74,100.89a6.21,6.21,0,0,1-6.23-.43,13.64,13.64,0,0,1-4.29-4.87A9,9,0,0,1,94.74,100.89Z"/><path class="cls-3" d="M108.26,8.37a2,2,0,0,1,2,1.73,5.62,5.62,0,0,1-.49,2.84,7.76,7.76,0,0,1-1.67,3.11,2.72,2.72,0,0,1-3.25.57,3.44,3.44,0,0,1-.74-4,10,10,0,0,1,2.68-3.37A2.79,2.79,0,0,1,108.26,8.37Z"/><path class="cls-3" d="M109.65,51.82a20.23,20.23,0,0,1,.08-4.19c.09-.74.78-1.71,1.34-1.22,1.79,1.35,3.72,2.92,4.1,5.13s-2,4.77-4,3.66C110.1,54.55,109.76,53.11,109.65,51.82Z"/><path class="cls-3" d="M46.64,101.8a15.5,15.5,0,0,1,10,2.06,4.42,4.42,0,0,1,2.42,3A12.63,12.63,0,0,1,46.64,101.8Z"/><path class="cls-3" d="M163.47,0a6.49,6.49,0,0,1-.79,5.81,12.83,12.83,0,0,1-4.79,3.6A7.43,7.43,0,0,1,163.47,0Z"/><path class="cls-3" d="M44.76,69c-2.73,2.43-6.93,1.74-10.48.9-.55-.13-1.25-.49-1.09-1a12.28,12.28,0,0,1,11.2-1.72c.37.13.78.32.89.7A1.21,1.21,0,0,1,44.76,69Z"/><path class="cls-3" d="M144.66,18.2a1.61,1.61,0,0,1,1-.2.82.82,0,0,1,.6.63,15,15,0,0,1-2.43,5.24,5.13,5.13,0,0,1-5.14,1.94,4.86,4.86,0,0,1,1.39-4.87A14.26,14.26,0,0,1,144.66,18.2Z"/><path class="cls-3" d="M70.94,64.36c-1.59,1-3.82.39-5.17-.93a12.71,12.71,0,0,1-2.66-5c-.3-.83,1.14-1,2-.69a13.89,13.89,0,0,1,4.18,2.31A4.74,4.74,0,0,1,70.94,64.36Z"/><path class="cls-3" d="M81.63,23.85c.85.23,1,1.36.94,2.24-.09,1.9-.25,4-1.59,5.34s-4.24,1.07-4.55-.8a3.5,3.5,0,0,1,.5-2.08,14.34,14.34,0,0,1,3.06-4A1.87,1.87,0,0,1,81.63,23.85Z"/><path class="cls-3" d="M131.55,28.05a2.75,2.75,0,0,1-2.49-1.17,7.49,7.49,0,0,1-.91-8.15,9.31,9.31,0,0,1,4.1,4.45C133.15,24.87,133.41,27.64,131.55,28.05Z"/><path class="cls-3" d="M139.09,4.58a12,12,0,0,1,5.6.65c1.74.77,3.15,2.6,2.84,4.47C144,11.45,139.16,8.5,139.09,4.58Z"/><path class="cls-3" d="M105.86,43.28c.48,2.54-1,5.06-3,6.8-1.22,1.11-3.14,2-4.41,1A8.88,8.88,0,0,1,105.86,43.28Z"/><path class="cls-3" d="M106.66,35.37a.91.91,0,0,1,.4.64c0,.34-.34.56-.64.71a10.26,10.26,0,0,1-10.75-1.29A8.68,8.68,0,0,1,106.66,35.37Z"/><path class="cls-3" d="M214.05,23.37a2.47,2.47,0,0,1,.35-1.86c.67-.77,1.94-.42,2.81.12A5.56,5.56,0,0,1,220,25.27c.23,1.55-.84,3.33-2.4,3.42C215.19,28.84,214.22,25.73,214.05,23.37Z"/><path class="cls-3" d="M189.81,15.15a7.33,7.33,0,0,1-3.18-5.81c0-1,.39-2.3,1.42-2.44a2.16,2.16,0,0,1,1.62.69,7.82,7.82,0,0,1,2.55,6.78,1.64,1.64,0,0,1-.37,1C191.34,15.86,190.43,15.57,189.81,15.15Z"/><path class="cls-3" d="M111.08,82.15a1.93,1.93,0,0,1-.42-2.71,5.53,5.53,0,0,1,2.5-1.75l5.67-2.59a7.37,7.37,0,0,1-6.43,7.22A2.28,2.28,0,0,1,111.08,82.15Z"/><path class="cls-3" d="M93,70.92c-1.39.56-2.61-1.2-2.76-2.69a7.86,7.86,0,0,1,2.85-6.77,7.38,7.38,0,0,1,1,8.29A2.38,2.38,0,0,1,93,70.92Z"/><path class="cls-3" d="M65.65,50.16a6.6,6.6,0,0,1,9.55,3A7.2,7.2,0,0,1,65.65,50.16Z"/><path class="cls-3" d="M65.2,38.41a15.77,15.77,0,0,1-9.94-1.81,3.47,3.47,0,0,1-2-2.34A11.78,11.78,0,0,1,65.2,38.41Z"/><path class="cls-3" d="M178.17,28.67c-1.44-1.83-.85-4.5,0-6.67.36-.9,1.28-2,2.08-1.42.3,1.86,1.56,3.44,1.88,5.3s-1.19,4.24-2.95,3.58A2.4,2.4,0,0,1,178.17,28.67Z"/><path class="cls-3" d="M190.08,34.77a8.48,8.48,0,0,1,8.66-1.57c.68.27,1.39.74,1.46,1.46a10.29,10.29,0,0,1-7,2.27C191.82,36.86,190.14,36.17,190.08,34.77Z"/><path class="cls-3" d="M149.67,52.84a13.51,13.51,0,0,1-12.42-1.79A10.74,10.74,0,0,1,149.67,52.84Z"/><path class="cls-3" d="M82.42,41.33A6.69,6.69,0,0,1,85.86,36c.5-.3,1.17-.55,1.64-.21A1.52,1.52,0,0,1,88,37a10,10,0,0,1-.8,4.41c-.66,1.52-2.42,3-3.81,2.12A2.55,2.55,0,0,1,82.42,41.33Z"/><path class="cls-3" d="M166.65,26.92a1.55,1.55,0,0,1-2.31,0,3.27,3.27,0,0,1-.69-2.48,8,8,0,0,1,4.3-6.57A11,11,0,0,1,166.65,26.92Z"/><path class="cls-3" d="M114.44,24.58A4.2,4.2,0,0,1,116,22a2.1,2.1,0,0,1,1.2-.27c1,1.62,2.11,3.41,1.9,5.32s-2.48,3.6-4.08,2.54S113.91,26.3,114.44,24.58Z"/><path class="cls-3" d="M139.4,40.17a6.77,6.77,0,0,1-7.07,6.5c-.77-1.71.23-3.79,1.77-4.85A12.12,12.12,0,0,1,139.4,40.17Z"/><path class="cls-3" d="M120.18,89.15a33.74,33.74,0,0,1,.27,4.92c0,1.75-.69,4-2.43,4a4.07,4.07,0,0,1-1.78-4.41,12,12,0,0,1,2.34-4.49Z"/><path class="cls-3" d="M209.46,35.56c-.09-.7-.13-1.54.42-2s1.62-.11,2.32.35a6.88,6.88,0,0,1,2.87,3,2.85,2.85,0,0,1-1.18,3.64,2.9,2.9,0,0,1-3.36-1.3A8.36,8.36,0,0,1,209.46,35.56Z"/><path class="cls-3" d="M32.63,111.26a11.69,11.69,0,0,1,11.06-1.57c.69.27,1.48,1,1,1.62a1.31,1.31,0,0,1-1,.37l-10.34.61A1,1,0,0,1,32.63,111.26Z"/><path class="cls-3" d="M146.69,44.89a3.11,3.11,0,0,1-.26-1.85,13.92,13.92,0,0,1,10.65,1.13,1.52,1.52,0,0,1-1,1.87,4.35,4.35,0,0,1-2.32,0Z"/><path class="cls-3" d="M112.41,124.25c-1.29,0-1-2.09-.19-3.09,2.15-2.59,6.07-4.48,8.79-2.51a87.92,87.92,0,0,1-7.62,5.24A1.89,1.89,0,0,1,112.41,124.25Z"/><path class="cls-3" d="M53.61,78.6A12.38,12.38,0,0,1,58,74.46c2-1.16,4.84-1.62,6.55,0-.7,2-3.11,2.66-5.17,3.06Z"/><path class="cls-3" d="M77,78.4a37.34,37.34,0,0,1-9.13,6.27A6.39,6.39,0,0,1,77,78.4Z"/><path class="cls-3" d="M122.17,61l3.33-.09c1.06,0,2.55.41,2.33,1.45a10.48,10.48,0,0,1-7.56,2.34,2.21,2.21,0,0,1-1.42-.5,1.77,1.77,0,0,1,.47-2.56A5.13,5.13,0,0,1,122.17,61Z"/><path class="cls-3" d="M183.86,54.66c-1.38-.33-1.43-2.29-.94-3.62a12.59,12.59,0,0,1,3.6-5.15,6.81,6.81,0,0,1-.45,7.68A2.37,2.37,0,0,1,183.86,54.66Z"/><path class="cls-3" d="M156.27,38a7.6,7.6,0,0,1-5.13-3.76,1.67,1.67,0,0,1-.26-1.25c.25-.89,1.52-.91,2.41-.63a11.61,11.61,0,0,1,4.63,2.83,2.09,2.09,0,0,1,.8,1.9C158.45,38,157.21,38.22,156.27,38Z"/><path class="cls-3" d="M205.11,61.46a9.54,9.54,0,0,1-.59,9.24,8.94,8.94,0,0,1-.84-10.27c.62-.18,1.15.45,1.43,1Z"/><path class="cls-3" d="M242.4,32.34a8.13,8.13,0,0,1-8.76,2.9C234.44,31.63,239.6,29.92,242.4,32.34Z"/><path class="cls-3" d="M198,47.91a2,2,0,0,1-2.44,1.38,4.58,4.58,0,0,1-2.42-1.93,15,15,0,0,1-2.45-5.3,11.51,11.51,0,0,1,6.55,4A2.61,2.61,0,0,1,198,47.91Z"/><path class="cls-3" d="M168.06,62.24c-.73-.94.93-1.88,2.12-1.93,3.14-.14,6.91,0,8.5,2.76a20.75,20.75,0,0,1-9.75-.36A1.59,1.59,0,0,1,168.06,62.24Z"/><path class="cls-3" d="M206,100c-1.29.49-2.4-1.48-1.73-2.7s2.18-1.66,3.55-1.9,2.86-.46,3.81-1.48l.75,1.33A14.74,14.74,0,0,1,206,100Z"/><path class="cls-3" d="M222.24,50.4a9,9,0,0,1,9.31-3A6.68,6.68,0,0,1,222.24,50.4Z"/><path class="cls-3" d="M231.9,55.31c.57-.22,1.17.41,1.18,1a3,3,0,0,1-.73,1.65c-1.66,2.3-3.85,4.86-6.68,4.64A10.1,10.1,0,0,1,231.9,55.31Z"/><path class="cls-3" d="M78.7,132.69c-.17.66-1.21.67-1.64.15a2.79,2.79,0,0,1-.41-2,13.21,13.21,0,0,1,.79-4.89,4.51,4.51,0,0,1,3.73-2.89Z"/><path class="cls-3" d="M76.59,92.52c-1.42-1.23-.48-3.62.91-4.88a9.66,9.66,0,0,1,3.88-2.16,3,3,0,0,1,.12,3.25A6.85,6.85,0,0,1,76.59,92.52Z"/><path class="cls-3" d="M92.3,119.51q1.83,4,3.65,7.9c.25.55.35,1.43-.24,1.53a7.91,7.91,0,0,1-4.41-9.69C91.39,118.69,92.49,119,92.3,119.51Z"/><path class="cls-3" d="M190.84,65.55a7,7,0,0,1,4.22-7.92A6.49,6.49,0,0,1,190.84,65.55Z"/><path class="cls-3" d="M53.14,121.73,50,126.41c-.67,1-1.87,2.15-2.9,1.5a9.49,9.49,0,0,1,5.09-8.23,1.28,1.28,0,0,1,.82-.19C53.92,119.66,53.64,121,53.14,121.73Z"/><path class="cls-3" d="M261.71,66.26a10.48,10.48,0,0,1-8.64.9c-.9-.3-1.88-.94-1.86-1.88A14.58,14.58,0,0,1,261.71,66.26Z"/><path class="cls-3" d="M245.77,91.57a14.13,14.13,0,0,1-8.83,1.89,3.58,3.58,0,0,1-2.26-.89A11.85,11.85,0,0,1,245.77,91.57Z"/><path class="cls-3" d="M71.07,121.59c-2.12.26-3.16-2.69-2.57-4.74a8.05,8.05,0,0,1,3.32-4.48C73.65,115,69.82,118.65,71.07,121.59Z"/><path class="cls-3" d="M40.06,84.35c-.35,0-.7,0-1-.1s-.76-.39-.53-.64a8,8,0,0,1,11,1.31Z"/><path class="cls-3" d="M189.63,122.88a8,8,0,0,1-9.49-4.46A15.6,15.6,0,0,1,189.63,122.88Z"/><path class="cls-3" d="M232.06,72.84a9.21,9.21,0,0,1,9.13,1.53c.23.2.43.63.15.76A9,9,0,0,1,232.06,72.84Z"/><path class="cls-3" d="M178.8,95a3.17,3.17,0,0,1-.49-2.07l0-2.78c0-.79.26-1.85,1.05-1.82.42,0,.73.37,1,.69,1,1.27,2.1,2.72,1.93,4.34S179.85,96.26,178.8,95Z"/><path class="cls-3" d="M221.09,76.45c.49-.65,1.51-.34,2.21.07a18.28,18.28,0,0,1,5.55,5,9.48,9.48,0,0,1-7.29-3.13C221.08,77.87,220.65,77,221.09,76.45Z"/><path class="cls-3" d="M226,110.72c.72-.63,1.76.26,2.21,1.09a13.85,13.85,0,0,1,1.61,5.87,2.13,2.13,0,0,1-1.66.15,11.48,11.48,0,0,1-2.47-5.66A1.6,1.6,0,0,1,226,110.72Z"/><path class="cls-3" d="M215.09,85.3c.37-1.35,2.46-.73,3.41.3a12,12,0,0,1,2.6,4.61,6.6,6.6,0,0,1-5.78-3.64A1.89,1.89,0,0,1,215.09,85.3Z"/><path class="cls-3" d="M250.39,123.91a6.34,6.34,0,0,1-5.28-7.21A9.84,9.84,0,0,1,250.39,123.91Z"/><path class="cls-3" d="M250.26,49.62a9.62,9.62,0,0,1-7.13,4.59A5.6,5.6,0,0,1,250.26,49.62Z"/><path class="cls-3" d="M253.14,80.18c1.4-.19,3.05-.31,4,.72C255.63,83,252.6,83,250,82.78a1.72,1.72,0,0,1-1-.31c-.73-.65.17-1.88,1.13-2.07s2,0,2.87-.47Z"/><path class="cls-3" d="M206.31,123a4,4,0,0,1-.8,2.19,1.35,1.35,0,0,1-2,0,1.74,1.74,0,0,1-.08-1.31,8.76,8.76,0,0,1,4.13-5.59,3.43,3.43,0,0,1-1.07,4.47Z"/><path class="cls-3" d="M198.93,90.87a6.82,6.82,0,0,1,4.64-1,7.12,7.12,0,0,1-8.25,3.25,3.83,3.83,0,0,1,3.54-2.4Z"/><path class="cls-3" d="M245.86,102.14a4,4,0,0,1-5,1,19.66,19.66,0,0,1,6.37-4.25,1.55,1.55,0,0,1,1.11-.15c.8.31.54,1.59-.15,2.11s-1.62.7-2.19,1.34Z"/><path class="cls-3" d="M179.27,76a1.69,1.69,0,0,1-.66-.61.9.9,0,0,1,0-.72,7.3,7.3,0,0,1,8.13,3.88A17.8,17.8,0,0,1,179.27,76Z"/><path class="cls-3" d="M218.21,122.33c0-.7.18-1.57.86-1.71s1.29.79,1.52,1.56l1.5,5a2.36,2.36,0,0,1-1.89.21A8.44,8.44,0,0,1,218.21,122.33Z"/><path class="cls-3" d="M262.79,106.82a7.54,7.54,0,0,1-7.09,1.49c-.68-.21-1.45-.75-1.28-1.43A14.06,14.06,0,0,1,262.79,106.82Z"/><path class="cls-3" d="M164.12,49a3.53,3.53,0,0,1-3.79-2.66,1.88,1.88,0,0,1,1.28-.77,9.08,9.08,0,0,1,2.45,2.89Z"/><path class="cls-3" d="M190.35,28.49c-.7.39-.84-1-.38-1.68a5,5,0,0,1,2.49-2.19c1.09-.3,2.5.53,2.32,1.65l-4.41,2.29Z"/><path class="cls-3" d="M154.37,16.06a2.49,2.49,0,0,1-.44-2.19A1.55,1.55,0,0,1,156.17,15a1.55,1.55,0,0,1-1.95,1.56Z"/><path class="cls-3" d="M155.48,20.16l1.36-.19a4.53,4.53,0,0,1,0,3.3,2.06,2.06,0,0,1-1.15-2.91Z"/><path class="cls-3" d="M58.4,88.1a1.77,1.77,0,0,1-3-.83,1.84,1.84,0,0,1,3,.82Z"/><path class="cls-3" d="M159.52,28.46a1.49,1.49,0,0,1-.62-2.07,1.61,1.61,0,0,1,.66,2.16Z"/><path class="cls-3" d="M118.25,210.73c.2.51-.71,1-1,.5s.6-.87,1-.47Z"/><path class="cls-3" d="M242.54,132.81c.22-.32.79.21.51.48s-.81-.21-.61-.54Z"/><path class="cls-3" d="M238.68,133.59c0,.37.7.38.7,0S238.69,133.22,238.68,133.59Z"/></g></g></g></svg>