<svg xmlns="http://www.w3.org/2000/svg" viewBox="0 0 161.32 29.18"><defs><style>.cls-1{fill:#f20746;}.cls-2{fill:#5b92d9;}.cls-3{fill:#f8f2dd;}.cls-4{fill:#a7bf4e;}</style></defs><title>DawnM-resume-brand</title><g id="Layer_2" data-name="Layer 2"><g id="email"><path class="cls-1" d="M10.36,5.85a6.43,6.43,0,0,1-.45,2.51,4.82,4.82,0,0,1-1.27,1.78,5.35,5.35,0,0,1-2,1A9.16,9.16,0,0,1,4,11.54c-.45,0-1,0-1.57,0a14.87,14.87,0,0,1-1.76-.23V.46A14.76,14.76,0,0,1,2.44.24C3.07.2,3.6.18,4.05.18A9.93,9.93,0,0,1,6.64.5a5.43,5.43,0,0,1,2,1A4.58,4.58,0,0,1,9.91,3.27,6.69,6.69,0,0,1,10.36,5.85ZM3.14,9.37l.41,0H4.1a3.7,3.7,0,0,0,2.78-.94,3.63,3.63,0,0,0,.9-2.61,3.7,3.7,0,0,0-.86-2.64,3.66,3.66,0,0,0-2.74-.9H3.65l-.51,0Z"/><path class="cls-1" d="M15.3,2.76A5.54,5.54,0,0,1,17.06,3a2.77,2.77,0,0,1,1.13.69,2.58,2.58,0,0,1,.6,1.09A5.64,5.64,0,0,1,19,6.2v5c-.34.07-.81.16-1.42.26a12.67,12.67,0,0,1-2.21.16,6.74,6.74,0,0,1-1.48-.15A3.08,3.08,0,0,1,12.71,11,2.13,2.13,0,0,1,12,10.1a2.93,2.93,0,0,1-.26-1.29A2.44,2.44,0,0,1,12,7.56a2.39,2.39,0,0,1,.79-.82,3.61,3.61,0,0,1,1.14-.44,6.45,6.45,0,0,1,1.33-.13,6.71,6.71,0,0,1,.82,0,3.11,3.11,0,0,1,.58.1V6.09a1.35,1.35,0,0,0-.36-1A1.81,1.81,0,0,0,15,4.74a7.88,7.88,0,0,0-1.2.09,5,5,0,0,0-1,.25l-.3-1.92L13,3c.21,0,.43-.09.68-.12l.78-.1A7.38,7.38,0,0,1,15.3,2.76Zm.19,7,.67,0a4.35,4.35,0,0,0,.51-.05V7.86l-.43-.06-.53,0a4.26,4.26,0,0,0-.63,0,1.66,1.66,0,0,0-.52.15.93.93,0,0,0-.35.3.9.9,0,0,0-.13.48.82.82,0,0,0,.38.78A2.1,2.1,0,0,0,15.49,9.74Z"/><path class="cls-1" d="M26.09,6.57c-.21.81-.44,1.61-.68,2.41s-.49,1.61-.76,2.42H22.79c-.19-.45-.4-1-.62-1.6s-.46-1.29-.7-2S21,6.27,20.73,5.46,20.24,3.82,20,3h2.51c.09.39.18.81.29,1.26s.21.92.32,1.4.23,1,.35,1.45.25.95.38,1.4c.14-.47.27-1,.41-1.44s.26-1,.38-1.45.24-.93.36-1.38.21-.85.29-1.24H27c.08.39.18.8.29,1.24s.22.91.33,1.38.24,1,.37,1.45.26,1,.4,1.44c.13-.45.26-.92.39-1.4s.25-1,.36-1.45.22-.95.32-1.4.2-.87.28-1.26h2.48c-.23.84-.48,1.66-.73,2.48s-.5,1.59-.74,2.32-.47,1.4-.7,2-.44,1.15-.64,1.6H27.58c-.27-.81-.53-1.62-.79-2.42S26.3,7.38,26.09,6.57Z"/><path class="cls-1" d="M33.51,3.27a14.34,14.34,0,0,1,1.57-.33,13,13,0,0,1,2-.15,5.09,5.09,0,0,1,1.79.28A2.67,2.67,0,0,1,40,3.86a3.17,3.17,0,0,1,.6,1.22,6.87,6.87,0,0,1,.17,1.57V11.4H38.39V6.94a3.16,3.16,0,0,0-.31-1.64A1.23,1.23,0,0,0,37,4.82l-.55,0-.51.05v6.5H33.51Z"/><path class="cls-2" d="M46,.31c.19.35.41.79.66,1.31s.51,1.07.79,1.68.54,1.21.81,1.84.52,1.23.75,1.78c.24-.55.49-1.15.76-1.78s.53-1.24.81-1.84.53-1.17.78-1.68.48-1,.67-1.31h2.27c.11.74.2,1.56.3,2.47s.17,1.87.24,2.85.13,2,.19,3,.11,1.93.15,2.8H52.79c0-1.08-.08-2.25-.13-3.52S52.53,5.33,52.42,4c-.19.45-.41.94-.64,1.49s-.47,1.09-.7,1.63-.45,1.06-.67,1.56L49.87,10H48.12l-.54-1.27c-.22-.5-.44-1-.67-1.56s-.46-1.09-.7-1.63-.45-1-.64-1.49Q45.41,6,45.33,7.88c0,1.27-.09,2.44-.13,3.52H42.77c0-.87.1-1.81.15-2.8s.13-2,.2-3,.14-1.93.24-2.85.18-1.73.29-2.47Z"/><path class="cls-3" d="M61.77,15V0h1V15Z"/><path class="cls-3" d="M66.69,6.4l.09-.35.8-.2,1.25-5L68.12.64l.09-.36h2.12a2.34,2.34,0,0,1,1.34.35,1.2,1.2,0,0,1,.5,1,1.76,1.76,0,0,1-.5,1.3,2,2,0,0,1-1.24.59l.25.82a4.45,4.45,0,0,0,.48,1.16,1.49,1.49,0,0,0,.84.58l-.1.36A1.82,1.82,0,0,1,70.63,6a3.29,3.29,0,0,1-.7-1.31l-.31-1H69l-.54,2.16.72.2-.09.35Zm2.4-3.2h.51a1.8,1.8,0,0,0,1.2-.41,1.36,1.36,0,0,0,.49-1.12A.79.79,0,0,0,71,1a1.25,1.25,0,0,0-.8-.23h-.52Z"/><path class="cls-3" d="M72.58,5a3.17,3.17,0,0,1,.12-.85A3.17,3.17,0,0,1,73,3.33a3.41,3.41,0,0,1,.55-.69,2.63,2.63,0,0,1,.75-.49A2.46,2.46,0,0,1,75.28,2a1.37,1.37,0,0,1,.79.22.77.77,0,0,1,.3.66,1,1,0,0,1-.19.59,2,2,0,0,1-.46.45,3.69,3.69,0,0,1-.69.34c-.28.1-.53.19-.76.25l-.8.18a1.63,1.63,0,0,0,0,.24q0,1.14,1,1.14a3,3,0,0,0,1.07-.24l.09.27a3.61,3.61,0,0,1-1.61.4A1.29,1.29,0,0,1,72.58,5Zm.93-.67c1.34-.48,2-1,2-1.56,0-.31-.13-.47-.41-.47a1.27,1.27,0,0,0-1,.61A3.3,3.3,0,0,0,73.51,4.32Z"/><path class="cls-3" d="M76.41,5.71a.59.59,0,0,1,0-.23.73.73,0,0,1,.17-.19,1,1,0,0,1,.2-.15L77.08,5a2.77,2.77,0,0,0,.42.81.85.85,0,0,0,.69.29.72.72,0,0,0,.48-.17.58.58,0,0,0,.19-.45A.75.75,0,0,0,78.7,5a4.57,4.57,0,0,0-.89-.75,1.51,1.51,0,0,1-.4-.46,1.28,1.28,0,0,1-.16-.65,1,1,0,0,1,.42-.86A1.87,1.87,0,0,1,78.82,2a2.35,2.35,0,0,1,1,.18.57.57,0,0,1,.38.5c0,.25-.23.45-.7.6-.19-.6-.49-.89-.9-.89a.63.63,0,0,0-.44.14.49.49,0,0,0-.18.4.65.65,0,0,0,.12.37,1.31,1.31,0,0,0,.26.3l.4.31a1.71,1.71,0,0,1,.86,1.34,1.1,1.1,0,0,1-.44.91,2,2,0,0,1-1.24.34,2.47,2.47,0,0,1-1.13-.21A.63.63,0,0,1,76.41,5.71Z"/><path class="cls-3" d="M80.78,2.64V2.36l1-.3A2.11,2.11,0,0,1,82.22,2c.2,0,.31.09.31.26a1.68,1.68,0,0,1-.06.31c0,.15-.09.33-.15.55s-.12.44-.2.68l-.19.7c-.06.22-.1.41-.15.58a2,2,0,0,0-.06.36c0,.27.11.41.33.41a.93.93,0,0,0,.38-.11,2.17,2.17,0,0,0,.43-.29A4.32,4.32,0,0,0,83.3,5a2.8,2.8,0,0,0,.37-.48L84.3,2,85.11,2l-1,3.83H85v.28c-.44.14-.77.23-1,.29a1.76,1.76,0,0,1-.45.1c-.21,0-.31-.09-.31-.27a.92.92,0,0,1,.06-.35l.14-.55a2.35,2.35,0,0,1-1.76,1.17c-.54,0-.81-.29-.81-.86a4.16,4.16,0,0,1,.22-1.16l.52-1.81Z"/><path class="cls-3" d="M85.93,6.47l1-3.83H86V2.36l1-.3A2.28,2.28,0,0,1,87.46,2c.2,0,.31.09.31.26a1,1,0,0,1,0,.16,1.94,1.94,0,0,1,0,.2L87.59,3A2.09,2.09,0,0,1,89.23,2c.54,0,.82.29.82.88a.23.23,0,0,1,0,.07.76.76,0,0,1,0,.14A2.15,2.15,0,0,1,91.68,2c.55,0,.82.29.82.88a15.45,15.45,0,0,1-.75,2.95h.88v.28c-.43.14-.76.23-1,.29a1.75,1.75,0,0,1-.48.1q-.3,0-.3-.27a1.22,1.22,0,0,1,.06-.35A21.49,21.49,0,0,0,91.67,3c0-.27-.1-.4-.31-.4a.72.72,0,0,0-.35.1,2,2,0,0,0-.4.27,2.83,2.83,0,0,0-.4.38c-.12.15-.24.3-.35.46L89.17,6.4l-.83.07L89,4a5.25,5.25,0,0,0,.21-1c0-.27-.11-.4-.32-.4a.75.75,0,0,0-.35.1,2.3,2.3,0,0,0-.41.28,3.08,3.08,0,0,0-.41.4,5.46,5.46,0,0,0-.36.48L86.73,6.4Z"/><path class="cls-3" d="M93.42,5a3.17,3.17,0,0,1,.12-.85,3.17,3.17,0,0,1,.34-.81,3.41,3.41,0,0,1,.55-.69,2.63,2.63,0,0,1,.75-.49A2.42,2.42,0,0,1,96.12,2a1.37,1.37,0,0,1,.79.22.77.77,0,0,1,.3.66,1,1,0,0,1-.19.59,2,2,0,0,1-.46.45,3.69,3.69,0,0,1-.69.34c-.28.1-.53.19-.76.25l-.8.18a1.63,1.63,0,0,0,0,.24q0,1.14,1,1.14a3,3,0,0,0,1.07-.24l.09.27a3.61,3.61,0,0,1-1.61.4C93.89,6.47,93.42,6,93.42,5Zm.93-.67c1.33-.48,2-1,2-1.56,0-.31-.14-.47-.41-.47a1.27,1.27,0,0,0-1,.61A3.3,3.3,0,0,0,94.35,4.32Z"/><path class="cls-4" d="M1.2,23.69l4.12,1.7-.3.9L0,24.15v-.92L5,21.1l.3.9Z"/><path class="cls-4" d="M18.34,23a5.56,5.56,0,0,1-.28,1.9,3.39,3.39,0,0,1-.76,1.27,2.87,2.87,0,0,1-1.16.7,4.54,4.54,0,0,1-1.45.22,6.89,6.89,0,0,1-1.62-.19v-7.8a6.89,6.89,0,0,1,1.62-.19,4.54,4.54,0,0,1,1.45.22,2.79,2.79,0,0,1,1.16.71,3.39,3.39,0,0,1,.76,1.27A5.54,5.54,0,0,1,18.34,23ZM14.13,26.1a4.87,4.87,0,0,0,.66,0,3,3,0,0,0,1-.17,1.87,1.87,0,0,0,.77-.56,2.69,2.69,0,0,0,.48-1A5.55,5.55,0,0,0,17.25,23a3.8,3.8,0,0,0-.63-2.41,2.27,2.27,0,0,0-1.87-.76h-.33l-.29,0Z"/><path class="cls-4" d="M22.23,20.83a2.39,2.39,0,0,1,1.89.76,3.41,3.41,0,0,1,.66,2.3v.38H20.46a2,2,0,0,0,.62,1.42,2.25,2.25,0,0,0,1.55.49,4.61,4.61,0,0,0,1-.09,3.45,3.45,0,0,0,.61-.19l.14.91a3.92,3.92,0,0,1-.7.22,5.65,5.65,0,0,1-1.14.11,3.7,3.7,0,0,1-1.38-.24,2.85,2.85,0,0,1-1-.65,2.69,2.69,0,0,1-.58-1,3.85,3.85,0,0,1-.2-1.25,3.78,3.78,0,0,1,.25-1.41,2.89,2.89,0,0,1,.65-1,2.82,2.82,0,0,1,.91-.58A2.9,2.9,0,0,1,22.23,20.83Zm1.46,2.57a1.76,1.76,0,0,0-.41-1.22,1.35,1.35,0,0,0-1.06-.45,1.51,1.51,0,0,0-.68.15,1.68,1.68,0,0,0-.53.37,1.73,1.73,0,0,0-.35.54,1.92,1.92,0,0,0-.17.61Z"/><path class="cls-4" d="M31.47,21c-.15.56-.33,1.11-.53,1.66s-.4,1.07-.61,1.58-.42,1-.64,1.48-.42.9-.62,1.31h-1c-.4-.81-.82-1.74-1.23-2.78A32.65,32.65,0,0,1,25.75,21h1.17c.11.38.23.78.36,1.21l.42,1.27q.23.64.45,1.23c.15.39.3.75.45,1.06.15-.31.3-.67.46-1.06s.32-.8.48-1.23.3-.85.44-1.27.27-.83.38-1.21Z"/><path class="cls-4" d="M35.23,20.83a2.39,2.39,0,0,1,1.89.76,3.41,3.41,0,0,1,.66,2.3v.38H33.46a2,2,0,0,0,.62,1.42,2.25,2.25,0,0,0,1.55.49,4.61,4.61,0,0,0,1-.09,3.45,3.45,0,0,0,.61-.19l.14.91a3.92,3.92,0,0,1-.7.22,5.65,5.65,0,0,1-1.14.11,3.7,3.7,0,0,1-1.38-.24,2.85,2.85,0,0,1-1-.65,2.69,2.69,0,0,1-.58-1,3.85,3.85,0,0,1-.2-1.25,3.78,3.78,0,0,1,.25-1.41,2.89,2.89,0,0,1,.65-1,2.82,2.82,0,0,1,.91-.58A2.9,2.9,0,0,1,35.23,20.83Zm1.46,2.57a1.76,1.76,0,0,0-.41-1.22,1.35,1.35,0,0,0-1.06-.45,1.51,1.51,0,0,0-.68.15,1.68,1.68,0,0,0-.53.37,1.73,1.73,0,0,0-.35.54,1.92,1.92,0,0,0-.17.61Z"/><path class="cls-4" d="M42.76,27.14a2.59,2.59,0,0,1-.95-.15,1.41,1.41,0,0,1-.6-.47,2,2,0,0,1-.31-.77,5.74,5.74,0,0,1-.09-1.08V19H39.07v-.91h2.8v6.61a3.67,3.67,0,0,0,.06.74,1.36,1.36,0,0,0,.18.47.79.79,0,0,0,.31.24,1.35,1.35,0,0,0,.43.06,2.63,2.63,0,0,0,.7-.09,2.79,2.79,0,0,0,.51-.19l.15.91L44,26.9a1.94,1.94,0,0,1-.34.11,2.59,2.59,0,0,1-.42.09A2.42,2.42,0,0,1,42.76,27.14Z"/><path class="cls-4" d="M50.84,24a3.82,3.82,0,0,1-.2,1.3,3,3,0,0,1-.56,1,2.76,2.76,0,0,1-.87.65,2.72,2.72,0,0,1-1.11.22A2.66,2.66,0,0,1,47,26.92a2.61,2.61,0,0,1-.86-.65,3.21,3.21,0,0,1-.57-1,4.08,4.08,0,0,1-.2-1.3,4.12,4.12,0,0,1,.2-1.3,3,3,0,0,1,.57-1,2.58,2.58,0,0,1,.86-.64,2.66,2.66,0,0,1,1.09-.22,2.54,2.54,0,0,1,2,.86,2.81,2.81,0,0,1,.56,1A3.85,3.85,0,0,1,50.84,24Zm-1.1,0a2.65,2.65,0,0,0-.44-1.61,1.43,1.43,0,0,0-1.2-.6,1.39,1.39,0,0,0-1.18.6A2.65,2.65,0,0,0,46.49,24a2.65,2.65,0,0,0,.43,1.61,1.41,1.41,0,0,0,1.18.59,1.44,1.44,0,0,0,1.2-.59A2.65,2.65,0,0,0,49.74,24Z"/><path class="cls-4" d="M57.34,24a4.18,4.18,0,0,1-.17,1.26,3,3,0,0,1-.51,1,2.33,2.33,0,0,1-.81.65,2.56,2.56,0,0,1-1.09.23,3.08,3.08,0,0,1-.85-.11,1.94,1.94,0,0,1-.54-.26v2.38H52.29v-8a8.85,8.85,0,0,1,.9-.21,6.89,6.89,0,0,1,1.27-.1,3,3,0,0,1,1.18.22,2.56,2.56,0,0,1,.91.63,2.87,2.87,0,0,1,.59,1A4.16,4.16,0,0,1,57.34,24Zm-1.1,0a2.41,2.41,0,0,0-.5-1.63,1.57,1.57,0,0,0-1.28-.58,4.31,4.31,0,0,0-.7,0,1.41,1.41,0,0,0-.39.09v3.81a1.8,1.8,0,0,0,.53.31,2,2,0,0,0,.73.14,1.51,1.51,0,0,0,.73-.17,1.38,1.38,0,0,0,.5-.46,2,2,0,0,0,.29-.69A3.85,3.85,0,0,0,56.24,24Z"/><path class="cls-4" d="M61.23,20.83a2.39,2.39,0,0,1,1.89.76,3.41,3.41,0,0,1,.66,2.3v.38H59.46a2,2,0,0,0,.62,1.42,2.25,2.25,0,0,0,1.55.49,4.61,4.61,0,0,0,1-.09,3.45,3.45,0,0,0,.61-.19l.14.91a3.92,3.92,0,0,1-.7.22,5.65,5.65,0,0,1-1.14.11,3.7,3.7,0,0,1-1.38-.24,2.85,2.85,0,0,1-1-.65,2.69,2.69,0,0,1-.58-1,3.85,3.85,0,0,1-.2-1.25,3.78,3.78,0,0,1,.25-1.41,2.89,2.89,0,0,1,.65-1,2.82,2.82,0,0,1,.91-.58A2.9,2.9,0,0,1,61.23,20.83Zm1.46,2.57a1.76,1.76,0,0,0-.41-1.22,1.35,1.35,0,0,0-1.06-.45,1.51,1.51,0,0,0-.68.15,1.68,1.68,0,0,0-.53.37,1.73,1.73,0,0,0-.35.54,1.92,1.92,0,0,0-.17.61Z"/><path class="cls-4" d="M65.75,27V21.29a8.33,8.33,0,0,1,2.68-.45c.28,0,.54,0,.8,0a6,6,0,0,1,.83.14l-.2.95a4.12,4.12,0,0,0-.73-.15c-.21,0-.45,0-.7,0a6.08,6.08,0,0,0-1.61.23v5Z"/><path class="cls-4" d="M78,23.13h2.19v-2.4h.93v2.4h2.2V24h-2.2v2.4h-.93V24H78Z"/><path class="cls-4" d="M96.34,23a5.56,5.56,0,0,1-.28,1.9,3.39,3.39,0,0,1-.76,1.27,2.87,2.87,0,0,1-1.16.7,4.54,4.54,0,0,1-1.45.22,6.89,6.89,0,0,1-1.62-.19v-7.8a6.89,6.89,0,0,1,1.62-.19,4.54,4.54,0,0,1,1.45.22,2.79,2.79,0,0,1,1.16.71,3.39,3.39,0,0,1,.76,1.27A5.54,5.54,0,0,1,96.34,23ZM92.13,26.1a4.87,4.87,0,0,0,.66,0,3,3,0,0,0,1-.17,1.87,1.87,0,0,0,.77-.56,2.69,2.69,0,0,0,.48-1A5.55,5.55,0,0,0,95.25,23a3.8,3.8,0,0,0-.63-2.41,2.27,2.27,0,0,0-1.87-.76h-.33l-.29,0Z"/><path class="cls-4" d="M100.23,20.83a2.39,2.39,0,0,1,1.89.76,3.41,3.41,0,0,1,.66,2.3v.38H98.46a2,2,0,0,0,.62,1.42,2.25,2.25,0,0,0,1.55.49,4.61,4.61,0,0,0,1-.09,3.45,3.45,0,0,0,.61-.19l.14.91a3.92,3.92,0,0,1-.7.22,5.65,5.65,0,0,1-1.14.11,3.7,3.7,0,0,1-1.38-.24,2.85,2.85,0,0,1-1-.65,2.69,2.69,0,0,1-.58-1,3.85,3.85,0,0,1-.2-1.25,3.78,3.78,0,0,1,.25-1.41,2.89,2.89,0,0,1,.65-1,2.82,2.82,0,0,1,.91-.58A2.9,2.9,0,0,1,100.23,20.83Zm1.46,2.57a1.76,1.76,0,0,0-.41-1.22,1.35,1.35,0,0,0-1.06-.45,1.51,1.51,0,0,0-.68.15,1.68,1.68,0,0,0-.53.37,1.73,1.73,0,0,0-.35.54,1.92,1.92,0,0,0-.17.61Z"/><path class="cls-4" d="M107.93,25.49a.65.65,0,0,0-.27-.53,2.57,2.57,0,0,0-.66-.36c-.27-.11-.56-.21-.87-.31a4.46,4.46,0,0,1-.86-.37,2.27,2.27,0,0,1-.67-.55,1.32,1.32,0,0,1-.26-.84,1.53,1.53,0,0,1,.59-1.22,2.91,2.91,0,0,1,1.85-.48,7.19,7.19,0,0,1,1,.07,5.85,5.85,0,0,1,.91.18l-.2,1a1.63,1.63,0,0,0-.28-.11l-.42-.11-.5-.07-.52,0c-.93,0-1.4.26-1.4.77a.54.54,0,0,0,.27.46,3,3,0,0,0,.67.35l.87.32a4.9,4.9,0,0,1,.87.39,2.5,2.5,0,0,1,.67.57,1.28,1.28,0,0,1,.26.84,1.45,1.45,0,0,1-.63,1.26,3.57,3.57,0,0,1-2,.45,5.83,5.83,0,0,1-1.14-.1,4.57,4.57,0,0,1-1-.31l.21-1a6,6,0,0,0,.95.35,4.21,4.21,0,0,0,1.08.13C107.44,26.23,107.93,26,107.93,25.49Z"/><path class="cls-4" d="M112.31,21.87h-1.74V21h2.8v3.7a2.11,2.11,0,0,0,.25,1.21.91.91,0,0,0,.74.3,2.63,2.63,0,0,0,.7-.09,3,3,0,0,0,.5-.19l.15.91-.22.09a1.82,1.82,0,0,1-.33.11,2.26,2.26,0,0,1-.41.09,3,3,0,0,1-1.43-.11,1.41,1.41,0,0,1-.6-.47,2,2,0,0,1-.32-.77,5.74,5.74,0,0,1-.09-1.08Zm.27-1.84a.82.82,0,0,1-.58-.23.94.94,0,0,1,0-1.28.82.82,0,0,1,.58-.23.84.84,0,0,1,.59.23,1,1,0,0,1,0,1.28A.84.84,0,0,1,112.58,20Z"/><path class="cls-4" d="M120.86,26.44a3.09,3.09,0,0,1-.56.22,2.86,2.86,0,0,1-.87.12,2.68,2.68,0,0,1-1-.18,2.08,2.08,0,0,1-.81-.53,2.63,2.63,0,0,1-.55-.91,4.17,4.17,0,0,1,0-2.52,2.84,2.84,0,0,1,.55-1,2.45,2.45,0,0,1,.88-.63,2.92,2.92,0,0,1,1.18-.22,6.42,6.42,0,0,1,1.33.11q.55.11.93.21v5.38a2.59,2.59,0,0,1-.71,2,3.13,3.13,0,0,1-2.14.62,5.74,5.74,0,0,1-1.06-.09,5.23,5.23,0,0,1-.83-.22l.19-.95a3.87,3.87,0,0,0,.77.24,4.75,4.75,0,0,0,1,.09,2,2,0,0,0,1.34-.38,1.6,1.6,0,0,0,.4-1.22Zm0-4.52a2.3,2.3,0,0,0-.43-.1,4.67,4.67,0,0,0-.74-.05,1.49,1.49,0,0,0-1.27.58,2.43,2.43,0,0,0-.43,1.52,3,3,0,0,0,.12.89,1.79,1.79,0,0,0,.34.61,1.2,1.2,0,0,0,.49.35,1.58,1.58,0,0,0,.58.11,2.37,2.37,0,0,0,.76-.12,2.42,2.42,0,0,0,.58-.27Z"/><path class="cls-4" d="M123.79,21.14a9.47,9.47,0,0,1,1.16-.22,7,7,0,0,1,1.09-.08,2.48,2.48,0,0,1,1.82.62,2.78,2.78,0,0,1,.62,2V27h-1.07V23.66a3.54,3.54,0,0,0-.1-.95,1.52,1.52,0,0,0-.29-.57,1,1,0,0,0-.46-.27,1.81,1.81,0,0,0-.58-.08l-.55,0-.56.08V27h-1.08Z"/><path class="cls-4" d="M132.73,20.83a2.39,2.39,0,0,1,1.89.76,3.41,3.41,0,0,1,.66,2.3v.38H131a2,2,0,0,0,.62,1.42,2.25,2.25,0,0,0,1.55.49,4.61,4.61,0,0,0,1-.09,3.45,3.45,0,0,0,.61-.19l.14.91a3.92,3.92,0,0,1-.7.22,5.65,5.65,0,0,1-1.14.11,3.7,3.7,0,0,1-1.38-.24,2.85,2.85,0,0,1-1-.65,2.69,2.69,0,0,1-.58-1,3.85,3.85,0,0,1-.2-1.25,3.78,3.78,0,0,1,.25-1.41,2.89,2.89,0,0,1,.65-1,2.82,2.82,0,0,1,.91-.58A2.9,2.9,0,0,1,132.73,20.83Zm1.46,2.57a1.76,1.76,0,0,0-.41-1.22,1.35,1.35,0,0,0-1.06-.45,1.51,1.51,0,0,0-.68.15,1.68,1.68,0,0,0-.53.37,1.73,1.73,0,0,0-.35.54,1.92,1.92,0,0,0-.17.61Z"/><path class="cls-4" d="M137.25,27V21.29a8.33,8.33,0,0,1,2.68-.45c.28,0,.54,0,.8,0a6,6,0,0,1,.83.14l-.2.95a4.12,4.12,0,0,0-.73-.15c-.21,0-.45,0-.7,0a6.08,6.08,0,0,0-1.61.23v5Z"/><path class="cls-4" d="M150.87,29.15h-1.11l3.63-11.24h1.08Z"/><path class="cls-4" d="M156,22l.3-.9,5,2.13v.92l-5,2.14-.3-.9,4.12-1.7Z"/></g></g></svg>