<svg xmlns="http://www.w3.org/2000/svg" viewBox="0 0 161.32 29"><defs><style>.cls-1{fill:#f20746;}.cls-2{fill:#5b92d9;}.cls-3{fill:#a7bf4e;}</style></defs><title>dawnm-brand</title><g id="Layer_2" data-name="Layer 2"><g id="email"><path class="cls-1" d="M10.36,5.66a6.52,6.52,0,0,1-.45,2.52A4.78,4.78,0,0,1,8.64,10a5.51,5.51,0,0,1-2,1.06A9.52,9.52,0,0,1,4,11.36c-.45,0-1,0-1.57-.06a11.62,11.62,0,0,1-1.76-.23V.27A14.77,14.77,0,0,1,2.44.06C3.07,0,3.6,0,4.05,0A9.93,9.93,0,0,1,6.64.32a5.28,5.28,0,0,1,2,1A4.51,4.51,0,0,1,9.91,3.09,6.6,6.6,0,0,1,10.36,5.66ZM3.14,9.18l.41,0H4.1a3.7,3.7,0,0,0,2.78-1,3.63,3.63,0,0,0,.9-2.61A3.7,3.7,0,0,0,6.92,3a3.7,3.7,0,0,0-2.74-.89H3.65a2.78,2.78,0,0,0-.51,0Z"/><path class="cls-1" d="M15.3,2.58a5.54,5.54,0,0,1,1.76.24,2.87,2.87,0,0,1,1.13.68,2.64,2.64,0,0,1,.6,1.09A5.72,5.72,0,0,1,19,6v5c-.34.07-.81.16-1.42.26a13.85,13.85,0,0,1-2.21.15,7.44,7.44,0,0,1-1.48-.14,3.46,3.46,0,0,1-1.14-.47A2.2,2.2,0,0,1,12,9.92a3,3,0,0,1-.26-1.3A2.4,2.4,0,0,1,12,7.38a2.22,2.22,0,0,1,.79-.82,3.61,3.61,0,0,1,1.14-.44A6.45,6.45,0,0,1,15.27,6c.31,0,.58,0,.82,0a4,4,0,0,1,.58.11V5.9a1.32,1.32,0,0,0-.36-1A1.76,1.76,0,0,0,15,4.56a7.88,7.88,0,0,0-1.2.09,5,5,0,0,0-1,.25L12.5,3A5.27,5.27,0,0,1,13,2.84l.68-.13q.36-.06.78-.09A7.38,7.38,0,0,1,15.3,2.58Zm.19,7h.67a4.35,4.35,0,0,0,.51,0V7.68l-.43-.06a3.32,3.32,0,0,0-.53,0,6.26,6.26,0,0,0-.63,0,1.67,1.67,0,0,0-.52.16.85.85,0,0,0-.35.3.9.9,0,0,0-.13.48.84.84,0,0,0,.38.78A2.11,2.11,0,0,0,15.49,9.55Z"/><path class="cls-1" d="M26.09,6.38c-.21.81-.44,1.62-.68,2.42s-.49,1.61-.76,2.42H22.79c-.19-.45-.4-1-.62-1.6s-.46-1.3-.7-2-.49-1.5-.74-2.32S20.24,3.63,20,2.8h2.51c.09.38.18.8.29,1.26s.21.92.32,1.4.23,1,.35,1.44.25,1,.38,1.4c.14-.47.27-1,.41-1.44s.26-1,.38-1.44S24.88,4.48,25,4s.21-.86.29-1.24H27c.08.38.18.8.29,1.24s.22.9.33,1.38.24,1,.37,1.44.26,1,.4,1.44c.13-.44.26-.91.39-1.4s.25-1,.36-1.44.22-1,.32-1.4.2-.88.28-1.26h2.48c-.23.83-.48,1.66-.73,2.47s-.5,1.59-.74,2.32-.47,1.41-.7,2-.44,1.15-.64,1.6H27.58c-.27-.81-.53-1.62-.79-2.42S26.3,7.19,26.09,6.38Z"/><path class="cls-1" d="M33.51,3.09a12,12,0,0,1,1.57-.33,12.92,12.92,0,0,1,2-.15,4.87,4.87,0,0,1,1.79.28A2.59,2.59,0,0,1,40,3.68a3,3,0,0,1,.59,1.22,6.3,6.3,0,0,1,.18,1.56v4.76H38.39V6.75a3.11,3.11,0,0,0-.31-1.63A1.23,1.23,0,0,0,37,4.64l-.55,0-.51.06v6.5H33.51Z"/><path class="cls-2" d="M46,.13c.2.35.42.78.67,1.3s.51,1.08.79,1.68S48,4.33,48.3,5s.52,1.22.75,1.78c.24-.56.49-1.15.75-1.78s.54-1.25.81-1.85.54-1.16.79-1.68.47-.95.67-1.3h2.27c.11.73.2,1.56.29,2.47s.17,1.86.25,2.85.13,2,.19,3,.11,1.92.15,2.8H52.79c0-1.08-.08-2.25-.13-3.52s-.13-2.55-.24-3.84l-.64,1.48c-.24.55-.47,1.09-.7,1.64S50.63,8,50.41,8.54l-.54,1.27H48.12l-.54-1.27c-.22-.5-.44-1-.67-1.56s-.46-1.09-.7-1.64l-.64-1.48q-.16,1.94-.24,3.84c0,1.27-.1,2.44-.13,3.52H42.77c0-.88.09-1.81.15-2.8s.12-2,.19-3,.15-1.94.24-2.85.19-1.74.3-2.47Z"/><path class="cls-3" d="M1.2,23.5l4.12,1.7-.3.9L0,24v-.92l5-2.14.3.9Z"/><path class="cls-3" d="M18.34,22.79a5.54,5.54,0,0,1-.28,1.89A3.31,3.31,0,0,1,17.3,26a2.89,2.89,0,0,1-1.16.71,4.54,4.54,0,0,1-1.45.22,6.89,6.89,0,0,1-1.62-.19v-7.8a6.91,6.91,0,0,1,1.62-.2,4.54,4.54,0,0,1,1.45.22,2.91,2.91,0,0,1,1.16.72,3.39,3.39,0,0,1,.76,1.27A5.54,5.54,0,0,1,18.34,22.79Zm-4.21,3.13c.22,0,.44,0,.66,0a2.8,2.8,0,0,0,1-.18,1.71,1.71,0,0,0,.77-.56,2.57,2.57,0,0,0,.48-1,5.6,5.6,0,0,0,.17-1.45,3.76,3.76,0,0,0-.63-2.41,2.28,2.28,0,0,0-1.87-.77h-.33a2.58,2.58,0,0,0-.29,0Z"/><path class="cls-3" d="M22.23,20.64a2.39,2.39,0,0,1,1.89.76,3.46,3.46,0,0,1,.66,2.31v.38H20.46a2,2,0,0,0,.62,1.42,2.3,2.3,0,0,0,1.55.49,4.61,4.61,0,0,0,1-.09,2.7,2.7,0,0,0,.61-.2l.14.91a3.23,3.23,0,0,1-.7.22,5,5,0,0,1-1.14.12,3.7,3.7,0,0,1-1.38-.24,2.62,2.62,0,0,1-1.56-1.65,4,4,0,0,1-.2-1.26,3.76,3.76,0,0,1,.25-1.4,2.8,2.8,0,0,1,.65-1,2.66,2.66,0,0,1,.91-.58A2.91,2.91,0,0,1,22.23,20.64Zm1.46,2.57A1.74,1.74,0,0,0,23.28,22a1.35,1.35,0,0,0-1.06-.45,1.65,1.65,0,0,0-.68.14,1.89,1.89,0,0,0-.53.38,1.69,1.69,0,0,0-.35.53,2,2,0,0,0-.17.61Z"/><path class="cls-3" d="M31.47,20.78c-.15.57-.33,1.12-.53,1.66s-.4,1.07-.61,1.59-.42,1-.64,1.47-.42.91-.62,1.32h-1c-.4-.82-.82-1.75-1.23-2.79a31.8,31.8,0,0,1-1.11-3.25h1.17c.11.39.23.79.36,1.21l.42,1.28.45,1.23q.23.59.45,1.05c.15-.31.3-.66.46-1.05s.32-.81.48-1.23.3-.85.44-1.28.27-.82.38-1.21Z"/><path class="cls-3" d="M35.23,20.64a2.39,2.39,0,0,1,1.89.76,3.46,3.46,0,0,1,.66,2.31v.38H33.46a2,2,0,0,0,.62,1.42,2.3,2.3,0,0,0,1.55.49,4.61,4.61,0,0,0,1-.09,2.7,2.7,0,0,0,.61-.2l.14.91a3.23,3.23,0,0,1-.7.22,5,5,0,0,1-1.14.12,3.7,3.7,0,0,1-1.38-.24,2.62,2.62,0,0,1-1.56-1.65,4,4,0,0,1-.2-1.26,3.76,3.76,0,0,1,.25-1.4,2.8,2.8,0,0,1,.65-1,2.66,2.66,0,0,1,.91-.58A2.91,2.91,0,0,1,35.23,20.64Zm1.46,2.57A1.74,1.74,0,0,0,36.28,22a1.35,1.35,0,0,0-1.06-.45,1.65,1.65,0,0,0-.68.14,1.89,1.89,0,0,0-.53.38,1.69,1.69,0,0,0-.35.53,2,2,0,0,0-.17.61Z"/><path class="cls-3" d="M42.76,27a2.39,2.39,0,0,1-.95-.16,1.33,1.33,0,0,1-.6-.47,1.86,1.86,0,0,1-.31-.77,5.63,5.63,0,0,1-.09-1.07V18.78H39.07v-.91h2.8v6.62a3.73,3.73,0,0,0,.06.74,1.3,1.3,0,0,0,.18.46.64.64,0,0,0,.31.24,1.11,1.11,0,0,0,.43.07,2.63,2.63,0,0,0,.7-.09,2.16,2.16,0,0,0,.51-.2l.15.91-.22.1a3.44,3.44,0,0,1-.34.11l-.42.09A2.42,2.42,0,0,1,42.76,27Z"/><path class="cls-3" d="M50.84,23.8a3.72,3.72,0,0,1-.2,1.29,3,3,0,0,1-.56,1,2.58,2.58,0,0,1-.87.64A2.72,2.72,0,0,1,48.1,27,2.66,2.66,0,0,1,47,26.73a2.45,2.45,0,0,1-.86-.64,3.15,3.15,0,0,1-.57-1,4,4,0,0,1-.2-1.29,4.08,4.08,0,0,1,.2-1.3,3,3,0,0,1,.57-1,2.45,2.45,0,0,1,.86-.64,2.66,2.66,0,0,1,1.09-.23,2.72,2.72,0,0,1,1.11.23,2.58,2.58,0,0,1,.87.64,2.81,2.81,0,0,1,.56,1A3.82,3.82,0,0,1,50.84,23.8Zm-1.1,0a2.71,2.71,0,0,0-.44-1.62,1.44,1.44,0,0,0-1.2-.59,1.41,1.41,0,0,0-1.18.59,2.71,2.71,0,0,0-.43,1.62,2.67,2.67,0,0,0,.43,1.61A1.41,1.41,0,0,0,48.1,26a1.44,1.44,0,0,0,1.2-.59A2.67,2.67,0,0,0,49.74,23.8Z"/><path class="cls-3" d="M57.34,23.81a4.29,4.29,0,0,1-.17,1.27,2.9,2.9,0,0,1-.51,1,2.36,2.36,0,0,1-.81.66,2.56,2.56,0,0,1-1.09.23,2.72,2.72,0,0,1-.85-.12,1.7,1.7,0,0,1-.54-.26V29H52.29V21a8.85,8.85,0,0,1,.9-.21,6.83,6.83,0,0,1,1.27-.11,3,3,0,0,1,1.18.23,2.33,2.33,0,0,1,.91.63,2.87,2.87,0,0,1,.59,1A4.14,4.14,0,0,1,57.34,23.81Zm-1.1,0a2.44,2.44,0,0,0-.5-1.63,1.6,1.6,0,0,0-1.28-.58,5.88,5.88,0,0,0-.7,0l-.39.09v3.81a1.61,1.61,0,0,0,.53.31,1.83,1.83,0,0,0,.73.15,1.51,1.51,0,0,0,.73-.17,1.47,1.47,0,0,0,.5-.46,2.14,2.14,0,0,0,.29-.69A4,4,0,0,0,56.24,23.81Z"/><path class="cls-3" d="M61.23,20.64a2.39,2.39,0,0,1,1.89.76,3.46,3.46,0,0,1,.66,2.31v.38H59.46a2,2,0,0,0,.62,1.42,2.3,2.3,0,0,0,1.55.49,4.61,4.61,0,0,0,1-.09,2.7,2.7,0,0,0,.61-.2l.14.91a3.23,3.23,0,0,1-.7.22,5,5,0,0,1-1.14.12,3.7,3.7,0,0,1-1.38-.24,2.62,2.62,0,0,1-1.56-1.65,4,4,0,0,1-.2-1.26,3.76,3.76,0,0,1,.25-1.4,2.8,2.8,0,0,1,.65-1,2.66,2.66,0,0,1,.91-.58A2.91,2.91,0,0,1,61.23,20.64Zm1.46,2.57A1.74,1.74,0,0,0,62.28,22a1.35,1.35,0,0,0-1.06-.45,1.65,1.65,0,0,0-.68.14,1.89,1.89,0,0,0-.53.38,1.69,1.69,0,0,0-.35.53,2,2,0,0,0-.17.61Z"/><path class="cls-3" d="M65.75,26.82V21.11a8.34,8.34,0,0,1,2.68-.46c.28,0,.54,0,.8,0a5.85,5.85,0,0,1,.83.13l-.2.95a4.12,4.12,0,0,0-.73-.15c-.21,0-.45,0-.7,0a6.06,6.06,0,0,0-1.61.22v5Z"/><path class="cls-3" d="M78,22.94h2.19V20.55h.93v2.39h2.2v.91h-2.2v2.41h-.93V23.85H78Z"/><path class="cls-3" d="M96.34,22.79a5.54,5.54,0,0,1-.28,1.89A3.31,3.31,0,0,1,95.3,26a2.89,2.89,0,0,1-1.16.71,4.54,4.54,0,0,1-1.45.22,6.89,6.89,0,0,1-1.62-.19v-7.8a6.91,6.91,0,0,1,1.62-.2,4.54,4.54,0,0,1,1.45.22,2.91,2.91,0,0,1,1.16.72,3.39,3.39,0,0,1,.76,1.27A5.54,5.54,0,0,1,96.34,22.79Zm-4.21,3.13c.22,0,.44,0,.66,0a2.8,2.8,0,0,0,1-.18,1.71,1.71,0,0,0,.77-.56,2.57,2.57,0,0,0,.48-1,5.6,5.6,0,0,0,.17-1.45,3.76,3.76,0,0,0-.63-2.41,2.28,2.28,0,0,0-1.87-.77h-.33a2.58,2.58,0,0,0-.29,0Z"/><path class="cls-3" d="M100.23,20.64a2.39,2.39,0,0,1,1.89.76,3.46,3.46,0,0,1,.66,2.31v.38H98.46a2,2,0,0,0,.62,1.42,2.3,2.3,0,0,0,1.55.49,4.61,4.61,0,0,0,1-.09,2.7,2.7,0,0,0,.61-.2l.14.91a3.23,3.23,0,0,1-.7.22,5,5,0,0,1-1.14.12,3.7,3.7,0,0,1-1.38-.24,2.62,2.62,0,0,1-1.56-1.65,4,4,0,0,1-.2-1.26,3.76,3.76,0,0,1,.25-1.4,2.8,2.8,0,0,1,.65-1,2.66,2.66,0,0,1,.91-.58A2.91,2.91,0,0,1,100.23,20.64Zm1.46,2.57a1.74,1.74,0,0,0-.41-1.21,1.35,1.35,0,0,0-1.06-.45,1.65,1.65,0,0,0-.68.14,1.89,1.89,0,0,0-.53.38,1.69,1.69,0,0,0-.35.53,2,2,0,0,0-.17.61Z"/><path class="cls-3" d="M107.93,25.31a.65.65,0,0,0-.27-.54,3.37,3.37,0,0,0-.66-.36l-.87-.3a4.48,4.48,0,0,1-.86-.38,2.1,2.1,0,0,1-.67-.54,1.35,1.35,0,0,1-.26-.85,1.51,1.51,0,0,1,.59-1.21,2.84,2.84,0,0,1,1.85-.49,9,9,0,0,1,1,.07,5.76,5.76,0,0,1,.91.19l-.2,1-.28-.11-.42-.1a3.76,3.76,0,0,0-.5-.07l-.52,0c-.93,0-1.4.26-1.4.77a.56.56,0,0,0,.27.46,2.61,2.61,0,0,0,.67.34c.27.11.56.21.87.32a4.93,4.93,0,0,1,.87.4,2.47,2.47,0,0,1,.67.56,1.3,1.3,0,0,1,.26.84,1.47,1.47,0,0,1-.63,1.27,3.57,3.57,0,0,1-2,.45,5.8,5.8,0,0,1-1.14-.11,4.08,4.08,0,0,1-1-.31l.21-1a5.94,5.94,0,0,0,.95.34,4.2,4.2,0,0,0,1.08.14C107.44,26.05,107.93,25.8,107.93,25.31Z"/><path class="cls-3" d="M112.31,21.68h-1.74v-.9h2.8v3.71a2.05,2.05,0,0,0,.25,1.2.88.88,0,0,0,.74.31,2.63,2.63,0,0,0,.7-.09,2.24,2.24,0,0,0,.5-.2l.15.91-.22.1a3.17,3.17,0,0,1-.33.11l-.41.09a2.59,2.59,0,0,1-.48,0,2.39,2.39,0,0,1-1-.16,1.33,1.33,0,0,1-.6-.47,1.87,1.87,0,0,1-.32-.77,5.63,5.63,0,0,1-.09-1.07Zm.27-1.83a.78.78,0,0,1-.58-.24.79.79,0,0,1-.25-.63.83.83,0,0,1,.25-.64.78.78,0,0,1,.58-.23.8.8,0,0,1,.59.23.86.86,0,0,1,.24.64.82.82,0,0,1-.24.63A.81.81,0,0,1,112.58,19.85Z"/><path class="cls-3" d="M120.86,26.26a3.09,3.09,0,0,1-.56.22,2.87,2.87,0,0,1-.87.11,2.68,2.68,0,0,1-1-.17,2.32,2.32,0,0,1-.81-.53,2.73,2.73,0,0,1-.55-.91,4.2,4.2,0,0,1,0-2.53,2.89,2.89,0,0,1,.55-.95,2.45,2.45,0,0,1,.88-.63,2.92,2.92,0,0,1,1.18-.23,7.2,7.2,0,0,1,1.33.11c.37.08.68.15.93.22v5.38a2.6,2.6,0,0,1-.71,2,3.18,3.18,0,0,1-2.14.62,5.74,5.74,0,0,1-1.06-.09,6.58,6.58,0,0,1-.83-.22l.19-1a4.69,4.69,0,0,0,.77.23,4.75,4.75,0,0,0,1,.09,2,2,0,0,0,1.34-.37,1.61,1.61,0,0,0,.4-1.23Zm0-4.53-.43-.09a3.71,3.71,0,0,0-.74-.05,1.51,1.51,0,0,0-1.27.57,2.45,2.45,0,0,0-.43,1.52,2.86,2.86,0,0,0,.12.89,1.7,1.7,0,0,0,.34.61,1.33,1.33,0,0,0,.49.36,1.58,1.58,0,0,0,.58.11,2.37,2.37,0,0,0,.76-.12,2.42,2.42,0,0,0,.58-.27Z"/><path class="cls-3" d="M123.79,21c.39-.09.77-.17,1.16-.22a8.48,8.48,0,0,1,1.09-.08,2.44,2.44,0,0,1,1.82.63,2.75,2.75,0,0,1,.62,2v3.54h-1.07V23.48a3.49,3.49,0,0,0-.1-.95A1.38,1.38,0,0,0,127,22a1,1,0,0,0-.46-.28,2.14,2.14,0,0,0-.58-.08,3.65,3.65,0,0,0-.55,0l-.56.08v5.1h-1.08Z"/><path class="cls-3" d="M132.73,20.64a2.39,2.39,0,0,1,1.89.76,3.46,3.46,0,0,1,.66,2.31v.38H131a2,2,0,0,0,.62,1.42,2.3,2.3,0,0,0,1.55.49,4.61,4.61,0,0,0,1-.09,2.7,2.7,0,0,0,.61-.2l.14.91a3.23,3.23,0,0,1-.7.22A5,5,0,0,1,133,27a3.7,3.7,0,0,1-1.38-.24,2.62,2.62,0,0,1-1.56-1.65,4,4,0,0,1-.2-1.26,3.76,3.76,0,0,1,.25-1.4,2.8,2.8,0,0,1,.65-1,2.66,2.66,0,0,1,.91-.58A2.91,2.91,0,0,1,132.73,20.64Zm1.46,2.57a1.74,1.74,0,0,0-.41-1.21,1.35,1.35,0,0,0-1.06-.45,1.65,1.65,0,0,0-.68.14,1.89,1.89,0,0,0-.53.38,1.69,1.69,0,0,0-.35.53,2,2,0,0,0-.17.61Z"/><path class="cls-3" d="M137.25,26.82V21.11a8.34,8.34,0,0,1,2.68-.46c.28,0,.54,0,.8,0a5.85,5.85,0,0,1,.83.13l-.2.95a4.12,4.12,0,0,0-.73-.15c-.21,0-.45,0-.7,0a6.06,6.06,0,0,0-1.61.22v5Z"/><path class="cls-3" d="M150.87,29h-1.11l3.63-11.23h1.08Z"/><path class="cls-3" d="M156,21.81l.3-.9,5,2.14V24l-5,2.13-.3-.9,4.12-1.7Z"/></g></g></svg>