<svg xmlns="http://www.w3.org/2000/svg" viewBox="0 0 200 200"><defs><style>.cls-1{fill:#fffdf5;}.cls-2{fill:#262525;}</style></defs><title>navicon-visimpairment</title><g id="Layer_2" data-name="Layer 2"><g id="Visually_Impaired" data-name="Visually Impaired"><g id="navicon-visimpairment"><rect id="background" class="cls-1" width="200" height="200"/><g id="lineart-visimp"><path class="cls-2" d="M166.7,96c-3.39-5-26.07-36.09-65.92-36.56H99.71c-1,0-2.08.05-3.11.14l0-.07L93.16,43.67a2.5,2.5,0,1,0-4.88,1l3.28,15.2a73.64,73.64,0,0,0-10.25,1.84,75.22,75.22,0,0,0-13,4.57,81.86,81.86,0,0,0-12.26,7,2.32,2.32,0,0,0-.44.31A88.85,88.85,0,0,0,44,83.32a85.34,85.34,0,0,0-9.73,11.37v0c-.65.91-1.09,1.59-1.33,2a2.5,2.5,0,0,0,.77,3.45,2.39,2.39,0,0,0,.87.34l.37,1.71a2.5,2.5,0,0,0,2.44,2,2.46,2.46,0,0,0,.53-.06,2.5,2.5,0,0,0,1.92-3l-.93-4.3a78.74,78.74,0,0,1,5.31-6.51l6.4,29.7A2.51,2.51,0,0,0,53,122a2.46,2.46,0,0,0,.53-.06,2.49,2.49,0,0,0,1.91-3l-7.1-33a83.91,83.91,0,0,1,7.24-6.22l10.65,49.42a2.5,2.5,0,0,0,2.44,2,2.39,2.39,0,0,0,.53-.06,2.5,2.5,0,0,0,1.92-3L60,76.62a75,75,0,0,1,7.46-4.35l13.26,61.54a2.5,2.5,0,0,0,2.44,2,2.39,2.39,0,0,0,.53-.06,2.5,2.5,0,0,0,1.92-3l-4.76-22.1a22.87,22.87,0,0,0,10.38,9.17l3.56,16.51a2.5,2.5,0,0,0,2.44,2,2.46,2.46,0,0,0,.53-.06,2.5,2.5,0,0,0,1.92-3l-3-13.85a21.29,21.29,0,0,0,3.5.28,22.55,22.55,0,0,0,4.54-.46l2.44,11.35h0l.7,3.24,4.42,20.5a2.5,2.5,0,0,0,2.44,2,3.17,3.17,0,0,0,.53-.05,2.5,2.5,0,0,0,1.92-3L113,135.74c32.3-6.21,50.69-31.47,53.69-35.89a2.52,2.52,0,0,0,.8-1.84v-.13A2.52,2.52,0,0,0,166.7,96Zm-89.06-.42L72.14,70.1A67.14,67.14,0,0,1,80,67.31L83.3,82.85A23.3,23.3,0,0,0,77.64,95.62ZM87.59,79l-2.79-13a67.92,67.92,0,0,1,7.82-1.24L95,75.74A22.32,22.32,0,0,0,87.59,79Zm24.22,51.14-2.27-10.52A23.33,23.33,0,0,0,123,98.4c0-12.86-10.19-23.29-22.75-23.29h-.29L97.66,64.54v0c.31,0,.63,0,.94,0l1.21,0h.85C118.54,65,133,80,133,98.47A33.83,33.83,0,0,1,111.81,130.18Zm14.67-3.77A39.63,39.63,0,0,0,125,69.19c20.72,8,33.45,23.94,36.94,28.76C158.5,102.66,146.3,118,126.48,126.41Z"/></g></g></g></g></svg>