<svg xmlns="http://www.w3.org/2000/svg" viewBox="0 0 150 150"><defs><style>.cls-1{fill:#fffdf5;}.cls-2{fill:#e20303;stroke:#e20303;stroke-miterlimit:10;stroke-width:0.75px;}.cls-3{fill:#1d1315;}</style></defs><title>navicon-author</title><g id="Layer_2" data-name="Layer 2"><g id="Me"><g id="navicon-author"><rect id="background" class="cls-1" width="150" height="150"/><g id="author-face"><path id="_Compound_Path_" data-name="&lt;Compound Path&gt;" class="cls-2" d="M71.89,78.93a5,5,0,0,1,2.52.8,1.86,1.86,0,0,0,1.74.07c2.07-1.1,4-.61,6,.23a41.12,41.12,0,0,0,5.24,1.47c.35.09.85.08.87.55s-.41.52-.73.64c-1.5.54-2.57,1.73-3.89,2.55-2,1.22-3.85,2.6-6.22,3.14a10.56,10.56,0,0,1-7.12-.78,24.9,24.9,0,0,1-5.7-4,4.67,4.67,0,0,0-1.42-.81c-.44-.18-.82-.49-.79-.93s.53-.32.84-.42c2-.68,4-1.37,6.07-2A6.35,6.35,0,0,1,71.89,78.93Zm3.67,5.2a1.17,1.17,0,0,0-1.08.14c-.19.1-.47.19-.46.46s.34.26.54.32a10.93,10.93,0,0,1,2.31.63c1.12.61,1.9,0,2.75-.48.27-.16.44-.35.32-.7s-.21-.51-.58-.53c-.63,0-1.26-.1-1.88-.18S76.15,84.09,75.56,84.13Z"/><path class="cls-3" d="M149.6,135.74c.68-1.9-.44-3.31-2.15-4.1l-2.15-1a5.21,5.21,0,0,1-2.52-2.71c-1.32-2.74-3.69-4.2-6.3-5.52-3.12-1.56-6.48-2.16-9.79-3-1.45-.38-2.94,0-4.41-.07-.57,0-.94-.14-1.11-.71a15.36,15.36,0,0,1-.78-2.65,3.77,3.77,0,0,1,.55-1.9A19,19,0,0,0,122.3,109a3.86,3.86,0,0,0-.55-2.5,9.14,9.14,0,0,0-6.24-4.85,68.32,68.32,0,0,0-7.08-1.18c-2.84-.38-5.73-.43-8.61-.6a23.12,23.12,0,0,0-3-.18.93.93,0,0,1-.51-.09c-1-.48-1.18-.43-1.38.64-.4,2.21-.93,4.4-1.18,6.64a8.06,8.06,0,0,0,.46,3.67,16.57,16.57,0,0,1,.58,3.46,21,21,0,0,1,.29,3.94,22,22,0,0,1-.07,3.54,2.39,2.39,0,0,1-.65,1.47c-.56.49-.48,1.26-.84,1.85a11,11,0,0,0-1.62,4c-.3,1.94-1.88,2.17-3.05,2.93s-2.7,1.63-3.95,2.58a10.61,10.61,0,0,1-2.63,1.36c-.78.29-1.56.56-2.33.86a32.15,32.15,0,0,1-9,2.25,15.2,15.2,0,0,1-7.16-.84,9.35,9.35,0,0,1-2-1.5c-.34-.24-.67-.5-1-.77a32,32,0,0,0-2.87-2.19,5.92,5.92,0,0,0-1.46-.9c-1-.29-1-1.25-1.25-2q-.93-2.38-1.87-4.76c-.27-.67-.6-1.27-.92-1.89-.23-.44,0-.52.34-.44a7.74,7.74,0,0,1,.84.14c.33.11.71.37,1,0a1.22,1.22,0,0,0,.12-1.15A7.57,7.57,0,0,1,54.1,121a7,7,0,0,1,.34-3.46.5.5,0,0,0,0-.33c-.69-1.27,0-2.62-.24-3.94a7.15,7.15,0,0,1,.29-4,.66.66,0,0,0-.34-.95.52.52,0,0,1-.32-.7c.84-3.21.29-6.44.23-9.66,0-.34-.17-.76.33-1s.78.07,1.12.38a18.14,18.14,0,0,0,3.29,2.89,2.9,2.9,0,0,1,1,1A23.49,23.49,0,0,0,63.47,105a9.69,9.69,0,0,0,3.9,1.76,5.13,5.13,0,0,1,1.93,1.55,7.18,7.18,0,0,0,2.61,2.09.92.92,0,0,0,.91,0,1.68,1.68,0,0,1,2.13.37.8.8,0,0,0,1,.35,4.91,4.91,0,0,1,1.87.12,2.37,2.37,0,0,0,1.71-.43c.66-.44,1.57-.55,2-1.38A1,1,0,0,1,82,109c1.36-.51,2.54-1.41,4-1.73.17,0,.37,0,.43-.25.3-.87,1.56-.94,1.63-2,1.61-.6,2.07-2.24,3.05-3.4.36-.42.73-.81,1.11-1.21.78-.83,1.6-1.63,2.4-2.45.13-.15.43-.3.21-.57a.47.47,0,0,0-.57,0c-1.29.76-12.09,6-13.5,6.72a11,11,0,0,1-5.23,1.17,6.72,6.72,0,0,1-2.15-.35,1.16,1.16,0,0,0-.42,0c-1.51.19-16.49-7.58-17.34-8.85a.78.78,0,0,0-.42-.29A1.5,1.5,0,0,1,54,94.52c-.16-.6-.94-1.06-1.58-1.39a1.1,1.1,0,0,1-.59-.66,21.1,21.1,0,0,0-1.67-2.72,23.8,23.8,0,0,1-2.41-7s0-.06,0-.09c-.14-1.33-.13-1.32,1.14-1.68.32-.09.78-.15.66-.63s-.47-.48-.85-.36c-.75.22-1.11-.17-1.34-.81a19.85,19.85,0,0,1-.55-3.14c-.28-1.5-.69-3-1-4.46a17.19,17.19,0,0,1-.24-6.88,6,6,0,0,1,2.17-4.1c.19-.13.34-.49.64-.16A6.6,6.6,0,0,0,51.64,62a44.19,44.19,0,0,0,14.43,1.39,7.37,7.37,0,0,0,6-3.44c.82-1.26,1.67-2.49,2.38-3.81a2.3,2.3,0,0,1,2.12-1.11,1.92,1.92,0,0,1,2,1.12c.46,1.06,1,2.07,1.54,3.09a7.94,7.94,0,0,0,5.81,4.66,28.39,28.39,0,0,0,6.09.79,2.86,2.86,0,0,0,.38-.09,74.15,74.15,0,0,1-8.19-1.89c-.66-.2-.89-.68-1.29-1a8.88,8.88,0,0,1-2.64-5.61c-.27-2,.82-3.46,3.45-4.33a24,24,0,0,1,10.38-.83,22.6,22.6,0,0,1,9.23,2.74c1.53.91,1.65,1.15,1.5,2.91a9.82,9.82,0,0,1-1.33,4.62,7.06,7.06,0,0,1-6.17,3.29,12.21,12.21,0,0,0-2.83.18c.06.21.25.22.41.22a18.84,18.84,0,0,0,7.34-.88,5,5,0,0,0,2.35-1.85c.14-.2.3-.4.54-.34s.16.35.18.54c.19,1.74.44,3.5.49,5.26,0,.46,0,.91.08,1.49a2.18,2.18,0,0,0,1-1.89,35.73,35.73,0,0,1,1-6.39c.5.1.62.65,1.08.75a1.09,1.09,0,0,0,.11-1.08,1.82,1.82,0,0,1,.46-2.13c.54-.57.66-1.54,1.62-1.74.15,0,.05-.26.05-.39,0-2.22-.11-4.42.11-6.64a8.19,8.19,0,0,0-.41-4.4c-.21-.47.21-.9.29-1.35s-.11-1,0-1.44a.18.18,0,0,0,0-.16,4,4,0,0,1-1.06-2.09,19.9,19.9,0,0,0-.89-3.24c-.12-.5-.69-1,0-1.49,0,0,0-.15-.06-.19-.5-.51-.35-1.13-.29-1.72,0-.3.16-.59-.37-.48-.3.07-.34-.23-.41-.45s-.23-.69-.36-1c-.35.17-.1.48-.31.64,0,0-.1,0-.12,0a9,9,0,0,1-.73-1.95c-.06-.29-.11-.75-.44-.12-.27-.15-.67-.15-.69-.6,0-1.3-.94-2.13-1.59-3.15-.48-.75-1.23-1.2-1.67-2a4.66,4.66,0,0,0-2.4-2.09,3.37,3.37,0,0,1,2.5,1.11c.16.15.32.45.55.24s-.09-.36-.23-.52c-.27-.33-.48-.71-.77-1a1.74,1.74,0,0,0-1.7-.76c-.67.13-1.32-.57-2.05-.21,0,0-.11-.06-.11-.09-.13-.87-.67-.46-1.08-.33-.25-.25,0-.39.06-.56s-.12-.52-.25-.39c-.72.64-1.07-.43-1.67-.3-.18,0-.39-.09-.59-.1s-.94.36-.58-.52a1.09,1.09,0,0,0-.75-.86c-.56-.07-.87.06-.69-.84s-.76-1.46-1.53-1.94a6.05,6.05,0,0,0-3.11-.76c-1.27,0-2.44-.72-3.73-.6-.38-1-1.14-.1-1.67-.34-.15-.07-.39,0-.5-.08-.83-.67-1.79-.36-2.71-.41a7,7,0,0,1-1.88-.23,8.17,8.17,0,0,0-4.25,0c-.66.13-1.47-.23-2,.5-.09.12-.24-.08-.36-.16a1,1,0,0,0-1.14.09,41.81,41.81,0,0,1-4.85,2.37A36.21,36.21,0,0,1,61.15,17a21.2,21.2,0,0,1-4.38,1.28c-.39.06-.77.21-1.16.31s-.56.19-.79-.12a11.16,11.16,0,0,0-6.37,3.34c0,.37-.15.56-.53.53a2.23,2.23,0,0,1-.49,1c.53.74-.16,1.31-.5,1.63a3.07,3.07,0,0,0-1,1.49c-.1.37-.37.46-.62.64l-.35.57c.32,1.35-.3,2.57-.67,3.77a53.25,53.25,0,0,1-1.77,5.26,12.73,12.73,0,0,1-1.38,2.89c-.69,1-1.18,2.07-2.3,2.66,0,.91-.88,1.05-1.36,1.26-.75.31-1.18,1-1.86,1.32-.38.18-.57.78-1,1-.15.07-.3.26-.44.26-1,0-1.09.37-.53,1.09.45-.07.82-.54,1.35-.16.19.13.34-.14.5-.26a5.07,5.07,0,0,1,2.37-1.1A13.28,13.28,0,0,1,35.55,48c.3.36.58-.09,1,.15-.53.49-.84,1.16-1.61,1.34-.24,0-.46.08-.4.41.21.09.42.18.12.46-1,1-1.31,2.46-2.41,3.38a.47.47,0,0,0-.1.1c.85.75-.1,1.16-.31,1.72-.12.32-.61.7.09,1,.14.07.19.67.06.87-.36.57-.49,1.3-1.13,1.69l-.34.48c.09.4.19.81.33,1.41.23-1.25,1.18-1.89,1.56-2.87.06-.14.15-.27.32-.22s.16.21.21.35c.16.48-.21.87-.21,1.35.31,0,.61,0,.76-.4s.33-.16.51,0,.12.31,0,.51c-.3.45-1,.57-1.09,1.2.21.28.57.07.86.21.05.41-.29.51-.54.68s-.33.29-.15.49.32,0,.45-.09.12-.12.19-.17c.89-.75.92-.75,1.5.42a5.15,5.15,0,0,1,1.36-3.13c-.08,2.08.19,4.17-1.18,5.91a18.65,18.65,0,0,1-1.15,1.69c-.6.63.42.39.54.83-.85.12-1.09,1-1.68,1.42s-.17.86.06.92c1.21.28.44.66.06,1,.09.06.12.1.18.11.29.12.69-.36.85,0s-.41.54-.62.83c-.5.67-1.36.88-1.88,1.5,0,0-.54.16,0,.37.28.11,0,.24-.16.3s-.49,0-.4.3.41.22.6.15a21.12,21.12,0,0,0,2.55-.84,3.87,3.87,0,0,1,.46-.08A1.35,1.35,0,0,0,34.42,75c.15.39-.27.54-.45.77s-.44.58,0,.78c.59.3.46.94.79,1.34a.28.28,0,0,1-.06.45c-.71.35-.62,1.13-.95,1.67,0,.08-.1.21-.07.24.65.71-.06,1.73.58,2.43a.43.43,0,0,1,.07.4,12.47,12.47,0,0,0,.65,4.73c.24,1,.5,1.94.81,2.86.69,2.07,1.41,4.16,3.45,5.45,1.13.73,2.43,1.14,3.51,2,.17.13.6.44.79,0s-.16-.54-.49-.64a5.74,5.74,0,0,1-3-1.71.82.82,0,0,0-.29-.17c-.64-.26-.64-.26-.48-1.06a13.64,13.64,0,0,0,4.09,1.91,2.87,2.87,0,0,0,1.52.17c.67-.11,1.07.56,1.6.86a17.81,17.81,0,0,0,2.23,1.11c.23.1.47.19.45.44s-.35.22-.55.22a26.1,26.1,0,0,0-4.91.27,6.32,6.32,0,0,0-2.54,1.22c-1.88,1.44-3.95,2.58-5.81,4-2.11,1.63-4.34,3.25-5.23,6,0,0,0,0,0,.07.42,2.4-1.68,3.78-2.3,5.76a14.61,14.61,0,0,1-.68,1.84,3.71,3.71,0,0,1-2.84,1.85A34.93,34.93,0,0,1,17,121a.78.78,0,0,1-.24-.09l-1.61.18c-.22.3-.52.24-.82.16l-.33.07c-.21.24-.46.19-.72.1l-.32.07a6.27,6.27,0,0,1-2.59.87c-.28.32-.7.28-1,.41a2.27,2.27,0,0,1-1.36.83l-.8.59c0,.28-.15.44-.46.41a22.7,22.7,0,0,1-6.57,4.84c0,2.09,0,4.17,0,6.26h0V150H150V135.74Zm-43-72.93a3.65,3.65,0,0,1,0,1.69A2.25,2.25,0,0,1,106.64,62.81ZM89.5,15.73a.65.65,0,0,1,.46-.52,3.18,3.18,0,0,1,2,2c0,.17-.07.33-.24.21s-.36-.06-.46.2-.16.42-.41.38-.18-.28-.23-.44a4.6,4.6,0,0,1-.28-.89c-.06-.28,0-.49-.46-.43S89.42,16,89.5,15.73Zm-32.12,31a3.21,3.21,0,0,0,1.47-1.82,4.32,4.32,0,0,1,1.53-1.71,20.93,20.93,0,0,0,2.67-2.82,1.64,1.64,0,0,0,.22-.56A7.63,7.63,0,0,1,66.37,36a9.08,9.08,0,0,0,2.82-2.8,2.4,2.4,0,0,1,1.14-1,3,3,0,0,0,1.3-1.43,3.84,3.84,0,0,1,1.89-1.88,5.15,5.15,0,0,0,1.93-1.92,2.06,2.06,0,0,1,.83-.8,1.93,1.93,0,0,0,.86-.81A16.47,16.47,0,0,1,80,22.63a2.32,2.32,0,0,1,1.16-.5c1.41-.15,2.75-.7,4.23-.47,1,.16,2.16-.05,3.1.61a2.66,2.66,0,0,0,1.8.36,3.23,3.23,0,0,1,1.88.57c.5.31.65.69.11,1.17a3.18,3.18,0,0,1,1.15.89c1,1.07,2.11,2,3.18,3.07.34.32.16.83.53,1.17,1.36,1.31,1.86,3.08,2.56,4.75.56,1.31.66,2.77,1.47,4a3.85,3.85,0,0,1,.49,1.74,31.18,31.18,0,0,0,1,5c.45,2.15.52,4.34.8,6.51.07.62-.2.53-.71.53a11.72,11.72,0,0,1-2.52-.65,30.38,30.38,0,0,0-4.81-1,33.5,33.5,0,0,0-4.18-.46A23.61,23.61,0,0,0,83.93,51c-3.28,1-3.62,1-5.59,1.7-1.45.5-2.64-.06-3.93-.29-.45-.08-.84-.35-1.33-.12a.58.58,0,0,1-.59,0,13.11,13.11,0,0,0-3.57-1.78,29,29,0,0,0-10.49-2.22c-.76,0-1.53-.11-2.47-.17C56.55,47.56,56.8,47,57.38,46.7ZM47.8,55.94c.26.63.45,1.1.65,1.56s.46.74.75.5,1,.09,1-.75c0-.37.57-.78.92-1.14.14-.14.31,0,.43.17a.52.52,0,0,1,.21.6c-.16.49.48,1.27,1,1.16.85-.19,1.76-.06,2.53-.73.36-.32,1-.24,1.56-.39a7.56,7.56,0,0,1,3.78,0,6.12,6.12,0,0,0,1.76-.07,6.54,6.54,0,0,1,2.12,0,11.7,11.7,0,0,0,3.17.24c.53,0,.74-.31.53-.89s-1.07-1.18-.2-1.94a2,2,0,0,0-.5-.74,8,8,0,0,0-5.22-2.27,12.72,12.72,0,0,0-4.93.86,2.2,2.2,0,0,1-1.62.06,1.51,1.51,0,0,1-.84-2c.33-1.08,1.17-1.08,1.95-1.12a27.27,27.27,0,0,1,9.09,1,16,16,0,0,1,5.34,2.53,3.42,3.42,0,0,1,1.22,4.15c-.21.54-.39,1.08-.62,1.61a7.5,7.5,0,0,1-4.4,4,11.13,11.13,0,0,1-3.85.47,32,32,0,0,1-11.19-1.59,8.45,8.45,0,0,1-3.66-2.21A3.91,3.91,0,0,1,47.8,55.94ZM60.5,52c0-.28.26-.25.45-.25h.69a7.6,7.6,0,0,1,4.55,1.58c.15.1.3.25.18.43s-.24.06-.38,0a3.29,3.29,0,0,0-2.17-.67c-.45.06-1.2-.46-1.86-.63a7,7,0,0,0-1-.22C60.76,52.21,60.51,52.3,60.5,52Zm6.4,2.33c0-.09.14-.16.23-.2s.11.07.17.1-.09.24-.2.26S66.86,54.46,66.9,54.34ZM32.12,56.45l0-.05s0,0,.05,0l0,0Zm1.51,4.35a.41.41,0,0,1-.05-.09h.07s0,0,0,.06Zm.64.11c0-.58.51-.9.86-1.36C35.35,60.37,34.69,60.57,34.27,60.91Zm.79-2c-.51-1.18-.43-1.43.6-2.28C35.68,57.38,35.2,58,35.06,58.87Zm1.38-8.4c-.63.78-1.28,1.54-1.86,2.36-.33.47-1,.18-1.19.67-.31-.09-.32-.25-.2-.41a18.28,18.28,0,0,1,2.86-3c.13-.11.31-.21.46,0S36.56,50.32,36.44,50.47ZM38.9,94.3l0,0,0,0Zm2.27,0c-.43-.31-.83-.65-1.29-1,.64-.19,1.63.32,1.68.83C41.59,94.49,41.34,94.45,41.17,94.33Zm4.2-.84c.47-.15.69.3.91.47.71.56,1.67,0,2.32.6a1.91,1.91,0,0,0,.28.2A3.35,3.35,0,0,1,45.37,93.49Zm4.31,4.56c-.89.06-1.43-.57-2.14-.83-.2-.07-.31-.7-.27-1.06s.49-.24.74-.19a6.2,6.2,0,0,0,2.06-.2.57.57,0,0,0,.52-.5c0-.31-.33-.27-.46-.41-.56-.59-1.43-.73-2.12-1.55a22,22,0,0,1,3.9,1,2.87,2.87,0,0,1,1.32,1.83c.16.46.16,1.08-.68,1.05a.67.67,0,0,0-.46.2A3.26,3.26,0,0,1,49.68,98.05Z"/><path class="cls-3" d="M84.16,57.37a6.25,6.25,0,0,0,3,0,.8.8,0,0,1,.59,0c1.19.73,2.52.41,3.79.53a1.19,1.19,0,0,0,1.21-.48c.24-.33.59-.56,1-.28,1.1.8,2.58.48,3.68,1.29.17.12.59.37.78.05s-.2-.48-.41-.65-.5-.55,0-.69.87-.46.85-.94a1.62,1.62,0,0,0-1-1.51,13,13,0,0,1-2.06-1.25c-.37-.23-.6-.73-1-.79-1.49-.25-2.88-1-4.32-.77a8.25,8.25,0,0,0-5.8,2c-.4.29-1,.64-.79,1.36a1.27,1.27,0,0,1-.06,1.06C83.4,56.76,83.49,57.28,84.16,57.37Z"/><path class="cls-3" d="M80.42,74.34a4.2,4.2,0,0,1,.92.2,1.43,1.43,0,0,0,1.49-.37,8.73,8.73,0,0,0,1-1.66.24.24,0,0,0,0-.31c-.61-1-3-1.78-4-1.25a4.68,4.68,0,0,0-2.23,1.94c-.14.27-.29.38-.48.07-.54-.87-1.65-.48-2.32-1.06,0,0-.26.11-.35.21-.54.62-.88.3-1.16-.25a4.37,4.37,0,0,0-1.42-1.6,1.32,1.32,0,0,0-1.6-.08,4,4,0,0,0-1.71,1.33c-.48.79-1.25.35-2,0,.17.42-.08.93.39,1.21,1.05.63,2,1.51,3.39,1.31a5.43,5.43,0,0,1,1.21,0,2.76,2.76,0,0,1,2.27,1,3.28,3.28,0,0,0,2.81.37,6,6,0,0,1,2.13-1.24.27.27,0,0,0,.15-.18c0-.15-.08-.21-.21-.2s-.45.06-.38-.27a.48.48,0,0,1,.45-.35c.26,0,.53,0,.78-.06.58-.12.82.07.52.63S80,74.33,80.42,74.34Z"/><path class="cls-3" d="M103.21,54.13a8.07,8.07,0,0,0,1,4A3.47,3.47,0,0,0,103.21,54.13Z"/></g></g></g></g></svg>