<svg xmlns="http://www.w3.org/2000/svg" viewBox="0 0 200 200"><defs><style>.cls-1{fill:#fffdf5;}.cls-2{fill:#7a8c39;stroke:#7a8c39;stroke-miterlimit:10;}</style></defs><title>navicon-study</title><g id="Layer_2" data-name="Layer 2"><g id="Studies"><rect id="background" class="cls-1" width="200" height="200"/><g id="lineart-studies"><path class="cls-2" d="M179.55,51.14c-4.07-4-19.12-16.94-41.47-16.43A58.41,58.41,0,0,0,99.74,50.54C95.12,45.94,81.13,34,60.15,34.14c-21.71.11-35.82,13.07-39.63,17a1.5,1.5,0,0,0-.41,1v104a1.5,1.5,0,0,0,1.06,1.44,1.67,1.67,0,0,0,.44.06,1.49,1.49,0,0,0,1.25-.67c1.34-2,13.77-19.86,36.64-20.51,24.93-.72,38.67,19.64,39.25,20.51h0a1.38,1.38,0,0,0,.22.26l.08.06a1.33,1.33,0,0,0,.19.14l.1.05a1,1,0,0,0,.22.09l.1,0a1.66,1.66,0,0,0,.33,0h0a1.27,1.27,0,0,0,.34,0l.09,0a.92.92,0,0,0,.23-.09l.1-.05.19-.13a.27.27,0,0,1,.08-.07,2.62,2.62,0,0,0,.22-.25h0c.56-.84,13.91-20.38,38-20.38h.66c23.28.34,36,18.33,37.33,20.38a1.5,1.5,0,0,0,2.75-.84v-104A1.5,1.5,0,0,0,179.55,51.14ZM177,151.83c-5.28-6.19-17.74-17.85-37-18.13-19.92-.3-33.08,12-38.47,18.2V84a1.5,1.5,0,0,0-3,0v67.86c-5.32-6.2-18.2-18.32-37.73-18.32l-1.36,0c-18.89.54-31.1,12.07-36.3,18.24v-99c4.13-4.17,17.25-15.58,37.06-15.68h.27c20.68,0,34.12,12.32,37.75,16.11a1.39,1.39,0,0,0,.37.28c-.35,5.84.71,9.46,3.22,11,2.25,1.42,5.37,1.21,9.28-.6a8.61,8.61,0,0,1,6-.75c2.89.81,5.31,4.94,7.2,12.27l-4.16,3.86a14.51,14.51,0,0,0-.77,20.49l20.8,22.41a14.45,14.45,0,0,0,10.09,4.61h.56a14.37,14.37,0,0,0,9.84-3.86l8.87-8.23a14.56,14.56,0,0,0,.77-20.5l-20.8-22.4a14.54,14.54,0,0,0-20.49-.77l-2.23,2.07c-2.18-7.66-5-11.78-8.87-12.85a11.48,11.48,0,0,0-8,.92c-2,.93-4.75,1.83-6.42.78-2-1.27-2-6-1.77-9.13a55.4,55.4,0,0,1,36.54-15.19c20.39-.43,34.42,10.95,38.86,15.14ZM131,73.31a11.39,11.39,0,0,1,7.81-3h.44a11.45,11.45,0,0,1,8,3.66L168,96.32a11.54,11.54,0,0,1-.61,16.26l-8.87,8.23a11.52,11.52,0,0,1-16.25-.61L121.5,97.8a11.51,11.51,0,0,1,.61-16.25Z"/><path class="cls-2" d="M137.89,92.47A1.5,1.5,0,0,0,139,93a1.48,1.48,0,0,0,1-.4,1.5,1.5,0,0,0,.08-2.12L133,82.78a1.5,1.5,0,0,0-2.2,2Z"/></g></g></g></svg>