<svg xmlns="http://www.w3.org/2000/svg" viewBox="0 0 150 150"><defs><style>.cls-1{fill:#fffdf5;}.cls-2{fill:#5b92d9;}</style></defs><title>navicon-studies-general</title><g id="Layer_2" data-name="Layer 2"><g id="StudyNavs"><g id="navicon-studies-general"><rect id="background" class="cls-1" width="150" height="150"/><g id="lineart-generalstudies"><path class="cls-2" d="M134,124.39H16a4.11,4.11,0,0,1-4.1-4.1V29.71a4.11,4.11,0,0,1,4.1-4.1H134a4.11,4.11,0,0,1,4.1,4.1v90.58A4.11,4.11,0,0,1,134,124.39ZM16,28.61a1.1,1.1,0,0,0-1.1,1.1v90.58a1.1,1.1,0,0,0,1.1,1.1H134a1.1,1.1,0,0,0,1.1-1.1V29.71a1.1,1.1,0,0,0-1.1-1.1Z"/><path class="cls-2" d="M117.62,51.35H92.21a1.5,1.5,0,0,1,0-3h25.41a1.5,1.5,0,0,1,0,3Z"/><path class="cls-2" d="M123.31,66.37H92.21a1.5,1.5,0,1,1,0-3h31.1a1.5,1.5,0,0,1,0,3Z"/><path class="cls-2" d="M117.62,81.38H92.21a1.5,1.5,0,1,1,0-3h25.41a1.5,1.5,0,0,1,0,3Z"/><path class="cls-2" d="M124.47,96.4H92.21a1.5,1.5,0,0,1,0-3h32.26a1.5,1.5,0,0,1,0,3Z"/><path class="cls-2" d="M51.63,105.84a30.23,30.23,0,0,1-12.08-2.51,1.5,1.5,0,0,1-.79-.83,1.48,1.48,0,0,1,0-1.15l2.12-4.87a23.13,23.13,0,0,1-4.78-3.27L32.35,97a1.5,1.5,0,0,1-1.06.44h0A1.5,1.5,0,0,1,30.23,97a30.25,30.25,0,0,1-6.57-9.82,1.53,1.53,0,0,1,0-1.15,1.6,1.6,0,0,1,.81-.81l4.92-2a22.94,22.94,0,0,1-1.21-6.09H22.87a1.5,1.5,0,0,1-1.5-1.5A30.1,30.1,0,0,1,23.66,64a1.5,1.5,0,0,1,2-.8l4.91,2A23.3,23.3,0,0,1,34,60.05l-3.76-3.76a1.51,1.51,0,0,1,0-2.12,29.83,29.83,0,0,1,9.82-6.57,1.5,1.5,0,0,1,2,.81l2,4.91a23.25,23.25,0,0,1,6.08-1.2V46.8a1.5,1.5,0,0,1,1.5-1.5A30,30,0,0,1,63.7,47.8a1.51,1.51,0,0,1,.78,2l-10,23,16.91-7a1.48,1.48,0,0,1,2,.8,23,23,0,0,1,1.75,7.5H80.4a1.5,1.5,0,0,1,1.5,1.5,30.21,30.21,0,0,1-2.29,11.59,1.5,1.5,0,0,1-.81.81,1.53,1.53,0,0,1-1.15,0l-4.92-2a22.92,22.92,0,0,1-3.45,5.16L73,94.85A1.51,1.51,0,0,1,73,97a30.31,30.31,0,0,1-9.81,6.57,1.53,1.53,0,0,1-1.15,0,1.46,1.46,0,0,1-.81-.81l-2-4.92A22.85,22.85,0,0,1,53.13,99v5.32A1.5,1.5,0,0,1,51.63,105.84Zm-9.49-4.7a27.3,27.3,0,0,0,8,1.66V97.57a1.5,1.5,0,0,1,1.5-1.5,20.18,20.18,0,0,0,7.85-1.56,1.53,1.53,0,0,1,1.15,0,1.5,1.5,0,0,1,.81.81l2,4.84a27.42,27.42,0,0,0,6.38-4.28l-3.7-3.7a1.46,1.46,0,0,1-.44-1.06,1.5,1.5,0,0,1,.44-1.06,20.07,20.07,0,0,0,4.44-6.64,1.5,1.5,0,0,1,2-.82l4.83,2a27.27,27.27,0,0,0,1.49-7.54H73.63a1.5,1.5,0,0,1-1.5-1.5,20.2,20.2,0,0,0-1-6.44L52.25,76.94a1.52,1.52,0,0,1-1.15,0,1.51,1.51,0,0,1-.88-1.92.3.3,0,0,1,0-.1L61.11,50a27.08,27.08,0,0,0-8-1.65v5.23a1.5,1.5,0,0,1-1.5,1.5,20.34,20.34,0,0,0-7.84,1.55,1.53,1.53,0,0,1-1.15,0,1.46,1.46,0,0,1-.81-.81l-2-4.83a27,27,0,0,0-6.39,4.28l3.7,3.7A1.46,1.46,0,0,1,37.58,60a1.5,1.5,0,0,1-.44,1.06,20.34,20.34,0,0,0-4.45,6.65,1.5,1.5,0,0,1-2,.81l-4.83-2a26.29,26.29,0,0,0-1.49,7.53h5.22a1.5,1.5,0,0,1,1.5,1.5,20.35,20.35,0,0,0,1.56,7.84,1.53,1.53,0,0,1,0,1.15,1.5,1.5,0,0,1-.81.81l-4.83,2a26.63,26.63,0,0,0,4.27,6.39l3.7-3.7a1.51,1.51,0,0,1,2.12,0,20.52,20.52,0,0,0,6.32,4.31,1.5,1.5,0,0,1,.8.82,1.57,1.57,0,0,1,0,1.15Z"/><path class="cls-2" d="M51.63,92.8A17.23,17.23,0,1,1,68.87,75.57,17.25,17.25,0,0,1,51.63,92.8Zm0-31.46A14.23,14.23,0,1,0,65.87,75.57,14.25,14.25,0,0,0,51.63,61.34Z"/></g></g></g></g></svg>