<svg xmlns="http://www.w3.org/2000/svg" viewBox="0 0 150 150"><defs><style>.cls-1{fill:#fffdf5;}.cls-2{fill:#f20746;}</style></defs><title>navicon-studies-design</title><g id="Layer_2" data-name="Layer 2"><g id="StudyNavs"><g id="navicon-studies-design"><rect id="background" class="cls-1" width="150" height="150"/><g id="lineart-designstudies"><path class="cls-2" d="M26.47,131.46c-8,0-15.84-1.14-17.5-3.16a2.1,2.1,0,0,1-.21-2.44c.85-1.46,2.28-2.06,3.93-2.76a18.41,18.41,0,0,0,7.21-4.87c1.84-2,3.65-5.9,5.56-10,3.24-7,6.92-14.91,12.77-18.76a14.94,14.94,0,0,1,17.44.38c1.69,1.25,3.08,3.61,4.3,5.7A25.34,25.34,0,0,0,61.54,98c39.39-21.43,67.8-66.75,75.22-79.47C125.14,22.78,88,38.84,58.26,79.45a1.5,1.5,0,0,1-2.42-1.78c36.23-49.42,83.28-63.11,83.75-63.25a1.51,1.51,0,0,1,1.58.51,1.47,1.47,0,0,1,.15,1.64c-.31.59-32,59.21-79,84.41-2,1.08-3.39-1.24-5-3.93-1-1.75-2.29-3.92-3.5-4.81a12.11,12.11,0,0,0-14-.28c-5.14,3.38-8.62,10.89-11.7,17.51-2.1,4.53-3.91,8.43-6.07,10.78a21.32,21.32,0,0,1-8.25,5.62,12.59,12.59,0,0,0-1.88.89c3.87,1.49,20.23,2.9,28.57,0,7.87-2.69,15.86-11.35,15.83-17.16a1.49,1.49,0,0,1,1.49-1.51h0a1.5,1.5,0,0,1,1.5,1.49c0,7.82-9.57,17.18-17.86,20C37.9,130.88,32.15,131.46,26.47,131.46Z"/></g></g></g></g></svg>