<svg xmlns="http://www.w3.org/2000/svg" viewBox="0 0 200 200"><defs><style>.cls-1{fill:#fffdf5;}.cls-2{fill:#bf0637;stroke:#bf0637;stroke-miterlimit:10;}</style></defs><title>navicon-skills</title><g id="Layer_2" data-name="Layer 2"><g id="Skills"><rect id="background" class="cls-1" width="200" height="200"/><g id="lineart-skills"><path class="cls-2" d="M137.28,49.64l-29.17,90.64a10.76,10.76,0,0,1-9.47,7.44c-.26,0-.51,0-.77,0a10.71,10.71,0,0,1-3.47-.58l-12-4.07-.23-.08-.06,0-2.47-.88a2.43,2.43,0,0,0-2.47.46,2.52,2.52,0,0,0-.81,2.45L80,162.75a2.64,2.64,0,0,0,1.74,2,2.43,2.43,0,0,0,2.42-.48l13.27-11.67a2,2,0,0,1,2.69,3.05L86.86,167.3a6.45,6.45,0,0,1-4.29,1.63,6.76,6.76,0,0,1-2.11-.35,6.63,6.63,0,0,1-4.43-5l-3.68-17.72A6.57,6.57,0,0,1,81,138.28l2.43.87h0l12.26,4.16a6.69,6.69,0,0,0,8.52-4.29L133.4,48.39a7,7,0,0,0-4.4-8.74l-12.25-4.16a6.69,6.69,0,0,0-8.53,4.29L79.05,130.42a2,2,0,1,1-3.87-1.24l29.17-90.64a10.75,10.75,0,0,1,13.7-6.9l12.26,4.15A11.11,11.11,0,0,1,137.28,49.64Z"/><path class="cls-2" d="M60.54,126.59a3,3,0,0,1-4.13,1l-39.84-24.9-.16-.1a2.48,2.48,0,0,1-.26-.19,1.06,1.06,0,0,1-.2-.17,2.23,2.23,0,0,1-.26-.27,3.71,3.71,0,0,1-.23-.32,3.48,3.48,0,0,1-.2-.38,2.92,2.92,0,0,1-.14-.38v0A3.09,3.09,0,0,1,15,100v0a3.09,3.09,0,0,1,.11-.8s0,0,0,0a2.92,2.92,0,0,1,.14-.38,3.48,3.48,0,0,1,.2-.38,3.71,3.71,0,0,1,.23-.32l.19-.21a1.37,1.37,0,0,1,.18-.16l.06,0a1.94,1.94,0,0,1,.29-.21l.18-.11L56.41,72.46a3,3,0,0,1,3.18,5.08L23.65,100l35.94,22.46A3,3,0,0,1,60.54,126.59Z"/><path class="cls-2" d="M139.46,126.59a3,3,0,0,0,4.13,1l39.84-24.9.16-.1a2.48,2.48,0,0,0,.26-.19,1.06,1.06,0,0,0,.2-.17,2.23,2.23,0,0,0,.26-.27,3.71,3.71,0,0,0,.23-.32,3.48,3.48,0,0,0,.2-.38,2.92,2.92,0,0,0,.14-.38v0a3.09,3.09,0,0,0,.11-.8v0a3.09,3.09,0,0,0-.11-.8s0,0,0,0a2.92,2.92,0,0,0-.14-.38,3.48,3.48,0,0,0-.2-.38,3.71,3.71,0,0,0-.23-.32l-.19-.21a1.37,1.37,0,0,0-.18-.16l-.06,0a1.94,1.94,0,0,0-.29-.21l-.18-.11L143.59,72.46a3,3,0,0,0-3.18,5.08L176.35,100l-35.94,22.46A3,3,0,0,0,139.46,126.59Z"/></g></g></g></svg>