<svg xmlns="http://www.w3.org/2000/svg" viewBox="0 0 200 200"><defs><style>.cls-1{fill:#fffdf5;}.cls-2,.cls-3{fill:#1b1b1b;}.cls-2{stroke:#1b1b1b;stroke-miterlimit:10;}</style></defs><title>navicon-emailme</title><g id="Layer_2" data-name="Layer 2"><g id="email"><rect id="background" class="cls-1" width="200" height="200"/><path class="cls-2" d="M166.5,55.09v89.82a7.86,7.86,0,0,1-7.85,7.85H41.36a7.87,7.87,0,0,1-7.86-7.85V58.1a1.5,1.5,0,1,1,3,0v86.81a4.86,4.86,0,0,0,4.86,4.85H158.65a4.85,4.85,0,0,0,4.85-4.85V55.09a4.85,4.85,0,0,0-4.85-4.85H41.56l46.82,51.07a15.89,15.89,0,0,0,23.44,0L153.38,56a1.5,1.5,0,0,1,2.21,2L114,103.34a18.89,18.89,0,0,1-27.86,0l-48.58-53a1.36,1.36,0,0,1-.24-.35,1.49,1.49,0,0,1,.71-2,7.68,7.68,0,0,1,3.3-.73H158.65A7.86,7.86,0,0,1,166.5,55.09Z"/><circle class="cls-1" cx="100" cy="100" r="30"/><path class="cls-3" d="M112.9,114.1a8.11,8.11,0,0,1-3.18-.54,6.13,6.13,0,0,1-2.1-1.44,14.87,14.87,0,0,1-3.18,1.23,14,14,0,0,1-3.72.51,14.68,14.68,0,0,1-5.25-.9,11.33,11.33,0,0,1-4.11-2.67,12.15,12.15,0,0,1-2.7-4.35,17.17,17.17,0,0,1-1-6,16.2,16.2,0,0,1,.9-5.43,12.3,12.3,0,0,1,7-7.41A14.72,14.72,0,0,1,101.38,86a30.4,30.4,0,0,1,5.61.48,28.93,28.93,0,0,1,3.93,1v18.36a4.23,4.23,0,0,0,.66,2.7,2.17,2.17,0,0,0,1.74.78,3.9,3.9,0,0,0,2.73-1.08A8.17,8.17,0,0,0,118,105.4a16.79,16.79,0,0,0,1.11-3.93,27.51,27.51,0,0,0,.36-4.47,19.12,19.12,0,0,0-1.32-7.11,17.29,17.29,0,0,0-9.75-9.81,20.62,20.62,0,0,0-7.89-1.44,21.38,21.38,0,0,0-8,1.47,18,18,0,0,0-6.3,4.2A19,19,0,0,0,82,91a25.74,25.74,0,0,0-1.47,9,25.36,25.36,0,0,0,1.56,9.27A17.76,17.76,0,0,0,93.07,120a24.91,24.91,0,0,0,8.37,1.35,33.64,33.64,0,0,0,5.85-.42,23.56,23.56,0,0,0,3-.66l.6,4.44a24,24,0,0,1-3.69.78,36.91,36.91,0,0,1-5.73.42,32.62,32.62,0,0,1-10.08-1.53,22.85,22.85,0,0,1-8.28-4.68,22.09,22.09,0,0,1-5.61-8A29.66,29.66,0,0,1,75.4,100a29.13,29.13,0,0,1,2-11.34,22.41,22.41,0,0,1,13.47-12.9,28.2,28.2,0,0,1,9.57-1.62,27,27,0,0,1,9.3,1.59,22.65,22.65,0,0,1,7.68,4.62,22,22,0,0,1,5.22,7.32,23.48,23.48,0,0,1,1.92,9.69,25.26,25.26,0,0,1-.93,7.2,17.07,17.07,0,0,1-2.49,5.25,10.31,10.31,0,0,1-3.72,3.21A10.06,10.06,0,0,1,112.9,114.1Zm-12-4.86a12.42,12.42,0,0,0,2.55-.27,8.74,8.74,0,0,0,2.31-.81,10.52,10.52,0,0,1-.24-1.56q-.06-.78-.06-1.5V91a8.22,8.22,0,0,0-1.38-.24,19.64,19.64,0,0,0-2.28-.12q-4.26,0-6.36,2.64a11.94,11.94,0,0,0-.06,13.44A6.73,6.73,0,0,0,100.9,109.24Z"/></g></g></svg>