<svg xmlns="http://www.w3.org/2000/svg" viewBox="0 0 150 150"><defs><style>.cls-1{fill:#fffdf5;}.cls-2{fill:#a7bf4e;}</style></defs><title>navicon-studies-web</title><g id="Layer_2" data-name="Layer 2"><g id="StudyNavs"><g id="navicon-studies-web"><rect id="background" class="cls-1" width="150" height="150"/><g id="lineart-webstudies"><path class="cls-2" d="M44.82,54.67a2.28,2.28,0,0,0-3.15-.73L11.22,73l-.14.09a1.12,1.12,0,0,0-.22.16l0,0a.75.75,0,0,0-.14.12l-.14.16-.18.24a2.7,2.7,0,0,0-.15.29,1.82,1.82,0,0,0-.11.3h0A2.55,2.55,0,0,0,10,75v0a2.55,2.55,0,0,0,.08.61h0a1.82,1.82,0,0,0,.11.3,2.7,2.7,0,0,0,.15.29l.18.24a1.34,1.34,0,0,0,.2.21.93.93,0,0,0,.15.13l.2.14.12.08,30.47,19a2.21,2.21,0,0,0,1.21.35,2.29,2.29,0,0,0,1.22-4.23L16.61,75,44.1,57.82A2.26,2.26,0,0,0,44.82,54.67Z"/><path class="cls-2" d="M139.92,74.38h0a1.82,1.82,0,0,0-.11-.3,2.7,2.7,0,0,0-.15-.29l-.18-.24-.14-.16a.75.75,0,0,0-.14-.12l-.05,0a1.12,1.12,0,0,0-.22-.16l-.14-.09-30.45-19a2.29,2.29,0,0,0-2.43,3.88L133.39,75,105.9,92.18a2.29,2.29,0,0,0,1.22,4.23,2.21,2.21,0,0,0,1.21-.35L138.8,77l.12-.08.2-.14a.93.93,0,0,0,.15-.13,1.34,1.34,0,0,0,.2-.21l.18-.24a2.7,2.7,0,0,0,.15-.29,1.82,1.82,0,0,0,.11-.3h0A2.55,2.55,0,0,0,140,75v0A2.55,2.55,0,0,0,139.92,74.38Z"/><path class="cls-2" d="M90.75,27.2a2.29,2.29,0,0,0-2.9,1.46L57.79,119.91a2.29,2.29,0,1,0,4.36,1.43L92.21,30.09A2.28,2.28,0,0,0,90.75,27.2Z"/></g></g></g></g></svg>