<svg xmlns="http://www.w3.org/2000/svg" viewBox="0 0 150 150"><defs><style>.cls-1{fill:#fffdf5;}.cls-2{fill:#263c59;}.cls-3{fill:#bf0637;}.cls-4{fill:#7a8c39;}</style></defs><title>navicon-portfolio</title><g id="Layer_2" data-name="Layer 2"><g id="Portfolio"><g id="navicon-portfolio"><rect id="background" class="cls-1" width="150" height="150"/><g id="lineart-portfolio"><path class="cls-2" d="M75.66,42.44H72.73V37.73A3.72,3.72,0,0,0,69,34H53a3.72,3.72,0,0,0-3.71,3.71v4.71H46.37V37.73A6.65,6.65,0,0,1,53,31.09H69a6.65,6.65,0,0,1,6.65,6.64Z"/><path class="cls-2" d="M103,118.91H16.35A6.36,6.36,0,0,1,10,112.56V47.33A6.37,6.37,0,0,1,16.35,41h90.21a6.37,6.37,0,0,1,6.35,6.36V53A1.47,1.47,0,1,1,110,53V47.33a3.42,3.42,0,0,0-3.42-3.42H16.35a3.42,3.42,0,0,0-3.42,3.42v65.23A3.42,3.42,0,0,0,16.35,116H103a8.74,8.74,0,0,0,6.8-4l26.87-49.24a2,2,0,0,0,.25-1.84,2.18,2.18,0,0,0-1.9-.71H48.64a8.76,8.76,0,0,0-6.8,3.95l-23,42.06a1.47,1.47,0,0,1-2.58-1.4l23-42.06a11.54,11.54,0,0,1,9.37-5.48H135a4.92,4.92,0,0,1,4.43,2.15,4.76,4.76,0,0,1-.2,4.73l-26.88,49.25A11.53,11.53,0,0,1,103,118.91Z"/><path class="cls-3" d="M99.27,80.07c-2.42,0-4.36-.92-5.32-2.54a5.57,5.57,0,0,1,.27-5.65,14.3,14.3,0,0,1,11.63-6.79c2.42,0,4.36.92,5.32,2.54a5.6,5.6,0,0,1-.27,5.65h0A14.33,14.33,0,0,1,99.27,80.07Zm6.58-12a11.49,11.49,0,0,0-9.06,5.26A2.85,2.85,0,0,0,96.47,76a3.15,3.15,0,0,0,2.8,1.1,11.47,11.47,0,0,0,9-5.26h0a2.81,2.81,0,0,0,.32-2.75A3.1,3.1,0,0,0,105.85,68Z"/><path class="cls-4" d="M91.42,112.24A1.47,1.47,0,0,1,90,111L86.38,90.1,61.85,109.51a1.45,1.45,0,0,1-2.05-.23l-.07-.08a1.56,1.56,0,0,1-.3-.67L54.25,78.4,18.51,106.7a1.47,1.47,0,0,1-1.82-2.3L54.37,74.57a1.48,1.48,0,0,1,1.43-.22,1.46,1.46,0,0,1,.93,1.12l5.19,30.25L86.5,86.27a1.46,1.46,0,0,1,2.35.9l4,23.35a1.46,1.46,0,0,1-1.2,1.69A1.07,1.07,0,0,1,91.42,112.24Z"/></g></g></g></g></svg>