<svg xmlns="http://www.w3.org/2000/svg" viewBox="0 0 200 200"><defs><style>.cls-1{fill:#fffdf5;}.cls-2{fill:#4670a6;}</style></defs><title>navicon-work</title><g id="Layer_2" data-name="Layer 2"><g id="History"><rect id="background" class="cls-1" width="200" height="200"/><path class="cls-2" d="M104.67,167.25a73.91,73.91,0,0,1-52.62-21.53,1.54,1.54,0,0,1,0-2.19,73.1,73.1,0,0,1,21.31-14.77,1.75,1.75,0,0,1,1.4,0,1.62,1.62,0,0,1,.9,1c6,21.16,17.07,34.31,29,34.31a1.58,1.58,0,1,1,0,3.16ZM55.54,144.63A70.11,70.11,0,0,0,92.09,163c-7.94-5.53-14.73-16.22-19.07-30.57A69.67,69.67,0,0,0,55.54,144.63Z"/><path class="cls-2" d="M104.67,167.25a1.61,1.61,0,0,1-1.64-1.58V123.56a1.6,1.6,0,0,1,1.64-1.57,74.51,74.51,0,0,1,31.3,6.77,1.56,1.56,0,0,1,.87,1.84C130.5,153.2,118.18,167.25,104.67,167.25Zm1.65-42.09V164c11.07-1.12,21.24-13.49,27-32.95A71.09,71.09,0,0,0,106.32,125.16Z"/><path class="cls-2" d="M104.67,167.25a1.58,1.58,0,1,1,0-3.16c12,0,23.06-13.15,29-34.31a1.59,1.59,0,0,1,.9-1,1.72,1.72,0,0,1,1.39,0,72.72,72.72,0,0,1,21.32,14.77,1.53,1.53,0,0,1,0,2.19A73.88,73.88,0,0,1,104.67,167.25Zm31.64-34.81c-4.33,14.35-11.11,25-19,30.57a70,70,0,0,0,36.51-18.39A69.53,69.53,0,0,0,136.31,132.44Z"/><path class="cls-2" d="M104.67,167.25c-13.49,0-25.82-14.05-32.19-36.65a1.56,1.56,0,0,1,.88-1.84A74.52,74.52,0,0,1,104.67,122a1.61,1.61,0,0,1,1.65,1.57v42.11A1.62,1.62,0,0,1,104.67,167.25ZM76,131.05C81.78,150.51,92,162.88,103,164V125.16A71.16,71.16,0,0,0,76,131.05Z"/><path class="cls-2" d="M132.71,125.73l-.83-.33a61.76,61.76,0,0,0-12.39-3.73l-.87-.19q4.39-35.67,9.62-71.22l1.09.25a253.86,253.86,0,0,1,34.09,11.38l1,.45c-3.33,9-4.94,13.43-8.06,22.41l-.54.19a92.44,92.44,0,0,0-15.09,6.7Q136.5,108.64,132.71,125.73Zm-12-6.77a63.32,63.32,0,0,1,10.94,3.27q3.66-16.41,7.58-32.76l.5-.28a96.28,96.28,0,0,1,15.33-6.86c2.49-7.26,3.77-10.88,6.4-18.12-10.18-4.7-20.77-7.72-31.57-10.58Q125,86.26,120.73,119Z"/><path class="cls-2" d="M138.73,81.51l-.95-.31c-1.55-.49-2.33-.73-3.89-1.17l-1-.27c.59-3,.89-4.54,1.49-7.56l1,.27c1.64.46,2.46.7,4.08,1.21l1,.32C139.76,77,139.41,78.5,138.73,81.51Zm-3.3-4.06,2,.6c.16-.73.25-1.1.41-1.83-.73-.23-1.32-.41-2.06-.61C135.65,76.34,135.58,76.71,135.43,77.45Z"/><path class="cls-2" d="M141.41,69.87l-1-.31c-1.67-.52-2.5-.77-4.19-1.23l-1-.28c.61-3,.92-4.54,1.54-7.56.41.11.62.16,1,.28,1.77.48,2.64.73,4.39,1.28l1,.31C142.47,65.37,142.12,66.87,141.41,69.87Zm-3.57-4.12c.8.22,1.45.41,2.25.66l.43-1.83c-.82-.25-1.48-.45-2.3-.68Z"/><path class="cls-2" d="M150.85,73.77l-.95-.4c-1.29-.54-1.94-.8-3.25-1.29l-1-.37c.84-3.11,1.27-4.66,2.13-7.76l1,.37c1.37.52,2,.78,3.4,1.34l1,.4C152.24,69.14,151.77,70.68,150.85,73.77Zm-2.46-4.14,1.38.55.62-2.12L149,67.5Z"/><path class="cls-2" d="M158.18,142.87l-.66-.58a96.93,96.93,0,0,0-25.67-16.91l-.79-.36q3.87-17.83,8.19-35.55l.5-.28a96.37,96.37,0,0,1,15.88-7.06c3.39-1.21,5.08-1.73,8.58-2.68l.66-.18c.12.3.18.45.29.75a138.77,138.77,0,0,1,8.45,30l.12.67Q165.56,126.58,158.18,142.87ZM133.33,123A97.93,97.93,0,0,1,158,139.08c4.3-9.56,8.85-19.05,13.61-28.39a135.6,135.6,0,0,0-8-28.22c-3,.83-4.67,1.36-7.78,2.47a92.83,92.83,0,0,0-15.09,6.7C138.18,102.06,135.66,112.48,133.33,123Z"/><path class="cls-2" d="M158.87,105.49c-.33-.21-.49-.32-.81-.54-2.64-1.74-4-2.55-6.76-4.08l-.85-.47c.78-2.34,1.17-3.51,2-5.85l.87.47c2.9,1.58,4.29,2.41,7,4.21l.83.54C160.22,102.06,159.77,103.2,158.87,105.49Zm-5.79-6.9c2,1.12,3.3,1.89,5.21,3.14l.14-.35c-1.93-1.25-3.21-2-5.23-3.14C153.16,98.38,153.13,98.45,153.08,98.59Z"/><path class="cls-2" d="M151.29,136.32l-.72-.56a63.23,63.23,0,0,0-11.68-7.51l-.8-.41c2.55-9.31,3.87-14,6.63-23.24l.86.43a75.49,75.49,0,0,1,13.82,8.48l.77.57C156.48,123,154.7,127.4,151.29,136.32Zm-10.82-10.44a63.7,63.7,0,0,1,10.39,6.64c2.59-6.78,3.93-10.17,6.68-16.93a72.76,72.76,0,0,0-11.94-7.36C143.48,115.29,142.46,118.82,140.47,125.88Z"/><path class="cls-2" d="M94.59,94.43c-.26,1.33-.38,2-.63,3.32"/><path class="cls-2" d="M94,99.21a.89.89,0,0,1-.75-.55,2,2,0,0,1-.19-1.33c.24-1.34.36-2,.62-3.34h0a.19.19,0,0,1,0-.07c1-5.29,1.55-7.88,2.77-13.14a1.12,1.12,0,0,1,.89-1c2.31-.16,3.44-.2,5.76-.23a1,1,0,0,1,.77.53,2,2,0,0,1,.2,1.21c-.81,5.78-1.18,8.61-1.85,14.41,0,.09,0,.17,0,.26A4.78,4.78,0,0,0,102,97.2c0,.8-.41,1.47-.93,1.49-2.85.1-4.24.2-7.06.52Zm1.5-4.28-.23,1.22c1.78-.19,3.06-.27,5-.35,0-.23.08-.46.13-.68.57-5.14.91-8,1.54-12.6-1.34,0-2.33.07-3.78.16-1.09,4.63-1.64,7.2-2.61,12.16A.29.29,0,0,1,95.49,94.93Z"/><path class="cls-2" d="M101.09,98.69H101c-.48,0-.87-.67-.88-1.42a9.06,9.06,0,0,1,.25-2.28c.17-.71.67-1.1,1.14-.91a1.59,1.59,0,0,1,.7,1.65l-.2,1.74C102,98.17,101.55,98.69,101.09,98.69Z"/><path class="cls-2" d="M101.09,98.69a.87.87,0,0,1-.72-.51,2.11,2.11,0,0,1-.22-1.19c.08-.7.12-1,.19-1.75.65-5.83,1-8.67,1.79-14.48.09-.68.5-1.17,1-1.18,2.31,0,3.44,0,5.76.09a.88.88,0,0,1,.69.45,2,2,0,0,1,.25,1c-.26,6.45-.38,9.67-.63,16.13,0,.79-.47,1.42-1,1.41h0c-2.84-.11-4.23-.12-7.06,0Zm2.83-16.2c-.7,5-1.06,7.84-1.69,13.24h0c1.88,0,3.18,0,5.11,0,.17-5.29.26-7.93.44-13.22C106.36,82.49,105.36,82.48,103.92,82.49Z"/><path class="cls-2" d="M115.28,99.29h0c-2.8-.29-4.22-.46-7.06-.58a.82.82,0,0,1-.65-.45,1.88,1.88,0,0,1-.24-1.05c.21-6.45.32-9.67.54-16.13,0-.79.49-1.42,1-1.41h0c2.32.09,3.46.17,5.75.39a1.23,1.23,0,0,1,.89,1.26c.35,5.81.49,8.68.72,14.59,0,0,0,.07,0,.1,0,.67,0,1,.06,1.67a2,2,0,0,1-.31,1.17A.85.85,0,0,1,115.28,99.29Zm-6-3.45c1.92.09,3.22.2,5.1.41,0,0,0,0,0,0-.25-5.46-.4-8.31-.73-13.32-1.43-.13-2.43-.21-3.85-.27C109.54,87.91,109.44,90.55,109.23,95.84Z"/><path class="cls-2" d="M122.31,100.42h-.1c-2.74-.51-4.14-.78-7-1.12-.52-.06-.89-.77-.83-1.57a4.38,4.38,0,0,0-.05-1.2c0-.12,0-.24,0-.36-.14-5.72-.41-8.69-.8-14.44a2,2,0,0,1,.3-1.2.87.87,0,0,1,.8-.46c2.3.23,3.43.36,5.72.71a1.13,1.13,0,0,1,.81,1c.83,5.35,1.18,8,1.8,13.36a.17.17,0,0,1,0,.07h0c.15,1.35.23,2,.37,3.38a2.1,2.1,0,0,1-.28,1.32A.87.87,0,0,1,122.31,100.42Zm-6-3.94c1.91.24,3.18.44,4.93.77,0-.37-.08-.77-.15-1.24,0,0,0-.05,0-.08-.62-5-1-7.66-1.71-12.36-1.43-.21-2.41-.34-3.75-.48.28,4.66.42,7.51.62,12.73C116.26,96,116.29,96.26,116.3,96.48Z"/><path class="cls-2" d="M115.28,99.29c-.47,0-.85-.56-.88-1.3s0-1-.07-1.67a1.59,1.59,0,0,1,.8-1.62c.49-.16,1,.24,1.08,1a9.22,9.22,0,0,1,.08,2.29c-.07.75-.49,1.33-1,1.34Z"/><path class="cls-2" d="M101.09,98.69H101c-.48,0-.87-.67-.88-1.42a9.06,9.06,0,0,1,.25-2.28c.17-.71.67-1.1,1.14-.91a1.59,1.59,0,0,1,.7,1.65l-.2,1.74C102,98.17,101.55,98.69,101.09,98.69Z"/><path class="cls-2" d="M104.56,103.76c-2.38,0-4.36-2.92-4.42-6.5a2,2,0,0,1,.26-1,.87.87,0,0,1,.67-.45c2.88-.11,4.3-.09,7.21,0a.84.84,0,0,1,.66.45,2,2,0,0,1,.24,1c-.14,3.58-2.2,6.46-4.6,6.46Zm-2.29-5.11a2.75,2.75,0,0,0,2.34,2.19A2.81,2.81,0,0,0,107,98.67C105.25,98.61,104,98.6,102.27,98.65Z"/><path class="cls-2" d="M111.58,104.06h-.18c-2.38-.2-4.24-3.25-4.12-6.84,0-.79.46-1.42,1-1.41h0a61.07,61.07,0,0,1,7.19.58.85.85,0,0,1,.63.51,1.92,1.92,0,0,1,.19,1.06C116,101.43,113.9,104.11,111.58,104.06Zm-2.25-5.29a2.88,2.88,0,0,0,2.24,2.37,2.71,2.71,0,0,0,2.5-2C112.32,99,111.08,98.85,109.33,98.77Z"/><path class="cls-2" d="M115.28,99.29c-.47,0-.85-.56-.88-1.3s0-1-.07-1.67a1.59,1.59,0,0,1,.8-1.62c.49-.16,1,.24,1.08,1a9.22,9.22,0,0,1,.08,2.29c-.07.75-.49,1.33-1,1.34Z"/><path class="cls-2" d="M118.53,104.91a2.07,2.07,0,0,1-.35,0c-2.36-.38-4.07-3.59-3.78-7.16a2,2,0,0,1,.36-1,.8.8,0,0,1,.71-.35c2.87.37,4.3.57,7.13,1.14.51.11.84.84.74,1.64-.4,2.89-2.06,5.22-4,5.67A2.92,2.92,0,0,1,118.53,104.91Zm-2.15-5.48a3,3,0,0,0,2.11,2.55,1.86,1.86,0,0,0,.66,0,3,3,0,0,0,1.92-1.76C119.35,99.86,118.13,99.66,116.38,99.43Z"/><path class="cls-2" d="M97.55,104a3,3,0,0,1-1.38-.32c-1.74-.84-3-3.12-3.15-5.82,0-.81.33-1.5.85-1.56,2.88-.33,4.32-.41,7.2-.53.52,0,1,.62,1,1.42,0,3.59-1.89,6.63-4.28,6.81ZM95.2,99.08a3.19,3.19,0,0,0,1.5,1.82,1.88,1.88,0,0,0,1,.18,2.91,2.91,0,0,0,2.3-2.35C98.19,98.8,97,98.9,95.2,99.08Z"/><path class="cls-2" d="M117.29,121.72h-.08a53.36,53.36,0,0,0-6.14-.83c-.49,0-.85-.74-.8-1.54.22-3.79.34-5.69.56-9.48-2.22-.19-3.65-.25-5.88-.27,0,3.8-.07,5.7-.11,9.51a2,2,0,0,1-.27,1,.82.82,0,0,1-.63.43,48.2,48.2,0,0,0-6.72.31.72.72,0,0,1-.64-.37,1.85,1.85,0,0,1-.3-1c-.3-6.85-.46-10.28-.78-17.13a1.85,1.85,0,0,1,.35-1.23.66.66,0,0,1,.85-.24,1.76,1.76,0,0,0,1,.18c.9-.06,2.06-2.69,2.57-4.45.15-.51.49-.86.85-.86a1,1,0,0,1,.87.81c.56,1.71,1.77,4.25,2.67,4.26h0c.91,0,2.19-2.53,2.78-4.24.17-.51.52-.81.89-.8s.69.35.83.87c.47,1.76,1.58,4.41,2.46,4.47s2.3-2.36,3-4c.2-.49.55-.77.93-.73s.67.41.78.94c.39,1.79,1.36,4.51,2.24,4.66a1.38,1.38,0,0,0,.64,0,.73.73,0,0,1,.79.38,2,2,0,0,1,.23,1.22c-.78,6.75-1.16,10.12-1.9,16.87C118.16,121.18,117.74,121.74,117.29,121.72Zm-5.15-3.67c1.69.17,2.83.33,4.5.61.58-5.52.88-8.28,1.48-13.79-1.41-.29-2.41-2.4-3-4.16-.9,1.6-2.29,3.48-3.71,3.34s-2.58-2.18-3.27-3.91c-.82,1.66-2.08,3.62-3.55,3.62h0c-1.46,0-2.67-2-3.44-3.65-.74,1.72-1.91,3.78-3.37,3.89-.11,0-.21,0-.32,0,.23,5.55.34,8.33.56,13.88,1.9-.16,3.16-.22,5.07-.24l.05-9.5c0-.81.43-1.46.94-1.46a69.18,69.18,0,0,1,7.87.35c.51,0,.88.73.82,1.54C112.5,112.36,112.38,114.26,112.14,118.05Z"/><path class="cls-2" d="M104.56,103.76c-2.38,0-4.36-2.92-4.42-6.5a2,2,0,0,1,.26-1,.87.87,0,0,1,.67-.45c2.88-.11,4.3-.09,7.21,0a.84.84,0,0,1,.66.45,2,2,0,0,1,.24,1c-.14,3.58-2.2,6.46-4.6,6.46Zm-2.29-5.11a2.75,2.75,0,0,0,2.34,2.19A2.81,2.81,0,0,0,107,98.67C105.25,98.61,104,98.6,102.27,98.65Z"/><path class="cls-2" d="M111.11,120.88h0a48.2,48.2,0,0,0-7.13-.32h0a.81.81,0,0,1-.62-.43,2.07,2.07,0,0,1-.25-1c0-4.39,0-6.58.06-11,0-.81.43-1.46.94-1.46a69.08,69.08,0,0,1,7.87.35c.51,0,.88.73.82,1.54-.28,4.37-.43,6.56-.71,10.94C112,120.29,111.58,120.89,111.11,120.88Zm-5.76-3.24c1.79,0,3.12.09,5,.25.19-3.21.28-4.82.47-8-2.22-.19-3.65-.25-5.88-.27,0,3.22-.06,4.83-.09,8Z"/><path class="cls-2" d="M111.58,104.06h-.18c-2.38-.2-4.24-3.25-4.12-6.84,0-.79.46-1.42,1-1.41h0a61.07,61.07,0,0,1,7.19.58.85.85,0,0,1,.63.51,1.92,1.92,0,0,1,.19,1.06C116,101.43,113.9,104.11,111.58,104.06Zm-2.25-5.29a2.88,2.88,0,0,0,2.24,2.37,2.71,2.71,0,0,0,2.5-2C112.32,99,111.08,98.85,109.33,98.77Z"/><path class="cls-2" d="M111.11,120.88h0a48.2,48.2,0,0,0-7.13-.32h0a.81.81,0,0,1-.62-.43,2.07,2.07,0,0,1-.25-1c0-4.39,0-6.58.06-11,0-.81.43-1.46.94-1.46a69.08,69.08,0,0,1,7.87.35c.51,0,.88.73.82,1.54-.28,4.37-.43,6.56-.71,10.94C112,120.29,111.58,120.89,111.11,120.88Zm-5.76-3.24c1.79,0,3.12.09,5,.25.19-3.21.28-4.82.47-8-2.22-.19-3.65-.25-5.88-.27,0,3.22-.06,4.83-.09,8Z"/><path class="cls-2" d="M73.73,127.08Q67.06,96.77,59.17,66.79l1-.39a108.44,108.44,0,0,1,31.29-7.48l1-.1q2.06,31.12,3.72,62.25l-.88.1a62.72,62.72,0,0,0-20.75,5.55ZM61.86,68.83q6.94,27.26,12.92,54.72a63.75,63.75,0,0,1,19.48-5.18q-1.68-28.23-3.68-56.44A106,106,0,0,0,61.86,68.83Zm13.41,34.6c-.62-3.3-.93-5-1.57-8.24l.93-.3c1.54-.5,2.32-.73,3.88-1.16l.94-.25c.53,3.32.8,5,1.32,8.3l-.92.25c-1.48.41-2.21.63-3.68,1.11Zm.81-6c.19,1,.29,1.53.47,2.54.68-.21,1.24-.38,1.92-.57-.16-1-.25-1.54-.42-2.56C77.35,97.06,76.78,97.23,76.08,97.45Zm7.08,3.72c-.43-3.34-.66-5-1.11-8.34l1-.21c1.58-.36,2.37-.52,4-.81l1-.17c.35,3.35.52,5,.85,8.38l-.93.17c-1.51.27-2.26.43-3.75.77Zm1.16-5.88c.13,1,.2,1.55.33,2.57.69-.15,1.26-.26,1.95-.39-.11-1-.16-1.55-.27-2.58C85.61,95,85,95.14,84.32,95.29ZM73.1,92.07c-.65-3.3-1-4.95-1.64-8.24l1-.3c1.67-.52,2.51-.77,4.2-1.22l1-.26c.56,3.32.83,5,1.37,8.29L78,90.6c-1.6.44-2.39.67-4,1.17Zm.83-6c.19,1,.29,1.53.49,2.55.76-.24,1.38-.42,2.15-.64-.17-1-.26-1.53-.44-2.55C75.34,85.66,74.71,85.84,73.93,86.08Zm7.78,4.28c-.45-3.33-.69-5-1.16-8.34l1-.21c1.7-.37,2.55-.54,4.26-.85l1-.17c.36,3.35.54,5,.89,8.37l-1,.17c-1.62.3-2.43.46-4,.82Zm1.19-5.88c.13,1,.2,1.55.34,2.57.77-.16,1.4-.29,2.18-.43-.11-1-.17-1.55-.29-2.58C84.33,84.19,83.69,84.31,82.9,84.48ZM70.83,80.72c-.67-3.3-1-5-1.7-8.24l1-.31c1.79-.55,2.69-.81,4.5-1.28l1-.27c.58,3.32.86,5,1.42,8.3l-1,.26c-1.72.46-2.58.7-4.28,1.23Zm.85-6c.2,1,.31,1.53.51,2.55.86-.27,1.54-.46,2.4-.7L74.14,74C73.25,74.26,72.56,74.46,71.68,74.72ZM80,78.37c-.48-3.32-.72-5-1.21-8.31l1-.22c1.83-.39,2.75-.57,4.59-.89l1-.17c.38,3.33.56,5,.93,8.34l-1,.18c-1.75.3-2.62.48-4.36.86Zm1.22-5.86.35,2.55c.87-.19,1.57-.32,2.44-.48-.11-1-.17-1.53-.29-2.55C82.86,72.19,82.15,72.33,81.26,72.51Z"/><path class="cls-2" d="M70.83,80.72c-.67-3.3-1-5-1.7-8.24l1-.31c1.79-.55,2.69-.81,4.5-1.28l1-.27c.58,3.32.86,5,1.42,8.3l-1,.26c-1.72.46-2.58.7-4.28,1.23Zm.85-6c.2,1,.31,1.53.51,2.55.86-.27,1.54-.46,2.4-.7L74.14,74C73.25,74.26,72.56,74.46,71.68,74.72Z"/><path class="cls-2" d="M73.1,92.07c-.65-3.3-1-4.95-1.64-8.24l1-.3c1.67-.52,2.51-.77,4.2-1.22l1-.26c.56,3.32.83,5,1.37,8.29L78,90.6c-1.6.44-2.39.67-4,1.17Zm.83-6c.19,1,.29,1.53.49,2.55.76-.24,1.38-.42,2.15-.64-.17-1-.26-1.53-.44-2.55C75.34,85.66,74.71,85.84,73.93,86.08Z"/><path class="cls-2" d="M75.27,103.43c-.62-3.3-.93-5-1.57-8.24l.93-.3c1.54-.5,2.32-.73,3.88-1.16l.94-.25c.53,3.32.8,5,1.32,8.3l-.92.25c-1.48.41-2.21.63-3.68,1.11Zm.81-6c.19,1,.29,1.53.47,2.54.68-.21,1.24-.38,1.92-.57-.16-1-.25-1.54-.42-2.56C77.35,97.06,76.78,97.23,76.08,97.45Z"/><path class="cls-2" d="M80,78.37c-.48-3.32-.72-5-1.21-8.31l1-.22c1.83-.39,2.75-.57,4.59-.89l1-.17c.38,3.33.56,5,.93,8.34l-1,.18c-1.75.3-2.62.48-4.36.86Zm1.22-5.86.35,2.55c.87-.19,1.57-.32,2.44-.48-.11-1-.17-1.53-.29-2.55C82.86,72.19,82.15,72.33,81.26,72.51Z"/><path class="cls-2" d="M81.71,90.36c-.45-3.33-.69-5-1.16-8.34l1-.21c1.7-.37,2.55-.54,4.26-.85l1-.17c.36,3.35.54,5,.89,8.37l-1,.17c-1.62.3-2.43.46-4,.82Zm1.19-5.88c.13,1,.2,1.55.34,2.57.77-.16,1.4-.29,2.18-.43-.11-1-.17-1.55-.29-2.58C84.33,84.19,83.69,84.31,82.9,84.48Z"/><path class="cls-2" d="M83.16,101.17c-.43-3.34-.66-5-1.11-8.34l1-.21c1.58-.36,2.37-.52,4-.81l1-.17c.35,3.35.52,5,.85,8.38l-.93.17c-1.51.27-2.26.43-3.75.77Zm1.16-5.88c.13,1,.2,1.55.33,2.57.69-.15,1.26-.26,1.95-.39-.11-1-.16-1.55-.27-2.58C85.61,95,85,95.14,84.32,95.29Z"/><path class="cls-2" d="M55.42,138.66l-1-2.66.67-.7a66.66,66.66,0,0,1,7.49-5.41l.78-.49c.34,1.11.5,1.66.84,2.77l-.74.57a66.1,66.1,0,0,0-7.33,5.33Z"/><path class="cls-2" d="M35,83.19c-.48-1.06-.72-1.58-1.19-2.64,1.88-1.35,2.82-2,4.77-3.23.45,1.06.67,1.6,1.11,2.67C37.75,81.22,36.83,81.85,35,83.19Z"/><path class="cls-2" d="M39.65,93.78,38.5,91.14c1.76-1.28,2.63-1.88,4.46-3.07L44,90.74C42.24,91.92,41.38,92.52,39.65,93.78Z"/><path class="cls-2" d="M44.05,104.14c-.44-1.06-.66-1.59-1.11-2.64,1.66-1.23,2.48-1.8,4.16-2.92l1,2.68C46.48,102.36,45.68,102.93,44.05,104.14Z"/><path class="cls-2" d="M47.64,114c-.43-1.06-.64-1.59-1.08-2.65,1.53-1.16,2.3-1.72,3.88-2.8l1,2.68C49.9,112.27,49.14,112.82,47.64,114Z"/><path class="cls-2" d="M70.83,80.72c-.67-3.3-1-5-1.7-8.24l1-.31c1.79-.55,2.69-.81,4.5-1.28l1-.27c.58,3.32.86,5,1.42,8.3l-1,.26c-1.72.46-2.58.7-4.28,1.23Zm.85-6c.2,1,.31,1.53.51,2.55.86-.27,1.54-.46,2.4-.7L74.14,74C73.25,74.26,72.56,74.46,71.68,74.72Z"/><path class="cls-2" d="M80,78.37c-.48-3.32-.72-5-1.21-8.31l1-.22c1.83-.39,2.75-.57,4.59-.89l1-.17c.38,3.33.56,5,.93,8.34l-1,.18c-1.75.3-2.62.48-4.36.86Zm1.22-5.86.35,2.55c.87-.19,1.57-.32,2.44-.48-.11-1-.17-1.53-.29-2.55C82.86,72.19,82.15,72.33,81.26,72.51Z"/><path class="cls-2" d="M81.71,90.36c-.45-3.33-.69-5-1.16-8.34l1-.21c1.7-.37,2.55-.54,4.26-.85l1-.17c.36,3.35.54,5,.89,8.37l-1,.17c-1.62.3-2.43.46-4,.82Zm1.19-5.88c.13,1,.2,1.55.34,2.57.77-.16,1.4-.29,2.18-.43-.11-1-.17-1.55-.29-2.58C84.33,84.19,83.69,84.31,82.9,84.48Z"/><path class="cls-2" d="M73.1,92.07c-.65-3.3-1-4.95-1.64-8.24l1-.3c1.67-.52,2.51-.77,4.2-1.22l1-.26c.56,3.32.83,5,1.37,8.29L78,90.6c-1.6.44-2.39.67-4,1.17Zm.83-6c.19,1,.29,1.53.49,2.55.76-.24,1.38-.42,2.15-.64-.17-1-.26-1.53-.44-2.55C75.34,85.66,74.71,85.84,73.93,86.08Z"/><path class="cls-2" d="M75.27,103.43c-.62-3.3-.93-5-1.57-8.24l.93-.3c1.54-.5,2.32-.73,3.88-1.16l.94-.25c.53,3.32.8,5,1.32,8.3l-.92.25c-1.48.41-2.21.63-3.68,1.11Zm.81-6c.19,1,.29,1.53.47,2.54.68-.21,1.24-.38,1.92-.57-.16-1-.25-1.54-.42-2.56C77.35,97.06,76.78,97.23,76.08,97.45Z"/><path class="cls-2" d="M83.16,101.17c-.43-3.34-.66-5-1.11-8.34l1-.21c1.58-.36,2.37-.52,4-.81l1-.17c.35,3.35.52,5,.85,8.38l-.93.17c-1.51.27-2.26.43-3.75.77Zm1.16-5.88c.13,1,.2,1.55.33,2.57.69-.15,1.26-.26,1.95-.39-.11-1-.16-1.55-.27-2.58C85.61,95,85,95.14,84.32,95.29Z"/><path class="cls-2" d="M30.87,68.07C29,63.89,28,61.8,26.07,57.64a9.44,9.44,0,0,1-.71-5.55,8.94,8.94,0,0,1,4.28-6.31,121.81,121.81,0,0,1,24.72-11.2,7.62,7.62,0,0,1,7.09,1.08,7.72,7.72,0,0,1,2.84,4.48c1.3,5.73,1.93,8.59,3.16,14.33l-1,.31a105.37,105.37,0,0,0-18.5,7.15l-1,.46c-.4-1.2-.61-1.79-1-3a103.59,103.59,0,0,0-14.17,8.08Zm25.88-31a6.07,6.07,0,0,0-1.61.33A118.22,118.22,0,0,0,30.8,48.46a6.81,6.81,0,0,0-3.26,4.69,5.57,5.57,0,0,0,.36,3.29c1.45,3.12,2.16,4.68,3.57,7.81A104.17,104.17,0,0,1,46,56.18l1-.46c.41,1.2.61,1.79,1,3a107.7,107.7,0,0,1,16.81-6.47c-1-4.59-1.54-6.88-2.6-11.47a4.61,4.61,0,0,0-1.73-2.63A5.45,5.45,0,0,0,56.75,37.07Z"/><path class="cls-2" d="M50.73,73.68c-1.84-5.62-2.79-8.43-4.72-14l1-.47A109.73,109.73,0,0,1,65.8,51.93l1-.31c1.26,5.81,1.88,8.71,3.08,14.52l-1,.3a98.15,98.15,0,0,0-17.25,6.79ZM48.88,61.47C50,64.88,50.59,66.59,51.71,70A99.3,99.3,0,0,1,67.32,63.9c-.76-3.52-1.15-5.29-1.93-8.81A104.37,104.37,0,0,0,48.88,61.47Z"/><path class="cls-2" d="M54.3,84.78c-1.75-5.55-2.65-8.32-4.48-13.86l.94-.45c3.7-1.79,5.54-2.59,9.38-4.07l1-.37c1.48,5.64,2.2,8.47,3.61,14.12l-.94.37a86.86,86.86,0,0,0-8.59,3.81Zm-1.7-12c1.08,3.34,1.61,5,2.65,8.34,2.57-1.25,4.22-2,6.88-3-.87-3.4-1.32-5.1-2.22-8.49C57.08,70.7,55.34,71.46,52.6,72.77Z"/><path class="cls-2" d="M62.71,133.23l-.9-2.85.77-.49c1.7-1.08,2.66-1.66,4.19-2.49q-4.59-17-9.75-33.89l.88-.45A84.88,84.88,0,0,1,66,89.42l.93-.37q4.16,17.19,7.84,34.5c.5-.21.92-.37,1.56-.62.27,1.11.41,1.66.69,2.77a4.33,4.33,0,0,1-.89.5,62.44,62.44,0,0,0-12.68,6.54ZM59.62,95.39q4.54,15.57,8.77,31.22c1.5-.79,3-1.49,4.75-2.25Q69.6,108.45,65.79,92.6C63.42,93.57,61.93,94.24,59.62,95.39Z"/><path class="cls-2" d="M51,142.47c-10-23.32-20.9-46-32.9-68.3l.81-.69a111,111,0,0,1,27-17.3l1-.45c8.15,24.33,15.53,48.8,22.16,73.59l-.79.42c-2,1.08-3,1.65-4.88,2.89l-.77.49c-1.76-5.72-2.67-8.58-4.53-14.29a69.85,69.85,0,0,0-6.61,4.67c2.17,5.54,3.22,8.32,5.28,13.87l-.71.59c-1.82,1.49-2.68,2.25-4.38,3.86ZM21.14,75.32C32.06,96,42.28,117,51.3,138.59c1.11-1,1.91-1.73,3.08-2.7-2.11-5.55-3.19-8.32-5.41-13.85l.75-.6A73.21,73.21,0,0,1,58,115.6l.81-.49c1.85,5.71,2.75,8.57,4.51,14.29,1.25-.79,2.13-1.3,3.41-2-6.3-22.89-13.24-45.51-20.84-68A109.53,109.53,0,0,0,21.14,75.32Z"/><path class="cls-2" d="M55.38,138.54c-2.48-6.61-3.76-9.92-6.41-16.5l.75-.6A73.21,73.21,0,0,1,58,115.6l.81-.49c2.21,6.8,3.27,10.2,5.34,17l-.77.49A63,63,0,0,0,56.09,138Zm-3.86-15c1.75,4.48,2.61,6.73,4.29,11.22a65.1,65.1,0,0,1,6-4.34c-1.44-4.62-2.17-6.93-3.68-11.55A69.85,69.85,0,0,0,51.52,123.5Z"/><path class="cls-2" d="M61.5,133.87l-.75-2.78c.73-.49,1.1-.73,1.83-1.2l.78-.49c.34,1.11.5,1.66.84,2.77l-.74.57-1.08.71A3.59,3.59,0,0,1,61.5,133.87Z"/><path class="cls-2" d="M57.86,96.28c-1.73-5.71-2.62-8.57-4.43-14.27l.91-.45a92.22,92.22,0,0,1,8.74-3.85l1-.38c1.46,5.82,2.18,8.72,3.58,14.54l-.92.36a83.35,83.35,0,0,0-8,3.6Zm-1.74-12.4c1.08,3.49,1.62,5.24,2.67,8.74,2.36-1.17,3.88-1.85,6.3-2.83-.88-3.56-1.32-5.34-2.23-8.9C60.25,81.94,58.63,82.65,56.12,83.88Z"/></g></g></svg>