<svg xmlns="http://www.w3.org/2000/svg" viewBox="0 0 445.55 445.55"><defs><style>.cls-1{fill:#fffdf5;}.cls-2{fill:#d9d7d0;}</style></defs><title>page-stack</title><g id="Layer_2" data-name="Layer 2"><g id="Layer_1-2" data-name="Layer 1"><rect class="cls-1" x="8.27" y="8.27" width="429" height="429" transform="translate(-3.85 3.92) rotate(-1)"/><path class="cls-2" d="M433,5.07,440.48,433,12.54,440.48,5.07,12.54,433,5.07m1-1L4.05,11.56l7.51,429.93L441.49,434,434,4.05Z"/><rect class="cls-1" x="8.27" y="8.27" width="429" height="429" transform="translate(-7.64 437.64) rotate(-88)"/><path class="cls-2" d="M16.37,1.44,444.11,16.37,429.18,444.11,1.44,429.18,16.37,1.44m-1-1L.4,430.14l429.74,15,15-429.74L15.41.4Z"/><rect class="cls-1" x="8.27" y="8.27" width="429" height="429" transform="translate(-8.06 8.36) rotate(-2.11)"/><path class="cls-2" d="M428.75,1l15.76,427.71L16.8,444.51,1,16.8,428.75,1m1-1L0,15.84,15.84,445.55l429.71-15.84L429.71,0Z"/><rect class="cls-1" x="8.27" y="8.27" width="429" height="429"/><path class="cls-2" d="M436.77,8.77v428H8.77V8.77h428m1-1H7.77v430h430V7.77Z"/></g></g></svg>