<svg xmlns="http://www.w3.org/2000/svg" viewBox="0 0 1020 880.5"><defs><style>.cls-1{fill:#ec5353;}.cls-2{fill:#655c54;}.cls-3{fill:#665d55;}.cls-4{fill:#655d55;}.cls-5{fill:#666;}.cls-6{fill:#fee066;}.cls-7{fill:#fed947;}.cls-8{fill:#fecb00;}.cls-9{fill:#fed42d;}.cls-10{fill:#fed324;}.cls-11{fill:#fecb01;}.cls-12{fill:#fecf12;}.cls-13{fill:#fed016;}.cls-14{fill:#676767;}.cls-15{fill:#fecc04;}.cls-16{fill:#fed327;}.cls-17{fill:#fed73c;}.cls-18{fill:#fed52e;}.cls-19{fill:#6a6a6a;}.cls-20{fill:#fee374;}.cls-21{fill:#fee993;}.cls-22{fill:#fee994;}.cls-23{fill:#feeda7;}.cls-24{fill:#fee583;}.cls-25{fill:#720321;stroke-width:1.06px;}.cls-25,.cls-26,.cls-27{stroke:#fafaf5;}.cls-25,.cls-26,.cls-27,.cls-28,.cls-29{stroke-miterlimit:10;}.cls-26{fill:#fd5381;}.cls-26,.cls-27{stroke-width:1.07px;}.cls-27{fill:#f20746;}.cls-28{fill:#010101;}.cls-28,.cls-29{stroke:#000;stroke-width:0.84px;opacity:0.9;}.cls-30{fill:#4fa3cd;}.cls-31{fill:#dbecf4;}.cls-32{fill:#94c7e0;}.cls-33{fill:#fafcfd;}.cls-34{fill:none;}</style></defs><title>pie-studies-design</title><g id="Layer_2" data-name="Layer 2"><g id="Skills"><g id="Industry_Chart" data-name="Industry Chart"><path class="cls-1" d="M764.22,148.19c-2.39,6.69-6.28,12-13,15-11.61,5.23-22.92,1.65-26.79-8.69a36.85,36.85,0,0,1-2.23-10.68c-.19-3.32-.32-6.63-.48-10.12-1.43.62-1.5,2-2,3-5.1,11-10.43,21.76-18,31.28A42.59,42.59,0,0,1,690,178.64c-13.68,7.94-27.84,1.12-30.34-14.51a76.88,76.88,0,0,1-.56-12.59c1.07-5.43,2.14-10.86,3.31-16.84-3.86,2.63-7.43,4.3-11.66,3.56-3.08-.54-4.83-2.55-5.64-5.4-.46-1.62-.5-3.09,1.26-4.36,12.35-8.93,20.68-21,27-34.7,1.79-3.89,3.86-7.36,7.68-9.52h5.32c4.49,2.24,6,6.1,6.12,10.85a52.49,52.49,0,0,1-2.25,15.36C687,122.22,683.72,133.93,682,146c-.63,4.39-1.08,8.84.2,13.17,1.06,3.54,3.81,4.28,6.6,1.93a15.1,15.1,0,0,0,1.8-1.94c7.69-9.24,13.69-19.55,19.15-30.2q6.59-12.82,13.16-25.66c1.61-3.14,4.16-4.93,7.69-4.83s6.17,2.07,7.68,5.41a22.74,22.74,0,0,1,2,8c.69,10.16.23,20.37,1.28,30.52.71,6.83,4.07,8.42,9.81,4.55a50.09,50.09,0,0,0,7.65-6.35c1.63-1.65,2.85-1.31,4,.4.41.62.8,1.26,1.2,1.88Z"/><path class="cls-2" d="M710.85,213.83c0-1.77,0-3.54,0-5.32,0-2.79,1.09-3.62,3.62-2.4a2.56,2.56,0,0,0,2.64.08c2.36-1.15,4.78-1.18,6.86.52,1.13.91,1.74.2,2.6-.22,5.44-2.68,9.47-.26,9.67,5.83.08,2.21,0,4.43,0,6.64,0,1.79.35,3.38-2.53,3.34-2.62,0-2.85-1.16-2.74-3.21s0-4.21,0-6.31c0-1.7-1.07-2.34-2.58-2.36s-2.34.75-2.26,2.47c.12,2.43-.08,4.88.06,7.31s-1.47,1.93-2.85,2-2.61.05-2.45-2c.18-2.31,0-4.65,0-7,0-1.73-.76-2.72-2.55-2.77s-2.51.88-2.42,2.69c.11,2.1-.1,4.22.06,6.31s-.56,2.83-2.78,2.85-2.52-1-2.42-2.8S710.85,215.71,710.85,213.83Z"/><path class="cls-2" d="M673.1,208.67c0,1.89.07,3.78,0,5.66-.25,5.24-3.08,8-8.43,8.32-6.57.38-10-1.74-10.62-7.28-.47-4.39-.18-8.86-.22-13.29,0-2.23,1.72-1.55,2.9-1.65s2.49-.22,2.44,1.72q-.1,5.16,0,10.31c.08,3.63,1.29,4.95,4.33,5s4.23-1.23,4.29-4.91c.05-2.88.07-5.77,0-8.65,0-2-.17-3.57,2.79-3.56s2.62,1.54,2.57,3.37c0,1.67,0,3.33,0,5Z"/><path class="cls-3" d="M691.55,210.45c0,3.21-.1,6.42,0,9.62.08,1.89-.91,2.64-2.34,2-1.86-.79-3.33-.06-5,.35a7.31,7.31,0,0,1-9.26-6.52c-.76-6.07,2.3-10.55,7.71-10.36,3.41.12,4.23-1,3.72-4-.38-2.19.8-2.56,2.68-2.55s2.57.54,2.48,2.47C691.45,204.48,691.55,207.47,691.55,210.45Zm-5.13,3.3c-.08-1.76.7-4-2.43-3.92-2.91.06-3.85,1.78-3.82,4.32,0,2.27.94,3.82,3.48,3.95C687.17,218.27,686.33,215.72,686.42,213.75Z"/><path class="cls-3" d="M745.52,227.33l-5.15-.06c2.49-4,1.94-7.83-.18-11.83-1.54-2.9-2.6-6.07-3.87-9.12,4.81-1.39,5.19-1.2,6.73,3.23.69,2,1.39,4,2.17,6.18a25.14,25.14,0,0,0,2.87-7.74c.75-3,2.85-2.36,4.69-2.15,1.45.17.66,1.25.35,2Q749.32,217.6,745.52,227.33Z"/><path class="cls-4" d="M708,217.22c.47,3.78-1.5,5-4.56,5.3-4.33.49-8-1.28-9.34-4.67-2.54-6.47,1-12.43,7.34-12.41,4.47,0,7.42,3.05,7.52,7.54,0,1.43-.38,2-1.84,1.91q-3-.13-6,0c-.76,0-2-.59-2.14.78-.11,1.08.74,1.79,1.69,2.24C702.13,218.59,704.59,218.35,708,217.22Zm-6.41-4.58c.93-.5,2.71.74,2.89-1.06.13-1.23-1-2.12-2.45-2.18s-2.86.62-3,2C698.94,213.31,700.69,212.23,701.62,212.64Z"/><path class="cls-5" d="M469.52,117a67.71,67.71,0,0,0-8.5-2.13c-2.12-.35-4.18-1.1-6.38-1-1.71-1.16-3.74-.31-5.63-.92-1.73-.57-3.8-.12-5.72-.12s-4-.06-6,0c-1.07,0-2.06.79-3.19.5s-2.26.74-3.45.51-2.05.82-3.19.54c-.76,1-2.22,0-3,1-5.36.69-9.78,3.77-14.63,5.76-1.72,1.73-4.15,2.48-5.82,4.26-.59.63-1.7.5-2,2.06a52.69,52.69,0,0,1-1.39-5.88,46,46,0,0,1,11.61-9.52,52.29,52.29,0,0,1,10.46-5.05q3.8-1.3,7.69-2.3c2-.51,4-1,6-1.3.91-.15,1.68-.74,2.66-.62a6.68,6.68,0,0,0,2.6,0c3.31-1,6.67-.3,10-.47,1.91-.1,3.84,0,5.76,0,1.16,0,2.33-.23,3.48.46.5.3,1.33.05,2.16.05-1.7-2.88-3.28-5.59-4.91-8.28-1.39-2.31-2.83-4.59-4.25-6.88-.77-1.24-1.34-2.59-2.17-3.83-2-3-3.63-6.16-5.47-9.24s-3.75-5.94-5.48-9c-1.25-2.2-2.63-4.32-3.9-6.5-1.8-3.11-3.54-6.25-5.58-9.2-.3-.43-.13-.82-.26-1.36a87.16,87.16,0,0,1,17.42-5,2.68,2.68,0,0,1,1,1.59c.46,2.14,1.18,4.22,1.73,6.35.6,2.36,1.39,4.67,1.93,7.06.45,2,1,3.93,1.62,5.87.9,3,1.75,5.92,2.56,8.89.52,1.88,1,3.8,1.61,5.62a48.05,48.05,0,0,1,1.39,4.64c.36,1.5.94,3,1.25,4.49a42.3,42.3,0,0,0,1.56,5.63,37.83,37.83,0,0,1,1.39,4.64c.34,1.52.92,3,1.27,4.49s.88,3.27,1.42,4.88a68,68,0,0,1,2,7.52C469.33,115.87,470.32,116.12,469.52,117Z"/><path class="cls-6" d="M376.06,96.64a27.94,27.94,0,0,1-2.61-4.16c-.93-1.6-1.84-3.2-2.79-4.85a1.37,1.37,0,0,1-1.41.63,3.84,3.84,0,0,0,.33-.59c.23-.57.6-1.18-.33-1.5-.05-.72.62-.39,1-.7a61.88,61.88,0,0,1,6.59-18.08,36,36,0,0,1,4.48-6.89c0,.54.53.64.73,1,1-.66,2.37-.62,3.27-1.53,1,.3,1.79-.28,2.65-.54a16.89,16.89,0,0,1,6.59-.45,17.8,17.8,0,0,1,4.3.93c5.05,1.8,7.2,3.34,10.53,7.39a18.07,18.07,0,0,1,3.92,8.08c1.27,6.18,1.28,4.69.49,8.78a23.92,23.92,0,0,1-3.06,8.17,21.63,21.63,0,0,1-9,8.14,14.56,14.56,0,0,1-7.83,1.93,2.3,2.3,0,0,0-2.14.6c-.61-.67-1.38-.58-2.14-.62a10.54,10.54,0,0,1-4-1,34.31,34.31,0,0,1-4.38-2.07,15.57,15.57,0,0,1-2.46-1.69A3.16,3.16,0,0,0,376.06,96.64ZM392.49,93A20.42,20.42,0,0,0,397.31,92a10.06,10.06,0,0,0,5.5-4.67,13.94,13.94,0,0,0,2-6.73,11.25,11.25,0,0,0-2.35-6.83,10.8,10.8,0,0,0-4.12-3.8,16.55,16.55,0,0,0-6.67-1.6c-.82,0-1.34.54-2.13.64a6.9,6.9,0,0,0-4.74,2.4c-.49.61-1.15,1.07-1.64,1.68a15.78,15.78,0,0,0-1.86,2.62c-.73,1.4-.53,3-1,4.54-.31.92.21,1.93.41,2.91A11.26,11.26,0,0,0,385,90.25,13.46,13.46,0,0,0,392.49,93Z"/><path class="cls-7" d="M376.06,96.64a3.16,3.16,0,0,1,2.73,1,15.57,15.57,0,0,0,2.46,1.69,34.31,34.31,0,0,0,4.38,2.07,10.54,10.54,0,0,0,4,1c.76,0,1.53,0,2.14.62a2.3,2.3,0,0,1,2.14-.6,14.56,14.56,0,0,0,7.83-1.93,21.63,21.63,0,0,0,9-8.14,23.92,23.92,0,0,0,3.06-8.17c.79-4.09.78-2.6-.49-8.78a18.07,18.07,0,0,0-3.92-8.08c-3.33-4.05-5.48-5.59-10.53-7.39a17.8,17.8,0,0,0-4.3-.93,16.89,16.89,0,0,0-6.59.45c-.86.26-1.67.84-2.65.54-.9.91-2.24.87-3.27,1.53-.2-.37-.75-.47-.73-1a63.61,63.61,0,0,1,11.52-12.56v1.31l.81.79a20.23,20.23,0,0,1,7.32,1,39.44,39.44,0,0,1,12.46,7.19,48.88,48.88,0,0,1,3.82,4.46,13.87,13.87,0,0,1,2.56,4.15c.91,2.59,2.49,5,2.36,7.91,1,1,.08,2.38.68,3.37.71,1.17.09,2.38.39,3.51s-.68,1.66-.59,2.67a16.2,16.2,0,0,1-1,5.83c-1.35,4.75-4.24,8.64-7.3,12.38-.58.72-1.72,1.07-2.3,1.9s-1.62,1.19-2.41,1.8a27.39,27.39,0,0,1-5.73,3.18,24.26,24.26,0,0,1-6.55,1.79c-2.91.39-5.92.06-8.88.12a6.07,6.07,0,0,1-1.88-.51,2.29,2.29,0,0,0-2.13.49,22.28,22.28,0,0,1-2.61-4.24,27.79,27.79,0,0,0-2.73-4.56,2.4,2.4,0,0,0-1.68.28,27.43,27.43,0,0,1-4.5,1.71,1.3,1.3,0,0,0-1.05-1c1.6-1.64,3.75-2.33,5.8-3.4a3.73,3.73,0,0,0-1.26-2.25C376,97.46,376.06,97.06,376.06,96.64Z"/><path class="cls-8" d="M357.78,152.16c-1.22,0-2.18-.07-3.13,0a4.72,4.72,0,0,1-4.77-2.64,5.43,5.43,0,0,0-4.79-2.6c-1.39-.08-2.79,0-4.17,0a15.84,15.84,0,0,0-2.58,1.37c-1.68,1.32-2.41,3.29-3.13,5.23s-.5,4-.51,6.06a19.89,19.89,0,0,0,1.68,5.58,7.29,7.29,0,0,0,4.25,3.61,8.13,8.13,0,0,0,5.29.27,7.25,7.25,0,0,0,3.93-2.52,5.39,5.39,0,0,0,1.59-4c0-.08-.06-.15-.13-.31h-4.77l-1.83-1.83v-3.48h13v17.18h-3.38c-1.39-.4-.89-2.21-2-3-1.14.68-1.81,1.9-3,2.61a10.28,10.28,0,0,1-4.36,1.42c-1.54.14-3.22.64-4.78-.37-.49-.32-1.36,0-1.73,0-1.29-.61-2.34-1.05-3.34-1.58a10.89,10.89,0,0,1-4.55-4.54,22.51,22.51,0,0,1-2.23-6.17,39.83,39.83,0,0,1-.39-6.61c-.06-1.88,1.46-7.19,2.63-8.57,2-2.38,4.28-4.54,7.37-5.52a9.5,9.5,0,0,1,3.45-.56c1.65.11,3.33-.14,5,.06,3.82.46,7.16,1.85,9.34,5.33A11.16,11.16,0,0,1,357.78,152.16Z"/><path class="cls-9" d="M384.44,111.31a2.29,2.29,0,0,1,2.13-.49,6.07,6.07,0,0,0,1.88.51c3-.06,6,.27,8.88-.12a24.26,24.26,0,0,0,6.55-1.79,27.39,27.39,0,0,0,5.73-3.18c.79-.61,1.8-.91,2.41-1.8s1.72-1.18,2.3-1.9c3.06-3.74,5.95-7.63,7.3-12.38a16.2,16.2,0,0,0,1-5.83c-.09-1,.86-1.65.59-2.67s.32-2.34-.39-3.51c-.6-1,.34-2.39-.68-3.37.13-2.9-1.45-5.32-2.36-7.91a13.87,13.87,0,0,0-2.56-4.15,48.88,48.88,0,0,0-3.82-4.46A39.44,39.44,0,0,0,401,51.07a20.23,20.23,0,0,0-7.32-1l-.81-.79V47.94a5,5,0,0,1,2.27-2.13c1-.43,1.39-1.65,2.45-2.06a1.19,1.19,0,0,0,1,1c3.66.54,6.91,2.2,10.25,3.64,3.83,1.66,6.83,4.45,9.76,7.27.93.9,1.71,2.08,2.64,3.05a5.22,5.22,0,0,1,.49.84,35.78,35.78,0,0,1,4.67,8.78c.56,1.6,1.45,3.21,1.49,4.84.05,2.39.89,4.69.63,7.09-.21,1.84.21,3.7-.47,5.56-.41,1.12,0,2.45-.55,3.7s-.59,2.89-1.16,4.22-1.41,2.71-2,4.11a32.57,32.57,0,0,1-1.77,2.93c-.35.57-.71,1.18.22,1.59-.34,1-1.6.22-2,1-1.39-.4-2.37.66-3.46,1.11a62.41,62.41,0,0,0-11.85,6.78,28.34,28.34,0,0,0-3.58,3.36,7.13,7.13,0,0,1-2.64,1.84l-1.06-.56a2.9,2.9,0,0,1-1.85.59c-2.56-.07-5.13,0-7.7,0-.13,0-.26.18-.39.27v.77c-.69,0-.41-.58-.61-.87-1-.79-1.63.64-2.53.35-.2-.52.48-1.33-.53-1.57.16-.88,1.37-.49,1.46-.9C385.78,113.07,384.34,112.6,384.44,111.31Z"/><path class="cls-5" d="M416.3,168.11c-.74,2.31-2.62,3.71-4.16,5.32-.42.5-1,.09-1.47.37-3.18,1.76-6.7,1.52-10.13,1.32a10.5,10.5,0,0,1-3.73-1c-3.07-1.47-5.65-3.46-6.15-7.25a9.15,9.15,0,0,1-.42-2.52H397c-.09,1.31.89,2.23,1.22,3.4,3.81,2.19,5.07,2.1,10.13,1.18l1.8-1.91v-2.34c-1.46-2.58-4.18-2.63-6.42-3.57A26.06,26.06,0,0,0,398,159.6c-1.71-.29-3-1.32-4.5-1.83-.51-.17-.91-.9-1.29-1.5a10.87,10.87,0,0,1-1.45-7.74,8.22,8.22,0,0,1,4.27-5.84,10.26,10.26,0,0,1,5.64-1.55c1.75.07,3.5-.06,5.24,0,3.72.21,6.64,1.7,8.38,5.22a7,7,0,0,1,.92,4.62h-5c-1.64-1.25-2.34-3.66-4.81-4.35-1.73-.48-3.4,0-4.81-.28a6.05,6.05,0,0,0-3.63,3.83c.28.44.62,1.09,1.05,1.68,1.24,1.69,3.28,1.79,5,2.32,3,.91,6.12,1.6,9.11,2.67.84.3,1.22,1.19,1.93,1.66,1.84,1.23,2.16,3.28,2.72,5.15a2.14,2.14,0,0,1-.15,2C416.05,166.46,416.61,167.36,416.3,168.11Z"/><path class="cls-5" d="M442.09,149.11c-3.34,3.45-5.81,6.86-9.08,9.65,3,5.12,6,10.16,9,15.28h-7.68c-1.44-1.1-1.81-3.07-2.79-4.66-1.21-2-2-4.21-3.93-5.7-.64-.12-.87.44-1.35.82v9.6h-6.65V141.93c4-.69,4.84-.36,6.77,2.75v13.47c2.85-3.18,5.19-6.4,8-9Z"/><path class="cls-5" d="M493.73,156.8H488.4c-1.13-.84-2-2.41-3.55-2.9a13.16,13.16,0,0,0-3-.23c-.66.5-1.51.51-1.93,1.24a3.38,3.38,0,0,0-.13,1.77c1.18,1.1,2.74,1.33,4.22,1.78,2.47.75,5.09,1,7.39,2.39,1.67,1,2.93,2.16,3,4.22,1.16,1.34.15,2.78-.12,4a5.67,5.67,0,0,1-2,3.33,11.81,11.81,0,0,1-3.7,1.81,23.48,23.48,0,0,1-8.94.38c-3.57-.36-7.61-3.08-7.1-8.28h5.88c.83.43.81,1.24.94,2a7.16,7.16,0,0,0,5.84,1.56c1.15-.29,3-.46,3-2.32l-2.48-2.33c-2.32-.59-5.31-1.14-8.15-2.13a7.12,7.12,0,0,1-4.38-4.31,6.79,6.79,0,0,1,.8-5.79,8.21,8.21,0,0,1,6.68-4.07,14.2,14.2,0,0,1,3.18-.4,19.59,19.59,0,0,1,5,1.08,7.9,7.9,0,0,1,4.45,4.56C493.56,154.9,494.4,155.75,493.73,156.8Z"/><path class="cls-8" d="M383.39,161.78a23,23,0,0,0,0,2.88,5.64,5.64,0,0,1-.64,2.37,9.39,9.39,0,0,1-3.67,5.6,9.15,9.15,0,0,1-4.92,2c-2.93.06-5.89.29-8.51-1.54s-4.39-3.93-4.88-7.21a33.81,33.81,0,0,1-.44-5.29,14.63,14.63,0,0,1,1.81-6.83,8.24,8.24,0,0,1,7.11-4.73c.8-.05,1.31-.63,2.13-.61a15.88,15.88,0,0,1,6.43,1.56,7.5,7.5,0,0,1,3.5,3.47C383.37,157.35,383.39,157.34,383.39,161.78Zm-10.33,7.66a6.9,6.9,0,0,0,4.05-6.81c0-1.3,0-2.61,0-3.69a10.49,10.49,0,0,0-3.47-4.65h-2.82a5.49,5.49,0,0,0-3.62,3.6c-.48,1.6-1,3.39-.48,5s.31,3,1.31,4.57a6.83,6.83,0,0,0,2.71,2Z"/><path class="cls-10" d="M422.67,102.4c-.93-.41-.57-1-.22-1.59a32.57,32.57,0,0,0,1.77-2.93c.64-1.4,1.45-2.72,2-4.11s.6-2.89,1.16-4.22.14-2.58.55-3.7c.68-1.86.26-3.72.47-5.56.26-2.4-.58-4.7-.63-7.09,0-1.63-.93-3.24-1.49-4.84a35.78,35.78,0,0,0-4.67-8.78,5.22,5.22,0,0,0-.49-.84c-.93-1-1.71-2.15-2.64-3.05-2.93-2.82-5.93-5.61-9.76-7.27-3.34-1.44-6.59-3.1-10.25-3.64a1.19,1.19,0,0,1-1-1l4.19-3.15c-.11.94.37,1.34,1.23,1.59a44.71,44.71,0,0,1,8.28,3.38c2.05,1.09,3.8,2.57,5.71,3.84a9.51,9.51,0,0,1,3.1,2.54c1.15,1.9,2.95,3.2,4.19,5s2.2,3.63,3.33,5.41,1.56,3.9,2.4,5.82A13.83,13.83,0,0,1,431.11,73c0,.68.64,1.36.46,2.14s.63,1.31.56,2.14c-.12,1.38.05,2.79-.05,4.18s.31,2.5-.3,3.79-.26,2.58-.65,3.9a49.68,49.68,0,0,1-2.68,8c-.46.92-.76,1.92-1.14,2.9.8.39,1.5.11,2.17.21-.35,1.11-1.3.35-2,.59C426,101.49,424.3,101.91,422.67,102.4Z"/><path class="cls-11" d="M438.39,69.93c0,.26-.12.64,0,.77,2.31,2.31,3.47,5.37,5.2,8,1.91,2.94,3.69,6,5.48,9,1.21,2,2.4,4.06,3.5,6.14.49.94,1.28,1.68,1.73,2.67a1.65,1.65,0,0,1,.13,1.63c-1.78-.42-3.53-1-5.32,0-.33.19-.85,0-1.29,0-1.21,0-2.44,0-3.65,0s-2.17-.24-3.28.29-2.37.13-3.56.22c-.67-.1-1.37.17-2-.13a4.26,4.26,0,0,1,1-3.88,4.92,4.92,0,0,1,.56-3.28c.37-.91.17-1.9.53-2.65a7.57,7.57,0,0,0,.46-2.94c.1-1.5-.32-3,.48-4.5a1.8,1.8,0,0,0,0-1.52c-.91-1.45-.31-3-.48-4.5-.07-.68.21-1.56-.12-2-.81-1.17-.23-2.25-.35-3.38Z"/><path class="cls-12" d="M438.39,69.93h-1c.12,1.13-.46,2.21.35,3.38.33.47.05,1.35.12,2,.17,1.49-.43,3,.48,4.5a1.8,1.8,0,0,1,0,1.52c-.8,1.46-.38,3-.48,4.5a7.57,7.57,0,0,1-.46,2.94c-.36.75-.16,1.74-.53,2.65a4.92,4.92,0,0,0-.56,3.28,4.26,4.26,0,0,0-1,3.88c.63.3,1.33,0,2,.13-.06.14-.13.42-.18.41-2.07-.17-4,.79-6.11.63.13-.66-.22-1.36.18-2a28.69,28.69,0,0,0,2.19-5.88c.71-2.1.76-4.36,1.24-6.53s.15-10.82-.52-13.32a50.69,50.69,0,0,0-3.06-8.91A43.09,43.09,0,0,0,421.85,50c-1.24-1.16-2.53-2.26-3.81-3.37a28.74,28.74,0,0,0-6.41-4.11,33.11,33.11,0,0,0-6.3-2.43,1.28,1.28,0,0,1-1-1,14,14,0,0,1,4.19-2.62v1.4a48.39,48.39,0,0,1,6.83,3.59c2.4,1.46,4.92,2.74,6.87,4.81a9.66,9.66,0,0,0,1.83,1.12l.18-.44c.57.1.8.53,1.06,1,3,5.21,5.9,10.49,9.07,15.6C435.7,65.62,436.88,67.88,438.39,69.93Z"/><path class="cls-5" d="M463.62,141.77c2.65-.31,5.1-.3,6.63,2.42V174.1h-6.63Z"/><path class="cls-5" d="M460.38,174.1h-6.73V141.79c2.58-.36,5.07-.38,6.73,2.55Z"/><path class="cls-13" d="M404.34,39a1.28,1.28,0,0,0,1,1,33.11,33.11,0,0,1,6.3,2.43A28.74,28.74,0,0,1,418,46.61c1.28,1.11,2.57,2.21,3.81,3.37a43.09,43.09,0,0,1,9.23,13.15A50.69,50.69,0,0,1,434.14,72c.67,2.5,1,11.16.52,13.32s-.53,4.43-1.24,6.53a28.69,28.69,0,0,1-2.19,5.88c-.4.65-.05,1.35-.18,2-.24,1-1.05.33-1.57.53-.67-.1-1.37.18-2.17-.21.38-1,.68-2,1.14-2.9a49.68,49.68,0,0,0,2.68-8c.39-1.32.08-2.73.65-3.9s.21-2.54.3-3.79-.07-2.8.05-4.18c.07-.83-.76-1.32-.56-2.14s-.42-1.46-.46-2.14A13.83,13.83,0,0,0,430,68.22c-.84-1.92-1.24-4-2.4-5.82s-2.14-3.64-3.33-5.41-3-3.14-4.19-5a9.51,9.51,0,0,0-3.1-2.54c-1.91-1.27-3.66-2.75-5.71-3.84A44.71,44.71,0,0,0,403,42.19c-.86-.25-1.34-.65-1.23-1.59Z"/><path class="cls-14" d="M444.24,149.09c2.78-.25,5.44-.41,6.64,2.94V174.1h-6.64Z"/><path class="cls-15" d="M424.24,46.89l-.18.44a9.66,9.66,0,0,1-1.83-1.12c-2-2.07-4.47-3.35-6.87-4.81a48.39,48.39,0,0,0-6.83-3.59v-1.4c0-.08,0-.24,0-.25,2.29-.85,4.11-2.6,6.43-3.42a2.77,2.77,0,0,0,.6-.45A122.77,122.77,0,0,1,424.24,46.89Z"/><path class="cls-16" d="M388.11,117.59v-.77c.13-.09.26-.26.39-.27,2.57,0,5.14,0,7.7,0a2.9,2.9,0,0,0,1.85-.59l1.06.56c-1.29,1.55-2.6,3.09-3.86,4.66-1,1.21-1.88,2.47-2.83,3.72a.94.94,0,0,1-1-.63,33.54,33.54,0,0,0-3.16-5.72C388,118.22,388.18,117.91,388.11,117.59Z"/><path class="cls-17" d="M369.25,86.17c.93.32.56.93.33,1.5a3.84,3.84,0,0,1-.33.59,3.53,3.53,0,0,0-2.22.93,10.59,10.59,0,0,1-3.46,1.72,13.18,13.18,0,0,0-1.93,1,151.53,151.53,0,0,0-14.13,6.8c-.2.12-.51,0-.78,0s-.53-.16-.52-.53c1.64-.85,3.23-1.81,4.93-2.52s3.14-2,4.84-2.72a17.58,17.58,0,0,0,4.66-2.57c.69-.6,1.78-.69,2.62-1.15,1.7-.92,3.37-1.91,5-2.92C368.63,86.11,368.93,86.24,369.25,86.17Z"/><path class="cls-18" d="M371.87,103.45a1.3,1.3,0,0,1,1.05,1,39.58,39.58,0,0,1-7.32,3.7c-2.31.91-4.48,2.18-6.72,3.26-2.82,1.36-5.65,2.69-8.49,4a1.44,1.44,0,0,1-.51,0,.45.45,0,0,1-.53-.53c1.58-.79,3.23-1.47,4.72-2.4,3.84-2.39,8.07-4,11.92-6.42A17.62,17.62,0,0,1,371.87,103.45Z"/><path class="cls-19" d="M450.92,146.85h-6.71v-5.21c1.88.22,3.86-.51,5.49,1.13C450.75,143.83,451,144.34,450.92,146.85Z"/><path class="cls-16" d="M384.44,115.5c1,.24.33,1,.53,1.57-2,.89-3.88,1.91-5.93,2.66s-3.74,2.18-5.92,2.71a12.86,12.86,0,0,0-3.41,1.8c-.35.21-.66.09-1,.16s-.54-.16-.52-.53c3.48-1.82,7-3.62,10.43-5.47,1.64-.87,3.24-1.79,4.83-2.75C383.82,115.44,384.12,115.56,384.44,115.5Z"/><path class="cls-20" d="M349.35,115a.45.45,0,0,0,.53.53,14.74,14.74,0,0,1-5.24,2.61.44.44,0,0,1-.52-.52Z"/><path class="cls-21" d="M368.21,123.87c0,.37.16.54.52.53-1.87,1.36-3.19,1.94-4.63,1.89.91-.13,1.19-1.06,2-1.38S367.5,124.22,368.21,123.87Z"/><path class="cls-22" d="M346.21,98.21c0,.37.16.54.52.53a5.43,5.43,0,0,1-3.86,1.56C343.91,99.07,345.18,98.83,346.21,98.21Z"/><path class="cls-23" d="M344.12,117.59a.44.44,0,0,0,.52.52,2.62,2.62,0,0,1-2.65,1C342.48,118.11,343.46,118.07,344.12,117.59Z"/><path class="cls-24" d="M392.49,93A13.46,13.46,0,0,1,385,90.25a11.26,11.26,0,0,1-4.27-7.14c-.2-1-.72-2-.41-2.91.5-1.5.3-3.14,1-4.54A15.78,15.78,0,0,1,383.19,73c.49-.61,1.15-1.07,1.64-1.68a6.9,6.9,0,0,1,4.74-2.4c.79-.1,1.31-.65,2.13-.64a16.55,16.55,0,0,1,6.67,1.6,10.8,10.8,0,0,1,4.12,3.8,11.25,11.25,0,0,1,2.35,6.83,13.94,13.94,0,0,1-2,6.73,10.06,10.06,0,0,1-5.5,4.67A20.42,20.42,0,0,1,392.49,93Z"/><path id="Adobe_Illustrator_Basic" data-name="Adobe Illustrator Basic" class="cls-25" d="M510,500.51,466.55,205.62a298.19,298.19,0,0,1,43.32-3.15Z"/><path id="Smartphone_Photography" data-name="Smartphone Photography" class="cls-26" d="M466.14,205.73,510,500.51,254.39,347.25A297.39,297.39,0,0,1,466.14,205.73Z"/><path id="Advanced_Graphic_Design" data-name="Advanced Graphic Design" class="cls-26" d="M803,555.13c-25.65,138.5-147.09,243.4-293,243.4-131.5,0-243.11-85.16-282.68-203.33L510,500.51Z"/><path id="Foundation_Graphic_Design" data-name="Foundation Graphic Design" class="cls-26" d="M510,500.51,227.33,595.2a298.8,298.8,0,0,1,27.31-248.45Z"/><path id="Foundation_Web_Design" data-name="Foundation Web Design" class="cls-26" d="M808,500.51a299.6,299.6,0,0,1-5,54.62L510,500.51,737.44,307.93A296.77,296.77,0,0,1,808,500.51Z"/><path id="UX_Web_Design" data-name="UX &amp; Web Design" class="cls-27" d="M737.44,307.93,510,500.51v-298A297.3,297.3,0,0,1,737.44,307.93Z"/><g id="shaw"><path class="cls-28" d="M892.36,813.39c-.14.23-.3.45-.41.68q-4.83,10.56-9.66,21.11c-.27.58-.55,1.05-1.36.78.8-1.71,1.54-3.45,2.41-5.12a2.57,2.57,0,0,0,0-2.57c-2.26-4.77-4.44-9.58-6.65-14.38-.09-.21-.18-.41-.27-.63a1,1,0,0,1,1.33.66q3.24,7.2,6.54,14.36c0,.06.09.1.14.15,2.15-4.73,4.31-9.44,6.43-14.17.31-.69.65-1.2,1.48-1.15Z"/><path class="cls-29" d="M851.47,816c.65-.59,1.31-1.26,2-1.85,3.29-2.59,7.26-1.18,8.16,2.82a14.39,14.39,0,0,1,1.4-2.21,5.68,5.68,0,0,1,6.32-1.5c2.25.71,3.19,2.54,3.4,4.73.14,1.57.08,3.16.09,4.74,0,2.16,0,4.33,0,6.49,0,.31.23.76-.44.78s-.48-.42-.48-.74c0-3.35,0-6.7,0-10a9.13,9.13,0,0,0-.46-2.8c-1-3-4.26-3.24-6.32-2.35-2.22,1-3,2.87-3,5.13,0,3.4,0,6.79,0,10.19,0,.41,0,.64-.55.61s-.38-.37-.38-.63c0-3.33,0-6.65,0-10a12.52,12.52,0,0,0-.24-2.28c-.64-3.14-3.23-4-5.76-3.17a6.74,6.74,0,0,0-3.51,3,1.64,1.64,0,0,0-.16.86q0,5.76,0,11.52c0,.45-.07.74-.58.61-.15,0-.26-.22-.37-.35s0-.09,0-.14c0-5.25,0-10.51,0-15.76,0-.47.29-.69.61-.45a.71.71,0,0,1,.18.48C851.41,814.54,851.44,815.34,851.47,816Z"/><path class="cls-28" d="M838.61,820.54c-2,0-4.09,0-6.14,0-.44,0-.65.1-.58.57a28.73,28.73,0,0,0,.43,3.37,6.21,6.21,0,0,0,6,5,8.83,8.83,0,0,0,5.8-1.59c.11-.08.23-.2.35-.21a1.77,1.77,0,0,1,.48.15c-.05.13-.05.31-.15.39a5,5,0,0,1-.83.62,10,10,0,0,1-7.26,1.13,6.79,6.79,0,0,1-5.26-5,10.51,10.51,0,0,1,.8-8.67c2.1-3.57,7.6-4.28,10.64-2a7.07,7.07,0,0,1,2.65,5.88c0,.52-.36.44-.68.44ZM832,820h12.32c.46,0,.42-.24.39-.53-.33-4.36-3.52-6.48-7.57-5.65C834.11,814.39,832.29,816.64,832,820Z"/><path class="cls-29" d="M824.79,815.57c0-3.31,0-6.46,0-9.62,0-.27-.14-.61.39-.61s.58.11.58.58q0,11.76,0,23.51c0,.18-.17.49-.3.52-.37.07-.52-.18-.52-.55a24.32,24.32,0,0,0-.07-2.56,10,10,0,0,1-4.07,2.93c-3.21,1.05-8,.31-9-5a13.87,13.87,0,0,1,.09-6.28,7.26,7.26,0,0,1,7.59-5.58A6.7,6.7,0,0,1,824.79,815.57Zm0,5.64c0-1.38,0-2.75,0-4.12a1.89,1.89,0,0,0-.35-1c-1.66-2.23-4-2.79-6.58-2.36a6.1,6.1,0,0,0-5.05,4.79,12.58,12.58,0,0,0,.06,6.75,5.08,5.08,0,0,0,4,4c3.22.71,5.7-.43,7.81-3.2a1.39,1.39,0,0,0,.16-.72C824.81,824,824.8,822.58,824.8,821.21Z"/><path class="cls-29" d="M805.49,827.14a10.41,10.41,0,0,1-4,2.65,7.47,7.47,0,0,1-4.85.09,3.79,3.79,0,0,1-2.61-3.45,3.57,3.57,0,0,1,1.89-3.54,13.77,13.77,0,0,1,5.69-1.67c1.13-.14,2.27-.17,3.41-.28.17,0,.47-.25.46-.37a25.83,25.83,0,0,0-.26-3.74,3.88,3.88,0,0,0-3.88-3.17,7,7,0,0,0-5.22,1.88,1.69,1.69,0,0,1-.56.38.57.57,0,0,1-.46-.17c-.06,0,0-.3,0-.38,2.41-2.4,6-3.15,8.7-1.81a4.77,4.77,0,0,1,2.51,4.51c.08,3.49,0,7,0,10.46a5.52,5.52,0,0,1,0,.91,2,2,0,0,1-.23.53c-.16-.18-.43-.35-.46-.56C805.58,828.71,805.55,828,805.49,827.14Zm0-3.07c0-.67,0-1.35,0-2,0-.37-.1-.49-.48-.46-1,.08-1.91.08-2.85.19a14.07,14.07,0,0,0-5.35,1.41,3.15,3.15,0,0,0-1.86,3.41,3.35,3.35,0,0,0,2.92,2.86,8,8,0,0,0,6.3-1.82,2.68,2.68,0,0,0,1.32-2.8A4.93,4.93,0,0,1,805.47,824.07Z"/><path class="cls-28" d="M785.78,812.92a7.29,7.29,0,0,1,4.29,1.43c.17.11.38.46.32.57-.19.38-.49.19-.75,0a7.11,7.11,0,0,0-6-1.06c-2.87.68-4.3,2.73-4.83,5.51a12,12,0,0,0,.16,5.19c1.14,4.47,5.2,5.66,8.79,4.5a15.38,15.38,0,0,0,2.18-1.18,2.85,2.85,0,0,1,.78-.17c-.11.24-.16.55-.34.7a7.94,7.94,0,0,1-6.21,1.68,6.68,6.68,0,0,1-6.1-5.36,11.8,11.8,0,0,1-.1-5.93C778.81,815.07,781.57,812.92,785.78,812.92Z"/><path class="cls-28" d="M771.68,827.17c-.54.46-1,.87-1.45,1.23a8,8,0,0,1-7,1.61,3.75,3.75,0,0,1-3.06-3.45,3.61,3.61,0,0,1,2-3.74,13.85,13.85,0,0,1,5.51-1.6c1.15-.14,2.31-.19,3.47-.27.26,0,.52,0,.49-.39-.09-1.18,0-2.38-.24-3.53a3.92,3.92,0,0,0-4-3.38,7,7,0,0,0-5.15,1.89,1.59,1.59,0,0,1-.56.38.62.62,0,0,1-.46-.17s0-.3.06-.38a7.85,7.85,0,0,1,8.33-2c2.06.81,2.82,2.61,2.88,4.62.1,3.86,0,7.72,0,11.58,0,.13-.16.26-.24.39-.16-.16-.44-.3-.46-.48C771.78,828.77,771.75,828,771.68,827.17Zm0-3.1c0-.67,0-1.35,0-2,0-.37-.09-.5-.47-.46-1,.08-1.91.08-2.86.19a14.12,14.12,0,0,0-5.35,1.41,3.11,3.11,0,0,0-1.85,3.41,3.37,3.37,0,0,0,2.92,2.86,8,8,0,0,0,6.35-1.86,2.6,2.6,0,0,0,1.27-2.69A3.92,3.92,0,0,1,771.68,824.07Z"/><path class="cls-30" d="M738.56,825.62c.55-1.65,1.1-3.29,1.64-4.94q1.13-3.39,2.23-6.8a1.81,1.81,0,0,1,1.85-1.48c.88,0,1.43.46,1.77,1.48q1.89,5.64,3.77,11.29l.23.66,1.45-4.89c.74-2.46,1.47-4.93,2.21-7.39a1.55,1.55,0,0,1,2-1.1,1.51,1.51,0,0,1,1,2q-2.24,7.13-4.49,14.26a2,2,0,0,1-2,1.44,2,2,0,0,1-2.05-1.47q-1.81-5.64-3.62-11.26c-.06-.2-.13-.4-.25-.77-.13.35-.23.56-.3.78q-1.82,5.59-3.62,11.19a2.14,2.14,0,0,1-4.09,0q-2.24-7.06-4.46-14.13a1.57,1.57,0,0,1,.94-2.09,1.64,1.64,0,0,1,2.06,1.18q1.65,5.46,3.28,10.92l.33,1.06Z"/><path class="cls-30" d="M697.45,815a9.21,9.21,0,0,1,4.4-2.59,7.82,7.82,0,0,1,4.13.13,4.41,4.41,0,0,1,3.2,4.48c.06,3.89,0,7.77,0,11.66a1.6,1.6,0,0,1-3.2-.06q0-4.82,0-9.63c0-.24,0-.47,0-.7a3.08,3.08,0,0,0-3.22-3.21,6.08,6.08,0,0,0-4.79,1.84,1.62,1.62,0,0,0-.55,1.28c0,3.4,0,6.79,0,10.19a1.62,1.62,0,0,1-1.53,1.81,1.51,1.51,0,0,1-1.67-1.55q0-10.65,0-21.29a1.57,1.57,0,0,1,1.63-1.56,1.61,1.61,0,0,1,1.57,1.63c0,2.21,0,4.42,0,6.63Z"/><path class="cls-30" d="M725.12,821.2c0-1.21,0-2.28,0-3.34a3.51,3.51,0,0,0-3.33-2.94,7.21,7.21,0,0,0-5.25,1.4,1.28,1.28,0,0,1-1.81-.15,1.2,1.2,0,0,1,.18-1.79,8.37,8.37,0,0,1,4.35-2,10.11,10.11,0,0,1,5.88.52,4.89,4.89,0,0,1,3.18,4.6c.1,3.72,0,7.44,0,11.16a1.55,1.55,0,0,1-1.51,1.53,1.58,1.58,0,0,1-1.69-1.34,6,6,0,0,1,0-.74l-.63.55c-2.58,2.3-7.08,2.35-9.41.12a5.6,5.6,0,0,1-1.53-5.69,5,5,0,0,1,4.12-3.9A7.54,7.54,0,0,1,725.12,821.2Zm.12,3.52c-.12-1.72-.09-1.77-.91-2.36a5.74,5.74,0,0,0-5.6-.8,3.31,3.31,0,0,0,.39,6.33,8.16,8.16,0,0,0,2.61.13,4.12,4.12,0,0,0,3.07-1.56A4.74,4.74,0,0,0,725.24,824.72Z"/><path class="cls-30" d="M683,812.14a9.08,9.08,0,0,1,5.72,1.84c.43.36.81.83.52,1.38a2.09,2.09,0,0,1-1,.88c-.26.09-.71-.13-1-.31a7.37,7.37,0,0,0-5.74-1,3.13,3.13,0,0,0-1,.41,1.94,1.94,0,0,0-1,1.9,1.69,1.69,0,0,0,1.32,1.47c1.67.54,3.38,1,5.06,1.51a9.73,9.73,0,0,1,1.75.67,4.79,4.79,0,0,1,.87,7.79,7.56,7.56,0,0,1-5.31,1.71,10.13,10.13,0,0,1-4.48-.83,11,11,0,0,1-2-1.24,1.24,1.24,0,0,1-.33-1.83,1.45,1.45,0,0,1,2-.29,7.11,7.11,0,0,0,3.49,1.47,16.61,16.61,0,0,0,3.3-.17,2.33,2.33,0,0,0,1.08-.6,2,2,0,0,0-.49-3.46c-1.3-.54-2.7-.82-4-1.27a16.57,16.57,0,0,1-3.41-1.34,4.34,4.34,0,0,1-.79-6.56C678.82,812.83,680.49,812.17,683,812.14Z"/><path class="cls-31" d="M784.09,791.81c-25.58,1-49.71-21.95-49.38-49.46.32-27.09,22.49-49.59,49.66-49.36s49.5,22,49.36,50.6C833.61,769.26,810.36,792.9,784.09,791.81Z"/><path class="cls-32" d="M783.83,783a39.93,39.93,0,0,1-40.18-40.43,40.73,40.73,0,0,1,40.71-40.69c22.54,0,40.28,18.45,40.46,41.48C825,764.36,806.17,784,783.83,783Z"/><path class="cls-30" d="M783.84,774a31.62,31.62,0,0,1-31.23-32c.1-16.73,15-31.36,31.77-31.24,17.1.12,31.5,14.78,31.46,32.05S801.44,774.09,783.84,774Z"/><path class="cls-33" d="M784.2,756.07a14.4,14.4,0,0,1-8.24-2.84c-1-.78-1.52-1.76-.58-2.94.79-1,1.73-.75,2.6-.17a11.58,11.58,0,0,0,8.39,2.1c1.93-.31,3.45-1.2,3.83-3.26.4-2.24-1.05-3.34-2.87-4-2-.7-4.11-1.15-6.12-1.85-3.46-1.2-6.28-3-5.94-7.33.32-4.15,3.12-5.87,6.74-6.74a12.91,12.91,0,0,1,9.88,1.86c1.08.64,1.74,1.67.92,2.87-.66,1-1.73.77-2.64.25a10.64,10.64,0,0,0-7.55-1.5c-1.72.35-3.1,1.29-3.3,3.18s1.2,2.59,2.62,3.12c1.69.62,3.44,1.08,5.16,1.62,5.9,1.85,7.86,4.29,7.17,8.87C793.65,753.46,790.09,756,784.2,756.07Z"/></g><rect class="cls-34" width="1020" height="880.5"/></g></g></g></svg>