<svg xmlns="http://www.w3.org/2000/svg" viewBox="0 0 1020 760"><defs><style>.cls-1{fill:#c69c6d;}.cls-1,.cls-10,.cls-2,.cls-3,.cls-4,.cls-5,.cls-6,.cls-7,.cls-8,.cls-9{stroke:#f2f2f2;stroke-miterlimit:10;stroke-width:3.17px;}.cls-2{fill:#333;}.cls-3{fill:#fbb03b;}.cls-4{fill:#e20303;}.cls-5{fill:#5b92d9;}.cls-6{fill:#867b68;}.cls-7{fill:#662d91;}.cls-8{fill:#a7bf4e;}.cls-9{fill:#f20746;}.cls-10{fill:#f15a24;}.cls-11{fill:none;}</style></defs><title>pie-work</title><g id="Layer_2" data-name="Layer 2"><g id="Industry_Chart" data-name="Industry Chart"><path id="Social_Care" data-name="Social Care" class="cls-1" d="M379.54,112.24a297.73,297.73,0,0,1,130.57-30L509.75,380Z"/><path id="Logistics" class="cls-2" d="M280.69,190a297.81,297.81,0,0,1,98.87-77.68L509.92,380Z"/><path id="Recruitment" class="cls-3" d="M251.42,231.8a297.64,297.64,0,0,1,28.84-41.59L509.63,380Z"/><path id="Retail" class="cls-4" d="M230.26,276.83A297.8,297.8,0,0,1,251.79,231L509.5,380.12Z"/><path id="Insurance" class="cls-5" d="M380.39,648.13C242.22,581.47,177.32,420.74,230.46,276.84L509.75,380Z"/><path id="Beauty" class="cls-6" d="M519.52,677.6A297.83,297.83,0,0,1,380.44,648L510.08,380Z"/><path id="Tourism" class="cls-7" d="M764.51,534.64a297.73,297.73,0,0,1-244.93,143L510.08,380Z"/><path id="Software" class="cls-8" d="M798.7,306.31a297.73,297.73,0,0,1-33.54,227.85L510.3,380.25Z"/><path id="Design" class="cls-9" d="M686.79,141.64A297.72,297.72,0,0,1,797.84,306.53L509.55,380.86Z"/><path id="Studies" class="cls-10" d="M509.7,82.47A297.75,297.75,0,0,1,687,141.24l-177.6,239Z"/><rect class="cls-11" width="1020" height="760"/></g></g></svg>