<svg xmlns="http://www.w3.org/2000/svg" viewBox="0 0 1020 880"><defs><style>.cls-1{fill:#3c3f2d;}.cls-1,.cls-2,.cls-3{stroke:#fafaf5;stroke-width:1.06px;}.cls-1,.cls-19,.cls-2,.cls-20,.cls-3{stroke-miterlimit:10;}.cls-2{fill:#69841f;}.cls-3{fill:#a7bf4e;}.cls-4{fill:#48acc0;}.cls-5{fill:#4e5051;}.cls-6{fill:#42474b;}.cls-7{fill:#43474b;}.cls-8{fill:#43464b;}.cls-9{fill:#ef5628;}.cls-10{fill:#ef572a;}.cls-11{fill:#ef5325;}.cls-12{fill:#ef5426;}.cls-13{fill:#f05c30;}.cls-14{fill:#ef592c;}.cls-15{fill:#f1673f;}.cls-16{fill:#ef5123;}.cls-17{fill:#f06339;}.cls-18{fill:#ef5223;}.cls-19{fill:#010101;}.cls-19,.cls-20{stroke:#000;stroke-width:0.84px;opacity:0.9;}.cls-21{fill:#4fa3cd;}.cls-22{fill:#dbecf4;}.cls-23{fill:#94c7e0;}.cls-24{fill:#fafcfd;}.cls-25{fill:none;}</style></defs><title>pie-studies-developer</title><g id="Layer_2" data-name="Layer 2"><g id="Skills"><g id="Industry_Chart" data-name="Industry Chart"><g id="pie-studies-developer"><g id="Dev_Pie" data-name="Dev Pie"><path id="Foundation_App_Dev" data-name="Foundation App Dev" class="cls-1" d="M510,202V500L259.63,338.27C312.72,256.25,405,202,510,202Z"/><path id="Foundation_Web_Dev" data-name="Foundation Web Dev" class="cls-1" d="M510,500,238.27,622.58a298.48,298.48,0,0,1,21.36-284.31Z"/><path id="AngularJS" class="cls-2" d="M510,500,262.23,665.66h0a298.28,298.28,0,0,1-24-43.08Z"/><path id="Front_End_Formations" data-name="Front End Formations" class="cls-2" d="M510,500,273.59,681.49q-5.93-7.72-11.36-15.83Z"/><path id="Front_End_Foundations" data-name="Front End Foundations" class="cls-2" d="M510,500,286,696.52q-6.45-7.31-12.38-15Z"/><path id="Full_Stack" data-name="Full Stack" class="cls-3" d="M808,500c0,164.6-133.44,298-298,298A297.23,297.23,0,0,1,286,696.52L510,500V202C674.59,202,808,335.4,808,500Z"/></g><path class="cls-4" d="M176.86,641.5c2.51.85,5.17,1.08,7.7,1.93,17.64,5.94,28.71,22.09,27.65,41.18a40.44,40.44,0,1,1-46.13-42.73c.33,0,.69,0,.89-.38Zm-38,40.25a33,33,0,1,0,33.52-33C153.86,648.47,138.6,664,138.91,681.75Z"/><path class="cls-5" d="M104,762.24c0-4.51.12-8.66,0-12.8-.08-1.92.56-2.33,2.29-2.18a36.61,36.61,0,0,0,5.34,0c1.38-.09,1.74.39,1.73,1.73-.05,7.68,0,15.36,0,23,0,.61,0,1.23,0,1.85.05,3.16.56,3.58,3.8,3-.14,1.86-.3,3.69-.41,5.52-.06,1-.73,1.24-1.51,1.38-5,.94-8.22.23-10.55-4-2.06,2.69-4.55,4.45-8.09,4.36a8.85,8.85,0,0,1-8.33-5.66,16.34,16.34,0,0,1,0-14c2.88-6.3,9.87-7.65,14.95-3Zm0,9.35a8.46,8.46,0,0,0-1.27-5.29c-1.41-2.09-3.59-2.06-5,0-1.72,2.48-1.71,7.93,0,10.38,1.46,2.08,3.58,2.11,5,0A8.14,8.14,0,0,0,104,771.59Z"/><path class="cls-5" d="M172.15,748.12A20.66,20.66,0,0,1,183.22,751c.89.52,1.31,1,.74,2.13-.76,1.44-1,3.52-2.13,4.31s-2.78-.86-4.25-1.29a27.79,27.79,0,0,0-5.39-1.2c-1.57-.15-2.95.31-3.46,1.93s.43,2.74,1.92,3.36c1.82.76,3.67,1.46,5.5,2.22,1,.42,2,.89,3,1.35,4.5,2,6,5.7,5.61,10.39-.35,4.42-2.57,7.53-6.66,9-7.32,2.69-14.12,1-20.53-3a1.06,1.06,0,0,1-.45-1.66c.73-1.32,1.43-2.66,2-4,.45-1,.9-1,1.81-.47a24,24,0,0,0,8.6,3.21,7.53,7.53,0,0,0,3.24-.18,2.64,2.64,0,0,0,2.13-2.23,2.86,2.86,0,0,0-1.12-2.89,16.36,16.36,0,0,0-5-2.33,21.74,21.74,0,0,1-5-2.33,9.86,9.86,0,0,1-4.52-10.1c.51-4,2.92-6.69,6.7-8.09A15.69,15.69,0,0,1,172.15,748.12Z"/><path class="cls-5" d="M222.8,763c2.55-3.09,5.31-4.41,8.78-4.21,2.94.17,4.59,1.51,5,4.42.49,3.41.14,6.85.21,10.28.06,3.14.14,3.29,3.26,3.42.53,0,.75.1.72.63a4.26,4.26,0,0,1-.08,1c-.63,1.78,1.09,4.51-2,5.29-4.23,1.06-7.8-.09-9.51-3A9.59,9.59,0,0,1,228,776q0-4.53-.05-9.06c0-.85,0-1.75-1-2.07s-1.71.37-2.23,1.1c-1.69,2.43-1.86,5.25-1.92,8.07-.07,2.67-.06,5.35,0,8,0,1.12-.33,1.59-1.53,1.53a53.86,53.86,0,0,0-6,0c-1.44.09-1.85-.35-1.84-1.81.07-8.92,0-17.85,0-26.77,0-2.06.05-4.12,0-6.18,0-1.09.2-1.6,1.44-1.55,2.13.1,4.26.09,6.38,0,1.19,0,1.53.37,1.51,1.53C222.77,753.32,222.8,757.85,222.8,763Z"/><path class="cls-5" d="M28,766.26C28,750.4,42.31,745.65,53.49,749.18c3.68,1.17,3.66,1.2,1.92,4.62-.1.18-.17.38-.27.56-1.54,2.89-1.54,2.89-4.59,1.93-6.27-2-11.32,1.24-12.25,7.71a16.33,16.33,0,0,0,.29,6.12c1.25,5.34,6.2,8,11.86,6.21,1.31-.41,2-.27,2.48,1a32.11,32.11,0,0,0,1.49,2.92c1.29,2.56,1.29,2.57-1.59,3.38a22.2,22.2,0,0,1-13.35-.25C32.06,780.89,28,774.75,28,766.26Z"/><path class="cls-5" d="M70.44,784.08c-10,0-15.94-8-12.94-17.1,1.79-5.45,7-8.46,14.19-8.14a12.26,12.26,0,0,1,11.67,9.29c1.43,6-.81,11.52-5.84,14.28A13.09,13.09,0,0,1,70.44,784.08Zm-4-12.08a9.37,9.37,0,0,0,1.21,4.73c1.4,2.4,3.87,2.52,5.15.11a11.09,11.09,0,0,0,0-10.66c-1.23-2.38-3.82-2.28-5.2.06C66.76,767.75,66.48,769.44,66.45,772Z"/><path class="cls-5" d="M286.29,758.88c9.8,0,15.74,8.31,12.44,17.37a11,11,0,0,1-5.64,6.26,15.44,15.44,0,0,1-12.95.51c-5.66-2.23-8.3-7.51-7.32-14.09a12.13,12.13,0,0,1,11.21-10C284.77,758.83,285.53,758.88,286.29,758.88Zm-4,12.48a9.3,9.3,0,0,0,1.21,5.54c1.36,2.18,3.52,2.21,5,.15,1.79-2.51,1.82-8.44.06-11-1.43-2.08-3.64-2.09-5,0A8.61,8.61,0,0,0,282.31,771.36Z"/><path class="cls-5" d="M256.26,758.8c5.4.05,9.93,1.89,12.26,7,2.19,4.82,1.83,9.67-1.66,13.9-3.93,4.77-12.38,5.89-18.14,2.53-5.18-3-7.31-9.56-5.08-15.64C245.41,761.78,250.19,758.83,256.26,758.8Zm3.79,12.6a8.57,8.57,0,0,0-1.06-5,3,3,0,0,0-2.7-1.91,2.93,2.93,0,0,0-2.73,1.89,11.61,11.61,0,0,0,.1,10.31c1.29,2.54,3.84,2.49,5.28,0A9.36,9.36,0,0,0,260.05,771.4Z"/><path class="cls-5" d="M129.09,774.59c1.23,3.21,3,4.12,6,3.33a11.81,11.81,0,0,0,4.66-2.51c.72-.61,1.06-.45,1.57.29,2.13,3.1,2.08,3.51-1,5.72-5.31,3.8-13.07,3.68-17.36-.33-4.14-3.87-4.7-8.79-3.22-13.84s5.55-7.62,10.7-8.32a12,12,0,0,1,6.85.83c2.81,1.32,4.63,3.36,4.64,6.66s-1.78,5.17-4.5,6.51S132,774.23,129.09,774.59Zm5.41-7.74a2.11,2.11,0,0,0-1.17-2.19,2.27,2.27,0,0,0-2.47.42c-1.4,1.18-1.74,2.86-2.06,4.54a.54.54,0,0,0,.3.66C130.77,771.13,134.46,768.78,134.5,766.85Z"/><path class="cls-5" d="M302.83,762.6c0-4.6,0-9.2,0-13.8,0-1.12.25-1.59,1.47-1.54a51.52,51.52,0,0,0,6,0c1.47-.1,1.83.39,1.82,1.83-.07,8.3,0,16.6,0,24.91,0,2.76.21,3,3,3,.83,0,.73.38.69.84-.13,1.64-.31,3.28-.42,4.92-.06.85-.72.93-1.3,1.06-7,1.58-11.26-1.5-11.15-8.21C302.89,771.24,302.83,766.92,302.83,762.6Z"/><path class="cls-5" d="M207,776.31l1.14,3.27c1,2.94,1,2.95-2,3.88-7.11,2.22-14.46-.61-17.21-6.62a12.66,12.66,0,0,1,11.13-18,17.38,17.38,0,0,1,7.64,1.22c1,.43,1.42.83.91,2-.63,1.43-1.06,2.94-1.64,4.59-1.76-1.14-3.52-1.87-5.59-1.21a5,5,0,0,0-2.77,2c-1.71,2.48-1.45,6.78.52,8.83S203.82,778.26,207,776.31Z"/><path class="cls-4" d="M167.65,703.51c-2.94-2.75-5.53-5.14-8.09-7.56-4.63-4.38-9.24-8.79-13.89-13.16-.65-.6-1-.92-.18-1.73,7-6.57,13.95-13.18,20.93-19.77a14,14,0,0,1,1.22-.9v9.7c0,.78-.58,1.19-1.08,1.66-3.14,3-6.25,6-9.43,8.89-1,.91-1,1.51,0,2.44,3.15,2.86,6.19,5.82,9.32,8.7a3.48,3.48,0,0,1,1.24,2.88C167.6,697.44,167.65,700.22,167.65,703.51Z"/><path class="cls-4" d="M176.17,660.14l13,12.27c3,2.83,5.95,5.68,9,8.47.72.67,1.09,1,.15,1.87-7,6.55-14,13.17-20.95,19.76-.24.23-.52.41-1.11.88,0-3.51,0-6.69,0-9.87,0-.85.74-1.28,1.28-1.79,3-2.88,6.06-5.77,9.16-8.58,1.09-1,1-1.62,0-2.59-3.14-2.86-6.17-5.85-9.3-8.73a3.25,3.25,0,0,1-1.17-2.68C176.21,666.36,176.17,663.56,176.17,660.14Z"/><path class="cls-6" d="M889.8,197.47c-.07,3.61-.19,7.23-.2,10.85,0,18.71-.05,37.42,0,56.12,0,2.47-.5,3.56-3.16,3.22a26.63,26.63,0,0,0-5.43,0c-2.7.23-4.72-.05-3.13-4.55-7,5-13.95,6.77-21.55,5.54a25.93,25.93,0,0,1-18-11.67,28.61,28.61,0,0,1,1.82-34.15c9-10.53,21-12.08,37.32-4.57V197.47Zm-27.63,59.21c8.25,0,14.7-6.78,14.68-15.45,0-8.84-6.46-15.67-14.87-15.76A15.65,15.65,0,0,0,846.41,241,15.4,15.4,0,0,0,862.17,256.68Z"/><path class="cls-7" d="M951.79,245.15c-13.28,0-26.56,0-39.84-.12-2.76,0-2.6,1-2,3.05,3,9.42,16.84,12.63,24.17,5.3a8.32,8.32,0,0,1,7.09-2.75c2.71.18,5.44,0,8.69,0-3.61,9-9.48,15.17-18.72,17.48a27.52,27.52,0,0,1-33.9-20.55,28.07,28.07,0,0,1,21.48-34.06c13.86-3,28.91,6.58,32.25,20.62.17.73-.13,1.64.74,2.13Zm-27.93-10c4.09,0,8.17-.07,12.25,0,2.12,0,2.25-.68,1.44-2.38-2.66-5.62-7.15-8.25-13.27-8.32s-10.59,2.7-13.49,8.09c-1,1.77-.85,2.67,1.5,2.61C916.15,235.08,920,235.15,923.86,235.15Z"/><path class="cls-8" d="M713.37,235.61c2.06-5.76,4.59-11.15,9.27-15.42,14.33-13.06,37.69-7.76,44.15,10.07.83,2.31,1,3.66-2.11,3.26a17.55,17.55,0,0,0-3.4,0c-3.89.26-7-.1-9.82-3.91-3.45-4.7-9.16-5.22-14.6-3.82-5.8,1.5-9.16,5.73-10.38,11.46-2.66,12.4,7.5,22.14,19.5,18.84a11.13,11.13,0,0,0,7.46-6,3.3,3.3,0,0,1,3.7-2.09,60.22,60.22,0,0,0,7.48,0c2.81-.21,2.9.87,2.12,3.15A25.67,25.67,0,0,1,742.68,269c-12.57.3-22.88-6.29-27.29-17.47-.73-1.86-1.35-3.77-2-5.65Z"/><path class="cls-9" d="M942.94,302.37A9.82,9.82,0,0,1,939,290.84c.75-2.57,2.34-4.42,5.14-4.78a6.17,6.17,0,0,1,6.62,3.08c.33.56.69,1.1,1,1.65v4.09c-2.94,0-5.88.07-8.82,0-2.14-.07-2.19.86-1.56,2.48,1.13,2.94,3.56,3.69,7.29,2.05.77-.34,1.45-.83,2.08,0,.75,1-.28,1.35-.83,1.83s-1,.8-1.56,1.19Zm2.43-9.11c.83-1.46,3.61,1.33,3.66-1.76,0-2.16-1.63-3.42-3.87-3.41-2.44,0-4.12,1.59-3.92,3.76S943.83,292.37,945.37,293.26Z"/><path class="cls-10" d="M863.24,302.37c-.25-.2-.49-.42-.76-.6-.84-.57-2.61-.71-2.06-2.06.76-1.86,2-.26,3.09,0a8.64,8.64,0,0,0,2,.51c2.17.09,4.82.27,5-2.59s-2.5-2.43-4.29-2.6c-2.49-.25-4.9-.55-5.53-3.46a4.09,4.09,0,0,1,2.62-4.95,9,9,0,0,1,8.15.55.65.65,0,0,1,.23,1.09,1.33,1.33,0,0,1-1.77.52,7.23,7.23,0,0,0-4.28-.71c-1.49.21-2.59.9-2.54,2.61s1.18,2,2.53,2.15c1,.1,2,.15,3,.33,2,.35,3.82.89,4.18,3.28a4.58,4.58,0,0,1-2.41,5.14,9.68,9.68,0,0,0-1.06.75Z"/><path class="cls-11" d="M913,302.37a6.55,6.55,0,0,1-3.62-6.68c.14-2.6,0-5.21,0-7.81,0-.79,0-1.67,1.15-1.68s1.13.89,1.13,1.67c0,2.61,0,5.21,0,7.81s1,4.51,3.87,4.55,3.94-1.87,4-4.44,0-5,0-7.47c0-.82-.34-2,1-2.09,1.69-.08,1.21,1.34,1.21,2.22,0,4.64,0,9.28-.06,13.92h-2c-.91-3-1.82,0-2.73,0Z"/><path class="cls-12" d="M853,302.37c-.06-3.14-.13-6.29-.18-9.43-.05-2.65-.92-4.8-4-4.78s-4,2.07-4,4.77c0,3.15,0,6.29-.07,9.44h-2q-.07-7.11-.14-14.23c0-1.72.45-2.78,2.22-1.27.93.79,1.42-.16,2-.38,4.69-1.62,8.09.69,8.18,5.71.07,3.39,0,6.78-.05,10.17Z"/><path class="cls-13" d="M931.36,302.37c-2.14-1.49-2.6-3.56-2.83-6.09-.28-2.92,2-6.46-1.75-8.75-.23-.14-.16-1,.37-1.11,2-.39,1.38-2,1.5-3.2.07-.83-.3-1.91,1.17-2s1.44.84,1.38,1.8c-.1,1.82-.12,3.48,2.5,3.23.25,0,.76.54.81.88.13.76-.55,1-1.09.89-2.27-.29-2.27,1.12-2.21,2.72s0,3.17,0,4.76c0,2.12-.46,4.45,2.78,4.8,1,.11.4,1.37.76,2Z"/><path class="cls-12" d="M901.38,302.37a5.32,5.32,0,0,1-2.89-5.61,54.32,54.32,0,0,0,0-6.12c0-1,.56-2.38-1.27-2.61-.74-.1-.78-1.22-.48-1.26,3.45-.56.22-4.72,3-5.43,1.12-.3,1.09.85,1.1,1.62,0,1.68-.41,3.61,2.39,3.31.64-.07,1,.47.9,1.13s-.81.72-1.32.67c-1.81-.19-2,.84-2,2.28.07,1.7,0,3.41,0,5.11,0,2.11-.5,4.46,2.75,4.87,1.07.14.42,1.33.54,2Z"/><path class="cls-14" d="M881,302.37a5.68,5.68,0,0,1-2.78-5.68,60,60,0,0,0,0-6.43c0-.91.4-2.15-1.26-2.21-.51,0-.88-.81-.7-.88,2.89-1,1.31-3.86,2.35-5.54.51-.82,1.78-.54,1.85.7.11,2-.34,4.21,2.83,4.06.41,0,.65.56.55,1.06s-.62.66-1,.61c-2.53-.31-2.29,1.42-2.27,3s0,2.94,0,4.4c0,2.12-.37,4.41,2.78,4.88,1.05.16.49,1.29.37,2Z"/><path class="cls-15" d="M889.12,302.37c0-4.61,0-9.23,0-13.84,0-.89-.51-2.25,1.08-2.37,1.82-.12,1.45,1.33,1.47,2.39.07,4.6.1,9.21.14,13.82Z"/><path class="cls-11" d="M834,302.37c-.05-4.76-.11-9.53-.14-14.29,0-.87-.16-2,1.28-1.86,1.18.12.92,1.13.93,1.85,0,4.77,0,9.53,0,14.3Z"/><path class="cls-16" d="M773,240.88a27.48,27.48,0,0,1,27.42-27.81c15.65,0,28,12.19,28,27.58,0,16.2-12,28.35-28,28.32C785.16,269,773,256.58,773,240.88Zm42.55.08c.06-9.28-5.8-15.58-14.57-15.68-9-.1-15.22,6.14-15.31,15.39-.1,9.53,5.74,15.91,14.64,16C809.59,256.79,815.53,250.66,815.59,241Z"/><path class="cls-17" d="M890.34,279.1c.94-.08,1.51.22,1.5,1.29s-.45,1.42-1.44,1.4c-.81,0-1.25-.34-1.29-1.18S889.22,279,890.34,279.1Z"/><path class="cls-18" d="M835.15,281.72c-1.11,0-1.63-.39-1.64-1.38s.46-1.16,1.23-1.21c1-.07,1.5.28,1.41,1.32C836.09,281.18,835.9,281.78,835.15,281.72Z"/><g id="shaw"><path class="cls-19" d="M249.06,310.14c-.14.23-.3.45-.41.68q-4.83,10.56-9.66,21.11c-.27.58-.55,1.05-1.36.78.8-1.71,1.54-3.45,2.41-5.12a2.57,2.57,0,0,0,0-2.57c-2.26-4.77-4.44-9.58-6.65-14.38-.09-.21-.18-.41-.27-.63a1,1,0,0,1,1.33.66q3.24,7.2,6.54,14.36c0,.06.09.1.14.15,2.15-4.73,4.31-9.44,6.43-14.17.31-.69.65-1.2,1.48-1.15Z"/><path class="cls-20" d="M208.17,312.75c.65-.59,1.32-1.26,2.05-1.85,3.29-2.59,7.26-1.18,8.16,2.82a14.39,14.39,0,0,1,1.4-2.21,5.68,5.68,0,0,1,6.32-1.5c2.25.71,3.19,2.54,3.4,4.73.14,1.57.08,3.16.09,4.74,0,2.16,0,4.33,0,6.49,0,.31.22.76-.45.78s-.48-.42-.48-.74c0-3.35,0-6.7,0-10.05a9.13,9.13,0,0,0-.46-2.8c-1-3-4.26-3.24-6.32-2.34-2.22,1-3,2.86-3,5.12,0,3.4,0,6.79,0,10.19,0,.41,0,.64-.55.61s-.38-.37-.38-.63c0-3.33,0-6.65,0-10a12.52,12.52,0,0,0-.24-2.28c-.64-3.14-3.22-4-5.76-3.17a6.74,6.74,0,0,0-3.51,3,1.64,1.64,0,0,0-.16.86q0,5.76,0,11.52c0,.45-.08.74-.59.61-.15,0-.25-.22-.37-.35s0-.09,0-.14V310.46c0-.47.29-.69.61-.45a.71.71,0,0,1,.18.48C208.11,311.29,208.14,312.09,208.17,312.75Z"/><path class="cls-19" d="M195.31,317.29c-2,0-4.09,0-6.14,0-.44,0-.64.1-.58.57a28.73,28.73,0,0,0,.43,3.37,6.21,6.21,0,0,0,6,5,8.81,8.81,0,0,0,5.79-1.59c.11-.08.23-.2.35-.21a1.77,1.77,0,0,1,.48.15c-.05.13-.05.31-.14.39a5.06,5.06,0,0,1-.84.62,10,10,0,0,1-7.26,1.13,6.76,6.76,0,0,1-5.25-5A10.47,10.47,0,0,1,189,313c2.1-3.57,7.6-4.28,10.64-2a7,7,0,0,1,2.65,5.88c0,.52-.36.44-.68.44Zm-6.61-.58H201c.45,0,.41-.24.38-.53-.32-4.36-3.52-6.48-7.57-5.65C190.81,311.14,189,313.39,188.7,316.71Z"/><path class="cls-20" d="M181.49,312.32c0-3.31,0-6.46,0-9.62,0-.27-.14-.61.39-.61s.58.11.58.58q0,11.76,0,23.51c0,.18-.17.49-.3.52-.37.07-.52-.18-.52-.55a24.32,24.32,0,0,0-.07-2.56,10,10,0,0,1-4.07,2.93c-3.21,1.05-8,.31-9.05-5a14,14,0,0,1,.09-6.28,7.26,7.26,0,0,1,7.59-5.58A6.7,6.7,0,0,1,181.49,312.32Zm0,5.64c0-1.38,0-2.75,0-4.12a1.81,1.81,0,0,0-.35-1c-1.66-2.23-4-2.79-6.58-2.36a6.08,6.08,0,0,0-5,4.79,12.48,12.48,0,0,0,0,6.75,5.1,5.1,0,0,0,4,4c3.22.71,5.7-.43,7.81-3.2a1.39,1.39,0,0,0,.16-.72C181.51,320.7,181.5,319.33,181.5,318Z"/><path class="cls-20" d="M162.19,323.89a10.41,10.41,0,0,1-4,2.65,7.47,7.47,0,0,1-4.85.09,3.79,3.79,0,0,1-2.61-3.45,3.57,3.57,0,0,1,1.89-3.54A13.77,13.77,0,0,1,158.3,318c1.13-.14,2.28-.17,3.41-.28.17,0,.47-.25.46-.37a25.83,25.83,0,0,0-.26-3.74,3.88,3.88,0,0,0-3.88-3.17,7,7,0,0,0-5.22,1.88,1.59,1.59,0,0,1-.56.38.57.57,0,0,1-.46-.17c-.06-.05,0-.3.05-.38,2.41-2.4,6-3.15,8.7-1.81a4.77,4.77,0,0,1,2.51,4.51c.09,3.49,0,7,0,10.47a6.76,6.76,0,0,1,0,.9,2.48,2.48,0,0,1-.24.53c-.16-.18-.43-.35-.46-.56C162.28,325.46,162.26,324.74,162.19,323.89Zm0-3.07c0-.67,0-1.35,0-2,0-.37-.1-.49-.48-.46-.95.08-1.9.08-2.85.19a14.07,14.07,0,0,0-5.35,1.41,3.15,3.15,0,0,0-1.86,3.41,3.35,3.35,0,0,0,2.92,2.86,8,8,0,0,0,6.3-1.82,2.67,2.67,0,0,0,1.32-2.8A5,5,0,0,1,162.18,320.82Z"/><path class="cls-19" d="M142.48,309.67a7.29,7.29,0,0,1,4.29,1.43c.17.11.38.46.32.57-.19.38-.49.19-.75,0a7.1,7.1,0,0,0-6.05-1.06c-2.87.68-4.3,2.73-4.83,5.51a12,12,0,0,0,.16,5.19c1.14,4.47,5.2,5.66,8.79,4.5a15.38,15.38,0,0,0,2.18-1.18,2.85,2.85,0,0,1,.78-.17c-.11.24-.16.55-.34.7a7.94,7.94,0,0,1-6.21,1.68,6.69,6.69,0,0,1-6.1-5.36,11.91,11.91,0,0,1-.1-5.93C135.51,311.82,138.27,309.67,142.48,309.67Z"/><path class="cls-19" d="M128.38,323.92c-.54.46-1,.87-1.45,1.23a8,8,0,0,1-6.94,1.61,3.75,3.75,0,0,1-3.07-3.45,3.61,3.61,0,0,1,2-3.74,13.85,13.85,0,0,1,5.51-1.6c1.15-.14,2.31-.19,3.47-.27.26,0,.52,0,.49-.39-.09-1.18,0-2.38-.24-3.53a3.92,3.92,0,0,0-4-3.38,7,7,0,0,0-5.15,1.89,1.59,1.59,0,0,1-.56.38.58.58,0,0,1-.45-.17c-.06-.05,0-.3.05-.38a7.85,7.85,0,0,1,8.33-2c2.06.81,2.82,2.61,2.88,4.62.11,3.86,0,7.72,0,11.58,0,.13-.16.26-.24.39-.16-.16-.44-.3-.46-.48C128.48,325.52,128.45,324.78,128.38,323.92Zm0-3.1c0-.67,0-1.35,0-2,0-.37-.09-.5-.47-.46-1,.08-1.91.08-2.86.19a14,14,0,0,0-5.34,1.41,3.12,3.12,0,0,0-1.86,3.41,3.37,3.37,0,0,0,2.92,2.86,8,8,0,0,0,6.35-1.86,2.6,2.6,0,0,0,1.27-2.69A3.92,3.92,0,0,1,128.38,320.82Z"/><path class="cls-21" d="M95.26,322.37c.55-1.65,1.1-3.29,1.64-4.94q1.13-3.39,2.23-6.8a1.81,1.81,0,0,1,1.85-1.48c.88,0,1.44.46,1.78,1.48l3.76,11.29.23.66,1.45-4.89c.74-2.46,1.47-4.93,2.21-7.39a1.55,1.55,0,0,1,2-1.1,1.51,1.51,0,0,1,1,2q-2.23,7.13-4.49,14.26a2,2,0,0,1-2,1.44,2.05,2.05,0,0,1-2.05-1.47q-1.81-5.64-3.62-11.26c-.06-.2-.13-.4-.25-.77-.13.35-.23.56-.3.78q-1.82,5.6-3.62,11.19a2.14,2.14,0,0,1-4.09,0q-2.23-7.07-4.46-14.13a1.56,1.56,0,0,1,.95-2.09,1.63,1.63,0,0,1,2.05,1.18q1.65,5.46,3.29,10.92c.1.36.21.71.32,1.06Z"/><path class="cls-21" d="M54.15,311.7a9.39,9.39,0,0,1,4.4-2.59,7.92,7.92,0,0,1,4.13.13,4.41,4.41,0,0,1,3.2,4.48c.06,3.89,0,7.78,0,11.66a1.6,1.6,0,0,1-3.2-.06q0-4.81,0-9.63c0-.24,0-.47,0-.7a3.08,3.08,0,0,0-3.22-3.21,6.08,6.08,0,0,0-4.79,1.84,1.58,1.58,0,0,0-.54,1.28c0,3.4,0,6.79,0,10.19a1.63,1.63,0,0,1-1.53,1.81,1.52,1.52,0,0,1-1.68-1.55q0-10.65,0-21.29a1.57,1.57,0,0,1,1.63-1.56,1.61,1.61,0,0,1,1.57,1.63c0,2.21,0,4.42,0,6.63Z"/><path class="cls-21" d="M81.82,318c0-1.21.05-2.28,0-3.34a3.53,3.53,0,0,0-3.34-2.94,7.18,7.18,0,0,0-5.24,1.4,1.29,1.29,0,0,1-1.82-.15,1.2,1.2,0,0,1,.18-1.79,8.37,8.37,0,0,1,4.35-2,10.1,10.1,0,0,1,5.88.52,4.9,4.9,0,0,1,3.18,4.6c.11,3.72,0,7.44,0,11.16a1.55,1.55,0,0,1-1.51,1.53,1.57,1.57,0,0,1-1.68-1.34,5.66,5.66,0,0,1,0-.74l-.63.55c-2.58,2.3-7.08,2.35-9.41.12a5.6,5.6,0,0,1-1.53-5.69,5,5,0,0,1,4.12-3.9A7.53,7.53,0,0,1,81.82,318Zm.12,3.52c-.12-1.72-.09-1.77-.91-2.36a5.74,5.74,0,0,0-5.6-.8,3.31,3.31,0,0,0,.39,6.33,8.16,8.16,0,0,0,2.61.13,4.15,4.15,0,0,0,3.08-1.56A5,5,0,0,0,81.94,321.47Z"/><path class="cls-21" d="M39.73,308.89a9.08,9.08,0,0,1,5.72,1.84c.43.36.81.83.52,1.38a2.09,2.09,0,0,1-1,.88c-.26.09-.71-.13-1-.31a7.37,7.37,0,0,0-5.74-1,3.13,3.13,0,0,0-1,.41,2,2,0,0,0-1,1.9,1.69,1.69,0,0,0,1.32,1.47c1.68.54,3.38,1,5.06,1.51a9.73,9.73,0,0,1,1.75.67,4.79,4.79,0,0,1,.87,7.79,7.56,7.56,0,0,1-5.31,1.71,10.13,10.13,0,0,1-4.48-.83,11,11,0,0,1-2-1.24,1.24,1.24,0,0,1-.33-1.83,1.45,1.45,0,0,1,2-.29,7.11,7.11,0,0,0,3.49,1.47,16.75,16.75,0,0,0,3.31-.17,2.35,2.35,0,0,0,1.07-.6,2,2,0,0,0-.49-3.46c-1.3-.54-2.7-.82-4-1.27A16.79,16.79,0,0,1,35,317.59a4.34,4.34,0,0,1-.79-6.56C35.52,309.58,37.19,308.92,39.73,308.89Z"/><path class="cls-22" d="M140.79,288.56c-25.58,1-49.71-21.95-49.38-49.46.32-27.09,22.49-49.59,49.66-49.36s49.5,22,49.36,50.6C190.31,266,167.07,289.65,140.79,288.56Z"/><path class="cls-23" d="M140.54,279.7a39.94,39.94,0,0,1-40.19-40.43,40.73,40.73,0,0,1,40.71-40.69c22.54,0,40.29,18.45,40.46,41.48C181.69,261.11,162.87,280.72,140.54,279.7Z"/><path class="cls-21" d="M140.54,270.77a31.62,31.62,0,0,1-31.23-32c.1-16.73,15-31.36,31.77-31.24,17.1.12,31.5,14.78,31.46,32.05S158.15,270.84,140.54,270.77Z"/><path class="cls-24" d="M140.9,252.82a14.42,14.42,0,0,1-8.24-2.84c-1-.78-1.52-1.76-.58-2.94.79-1,1.73-.75,2.61-.17a11.54,11.54,0,0,0,8.38,2.1c1.93-.31,3.45-1.2,3.83-3.26.4-2.24-1-3.34-2.87-4-2-.7-4.11-1.15-6.12-1.85-3.46-1.2-6.28-3-5.94-7.33.32-4.15,3.12-5.87,6.74-6.74a12.9,12.9,0,0,1,9.88,1.86c1.08.64,1.74,1.67.93,2.88-.67,1-1.74.76-2.65.24a10.64,10.64,0,0,0-7.55-1.5c-1.72.35-3.1,1.29-3.3,3.18s1.2,2.59,2.62,3.12c1.69.62,3.44,1.08,5.16,1.62,5.9,1.85,7.86,4.29,7.17,8.88C150.35,250.21,146.79,252.7,140.9,252.82Z"/></g><rect class="cls-25" width="1020" height="880"/></g></g></g></g></svg>