<svg xmlns="http://www.w3.org/2000/svg" viewBox="0 0 1020 880.5"><defs><style>.cls-1{fill:#404b59;}.cls-1,.cls-2,.cls-3{stroke:#fafaf5;stroke-width:1.06px;}.cls-1,.cls-2,.cls-3,.cls-36,.cls-37{stroke-miterlimit:10;}.cls-2{fill:#a4c0e4;}.cls-3{fill:#4670a6;}.cls-4{fill:#666;}.cls-5{fill:#fee066;}.cls-6{fill:#fed947;}.cls-7{fill:#fecb00;}.cls-8{fill:#fed42d;}.cls-9{fill:#fed324;}.cls-10{fill:#fecb01;}.cls-11{fill:#fecf12;}.cls-12{fill:#fed016;}.cls-13{fill:#676767;}.cls-14{fill:#fecc04;}.cls-15{fill:#fed327;}.cls-16{fill:#fed73c;}.cls-17{fill:#fed52e;}.cls-18{fill:#6a6a6a;}.cls-19{fill:#fee374;}.cls-20{fill:#fee993;}.cls-21{fill:#fee994;}.cls-22{fill:#feeda7;}.cls-23{fill:#fee583;}.cls-24{fill:#79c900;}.cls-25{fill:#70b000;}.cls-26{fill:#71b100;}.cls-27{fill:#dfdfdf;}.cls-28{fill:#d88500;}.cls-29{fill:#dcefbf;}.cls-30{fill:#86d700;}.cls-31{fill:#fec100;}.cls-32{fill:#f39000;}.cls-33{fill:#fefefe;}.cls-34{fill:#fef2b7;}.cls-35{fill:#3f3f3f;}.cls-36{fill:#010101;}.cls-36,.cls-37{stroke:#000;stroke-width:0.84px;opacity:0.9;}.cls-38{fill:#4fa3cd;}.cls-39{fill:#dbecf4;}.cls-40{fill:#94c7e0;}.cls-41{fill:#fafcfd;}.cls-42{fill:none;}</style></defs><title>pie-studies-general</title><g id="Layer_2" data-name="Layer 2"><g id="Skills"><g id="Industry_Chart" data-name="Industry Chart"><g id="pie-studies-general"><path id="Dutch" class="cls-1" d="M510,202.47v298L413.8,218.35A297.53,297.53,0,0,1,510,202.47Z"/><path id="Welsh" class="cls-1" d="M510,500.5,328.15,264.38a297,297,0,0,1,85.65-46Z"/><path id="Business_English" data-name="Business English" class="cls-2" d="M326.82,265.38,510,500.5l-291.49-62A297.3,297.3,0,0,1,326.82,265.38Z"/><path id="MS_Outlook" data-name="MS Outlook" class="cls-3" d="M510,500.5l.2.65L245.63,638.22a298.15,298.15,0,0,1-26.87-201Z"/><path id="MS_Excel" data-name="MS Excel" class="cls-3" d="M510.2,501.15l88.2,284C487.45,819.58,361.77,787,282.18,692.63a299.53,299.53,0,0,1-36.55-54.41Z"/><path id="MS_Word" data-name="MS Word" class="cls-3" d="M805.43,461c13,97.47-22.57,199.28-103.31,267.37A297,297,0,0,1,598.4,785.19l-88.2-284-.2-.65Z"/><path id="Business_Writing" data-name="Business Writing" class="cls-3" d="M737.83,308.37A296.77,296.77,0,0,1,805.43,461L510,500.5,710.6,280.06A299.55,299.55,0,0,1,737.83,308.37Z"/><path id="Project_Management" data-name="Project Management" class="cls-3" d="M710.87,280.35,510,500.5l12.75-297.75A296.83,296.83,0,0,1,710.87,280.35Z"/><path id="Trello" class="cls-3" d="M522.75,202.75,510,500.5v-298Q516.41,202.47,522.75,202.75Z"/><path class="cls-4" d="M867.29,726.29a71.69,71.69,0,0,0-8.49-2.13c-2.13-.34-4.19-1.1-6.39-1-1.71-1.16-3.74-.31-5.62-.93s-3.81-.12-5.73-.12-4-.06-6,0c-1.06,0-2,.79-3.18.49s-2.27.74-3.45.51-2,.82-3.19.54c-.76,1-2.22,0-3,1-5.36.69-9.78,3.77-14.63,5.76-1.72,1.73-4.15,2.49-5.83,4.27-.58.62-1.7.5-2,2.06a54.06,54.06,0,0,1-1.4-5.88A45.79,45.79,0,0,1,810,721.44a51.76,51.76,0,0,1,10.46-5.05c2.53-.88,5.09-1.64,7.7-2.31,2-.5,4-1,6-1.3.9-.15,1.68-.73,2.65-.62a6.94,6.94,0,0,0,2.61,0c3.31-1,6.67-.31,10-.48,1.92-.09,3.84,0,5.76,0,1.16,0,2.34-.23,3.48.46.5.3,1.33,0,2.17,0-1.7-2.87-3.29-5.58-4.91-8.27-1.4-2.31-2.84-4.59-4.26-6.88-.77-1.25-1.34-2.59-2.16-3.83-2-3-3.63-6.17-5.47-9.24s-3.75-5.94-5.48-9c-1.25-2.2-2.63-4.31-3.9-6.5-1.81-3.1-3.54-6.24-5.59-9.2-.3-.42-.13-.82-.25-1.35a88,88,0,0,1,17.41-5,2.75,2.75,0,0,1,1,1.6c.46,2.14,1.18,4.22,1.72,6.34.61,2.37,1.4,4.68,1.94,7.07.45,2,1,3.93,1.61,5.87.9,3,1.75,5.91,2.57,8.89.51,1.88,1,3.79,1.61,5.61a48,48,0,0,1,1.38,4.64c.37,1.51.94,3,1.26,4.5a41.1,41.1,0,0,0,1.56,5.62,38.3,38.3,0,0,1,1.38,4.64c.34,1.52.92,3,1.27,4.49s.88,3.27,1.42,4.89a67.25,67.25,0,0,1,2.06,7.51C867.11,725.12,868.1,725.38,867.29,726.29Z"/><path class="cls-5" d="M773.84,705.9a27.79,27.79,0,0,1-2.62-4.17c-.92-1.59-1.84-3.19-2.78-4.84a1.39,1.39,0,0,1-1.41.63c.11-.2.24-.39.33-.6.22-.57.6-1.18-.33-1.5-.06-.71.62-.39,1-.7a62.57,62.57,0,0,1,6.59-18.08,36.6,36.6,0,0,1,4.48-6.88c0,.53.54.64.73,1,1-.66,2.37-.63,3.27-1.53,1,.29,1.8-.28,2.66-.55a16.85,16.85,0,0,1,6.58-.44,17.32,17.32,0,0,1,4.31.93c5,1.79,7.19,3.34,10.52,7.38a18.3,18.3,0,0,1,3.93,8.08c1.26,6.19,1.27,4.69.49,8.78a24,24,0,0,1-3.06,8.18,21.6,21.6,0,0,1-9,8.13,14.53,14.53,0,0,1-7.84,1.93,2.31,2.31,0,0,0-2.14.61,2.64,2.64,0,0,0-2.14-.62,10.59,10.59,0,0,1-4-1,34.37,34.37,0,0,1-4.38-2.08,14.79,14.79,0,0,1-2.45-1.68A3.13,3.13,0,0,0,773.84,705.9Zm16.43-3.63a20.46,20.46,0,0,0,4.81-1.07,10.06,10.06,0,0,0,5.5-4.67,13.78,13.78,0,0,0,2-6.73,11.34,11.34,0,0,0-2.36-6.83,10.78,10.78,0,0,0-4.12-3.79,16.35,16.35,0,0,0-6.67-1.6c-.82,0-1.34.54-2.12.64a6.93,6.93,0,0,0-4.75,2.39c-.48.61-1.14,1.08-1.64,1.68a16.47,16.47,0,0,0-1.86,2.63c-.72,1.39-.52,3-1,4.53-.31.92.2,1.94.41,2.92a11.22,11.22,0,0,0,4.27,7.14A13.48,13.48,0,0,0,790.27,702.27Z"/><path class="cls-6" d="M773.84,705.9a3.13,3.13,0,0,1,2.73,1,14.79,14.79,0,0,0,2.45,1.68,34.37,34.37,0,0,0,4.38,2.08,10.59,10.59,0,0,0,4,1,2.64,2.64,0,0,1,2.14.62,2.31,2.31,0,0,1,2.14-.61,14.53,14.53,0,0,0,7.84-1.93,21.6,21.6,0,0,0,9-8.13,24,24,0,0,0,3.06-8.18c.78-4.09.77-2.59-.49-8.78a18.3,18.3,0,0,0-3.93-8.08c-3.33-4-5.48-5.59-10.52-7.38a17.32,17.32,0,0,0-4.31-.93,16.85,16.85,0,0,0-6.58.44c-.86.27-1.68.84-2.66.55-.9.9-2.24.87-3.27,1.53-.19-.37-.75-.48-.73-1a64,64,0,0,1,11.53-12.57v1.31l.8.8a20.2,20.2,0,0,1,7.32,1,39,39,0,0,1,12.46,7.19A44.76,44.76,0,0,1,815,672a13.63,13.63,0,0,1,2.56,4.14c.91,2.59,2.49,5,2.36,7.92,1,1,.08,2.38.68,3.37.71,1.17.09,2.37.39,3.51s-.68,1.65-.59,2.66a16.07,16.07,0,0,1-1,5.84c-1.35,4.75-4.24,8.63-7.29,12.38-.58.71-1.72,1.07-2.3,1.9s-1.63,1.18-2.42,1.8a26.91,26.91,0,0,1-5.73,3.17,23.9,23.9,0,0,1-6.55,1.79c-2.91.4-5.91.07-8.87.12a5.87,5.87,0,0,1-1.89-.51,2.29,2.29,0,0,0-2.12.49,21,21,0,0,1-2.61-4.23,28.56,28.56,0,0,0-2.74-4.56,2.37,2.37,0,0,0-1.68.28,28,28,0,0,1-4.5,1.7,1.27,1.27,0,0,0-1-1c1.59-1.63,3.74-2.32,5.8-3.4a3.81,3.81,0,0,0-1.26-2.25C773.78,706.71,773.84,706.32,773.84,705.9Z"/><path class="cls-7" d="M755.56,761.41c-1.23,0-2.19-.07-3.13,0a4.7,4.7,0,0,1-4.77-2.64,5.45,5.45,0,0,0-4.8-2.59c-1.39-.08-2.79,0-4.16,0a16.32,16.32,0,0,0-2.59,1.37c-1.68,1.33-2.41,3.29-3.12,5.23s-.51,4-.52,6.07a20.11,20.11,0,0,0,1.69,5.58,7.29,7.29,0,0,0,4.24,3.6,8.1,8.1,0,0,0,5.3.27,7.12,7.12,0,0,0,3.92-2.51,5.46,5.46,0,0,0,1.6-4,1.59,1.59,0,0,0-.14-.31h-4.76l-1.83-1.83v-3.48h13V783.3h-3.39c-1.39-.39-.89-2.2-2-3-1.15.69-1.82,1.9-3,2.61a10.25,10.25,0,0,1-4.36,1.43c-1.53.13-3.21.63-4.78-.38-.49-.32-1.36-.05-1.73-.05-1.29-.61-2.34-1-3.33-1.58a10.85,10.85,0,0,1-4.56-4.54,22.88,22.88,0,0,1-2.22-6.16,37.89,37.89,0,0,1-.39-6.61c-.07-1.88,1.45-7.19,2.62-8.58,2-2.37,4.29-4.54,7.38-5.51a9.27,9.27,0,0,1,3.44-.56c1.65.1,3.34-.14,5,.06,3.82.46,7.17,1.84,9.34,5.32A11.33,11.33,0,0,1,755.56,761.41Z"/><path class="cls-8" d="M782.22,720.56a2.29,2.29,0,0,1,2.12-.49,5.87,5.87,0,0,0,1.89.51c3-.05,6,.28,8.87-.12a23.9,23.9,0,0,0,6.55-1.79,26.91,26.91,0,0,0,5.73-3.17c.79-.62,1.8-.91,2.42-1.8s1.72-1.19,2.3-1.9c3-3.75,5.94-7.63,7.29-12.38a16.07,16.07,0,0,0,1-5.84c-.09-1,.86-1.65.59-2.66s.32-2.34-.39-3.51c-.6-1,.34-2.4-.68-3.37.13-2.91-1.45-5.33-2.36-7.92A13.63,13.63,0,0,0,815,672a44.76,44.76,0,0,0-3.82-4.46,39,39,0,0,0-12.46-7.19,20.2,20.2,0,0,0-7.32-1l-.8-.8v-1.31a5.07,5.07,0,0,1,2.26-2.13c1-.43,1.39-1.65,2.45-2.06a1.19,1.19,0,0,0,1,1c3.66.55,6.92,2.2,10.25,3.65,3.84,1.65,6.84,4.44,9.76,7.27.93.9,1.71,2.07,2.65,3a5.59,5.59,0,0,1,.48.84,36.34,36.34,0,0,1,4.68,8.78c.55,1.61,1.44,3.22,1.48,4.84.06,2.39.89,4.69.63,7.1-.2,1.84.22,3.69-.47,5.55-.41,1.12,0,2.46-.54,3.7s-.6,2.89-1.17,4.22-1.41,2.72-2,4.12a32.41,32.41,0,0,1-1.77,2.92c-.34.58-.71,1.19.23,1.6-.35,1-1.6.21-2,1-1.39-.39-2.37.66-3.47,1.12a61.75,61.75,0,0,0-11.84,6.77,27.76,27.76,0,0,0-3.58,3.37,7.36,7.36,0,0,1-2.65,1.84l-1-.56a3,3,0,0,1-1.85.58c-2.57-.06-5.14,0-7.71,0-.13,0-.26.17-.39.26v.78c-.69,0-.41-.58-.61-.88-1-.79-1.63.64-2.53.35-.2-.51.49-1.32-.52-1.57.15-.88,1.36-.49,1.46-.9C783.55,722.32,782.12,721.86,782.22,720.56Z"/><path class="cls-4" d="M814.07,777.37c-.73,2.31-2.61,3.7-4.16,5.31-.41.5-1,.09-1.46.37-3.19,1.77-6.71,1.52-10.14,1.32a10.54,10.54,0,0,1-3.73-1c-3.07-1.47-5.64-3.46-6.15-7.26a9.1,9.1,0,0,1-.41-2.52h6.71c-.1,1.32.89,2.23,1.22,3.4,3.8,2.2,5.06,2.11,10.12,1.19l1.8-1.92v-2.33c-1.45-2.58-4.18-2.64-6.42-3.58a25.83,25.83,0,0,0-5.63-1.48c-1.72-.28-3-1.32-4.51-1.83-.5-.17-.91-.9-1.29-1.5a10.86,10.86,0,0,1-1.45-7.74,8.19,8.19,0,0,1,4.27-5.83,10.23,10.23,0,0,1,5.65-1.55c1.74.07,3.49-.07,5.23,0,3.72.2,6.64,1.69,8.38,5.21a6.88,6.88,0,0,1,.92,4.63h-5c-1.64-1.25-2.35-3.67-4.81-4.35-1.73-.48-3.41,0-4.81-.29a6,6,0,0,0-3.63,3.83,19.15,19.15,0,0,0,1,1.68c1.25,1.69,3.28,1.8,5,2.33,3,.91,6.12,1.6,9.1,2.66.85.3,1.23,1.19,1.93,1.66,1.85,1.24,2.16,3.28,2.72,5.16a2.11,2.11,0,0,1-.15,2C813.83,775.72,814.38,776.61,814.07,777.37Z"/><path class="cls-4" d="M839.87,758.36c-3.34,3.46-5.82,6.86-9.08,9.66,3,5.11,6,10.15,9,15.28h-7.67c-1.45-1.11-1.82-3.07-2.8-4.67-1.2-2-2-4.2-3.93-5.7-.63-.12-.87.44-1.34.83v9.59H817.4V751.19c4-.69,4.84-.37,6.78,2.75V767.4c2.84-3.18,5.19-6.39,8-9Z"/><path class="cls-4" d="M891.5,766.06h-5.33c-1.12-.85-2-2.42-3.54-2.9a12.7,12.7,0,0,0-3-.23c-.65.49-1.51.5-1.93,1.23a3.51,3.51,0,0,0-.12,1.77c1.18,1.1,2.73,1.33,4.22,1.78,2.47.75,5.09,1,7.38,2.39,1.67,1,2.93,2.16,3,4.23,1.16,1.34.15,2.77-.13,4a5.62,5.62,0,0,1-2,3.33,11.64,11.64,0,0,1-3.71,1.81,23.28,23.28,0,0,1-8.94.38c-3.57-.36-7.6-3.07-7.1-8.28h5.88c.83.44.82,1.24.94,2,1.77,1.24,3.77,2.07,5.84,1.55,1.15-.28,3-.45,3-2.32l-2.47-2.32c-2.33-.59-5.32-1.15-8.16-2.13a7.13,7.13,0,0,1-4.37-4.31,6.74,6.74,0,0,1,.8-5.8,8.19,8.19,0,0,1,6.67-4.06,13.8,13.8,0,0,1,3.19-.4,20.2,20.2,0,0,1,5,1.07,7.92,7.92,0,0,1,4.45,4.57C891.33,764.15,892.17,765,891.5,766.06Z"/><path class="cls-7" d="M781.17,771a21.11,21.11,0,0,0,0,2.87c.12.91-.44,1.62-.65,2.38a9.36,9.36,0,0,1-3.67,5.59,9.15,9.15,0,0,1-4.92,2c-2.93.07-5.89.29-8.51-1.54s-4.39-3.93-4.88-7.21a34.85,34.85,0,0,1-.44-5.29,14.66,14.66,0,0,1,1.81-6.83,8.26,8.26,0,0,1,7.11-4.73c.8,0,1.31-.62,2.14-.6a15.71,15.71,0,0,1,6.43,1.55,7.46,7.46,0,0,1,3.49,3.48C781.14,766.61,781.17,766.6,781.17,771Zm-10.34,7.65a6.9,6.9,0,0,0,4.06-6.8c0-1.31,0-2.61,0-3.7a10.46,10.46,0,0,0-3.47-4.64H768.6a5.49,5.49,0,0,0-3.63,3.59c-.48,1.6-1,3.39-.48,5,.5,1.42.31,2.95,1.31,4.56a6.81,6.81,0,0,0,2.71,2Z"/><path class="cls-9" d="M820.45,711.66c-.94-.41-.57-1-.23-1.6a32.41,32.41,0,0,0,1.77-2.92c.64-1.4,1.45-2.72,2-4.12s.61-2.88,1.17-4.22.13-2.58.54-3.7c.69-1.86.27-3.71.47-5.55.26-2.41-.57-4.71-.63-7.1,0-1.62-.93-3.23-1.48-4.84a36.34,36.34,0,0,0-4.68-8.78A5.59,5.59,0,0,0,819,668c-.94-1-1.72-2.14-2.65-3-2.92-2.83-5.92-5.62-9.76-7.27-3.33-1.45-6.59-3.1-10.25-3.65a1.19,1.19,0,0,1-1-1l4.19-3.14c-.11.93.38,1.33,1.24,1.59a45.24,45.24,0,0,1,8.28,3.37c2.05,1.1,3.8,2.58,5.7,3.84a9.58,9.58,0,0,1,3.11,2.55c1.15,1.9,2.95,3.2,4.18,5s2.21,3.63,3.33,5.42,1.57,3.9,2.41,5.82a13.72,13.72,0,0,1,1.13,4.77c0,.69.64,1.37.46,2.14s.64,1.31.57,2.14c-.12,1.39,0,2.79-.06,4.18s.32,2.51-.3,3.79-.26,2.58-.65,3.9a48.42,48.42,0,0,1-2.68,8.05c-.45.92-.76,1.92-1.13,2.9.8.39,1.5.12,2.17.21-.36,1.11-1.31.36-2,.6C823.72,710.75,822.07,711.17,820.45,711.66Z"/><path class="cls-10" d="M836.16,679.19c0,.26-.11.63,0,.76,2.3,2.32,3.46,5.38,5.2,8,1.9,2.94,3.68,6,5.48,9,1.21,2,2.4,4,3.49,6.13.5.95,1.28,1.68,1.74,2.67a1.71,1.71,0,0,1,.13,1.63c-1.79-.42-3.54-.95-5.32,0-.34.18-.86,0-1.29,0-1.22,0-2.44-.06-3.66,0s-2.17-.23-3.27.3-2.37.12-3.57.21c-.67-.09-1.37.18-2-.12a4.28,4.28,0,0,1,1-3.89,5,5,0,0,1,.56-3.28c.38-.91.17-1.89.53-2.64a7.41,7.41,0,0,0,.46-2.95c.1-1.5-.32-3,.49-4.49a1.78,1.78,0,0,0,0-1.53c-.9-1.45-.31-3-.47-4.5-.08-.68.21-1.55-.12-2-.82-1.17-.23-2.26-.35-3.38Z"/><path class="cls-11" d="M836.16,679.19h-1c.12,1.12-.47,2.21.35,3.38.33.47,0,1.34.12,2,.16,1.5-.43,3,.47,4.5a1.78,1.78,0,0,1,0,1.53c-.81,1.45-.39,3-.49,4.49a7.41,7.41,0,0,1-.46,2.95c-.36.75-.15,1.73-.53,2.64a5,5,0,0,0-.56,3.28,4.28,4.28,0,0,0-1,3.89c.63.3,1.33,0,2,.12-.06.15-.13.42-.17.42-2.08-.18-4,.78-6.11.63.13-.67-.22-1.36.17-2a27.91,27.91,0,0,0,2.19-5.88c.72-2.1.77-4.35,1.24-6.52s.16-10.82-.52-13.33a50.94,50.94,0,0,0-3-8.91,43.07,43.07,0,0,0-9.24-13.14c-1.24-1.16-2.52-2.26-3.8-3.37a29,29,0,0,0-6.42-4.12,32.85,32.85,0,0,0-6.3-2.43,1.25,1.25,0,0,1-1-1,13.63,13.63,0,0,1,4.19-2.62v1.4a48.37,48.37,0,0,1,6.83,3.58c2.39,1.46,4.91,2.75,6.87,4.81a9.41,9.41,0,0,0,1.83,1.13l.18-.45c.56.1.8.53,1.05,1,3,5.22,5.9,10.5,9.07,15.61C833.48,674.88,834.66,677.14,836.16,679.19Z"/><path class="cls-4" d="M861.39,751c2.65-.31,5.1-.29,6.64,2.43v29.9h-6.64Z"/><path class="cls-4" d="M858.16,783.35h-6.73V751c2.58-.35,5.07-.38,6.73,2.55Z"/><path class="cls-12" d="M802.12,648.29a1.25,1.25,0,0,0,1,1,32.85,32.85,0,0,1,6.3,2.43,29,29,0,0,1,6.42,4.12c1.28,1.11,2.56,2.21,3.8,3.37a43.07,43.07,0,0,1,9.24,13.14,50.94,50.94,0,0,1,3,8.91c.68,2.51,1,11.17.52,13.33s-.52,4.42-1.24,6.52A27.91,27.91,0,0,1,829,707c-.39.66,0,1.35-.17,2-.25,1-1.06.32-1.57.52-.67-.09-1.37.18-2.17-.21.37-1,.68-2,1.13-2.9a48.42,48.42,0,0,0,2.68-8.05c.39-1.32.09-2.72.65-3.9s.21-2.53.3-3.79-.06-2.79.06-4.18c.07-.83-.77-1.31-.57-2.14s-.42-1.45-.46-2.14a13.72,13.72,0,0,0-1.13-4.77c-.84-1.92-1.25-4-2.41-5.82s-2.13-3.65-3.33-5.42-3-3.13-4.18-5a9.58,9.58,0,0,0-3.11-2.55c-1.9-1.26-3.65-2.74-5.7-3.84a45.24,45.24,0,0,0-8.28-3.37c-.86-.26-1.35-.66-1.24-1.59Z"/><path class="cls-13" d="M842,758.35c2.79-.26,5.44-.41,6.64,2.93v22.07H842Z"/><path class="cls-14" d="M822,656.14l-.18.45a9.41,9.41,0,0,1-1.83-1.13c-2-2.06-4.48-3.35-6.87-4.81a48.37,48.37,0,0,0-6.83-3.58v-1.4c0-.09,0-.24,0-.25,2.3-.86,4.12-2.61,6.43-3.43a2.55,2.55,0,0,0,.61-.44A126.17,126.17,0,0,1,822,656.14Z"/><path class="cls-15" d="M785.88,726.85v-.78c.13-.09.26-.26.39-.26,2.57,0,5.14,0,7.71,0a3,3,0,0,0,1.85-.58l1,.56c-1.29,1.55-2.6,3.08-3.86,4.65-1,1.21-1.88,2.47-2.82,3.73a.92.92,0,0,1-1-.64,33.54,33.54,0,0,0-3.16-5.72C785.81,727.48,786,727.17,785.88,726.85Z"/><path class="cls-16" d="M767,695.42c.93.32.55.93.33,1.5-.09.21-.22.4-.33.6a3.49,3.49,0,0,0-2.22.92,10.66,10.66,0,0,1-3.47,1.73,12.64,12.64,0,0,0-1.92,1,151.71,151.71,0,0,0-14.14,6.8c-.19.11-.51,0-.77,0s-.54-.16-.52-.52c1.63-.85,3.22-1.82,4.92-2.53s3.15-2,4.84-2.72a17.6,17.6,0,0,0,4.67-2.56c.68-.6,1.78-.7,2.62-1.15,1.7-.92,3.37-1.91,5-2.93C766.4,695.37,766.71,695.49,767,695.42Z"/><path class="cls-17" d="M769.65,712.7a1.27,1.27,0,0,1,1,1,40.17,40.17,0,0,1-7.31,3.71c-2.31.91-4.48,2.17-6.72,3.26-2.83,1.36-5.66,2.69-8.49,4-.14.07-.35,0-.52,0-.36,0-.54-.16-.52-.52,1.58-.8,3.22-1.47,4.72-2.4,3.84-2.39,8.07-4,11.91-6.43A18.07,18.07,0,0,1,769.65,712.7Z"/><path class="cls-18" d="M848.7,756.1H842v-5.2c1.88.22,3.86-.52,5.49,1.12C848.53,753.08,848.72,753.6,848.7,756.1Z"/><path class="cls-15" d="M782.22,724.75c1,.25.32,1.06.52,1.57-2,.9-3.88,1.92-5.93,2.67s-3.74,2.17-5.92,2.7a13.32,13.32,0,0,0-3.41,1.8c-.35.22-.65.09-1,.16s-.54-.16-.53-.52c3.48-1.82,7-3.63,10.44-5.47,1.63-.87,3.24-1.8,4.82-2.75C781.59,724.7,781.9,724.82,782.22,724.75Z"/><path class="cls-19" d="M747.13,724.23c0,.36.16.53.52.52a14.68,14.68,0,0,1-5.24,2.62c-.36,0-.53-.16-.52-.52Z"/><path class="cls-20" d="M766,733.13c0,.36.16.54.53.52-1.88,1.37-3.2,1.94-4.64,1.89.91-.13,1.19-1.06,2-1.37S765.27,733.48,766,733.13Z"/><path class="cls-21" d="M744,707.47c0,.36.16.53.52.52a5.46,5.46,0,0,1-3.87,1.57C741.68,708.32,743,708.09,744,707.47Z"/><path class="cls-22" d="M741.89,726.85c0,.36.16.53.52.52a2.58,2.58,0,0,1-2.64,1C740.25,727.36,741.23,727.32,741.89,726.85Z"/><path class="cls-23" d="M790.27,702.27a13.48,13.48,0,0,1-7.51-2.76,11.22,11.22,0,0,1-4.27-7.14c-.21-1-.72-2-.41-2.92.5-1.49.3-3.14,1-4.53a16.47,16.47,0,0,1,1.86-2.63c.5-.6,1.16-1.07,1.64-1.68a6.93,6.93,0,0,1,4.75-2.39c.78-.1,1.3-.66,2.12-.64a16.35,16.35,0,0,1,6.67,1.6,10.78,10.78,0,0,1,4.12,3.79,11.34,11.34,0,0,1,2.36,6.83,13.78,13.78,0,0,1-2,6.73,10.06,10.06,0,0,1-5.5,4.67A20.46,20.46,0,0,1,790.27,702.27Z"/><path class="cls-24" d="M354.21,58c.68.22,1.37.4,2,.66a20.44,20.44,0,0,1,5.22,3.46,34,34,0,0,0,7.07,4.73,27.53,27.53,0,0,0,19.18,1A32.9,32.9,0,0,0,391.27,66a9.09,9.09,0,0,1,3.47-1.2,2.31,2.31,0,0,1,2.42,1.29,8.87,8.87,0,0,1,1.18,4.06,62.27,62.27,0,0,1-.35,8.74c-.32,3.43-.68,6.87-1,10.3a10.47,10.47,0,0,0,0,1.68c.1,1.11.32,1.25,1.38.92a29.85,29.85,0,0,0,4.39-2c1.91-1,3.79-2,5.76-2.84a8.68,8.68,0,0,1,1.78-.6,1.81,1.81,0,0,1,2.38,1.69,18.43,18.43,0,0,1-.53,6,30.7,30.7,0,0,1-3.51,8.79c-.17.11-.14.26-.1.41-.17.22,0,.58-.36.72a2.15,2.15,0,0,0-.68.59,42.25,42.25,0,0,1-4.8,4.37,35,35,0,0,1-7.44,4.49c-1.36.56-1.75.38-2.18-.94l0-.13a.43.43,0,0,0-.43-.39.42.42,0,0,0-.43.37c-.09.31-.2.62-.28.94a34,34,0,0,1-2.92,8,18.58,18.58,0,0,1-4.7,5.72c-3.53,2.78-7.65,3.8-12,4a25.48,25.48,0,0,1-6.09-.54A18.73,18.73,0,0,1,355,123.86a29.21,29.21,0,0,1-5.16-10.52,32.83,32.83,0,0,0-1.41-4.52c-.13-.27-.24-.59-.64-.51a.74.74,0,0,0-.66.63c-.14.61-.31,1.21-.47,1.81-.11.42-.33.75-.8.75a5.15,5.15,0,0,1-1.46-.09,23.87,23.87,0,0,1-7.31-3.56,49.41,49.41,0,0,1-9.26-7.89,27.08,27.08,0,0,1-4.31-6c-.06-.11,0-.43-.32-.29A22.66,22.66,0,0,1,322.81,83c0-.06,0-.13.05-.2.69-2.43,1.79-3,4.2-2.31a35.65,35.65,0,0,1,6.21,2.87c2.15,1.15,4.27,2.38,6.52,3.33a9.3,9.3,0,0,0,2.67.78,2.18,2.18,0,0,0,2.35-1.28,9.61,9.61,0,0,0,.87-3.58c.22-2.51,0-5,.12-7.55a47.75,47.75,0,0,1,1.4-10.58,16.49,16.49,0,0,1,.81-2.3c.83-1.92,2-3.52,4.1-4.16Zm16.54,40.18a21.31,21.31,0,0,0,.42,5.8c.26,1,.79,1.59,1.47,1.65a2.13,2.13,0,0,0,2.32-1.28,7.62,7.62,0,0,0,.55-2.48l.28-.29,1.19.86c.83.58,1.11.57,1.8-.16a8.26,8.26,0,0,0,2.47-6.18,3,3,0,0,1,.43.24,7.72,7.72,0,0,0,6.18,1.89,7.49,7.49,0,0,0,6-3.93,17.9,17.9,0,0,0,2-8.11,38.4,38.4,0,0,0-.11-5,21.1,21.1,0,0,0-1-5.52c-.91-2.53-2.32-3.24-4.92-2.56-.25.06-.59.17-.71-.06s.3-.38.43-.6.48-.17.37-.42-.42-.14-.63-.1a10.93,10.93,0,0,0-2.81,1.2c-.57.33-1.13.66-1.71,1-.21.11-.55.2-.69-.07s.19-.34.32-.48a3.58,3.58,0,0,1,.39-.29c.12-.1.32-.19.24-.38s-.29-.13-.44-.11a6.25,6.25,0,0,0-1.72.54,14.41,14.41,0,0,1-3.1,1.26,9.15,9.15,0,0,1-5.24-.66,35,35,0,0,1-3.88-1.93c-.17-.09-.38-.3-.57-.12s0,.43.13.61.3.42.43.64a1,1,0,0,1,.09,1c-.61-.56-1.15-1.11-1.74-1.6a21.2,21.2,0,0,0-6.22-3.66c-.37-.14-.89-.59-1.18-.13s.26.73.55,1c.14.14.38.3.2.52a.45.45,0,0,1-.59,0c-.42-.24-.8-.55-1.24-.77a6.26,6.26,0,0,0-6.18-.27,7,7,0,0,0-3,3.68,23.32,23.32,0,0,0-1.57,6.54,34,34,0,0,0-.12,8.67,12.4,12.4,0,0,0,2.73,6.55c3.22,3.71,7.38,4.75,12.08,3.84a12.56,12.56,0,0,0,6.32-3.37c0,.09,0,.19,0,.28Z"/><path class="cls-25" d="M302,180.43c.25-.11.17-.37.22-.55a9.12,9.12,0,0,1,13.21-6,.81.81,0,0,0,.58.18v-5.64c0-1.12,0-1.12,1.15-1.12.88,0,1.77,0,2.66,0,.4,0,.57.06.57.52,0,4.93,0,9.86,0,14.78a8.94,8.94,0,0,1-8,8.51A9.17,9.17,0,0,1,302.17,184c0-.16,0-.39-.21-.48Zm13.9,1.42a4.71,4.71,0,0,0-1.17-3.33,4.57,4.57,0,0,0-5-1.39,4.48,4.48,0,0,0-3.25,4c-.35,2.78.9,5.07,3.17,5.78C312.87,187.9,315.85,185.59,315.86,181.85Z"/><path class="cls-26" d="M323.23,93.62c.32-.14.26.18.32.29a27.08,27.08,0,0,0,4.31,6,49.41,49.41,0,0,0,9.26,7.89,23.87,23.87,0,0,0,7.31,3.56,5.15,5.15,0,0,0,1.46.09c.47,0,.69-.33.8-.75.16-.6.33-1.2.47-1.81a.74.74,0,0,1,.66-.63c.4-.08.51.24.64.51a32.83,32.83,0,0,1,1.41,4.52A29.21,29.21,0,0,0,355,123.86a18.73,18.73,0,0,0,11.11,6.57,25.48,25.48,0,0,0,6.09.54c4.39-.16,8.51-1.18,12-4a18.58,18.58,0,0,0,4.7-5.72,34,34,0,0,0,2.92-8c.08-.32.19-.63.28-.94a.42.42,0,0,1,.43-.37.43.43,0,0,1,.43.39l0,.13c.43,1.32.82,1.5,2.18.94a35,35,0,0,0,7.44-4.49,42.25,42.25,0,0,0,4.8-4.37,2.15,2.15,0,0,1,.68-.59,34.67,34.67,0,0,1-4.63,6,50.19,50.19,0,0,1-11.11,8.78,3.4,3.4,0,0,0-1.53,1.79,51.65,51.65,0,0,1-4.48,9.22,23.16,23.16,0,0,1-9.41,8.84,19.14,19.14,0,0,1-10.15,1.61,22.41,22.41,0,0,1-8.16-2.21,21,21,0,0,1-9.42-10,34,34,0,0,1-2.57-7.45,3,3,0,0,0-1.09-1.73c-2.23-1.8-4.66-3.34-7-5.05A50.21,50.21,0,0,1,328,103.47a28.37,28.37,0,0,1-4.67-9.3C323.29,94,323.27,93.8,323.23,93.62Z"/><path class="cls-25" d="M411.07,189.84a9.29,9.29,0,0,1-4.65,1.39,9,9,0,0,1-9-7.21,9.14,9.14,0,0,1,5.46-10.44,9,9,0,0,1,12.43,7.28,21.47,21.47,0,0,1,.07,3c0,3.06.22,6.12-.11,9.16a9.1,9.1,0,0,1-14.77,5.91c-.34-.28-.35-.43,0-.74.76-.76,1.49-1.54,2.22-2.33.2-.21.31-.31.6-.06a4.57,4.57,0,0,0,5,.66,4.63,4.63,0,0,0,2.78-4.27C411.12,191.45,411.07,190.7,411.07,189.84ZM401.65,182a4.73,4.73,0,0,0,5.62,5c2.41-.42,4-2.66,3.8-5.41a4.74,4.74,0,0,0-6-4.54A4.85,4.85,0,0,0,401.65,182Z"/><path class="cls-25" d="M348.85,191.15a9.2,9.2,0,0,1-.69-18.38,9.48,9.48,0,0,1,9.69,9A9.12,9.12,0,0,1,348.85,191.15Zm-5-9.21a4.83,4.83,0,0,0,3.24,4.95,4.76,4.76,0,0,0,5.38-1.82,5.71,5.71,0,0,0-.24-6.49,4.75,4.75,0,0,0-8.38,3.36Z"/><path class="cls-25" d="M416.91,182.23a9.2,9.2,0,0,1,18.39-.41,9.29,9.29,0,0,1-9.25,9.57A9.1,9.1,0,0,1,416.91,182.23Zm14,.23c0-3.17-1.88-5.3-4.57-5.38a4.67,4.67,0,0,0-4.67,3.19,5.43,5.43,0,0,0,1.74,6.16,4.78,4.78,0,0,0,7.5-4Z"/><path class="cls-27" d="M369.91,159.42c-2.48,0-4.37,0-6.26,0-2.46-.06-4.93-.11-7.39-.29A63.83,63.83,0,0,1,347,158a5.91,5.91,0,0,1-1.58-.54c-.46-.25-.43-.52,0-.75a9.88,9.88,0,0,1,3.16-.81c2.5-.37,5-.57,7.55-.73,2.25-.13,4.51-.16,6.76-.28,3.52-.2,7-.1,10.55-.09,2.75,0,5.49.1,8.23.28a80.87,80.87,0,0,1,9.19,1,8,8,0,0,1,2.08.59c.2.1.47.17.44.47s-.23.4-.45.49a10.36,10.36,0,0,1-2.63.66c-2.41.34-4.82.63-7.26.74-1.93.1-3.86.16-5.78.29C374.63,159.5,372,159.32,369.91,159.42Z"/><path class="cls-25" d="M337.71,179.18a39,39,0,0,1-.27,6.35,6.71,6.71,0,0,1-6.3,5.66,10.94,10.94,0,0,1-3.28-.17,6.82,6.82,0,0,1-5.3-6.42c-.34-3.66-.1-7.32-.18-11,0-.33.1-.46.44-.45,1.19,0,2.38,0,3.57,0,.54,0,.46.32.46.65,0,3,0,5.92,0,8.89a6.14,6.14,0,0,0,.35,2.4,3,3,0,0,0,3.51,1.89,3,3,0,0,0,2.59-2.79,26,26,0,0,0,0-2.93c-.06-2.49,0-5,0-7.49,0-.48.12-.64.62-.62,1.07,0,2.14,0,3.22,0,.43,0,.55.13.55.56C337.69,175.42,337.71,177.12,337.71,179.18Z"/><path class="cls-25" d="M391.2,185.19c0-1.65.05-3.31,0-5a3.13,3.13,0,0,0-4.1-3.13,2.88,2.88,0,0,0-2.19,2.38,11.87,11.87,0,0,0-.2,2.92c0,2.59,0,5.19,0,7.78,0,.63-.19.78-.79.76-1.07-.05-2.15,0-3.22,0-.29,0-.49,0-.48-.41.11-3.94-.26-7.89.31-11.81a6.62,6.62,0,0,1,6-5.69,11.66,11.66,0,0,1,3,.05,6.87,6.87,0,0,1,5.83,6.18,66.26,66.26,0,0,1,.25,8c0,1,0,2.1,0,3.15,0,.42-.11.57-.55.56-1.09,0-2.19,0-3.29,0-.5,0-.57-.2-.56-.62,0-1.7,0-3.4,0-5.11Z"/><path class="cls-25" d="M364.16,175.68c0,2.59,0,5.18,0,7.77a3.67,3.67,0,0,0,.54,2.14,2.9,2.9,0,0,0,2.53,1.26c1,0,2,0,2.94,0,.43,0,.61.08.6.57,0,1,0,2.05,0,3.08,0,.28,0,.49-.4.48a38.75,38.75,0,0,1-4.82-.15,6.7,6.7,0,0,1-5.6-6.05,49.76,49.76,0,0,1-.24-5.18c0-3.85,0-7.7,0-11.55,0-.68.21-.82.82-.79a21.8,21.8,0,0,0,2.8,0c.71-.06.83.21.82.86,0,2.52,0,5,0,7.56Z"/><path class="cls-25" d="M373,182.41c0-2.59,0-5.18,0-7.77,0-.57.16-.71.7-.69,1.07,0,2.15,0,3.22,0,.4,0,.57.07.57.53q0,7.94,0,15.88c0,.43-.13.56-.56.55q-1.68,0-3.36,0c-.49,0-.57-.18-.57-.61C373.05,187.68,373,185,373,182.41Z"/><path class="cls-28" d="M365.76,149a5,5,0,0,1-1.85-.3,2.66,2.66,0,0,1-1.27-4.31,4.13,4.13,0,0,1,2.4-1.58,7.88,7.88,0,0,1,3.74,0A2.75,2.75,0,0,1,371,145.4a2.64,2.64,0,0,1-1.67,2.72A8.65,8.65,0,0,1,365.76,149Z"/><path class="cls-28" d="M381.22,143.74c-2.43,0-3.17-1.13-2.14-3.34a4.87,4.87,0,0,1,3.79-3.06,2.37,2.37,0,0,1,2.75,1.62,3.12,3.12,0,0,1-2.27,4.48A7.31,7.31,0,0,1,381.22,143.74Z"/><path class="cls-25" d="M375.16,172.33a2.31,2.31,0,0,1-2.35-2.34,2.36,2.36,0,0,1,2.36-2.35,2.35,2.35,0,0,1,0,4.69Z"/><path class="cls-29" d="M408.53,103.23c0-.15-.07-.3.1-.41l.25.06Z"/><path class="cls-30" d="M370.72,95.13a12.56,12.56,0,0,1-6.32,3.37c-4.7.91-8.86-.13-12.08-3.84a12.4,12.4,0,0,1-2.73-6.55,34,34,0,0,1,.12-8.67,23.32,23.32,0,0,1,1.57-6.54,7,7,0,0,1,3-3.68,6.26,6.26,0,0,1,6.18.27c.44.22.82.53,1.24.77a.45.45,0,0,0,.59,0c.18-.22-.06-.38-.2-.52-.29-.3-.77-.69-.55-1s.81,0,1.18.13a21.2,21.2,0,0,1,6.22,3.66c.59.49,1.13,1,1.74,1.6a1,1,0,0,0-.09-1c-.13-.22-.31-.41-.43-.64s-.35-.4-.13-.61.4,0,.57.12a35,35,0,0,0,3.88,1.93,9.15,9.15,0,0,0,5.24.66,14.41,14.41,0,0,0,3.1-1.26,6.25,6.25,0,0,1,1.72-.54c.15,0,.36-.08.44.11s-.12.28-.24.38a3.58,3.58,0,0,0-.39.29c-.13.14-.43.28-.32.48s.48.18.69.07c.58-.29,1.14-.62,1.71-1a10.93,10.93,0,0,1,2.81-1.2c.21,0,.52-.15.63.1s-.27.26-.37.42-.63.24-.43.6.46.12.71.06c2.6-.68,4,0,4.92,2.56a21.1,21.1,0,0,1,1,5.52,38.4,38.4,0,0,1,.11,5,17.9,17.9,0,0,1-2,8.11,7.49,7.49,0,0,1-6,3.93,7.72,7.72,0,0,1-6.18-1.89,3,3,0,0,0-.43-.24c-.05-.22-.1-.45-.14-.68-.49-2.57-2.59-5.43-6.12-4.66C372.83,91.23,370.7,92.73,370.72,95.13Zm-2.31-8.93a10.29,10.29,0,0,0-2.65-7.3,6.48,6.48,0,0,0-9.12-.68c-4.42,3.7-4.51,11.6-.17,15.39a6.42,6.42,0,0,0,8.93-.19A9.86,9.86,0,0,0,368.41,86.2Zm12.26.32a9.52,9.52,0,0,0,1.75,6,5,5,0,0,0,7.78.6,8.19,8.19,0,0,0,2.2-3.68c.94-3.37.71-6.58-1.68-9.34a4.78,4.78,0,0,0-6.62-.68A8.89,8.89,0,0,0,380.67,86.52Z"/><path class="cls-31" d="M370.72,95.13c0-2.4,2.11-3.9,4.27-4.37,3.53-.77,5.63,2.09,6.12,4.66,0,.23.09.46.14.68a8.26,8.26,0,0,1-2.47,6.18c-.69.73-1,.74-1.8.16l-1.19-.86a4.73,4.73,0,0,0-.37-.4,17.36,17.36,0,0,1-4.65-5.77Zm5.37-1a1.91,1.91,0,0,0,1.19-.32.89.89,0,0,0,.06-1.52,2.4,2.4,0,0,0-2.62-.16.84.84,0,0,0-.15,1.41A2.08,2.08,0,0,0,376.09,94.15Z"/><path class="cls-26" d="M375.51,101.87a7.62,7.62,0,0,1-.55,2.48,2.13,2.13,0,0,1-2.32,1.28c-.68-.06-1.21-.65-1.47-1.65a21.31,21.31,0,0,1-.42-5.8,19.49,19.49,0,0,0,.57,2.49,2.51,2.51,0,0,0,3.62,1.46Z"/><path class="cls-32" d="M375.51,101.87l-.57.26a2.51,2.51,0,0,1-3.62-1.46,19.49,19.49,0,0,1-.57-2.49c0-.92,0-1.84,0-2.77a17.36,17.36,0,0,0,4.65,5.77,4.73,4.73,0,0,1,.37.4Z"/><path class="cls-33" d="M315.86,181.85c0,3.74-3,6.05-6.27,5-2.27-.71-3.52-3-3.17-5.78a4.48,4.48,0,0,1,3.25-4,4.57,4.57,0,0,1,5,1.39A4.71,4.71,0,0,1,315.86,181.85Z"/><path class="cls-33" d="M401.65,182a4.85,4.85,0,0,1,3.43-5,4.74,4.74,0,0,1,6,4.54c.18,2.75-1.39,5-3.8,5.41A4.73,4.73,0,0,1,401.65,182Z"/><path class="cls-33" d="M343.81,181.94a4.75,4.75,0,0,1,8.38-3.36,5.71,5.71,0,0,1,.24,6.49,4.76,4.76,0,0,1-5.38,1.82A4.83,4.83,0,0,1,343.81,181.94Z"/><path class="cls-33" d="M430.89,182.46a4.78,4.78,0,0,1-7.5,4,5.43,5.43,0,0,1-1.74-6.16,4.67,4.67,0,0,1,4.67-3.19C429,177.16,430.89,179.29,430.89,182.46Z"/><path class="cls-33" d="M368.41,86.2a9.86,9.86,0,0,1-3,7.22,6.42,6.42,0,0,1-8.93.19c-4.34-3.79-4.25-11.69.17-15.39a6.48,6.48,0,0,1,9.12.68A10.29,10.29,0,0,1,368.41,86.2Zm-3.5-.19a5.66,5.66,0,0,0-1.61-4.19,3.24,3.24,0,0,0-3.52-.88c-.22.07-.45.1-.28.46a2,2,0,0,1-2.1,2.81c-.3,0-.44.05-.49.33a6,6,0,0,0,1.4,5.53,3.33,3.33,0,0,0,5.11,0A5.7,5.7,0,0,0,364.91,86Z"/><path class="cls-33" d="M380.67,86.52a8.89,8.89,0,0,1,3.43-7.1,4.78,4.78,0,0,1,6.62.68c2.39,2.76,2.62,6,1.68,9.34a8.19,8.19,0,0,1-2.2,3.68,5,5,0,0,1-7.78-.6A9.52,9.52,0,0,1,380.67,86.52Zm2.44-.84A5.49,5.49,0,0,0,384,90a2.8,2.8,0,0,0,4.12.59,5.67,5.67,0,0,0,.77-7.63,2.75,2.75,0,0,0-3.09-.86c-.37.14-.51.24-.23.66a2.22,2.22,0,0,1-.1,2.61C384.89,86,384.24,86.11,383.11,85.68Z"/><path class="cls-34" d="M376.09,94.15a2.08,2.08,0,0,1-1.52-.59.84.84,0,0,1,.15-1.41,2.4,2.4,0,0,1,2.62.16.89.89,0,0,1-.06,1.52A1.91,1.91,0,0,1,376.09,94.15Z"/><path class="cls-35" d="M364.91,86a5.7,5.7,0,0,1-1.49,4,3.33,3.33,0,0,1-5.11,0,6,6,0,0,1-1.4-5.53c0-.28.19-.38.49-.33a2,2,0,0,0,2.1-2.81c-.17-.36.06-.39.28-.46a3.24,3.24,0,0,1,3.52.88A5.66,5.66,0,0,1,364.91,86Z"/><path class="cls-35" d="M383.11,85.68c1.13.43,1.78.33,2.32-.32a2.22,2.22,0,0,0,.1-2.61c-.28-.42-.14-.52.23-.66a2.75,2.75,0,0,1,3.09.86,5.67,5.67,0,0,1-.77,7.63A2.8,2.8,0,0,1,384,90,5.49,5.49,0,0,1,383.11,85.68Z"/><g id="shaw"><path class="cls-36" d="M235.87,338a5.84,5.84,0,0,0-.41.68q-4.83,10.54-9.66,21.11c-.27.57-.55,1-1.36.78.8-1.71,1.54-3.46,2.41-5.13a2.55,2.55,0,0,0,0-2.56c-2.26-4.78-4.44-9.59-6.65-14.39l-.27-.63a1,1,0,0,1,1.33.66q3.24,7.2,6.54,14.37c0,.05.09.09.14.15,2.15-4.73,4.31-9.44,6.43-14.17.31-.7.65-1.2,1.48-1.15Z"/><path class="cls-37" d="M195,340.58c.65-.59,1.31-1.26,2.05-1.84,3.29-2.6,7.26-1.18,8.16,2.82a14.48,14.48,0,0,1,1.4-2.22,5.67,5.67,0,0,1,6.32-1.49c2.25.71,3.19,2.53,3.39,4.73.15,1.57.09,3.15.1,4.74q0,3.24,0,6.48c0,.31.23.77-.45.78s-.47-.42-.47-.74c0-3.35,0-6.7,0-10A9.13,9.13,0,0,0,215,341c-1-3-4.26-3.24-6.32-2.34-2.23,1-3,2.86-3,5.12,0,3.4,0,6.79,0,10.19,0,.41,0,.64-.55.62s-.38-.38-.38-.64c0-3.32,0-6.65,0-10a12.52,12.52,0,0,0-.24-2.28c-.64-3.13-3.23-4-5.76-3.17a6.79,6.79,0,0,0-3.51,3,1.68,1.68,0,0,0-.16.87q0,5.74,0,11.51c0,.45-.07.75-.59.62-.14,0-.25-.23-.36-.36s0-.09,0-.13q0-7.89,0-15.77c0-.47.29-.69.61-.44a.69.69,0,0,1,.18.48C194.92,339.13,195,339.93,195,340.58Z"/><path class="cls-36" d="M182.12,345.13c-2.05,0-4.09,0-6.14,0-.44,0-.65.09-.58.57a28.84,28.84,0,0,0,.43,3.36,6.22,6.22,0,0,0,6,5,9,9,0,0,0,5.8-1.59c.11-.08.23-.21.35-.21a1.48,1.48,0,0,1,.48.15c-.05.13-.06.3-.15.39a5,5,0,0,1-.83.62,10,10,0,0,1-7.26,1.12,6.77,6.77,0,0,1-5.26-5,10.49,10.49,0,0,1,.8-8.68c2.1-3.57,7.6-4.28,10.64-2a7.05,7.05,0,0,1,2.65,5.87c0,.52-.36.44-.68.44Zm-6.62-.59c4.16,0,8.24,0,12.33,0,.45,0,.41-.24.39-.53-.33-4.37-3.52-6.49-7.57-5.66C177.62,339,175.8,341.22,175.5,344.54Z"/><path class="cls-37" d="M168.3,340.15c0-3.3,0-6.46,0-9.62,0-.27-.14-.61.39-.61s.58.12.58.58q0,11.76,0,23.52c0,.18-.17.49-.3.51-.37.07-.52-.17-.52-.55a24.39,24.39,0,0,0-.07-2.56,10,10,0,0,1-4.07,2.93c-3.21,1-8,.31-9.05-5a13.88,13.88,0,0,1,.09-6.28,7.27,7.27,0,0,1,7.59-5.58A6.71,6.71,0,0,1,168.3,340.15Zm0,5.64c0-1.37,0-2.75,0-4.12a1.89,1.89,0,0,0-.35-1,6.3,6.3,0,0,0-6.58-2.35,6.09,6.09,0,0,0-5.05,4.79,12.68,12.68,0,0,0,.05,6.75,5.11,5.11,0,0,0,4,4c3.22.71,5.7-.43,7.81-3.19a1.32,1.32,0,0,0,.15-.72C168.32,348.53,168.31,347.16,168.31,345.79Z"/><path class="cls-37" d="M149,351.72a10.3,10.3,0,0,1-4,2.65,7.47,7.47,0,0,1-4.85.09,3.77,3.77,0,0,1-2.61-3.45,3.55,3.55,0,0,1,1.89-3.53,13.64,13.64,0,0,1,5.69-1.68c1.13-.14,2.27-.17,3.41-.28.17,0,.47-.25.46-.37a24.45,24.45,0,0,0-.27-3.73,3.87,3.87,0,0,0-3.87-3.18,7,7,0,0,0-5.22,1.89,1.85,1.85,0,0,1-.56.38.6.6,0,0,1-.46-.17c-.06,0,0-.31.05-.38,2.41-2.4,6-3.16,8.7-1.82a4.78,4.78,0,0,1,2.51,4.52c.08,3.48,0,7,0,10.46a6.74,6.74,0,0,1,0,.9,1.78,1.78,0,0,1-.23.53c-.16-.18-.43-.35-.47-.55C149.09,353.29,149.06,352.57,149,351.72Zm0-3.06c0-.68,0-1.35,0-2,0-.36-.1-.49-.48-.46-.95.08-1.91.08-2.85.19a14.39,14.39,0,0,0-5.35,1.41,3.15,3.15,0,0,0-1.86,3.42,3.36,3.36,0,0,0,2.92,2.86,8,8,0,0,0,6.3-1.82,2.7,2.7,0,0,0,1.32-2.81A3.85,3.85,0,0,1,149,348.66Z"/><path class="cls-36" d="M129.29,337.51a7.28,7.28,0,0,1,4.29,1.42c.17.12.38.46.32.57-.2.38-.5.19-.75,0a7.11,7.11,0,0,0-6.05-1.07c-2.87.69-4.3,2.74-4.83,5.51a12,12,0,0,0,.16,5.19c1.14,4.48,5.2,5.66,8.79,4.5a16,16,0,0,0,2.18-1.18,3.85,3.85,0,0,1,.78-.17c-.11.24-.16.56-.34.71a8,8,0,0,1-6.21,1.67,6.69,6.69,0,0,1-6.11-5.36,11.91,11.91,0,0,1-.09-5.93C122.31,339.65,125.08,337.51,129.29,337.51Z"/><path class="cls-36" d="M115.19,351.75c-.54.46-1,.88-1.45,1.24a8.07,8.07,0,0,1-6.95,1.61,3.76,3.76,0,0,1-3.06-3.45,3.62,3.62,0,0,1,2-3.75,13.84,13.84,0,0,1,5.51-1.59c1.15-.15,2.31-.19,3.47-.28.26,0,.51,0,.49-.38-.09-1.18,0-2.38-.24-3.54a3.91,3.91,0,0,0-4-3.37,7,7,0,0,0-5.15,1.88,1.59,1.59,0,0,1-.56.38.58.58,0,0,1-.46-.17c-.05-.05,0-.3.06-.37a7.85,7.85,0,0,1,8.33-2c2.06.82,2.82,2.61,2.88,4.63.1,3.85,0,7.72,0,11.58,0,.13-.15.25-.23.38-.16-.15-.44-.29-.46-.47C115.29,353.36,115.26,352.62,115.19,351.75Zm0-3.1c0-.67,0-1.35,0-2,0-.36-.09-.49-.47-.46-1,.08-1.91.08-2.86.19a14.3,14.3,0,0,0-5.35,1.41,3.13,3.13,0,0,0-1.85,3.42,3.37,3.37,0,0,0,2.92,2.86,8,8,0,0,0,6.35-1.87,2.58,2.58,0,0,0,1.26-2.69A4.71,4.71,0,0,1,115.19,348.65Z"/><path class="cls-38" d="M82.07,350.2c.55-1.64,1.1-3.29,1.64-4.93q1.13-3.4,2.23-6.81A1.82,1.82,0,0,1,87.79,337c.88,0,1.43.46,1.77,1.48l3.77,11.3c.06.17.12.34.22.65.52-1.71,1-3.3,1.46-4.88.74-2.47,1.47-4.94,2.21-7.4a1.56,1.56,0,0,1,2-1.1,1.52,1.52,0,0,1,1,2q-2.24,7.14-4.49,14.27a2,2,0,0,1-2,1.43,2,2,0,0,1-2-1.47Q89.85,347.65,88,342c-.06-.2-.13-.4-.25-.76-.13.34-.23.56-.3.78q-1.81,5.58-3.62,11.18a2.14,2.14,0,0,1-4.09,0q-2.23-7.07-4.46-14.13a1.55,1.55,0,0,1,.94-2.08,1.63,1.63,0,0,1,2.06,1.17q1.65,5.46,3.28,10.93l.33,1.06Z"/><path class="cls-38" d="M41,339.53a9.27,9.27,0,0,1,4.4-2.58,7.82,7.82,0,0,1,4.13.12,4.43,4.43,0,0,1,3.2,4.49c.06,3.88,0,7.77,0,11.65a1.61,1.61,0,0,1-3.21-.06v-9.63c0-.23,0-.47,0-.7a3.07,3.07,0,0,0-3.21-3.21,6.1,6.1,0,0,0-4.79,1.84,1.6,1.6,0,0,0-.55,1.28c0,3.4,0,6.8,0,10.2a1.61,1.61,0,0,1-1.53,1.8,1.51,1.51,0,0,1-1.67-1.55q0-10.65,0-21.29a1.55,1.55,0,0,1,1.63-1.55A1.61,1.61,0,0,1,41,332c0,2.21,0,4.42,0,6.63Z"/><path class="cls-38" d="M68.63,345.79c0-1.22,0-2.29,0-3.35a3.51,3.51,0,0,0-3.33-2.94A7.27,7.27,0,0,0,60,340.91a1.29,1.29,0,0,1-1.81-.15A1.19,1.19,0,0,1,58.4,339a8.29,8.29,0,0,1,4.35-2,10.19,10.19,0,0,1,5.88.51,4.9,4.9,0,0,1,3.18,4.6c.1,3.72,0,7.45,0,11.17a1.54,1.54,0,0,1-1.51,1.52,1.58,1.58,0,0,1-1.69-1.33,6.17,6.17,0,0,1,0-.75l-.63.55c-2.58,2.3-7.08,2.35-9.41.12a5.58,5.58,0,0,1-1.53-5.69,5,5,0,0,1,4.12-3.9A7.54,7.54,0,0,1,68.63,345.79Zm.12,3.52c-.12-1.73-.09-1.77-.91-2.37a5.74,5.74,0,0,0-5.6-.8,3.31,3.31,0,0,0,.39,6.33,8.17,8.17,0,0,0,2.61.14A4.16,4.16,0,0,0,68.31,351,4.74,4.74,0,0,0,68.75,349.31Z"/><path class="cls-38" d="M26.54,336.72a9.08,9.08,0,0,1,5.72,1.84c.43.36.81.83.52,1.38a2.09,2.09,0,0,1-1,.88c-.26.1-.71-.12-1-.31a7.43,7.43,0,0,0-5.75-1,3.79,3.79,0,0,0-.95.41A1.94,1.94,0,0,0,23,341.84a1.69,1.69,0,0,0,1.32,1.46c1.67.54,3.38,1,5.06,1.51a10.54,10.54,0,0,1,1.75.67,4.78,4.78,0,0,1,.86,7.79,7.48,7.48,0,0,1-5.3,1.72,10.35,10.35,0,0,1-4.49-.84,11.43,11.43,0,0,1-2-1.23,1.25,1.25,0,0,1-.33-1.84,1.46,1.46,0,0,1,2-.28,7.1,7.1,0,0,0,3.49,1.46,15.89,15.89,0,0,0,3.3-.17,2.29,2.29,0,0,0,1.08-.6,2,2,0,0,0-.49-3.46c-1.3-.53-2.7-.82-4-1.27a16.32,16.32,0,0,1-3.41-1.33,4.34,4.34,0,0,1-.79-6.56C22.33,337.41,24,336.75,26.54,336.72Z"/><path class="cls-39" d="M127.6,316.39c-25.58,1-49.71-21.94-49.38-49.45.32-27.1,22.49-49.59,49.66-49.37s49.5,22,49.36,50.6C177.12,293.84,153.87,317.48,127.6,316.39Z"/><path class="cls-40" d="M127.34,307.53a39.93,39.93,0,0,1-40.18-40.42,40.72,40.72,0,0,1,40.71-40.69c22.54,0,40.28,18.44,40.46,41.47C168.49,288.94,149.68,308.55,127.34,307.53Z"/><path class="cls-38" d="M127.35,298.6a31.61,31.61,0,0,1-31.23-32c.1-16.73,15-31.36,31.77-31.24,17.1.12,31.5,14.79,31.46,32.06S145,298.67,127.35,298.6Z"/><path class="cls-41" d="M127.71,280.65a14.38,14.38,0,0,1-8.24-2.83c-1-.78-1.52-1.76-.59-2.95.79-1,1.74-.74,2.61-.17a11.59,11.59,0,0,0,8.39,2.11c1.93-.31,3.45-1.21,3.82-3.27.41-2.24-1-3.34-2.86-4-2-.69-4.11-1.14-6.12-1.84-3.46-1.21-6.29-3-6-7.33.33-4.16,3.13-5.87,6.74-6.75a12.93,12.93,0,0,1,9.89,1.86c1.08.64,1.74,1.68.92,2.88-.66,1-1.73.77-2.64.24a10.6,10.6,0,0,0-7.55-1.49c-1.73.34-3.1,1.29-3.3,3.17s1.19,2.6,2.62,3.12c1.69.62,3.44,1.09,5.16,1.63,5.89,1.85,7.86,4.28,7.17,8.87C137.16,278,133.6,280.54,127.71,280.65Z"/></g><rect class="cls-42" width="1020" height="880.5"/></g></g></g></g></svg>