<svg xmlns="http://www.w3.org/2000/svg" viewBox="0 0 32 27"><defs><style>.cls-1{fill:#1b1b1b;}</style></defs><title>quotes</title><g id="Layer_2" data-name="Layer 2"><g id="Intro"><path class="cls-1" d="M-212-804c-5,0-7,7-7,7l6.46,4.61a32.21,32.21,0,0,1-3.61,6.7c-2,2.41-3.77,4.59-4.85,5.69l4,3s12-12,12-20C-205-801-209.53-804-212-804Z" transform="translate(221 804)"/><path class="cls-1" d="M-196-804c-5,0-7,7-7,7l6.46,4.61a32.21,32.21,0,0,1-3.61,6.7c-2,2.41-3.77,4.59-4.85,5.69l4,3s12-12,12-20C-189-801-193.53-804-196-804Z" transform="translate(221 804)"/></g></g></svg>