<svg xmlns="http://www.w3.org/2000/svg" viewBox="0 0 132.5 150"><defs><style>.cls-1{fill:#e34d26;}.cls-2{fill:#f06529;}.cls-3{fill:#eaeaea;}.cls-4{fill:#fefefe;}</style></defs><title>skills-bullet-html</title><g id="Layer_2" data-name="Layer 2"><g id="Intro"><path class="cls-1" d="M0,0C.87,0,1.74.06,2.61.06q63.83,0,127.64,0c2.1,0,2.38.63,2.21,2.49C130.66,22,129,41.49,127.2,61q-3.14,34.85-6.3,69.69c-.41,4.53-.42,4.53-4.7,5.71q-24,6.66-48,13.34a6.59,6.59,0,0,1-3.71,0q-25.15-7-50.32-14A2.4,2.4,0,0,1,12,133.24C10.82,118.81,9.48,104.39,8.2,90,7.06,77.21,6,64.46,4.82,51.7S2.53,26.2,1.38,13.45C1.07,10,.78,6.5.44,3c0-.48.22-1.11-.44-1.42ZM66,104c-5.69-1.49-11.38-3-17.08-4.46-1-.25-1-.91-1-1.66-.32-3.46-.69-6.93-1-10.4-.09-1.19-.54-1.55-1.74-1.53q-6.63.12-13.27,0c-1.42,0-1.86.37-1.72,1.82q1.09,11.61,2,23.22a1.44,1.44,0,0,0,1.26,1.49q16.31,4.5,32.59,9.07a1.9,1.9,0,0,1,.39.11c0,4.9,0,9.8,0,14.7,0,2.34,0,2.37,2.32,1.76s4.63-1.31,7-2q16.69-4.63,33.39-9.25c.76-.21,1.18-.51,1.23-1.31.12-1.67.25-3.33.42-5,.35-3.65.66-7.3.9-11,.35-5.38,1-10.74,1.5-16.11.33-3.52.57-7,.89-10.56.49-5.24,1-10.47,1.52-15.71s.83-10.37,1.28-15.55c.49-5.64,1-11.27,1.55-16.91.32-3.45.6-6.9.92-10.36.36-3.91.71-7.82,1.11-11.73.13-1.39-.37-1.85-1.8-1.85q-25.17.06-50.33,0c-1.56,0-1.91.54-1.88,2,.08,4.16-.06,8.33.06,12.48.05,1.73-.55,2.12-2.18,2.11-12.34-.06-24.69,0-37,0-.77,0-1.62-.3-2.3.36,0,.94,0,1.88.08,2.81q1.39,15.92,2.83,31.81c.47,5.13,1,10.26,1.52,15.39.68.65,1.54.36,2.31.36,10.86,0,21.73,0,32.59,0,1.6,0,2.22.34,2.19,2.09-.09,7.24,0,14.48,0,21.72C66.44,102.63,66.7,103.43,66,104Z"/><path class="cls-2" d="M25,27.76c.68-.66,1.53-.36,2.3-.36,12.35,0,24.7,0,37,0,1.63,0,2.23-.38,2.18-2.11-.12-4.15,0-8.32-.06-12.48,0-1.44.32-2,1.88-2q25.17.08,50.33,0c1.43,0,1.93.46,1.8,1.85-.4,3.91-.75,7.82-1.11,11.73-.32,3.46-.6,6.91-.92,10.36-.51,5.64-1.06,11.27-1.55,16.91-.45,5.18-.81,10.37-1.28,15.55s-1,10.47-1.52,15.71c-.32,3.51-.56,7-.89,10.56-.49,5.37-1.15,10.73-1.5,16.11-.24,3.66-.55,7.31-.9,11-.17,1.66-.3,3.32-.42,5,0,.8-.47,1.1-1.23,1.31q-16.71,4.59-33.39,9.25c-2.32.64-4.62,1.34-7,2s-2.32.58-2.32-1.76c0-4.9,0-9.8,0-14.7a8.11,8.11,0,0,1,.93-.36c10.32-2.86,20.63-5.76,31-8.52a2.55,2.55,0,0,0,2.22-2.71c.16-2.68.41-5.35.65-8,1.15-12.88,2.29-25.76,3.52-38.64.17-1.77-.27-2.22-2.08-2.21-12.07.07-24.14,0-36.22,0V44.37c12.73,0,25.46-.07,38.19,0,1.35,0,1.86-.36,2-1.72.31-4.34.65-8.68,1.17-13,.18-1.56-.16-1.94-1.71-1.93-9.78.07-19.56,0-29.35,0-3.54,0-7.09.07-10.64.1Z"/><path class="cls-3" d="M25,27.76l41.1.07v16.4c-7,0-14.09.09-21.13,0-1.48,0-2,.28-1.81,1.87.5,4.39.87,8.8,1.2,13.21.1,1.39.48,1.93,2,1.91,6.57-.07,13.14,0,19.72,0v16.4l-36.67.08c-.5-5.13-1-10.26-1.52-15.39q-1.45-15.9-2.83-31.81C25,29.64,25,28.7,25,27.76Z"/><path class="cls-4" d="M66.07,77.69V61.29l.38-.13c12.08,0,24.15.08,36.22,0,1.81,0,2.25.44,2.08,2.21-1.23,12.88-2.37,25.76-3.52,38.64-.24,2.67-.49,5.34-.65,8a2.55,2.55,0,0,1-2.22,2.71c-10.34,2.76-20.65,5.66-31,8.52a8.11,8.11,0,0,0-.93.36,1.9,1.9,0,0,0-.39-.11V104.3c5.73-1.56,11.46-3.16,17.21-4.66,1.06-.28,1.58-.66,1.67-1.83.48-6,1-12,1.62-18,.19-1.78-.41-2.09-2-2.07C78.38,77.82,72.22,77.73,66.07,77.69Z"/><path class="cls-3" d="M66.07,104.3v17.22Q49.78,117,33.48,112.45A1.44,1.44,0,0,1,32.22,111q-1-11.61-2-23.22c-.14-1.45.3-1.84,1.72-1.82q6.63.12,13.27,0c1.2,0,1.65.34,1.74,1.53.27,3.47.64,6.94,1,10.4.06.75,0,1.41,1,1.66,5.7,1.45,11.39,3,17.08,4.46C66,104.08,66,104.19,66.07,104.3Z"/><path class="cls-2" d="M66.07,104.3c0-.11-.07-.22-.1-.33.73-.54.47-1.34.47-2,0-7.24,0-14.48,0-21.72,0-1.75-.59-2.1-2.19-2.09-10.86.06-21.73,0-32.59,0-.77,0-1.63.29-2.31-.36l36.67-.08c6.15,0,12.31.13,18.47.07,1.62,0,2.22.29,2,2.07-.64,6-1.14,12-1.62,18-.09,1.17-.61,1.55-1.67,1.83C77.53,101.14,71.8,102.74,66.07,104.3Z"/><path class="cls-4" d="M66.07,44.23V27.83c3.55,0,7.1-.09,10.64-.1,9.79,0,19.57,0,29.35,0,1.55,0,1.89.37,1.71,1.93-.52,4.32-.86,8.66-1.17,13-.1,1.36-.61,1.72-2,1.72-12.73,0-25.46,0-38.19,0Z"/><path class="cls-1" d="M66.07,44.23l.38.14V61.16l-.38.13c-6.58,0-13.15-.1-19.72,0-1.54,0-1.92-.52-2-1.91-.33-4.41-.7-8.82-1.2-13.21-.18-1.59.33-1.88,1.81-1.87C52,44.32,59,44.26,66.07,44.23Z"/></g></g></svg>