<svg xmlns="http://www.w3.org/2000/svg" viewBox="0 0 149.84 150"><defs><style>.cls-1{fill:gray;}</style></defs><title>skills-bullet-codepen</title><g id="Layer_2" data-name="Layer 2"><g id="Intro"><path class="cls-1" d="M149.73,51c0-.19-.07-.37-.12-.54s-.06-.21-.1-.32-.1-.31-.16-.47l-.15-.31A3.48,3.48,0,0,0,149,49c0-.1-.11-.19-.17-.29a6.21,6.21,0,0,0-.82-1l-.26-.26c-.12-.1-.24-.21-.37-.3a3.15,3.15,0,0,0-.29-.22l-.1-.08L78.49,1.08a6.44,6.44,0,0,0-7.14,0L2.87,46.78l-.11.09-.29.21a5.5,5.5,0,0,0-.62.56,5.73,5.73,0,0,0-.82,1L.85,49c-.09.16-.17.32-.24.47s-.15.33-.2.46l-.09.28c0,.11-.07.21-.1.3A4.86,4.86,0,0,0,.11,51a2.56,2.56,0,0,0,0,.27,6,6,0,0,0-.06.85V97.85a5.93,5.93,0,0,0,.06.84A2.8,2.8,0,0,0,.12,99a3.89,3.89,0,0,0,.12.55c0,.1.06.2.1.31s.1.32.16.47a2,2,0,0,1,.14.3,5.73,5.73,0,0,0,.69,1.11c.07.1.14.18.22.28s.21.24.33.35a1.48,1.48,0,0,0,.26.24l.36.31a3.42,3.42,0,0,1,.28.22s.06.06.11.08l68.46,45.72A6.27,6.27,0,0,0,74.92,150a6.48,6.48,0,0,0,3.57-1.08L147,103.21l.11-.08.29-.22c.13-.09.25-.2.37-.3l.23-.22c.12-.13.32-.34.43-.49a7.58,7.58,0,0,0,.6-.88c.08-.13.14-.27.21-.41s.1-.21.14-.31.12-.31.17-.47.07-.21.1-.31a4.86,4.86,0,0,0,.11-.55,2.56,2.56,0,0,0,.05-.27,6,6,0,0,0,.06-.85V52.15a5.93,5.93,0,0,0-.06-.84,2.8,2.8,0,0,0-.06-.28ZM74.84,90.16,52,74.91l22.8-15.25,22.8,15.25Zm-6.58-41.8L40.31,67.05,17.76,52,68.26,18.3V48.36ZM28.78,75,12.65,85.79V64.22L28.78,75Zm11.51,7.65,28,18.7v30.09L17.71,97.74l22.58-15.1h0Zm41,18.7,27.94-18.69,22.56,15.09-50.5,33.67Zm39.62-26.44,16-10.69V85.6l-16-10.7Zm-11.68-7.76L81.25,48.46V18.39l50.5,33.67L109.19,67.15Z"/></g></g></svg>