<svg xmlns="http://www.w3.org/2000/svg" viewBox="0 0 150 150"><defs><style>.cls-1{fill:#4b4b4b;}.cls-2{fill:#f48f1c;}.cls-3{fill:#fc961f;}</style></defs><title>skills-bullet-sublime</title><g id="Layer_2" data-name="Layer 2"><g id="Intro"><g id="sublime"><rect class="cls-1" width="150" height="150" rx="10.12" ry="10.12"/><path class="cls-2" d="M112,99.47l-1.78,1.68c-.18,0-70.24,21.8-70.52,21.87-1.57.4-2.19,0-2.23-1.64,0-2.14,0-19.21,0-22,0-2.11.81-3,2.8-3.61,2.44-.79,26.34-8.06,26.5-8.09l.89-.27,1.78-.79c2.59.82,5.18,1.62,7.76,2.45q16.34,5.33,32.65,10.61A5.65,5.65,0,0,0,112,99.47Z"/><path class="cls-3" d="M40.86,77.37c-2.67-.88-3-1.48-3-4.27,0-1.6,0-15.92,0-20.46,0-3,.73-3.7,3.63-4.43C42.93,47.83,110,27.1,110.29,27c1.78-.51,2.25,0,2.27,1.86,0,1.36.09,16.93,0,21.46a15.22,15.22,0,0,1-.4,2.4,13.23,13.23,0,0,1-2.59,1.49c-8.91,2.81-27.78,8.66-28.69,9l29.8,9.64.87.65.54.6a17.61,17.61,0,0,1,.23,2.28c0,6.24,0,12.47,0,18.71-.13,1.46-.25,2.92-.37,4.37a5.47,5.47,0,0,1-2.15.25C98.91,96.21,45.36,78.84,40.86,77.37Z"/></g></g></g></svg>