<svg xmlns="http://www.w3.org/2000/svg" viewBox="0 0 141.6 150"><defs><style>.cls-1{fill:#b3b3b3;}.cls-2{fill:#a6120d;}.cls-3{fill:#dd1b16;}.cls-4{fill:#f2f2f2;}</style></defs><title>skills-bullet-angularjs</title><g id="Layer_2" data-name="Layer 2"><g id="Intro"><path class="cls-1" d="M70.57,0,0,24.84,11.15,117.3,70.65,150l59.8-33.14L141.6,24.4,70.57,0Z"/><path class="cls-2" d="M134.5,29.74,70.35,7.87V142.19l53.76-29.76L134.5,29.74Z"/><path class="cls-3" d="M7.88,30.14l9.55,82.68,52.92,29.36V7.87L7.88,30.14Z"/><path class="cls-4" d="M88.07,79.26,70.41,87.52H51.8L43.05,109.4l-16.28.31L70.41,12.64Zm-1.71-4.12L70.53,43.79l-13,30.81H70.41l16,.54Z"/><path class="cls-1" d="M70.35,12.83v31L85.26,74.6H70.59V87.76H90.9l9.58,22.06,15.57.29L70.41,12.83Z"/></g></g></svg>