<?xml version="1.0" encoding="utf-8"?>
<!-- Generator: Adobe Illustrator 22.0.1, SVG Export Plug-In . SVG Version: 6.00 Build 0)  -->
<svg version="1.1" id="Layer_1" xmlns="http://www.w3.org/2000/svg" xmlns:xlink="http://www.w3.org/1999/xlink" x="0px" y="0px"
	 viewBox="0 0 467 495" style="enable-background:new 0 0 467 495;" xml:space="preserve">
<style type="text/css">
	.st0{fill:#FBFCF5;stroke:#6A685F;stroke-width:3;stroke-miterlimit:10;}
	.st1{fill:#CCCCCC;}
	.st2{fill:#A6120D;}
	.st3{fill:#B3B3B3;}
	.st4{fill:#DD1B16;}
	.st5{fill:#F2F2F2;}
	.st6{fill:#563D7C;}
	.st7{fill:#FFFFFF;}
	.st8{fill:#1A1918;}
	.st9{fill:#21609B;}
	.st10{fill:url(#SVGID_1_);}
	.st11{fill:url(#SVGID_2_);}
	.st12{fill:#63A714;}
	.st13{fill:#89CE17;}
	.st14{fill:#EAEAEA;}
	.st15{fill:#FEFEFE;}
	.st16{fill:#E34D26;}
	.st17{fill:#F06529;}
	.st18{fill:#0070B9;}
	.st19{fill:#29A7DF;}
</style>
<title>skills-languages-sm</title>
<g id="Layer_2_1_">
	<g id="Intro">
		<g id="languages-sm">
			<path class="st0" d="M467,50v328c-0.1,27.6-22.4,49.9-50,50H161c-3.2,4.7-3.6,9.7-4.2,18.6c-1.2,19.4,0.5,29.2,7,48.4
				c-19.2-15.6-26.7-24.1-38.7-46.4c-3.6-6.6-6.8-13.5-9.4-20.6H50c-27.6-0.1-49.9-22.4-50-50V50C0.1,22.4,22.4,0.1,50,0h367
				C444.6,0.1,466.9,22.4,467,50z"/>
			<g id="AngularJS">
				<path class="st1" d="M134.2,370.3v-41.4h5.4l25.4,33.4v-33.4h5v41.4h-5.2l-25.4-33.7v33.7H134.2z M211.2,368.7
					c-3.4,1.3-7.1,1.9-10.8,1.9c-15,0-22.5-7.2-22.5-21.6c0-13.6,7.2-20.4,21.8-20.5c4.2,0,11.7,1.8,11.7,1.8v4.7c0,0-7.4-2-11.1-2
					c-11.3,0-17,5.4-17,16.1c0,11.5,5.6,17.2,16.7,17.2c2,0,4-0.3,5.9-0.7v-14.2h5.3L211.2,368.7L211.2,368.7z M219.8,354.4v-25.5
					h5.3v25.5c0,8,4,12,11.9,12c8,0,11.9-4,11.9-12v-25.5h5.3v25.5c0,10.9-5.8,16.3-17.2,16.3S219.7,365.2,219.8,354.4L219.8,354.4z
					 M269.2,328.9V366H291v4.4h-27v-41.5H269.2z M298.7,370.3h-5.6l20.6-47l20.6,47h-5.9l-5.4-13.1h-13.7l1.5-4.4h10.5l-7.8-18.8
					L298.7,370.3L298.7,370.3z M340,370.3v-41.4h17.7c7.9,0,11.8,3.3,11.8,9.9c0,5.4-3.8,9.4-11.5,12l14.2,19.5h-7L352,351.6v-3.5
					c7.9-1.3,11.9-4.3,11.9-9.1c0-3.8-2.2-5.8-6.6-5.8h-11.9v37.1H340z M392.2,328.9v29.5c0,8-4.7,11.9-14,11.9V366
					c5.8,0,8.7-2.5,8.7-7.6v-29.5H392.2z M401.9,369v-5c4.5,1.6,9.3,2.4,14.1,2.4c7.1,0,10.7-2.6,10.7-7.9c0-4.5-2.6-6.7-7.9-6.7
					h-5.3c-8.7,0-13-3.8-13-11.4c0-8,5.6-12,16.7-12c4.6,0,9.1,0.6,13.5,1.8v5c-4.3-1.6-8.9-2.4-13.5-2.3c-7.5,0-11.3,2.5-11.3,7.6
					c0,4.5,2.5,6.7,7.6,6.7h5.3c8.8,0,13.2,3.8,13.2,11.4c0,8.2-5.4,12.3-16.1,12.3C411.3,370.8,406.5,370.2,401.9,369z"/>
				<path d="M135.6,369v-41.4h5.8l25,33.2v-33.2h5v41.3h-5.3l-25.4-33.6V369H135.6L135.6,369z M212.6,367.4
					c-3.5,1.3-7.2,1.9-10.9,1.9c-15,0-22.5-7.2-22.5-21.6c0-13.6,7.2-20.4,21.8-20.4c4.2,0,11.5,1.7,11.5,1.7v4.7
					c-3.5-1.3-7.2-2-10.9-2c-11.2,0-16.8,5.4-16.8,16.1c0,11.5,5.5,17.2,16.6,17.2c2,0,3.9-0.3,5.9-0.7v-14.1h5.5L212.6,367.4z
					 M221.2,353.1v-25.5h5.3v25.5c0,8,4,11.9,11.9,12s11.9-4,11.9-12v-25.5h5.3v25.5c0,10.9-5.8,16.3-17.2,16.3
					C226.9,369.3,221.2,363.9,221.2,353.1L221.2,353.1z M270.5,327.6v37.1h21.8v4.3h-27v-41.4L270.5,327.6z M300,369h-5.6l20.6-47
					l20.6,47h-6l-5.3-13h-13.7l1.5-4.4h10.4l-7.7-18.8L300,369z M341.5,369v-41.4H359c7.8,0,11.7,3.3,11.7,9.9
					c0,5.4-3.8,9.4-11.5,12l14.1,19.5h-6.7l-13.3-18.7v-3.5c8-1.3,12-4.3,12-9.1c0-3.8-2.2-5.7-6.7-5.7h-11.9V369H341.5z"/>
				<path class="st2" d="M393.7,327.4V357c0,8-4.7,11.9-14,11.9v-4.4c5.8,0,8.7-2.5,8.7-7.6v-29.6H393.7z M403.2,367.7v-5
					c4.5,1.6,9.3,2.4,14.1,2.3c7.1,0,10.7-2.6,10.7-7.9c0-4.5-2.6-6.7-7.9-6.7h-5.3c-8.7,0-13-3.8-13-11.4c0-8,5.6-12,16.7-12
					c4.6,0,9.1,0.6,13.5,1.8v5c-4.3-1.6-8.9-2.4-13.5-2.3c-7.5,0-11.3,2.5-11.3,7.6c0,4.5,2.5,6.7,7.6,6.7h5.3
					c8.8,0,13.2,3.8,13.2,11.4c0,8.2-5.3,12.3-16,12.3C412.6,369.5,407.9,368.9,403.2,367.7L403.2,367.7z"/>
				<path class="st3" d="M79.2,295.6l-48.4,17.1l7.7,63.5l40.8,22.4l41-22.8l7.7-63.4L79.2,295.6z"/>
				<path class="st2" d="M123.1,316l-44-15v92.2l36.9-20.4L123.1,316z"/>
				<path class="st4" d="M36.2,316.3l6.6,56.7l36.3,20.1V301L36.2,316.3z"/>
				<path class="st5" d="M91.2,350l-12.1,5.7H66.3l-6,15l-11.2,0.2l30-66.6L91.2,350z M90.1,347.2l-10.9-21.5l-8.9,21.1h8.8
					L90.1,347.2L90.1,347.2z"/>
				<path class="st3" d="M79.1,304.4v21.3l10.2,21.1H79.2v9h13.9l6.6,15.1l10.7,0.2L79.1,304.4L79.1,304.4z"/>
			</g>
			<g id="Bootstrap">
				<path class="st6" d="M340.8,132c0,7.3,5.9,13.3,13.3,13.3h76.4c7.3,0,13.3-5.9,13.3-13.3c0,0,0,0,0,0V55.6
					c0-7.3-5.9-13.3-13.3-13.3h-76.4c-7.3,0-13.3,5.9-13.3,13.3c0,0,0,0,0,0V132z"/>
				<path class="st7" d="M383.5,87.9V73.3h12.8c1.2,0,2.4,0.1,3.5,0.3c1.1,0.2,2.1,0.5,3,1.1c0.9,0.5,1.6,1.3,2.1,2.2
					c0.6,1.1,0.8,2.3,0.8,3.6c0,2.6-0.8,4.5-2.4,5.7c-1.8,1.2-3.9,1.8-6,1.8L383.5,87.9z M369.8,62.7V125H400c2.8,0,5.5-0.3,8.2-1
					c2.5-0.6,4.9-1.7,7.1-3.2c2.1-1.5,3.8-3.4,4.9-5.6c2.8-5.8,2.4-12.7-1-18.2c-2.1-2.9-5.1-5-8.6-5.8c2.5-1.1,4.7-2.9,6.3-5.2
					c1.5-2.4,2.2-5.1,2.1-7.9c0.1-2.5-0.4-5-1.4-7.3c-0.9-1.9-2.3-3.6-4-4.8c-1.9-1.3-4-2.1-6.3-2.6c-2.7-0.5-5.4-0.8-8.1-0.8
					L369.8,62.7z M383.5,114.4V97.2h14.9c2.6-0.1,5.1,0.6,7.2,2.1c1.8,1.4,2.7,3.7,2.7,6.9c0,1.4-0.2,2.8-0.8,4
					c-0.5,1-1.3,1.9-2.2,2.5c-1,0.7-2.1,1.1-3.3,1.4c-1.3,0.3-2.5,0.4-3.8,0.4L383.5,114.4z"/>
			</g>
			<g id="jQuery">
				<path class="st8" d="M437.4,216.8l13.2,0.1c0,0-24.6,33.3-26.6,36c-0.8,0.9-1.6,1.9-2.1,3c-1.1,3.1-1.9,6.2-2.6,9.4l-12.1,0.1
					c0,0,1.9-6.8,1.8-10.4c-0.1-3.1-1.7-6.3-2.6-9.4s-2.1-9.5-2.1-9.5h12.4l1.7,6.9L437.4,216.8"/>
				<path class="st8" d="M412.3,223.8c2.4,1.5,3.9,9.6,3.9,9.6l-19.7,0.1h-6l-7.3,31.7h-11.1c0,0,6.9-34.4,8.6-40.7
					c0.5-2,3.6-1.7,8.9-1.7h8.4C403.4,222.8,409.7,222.1,412.3,223.8 M360.5,239.3c0.1-1.6-0.3-3.1-1.2-4.4c-1.3-2-2.5-2.5-5.9-2.6
					c-9.7-0.3-9.5,6.9-9.5,6.9L360.5,239.3z M371,231c1.4,5.1-1.3,17.1-1.3,17.1s-14.1-0.2-21.9,0c-2.4,0.1-5.3-0.3-6,0.9
					c-1,1.6,0.4,4,1.5,5c1.3,1.2,4,1.3,4.9,1.4c6.3,0.8,19.4,0.2,19.4,0.2l-2.3,10.1c0,0-18.6,0.9-27.9-1.3
					c-1.8-0.4-3.4-1.3-4.7-2.6c-0.3-0.4-0.6-0.8-0.9-1.2c-0.5-0.7-0.9-1.4-1.3-2.2c-2.1-5.6,0.2-16.5,2.6-22.3
					c0.3-0.7,0.6-1.5,1-2.2c0.5-0.9,0.8-1.9,1.2-2.5c0.2-0.4,0.5-0.6,0.8-1c0.3-0.4,0.6-0.8,0.9-1.2c0.9-1,1.9-1.8,3-2.6
					c3.9-2.9,10.9-5.1,19.3-4.3c3.2,0.3,8,1.5,10.3,4.7C370.4,228.3,370.8,229.6,371,231z M319.8,222.8l10.8-0.1
					c0,0-6,28.6-9.1,42.6h-12.4c-8.7,0-16.5,1.1-19.8-5.2c-3.2-6.1-0.1-16,1.3-22.8c1-4.8,3.1-14.6,3.1-14.6l11.2-0.1
					c0,0-3.2,15.2-4.5,22.8c-0.5,2.7-1.4,5.3-0.4,7.3s2.3,2.1,6.4,2.1c1.3,0,5.6,0,5.6,0L319.8,222.8 M269.2,243.4
					c1.1-4,2.8-8.4,2.6-12c-0.2-3.9-3.5-7.4-5.6-8.1c-5.1-1.7-10.8-0.4-14.6,3.4c-3,3.3-4.1,7.1-5.1,12.4c-0.8,3.9-1.4,8.1,0,11.1
					c2.6,5.4,10.6,4.2,19.3,4.3C267.1,251.1,268.1,247.2,269.2,243.4z M284.2,227.5c1.2,9-3.5,18.9-6.8,27.5c3.3,0.3,6.2,0,6.5,0.2
					s-2.2,10.3-3.1,10.3c-2.6,0.1-11.4,0.1-15,0.1c-11.9,0-23,0.8-28.7-5.1c-2.3-2.7-3.8-6-4.3-9.4c-0.5-4.9,0-9.8,1.3-14.6
					c0.9-3.9,2.4-7.6,4.3-11.1c5-8.7,13.7-15.2,28.3-13.7c3.3,0.4,6.5,1.4,9.4,3c0.2,0.1,0.8,0.6,0.9,0.7
					C280.5,217.5,283.6,222.7,284.2,227.5L284.2,227.5z M231.5,222.9c-0.7,3.3-1.4,7-2.2,10.2h-11.9c0.9-3.6,1.6-7.1,2.6-10.2
					C223.8,222.8,231.5,222.8,231.5,222.9 M217,236.1h11.5c-1.5,8.4-4.5,21.9-6.9,31.3c-1.5,5.9-2.5,10.2-6.4,13.3
					c-0.4,0.3-0.6,0.1-0.9,0.4c-0.7,0.7-4.1,1.5-6,1.7c-3.4,0.2-6.8,0.2-10.2,0c1-3.6,2.1-7.9,3-11.1c9.1,1.1,9.4-7.5,11.1-15.9
					C213.3,251.1,216.4,238.1,217,236.1"/>
				<path class="st9" d="M189.9,258l-0.2,0.6c-4.2,8.2-11.7,13.3-22.4,13.5c-4.4,0.1-8.8-0.8-12.9-2.6c-6.6-3-12-8.2-15.4-14.6
					c-4.4-8.6-5.2-20.5,4-29.4c0.1,0-1.1,1.9-1,1.9l-0.3,0.8c-6.6,20.7,13.8,38.5,33.6,36.5C180.8,264.2,185.9,261.8,189.9,258"/>
				<path class="st9" d="M177.9,249.4c5,0,9.8-2,13.3-5.6c-2.7,6.9-10.5,11.3-21,9.9c-8.8-1.2-17.1-10-18-18.9
					c-0.6-6.4,1.6-10.3,5.3-15c-1,1.7-1.6,3.6-1.9,5.5C154.2,239.3,166.7,249.3,177.9,249.4"/>
				<path class="st9" d="M190.7,232.1c-0.8,1.8-5.2,5.1-7.2,5.6c-7.8,1.7-12.8-2-15.4-6.2c-0.5-0.9-0.9-1.8-1.2-2.8
					c-1-3.5-0.6-8.7,2.5-11.4c-0.9,2.4-1,5-0.6,7.5c0.5,1.6,1.2,3.1,2.1,4.5c1.2,1.8,2.8,3.2,4.7,4.2c0.7,0.5,1.5,0.8,2.4,1.1
					C179.8,235.1,184,236.6,190.7,232.1"/>
			</g>
			<g id="Python">
				
					<linearGradient id="SVGID_1_" gradientUnits="userSpaceOnUse" x1="-2561.6599" y1="2232.9937" x2="-2561.6399" y2="2233.0134" gradientTransform="matrix(1849.27 0 0 1853.39 4737227.5 -4138426.5)">
					<stop  offset="0" style="stop-color:#387EB8"/>
					<stop  offset="1" style="stop-color:#366994"/>
				</linearGradient>
				<path class="st10" d="M63.6,173.5c-23,0-21.6,10-21.6,10v10.4h22v3.1H33.3c0,0-14.8-1.7-14.8,21.6s12.9,22.4,12.9,22.4h7.7
					v-10.8c0,0-0.4-12.9,12.7-12.9h21.8c0,0,12.2,0.2,12.2-11.8v-19.9C85.8,185.5,87.7,173.5,63.6,173.5z M55.4,184.4L55.4,184.4
					c0,2.2-1.8,3.9-3.9,3.9c0,0,0,0,0,0l0,0c-2.2,0-4-1.8-4-3.9l0,0c0-2.2,1.8-4,4-4l0,0C53.6,180.4,55.4,182.2,55.4,184.4
					L55.4,184.4z"/>
				
					<linearGradient id="SVGID_2_" gradientUnits="userSpaceOnUse" x1="-2561.9976" y1="2232.6704" x2="-2561.9678" y2="2232.6904" gradientTransform="matrix(1849.27 0 0 1853.39 4737871 -4137799.25)">
					<stop  offset="0" style="stop-color:#FFE052"/>
					<stop  offset="1" style="stop-color:#FFC331"/>
				</linearGradient>
				<path class="st11" d="M64.2,263.8c23,0,21.6-10,21.6-10v-10.4h-22v-3.1h30.7c0,0,14.8,1.7,14.8-21.6s-12.9-22.4-12.9-22.4h-7.7
					v10.8c0,0,0.4,12.9-12.7,12.9H54.3c0,0-12.3-0.2-12.3,11.8v19.9C42,251.7,40.1,263.7,64.2,263.8L64.2,263.8z M76.4,256.8
					c-2.2,0-4-1.8-4-4l0,0c0-2.2,1.8-3.9,3.9-3.9c0,0,0,0,0,0l0,0c2.2,0,4,1.8,4,3.9l0,0C80.3,255,78.6,256.7,76.4,256.8
					C76.4,256.7,76.4,256.7,76.4,256.8L76.4,256.8L76.4,256.8z"/>
			</g>
			<g id="JavaScript">
				<path class="st12" d="M308.6,54.7c-0.6,1.8-0.5,3.7-0.7,5.6c-0.9,9.1-1.7,18.2-2.5,27.4c-0.7,7.9-1.4,15.8-2.1,23.7
					c-0.7,7.8-1.4,15.6-2.1,23.4c0,0.9-0.6,1.6-1.5,1.7c-10.3,2.8-20.7,5.7-31,8.6c-0.9,0.3-1.8,0.3-2.7,0
					c-10.4-2.9-20.7-5.8-31.1-8.6c-0.8-0.2-1.1-0.5-1.2-1.4c-1.4-15.4-2.8-30.9-4.1-46.4c-1-11.7-2-23.5-3.1-35.2
					c-0.1-1.1,0.2-1.3,1.2-1.3c26.4,0,52.9,0,79.3,0c0.5,0,1,0,1.5,0L308.6,54.7z M267.4,116.7c-3.7-0.8-7.3-1.9-11-2.8
					c-0.6-0.1-0.5-0.5-0.6-1c-0.2-2-0.4-4.1-0.5-6.1c-0.1-0.9-0.3-1.4-1.4-1.3c-2.7,0.1-5.3,0-8,0c-0.8,0-1.1,0.1-1,1
					c0.4,4.8,0.8,9.6,1.2,14.4c0,0.8,0.4,1,1,1.1c2,0.5,3.9,1,5.9,1.6l14.4,4c0,3.2,0,6.3,0,9.5c0,0.7,0.1,1.1,1,0.9
					c8.6-2.4,17.1-4.8,25.6-7.1c0.5-0.1,0.8-0.3,0.8-0.9c0.2-2.8,0.5-5.5,0.7-8.3c0.3-3.3,0.5-6.6,0.8-9.9c0.4-4.2,0.8-8.3,1.2-12.5
					c0.3-3.4,0.5-6.8,0.8-10.2c0.5-5.1,1-10.1,1.5-15.2c0.4-4.6,0.7-9.2,1.3-13.8c0.1-0.8-0.1-1.3-1.1-1.3c-10.5,0-21,0-31.5,0
					c-0.9,0-1.2,0.2-1.1,1.1c0,3,0,6.1,0,9.1c-0.5,0-1,0-1.5,0c-7.7,0-15.4,0-23.1,0c-0.9,0-1.2,0.2-1.1,1.2c0.3,3,0.5,6,0.7,9.1
					c0.4,0.4,1,0.2,1.4,0.2c7.3,0,14.6,0,22,0c1.2,0,1.6,0.3,1.6,1.6C267.4,93.1,267.4,104.9,267.4,116.7L267.4,116.7z"/>
				<path d="M276.9,35.2c2,1.6,3.7,3,5.4,4.2c0.6,0.4,1,1.1,0.9,1.9c-0.1,1-0.1,2.1,0,3.1c0,0.6-0.2,0.8-0.8,0.8
					c-4.4,0-8.7,0-13.1,0c-0.5,0-0.9-0.1-0.8-0.7c0-1.2,0-2.4,0-3.6c0-0.7,0.3-0.7,0.8-0.7c1.7,0,3.4,0,5.1,0
					c0.1-0.5-0.3-0.6-0.5-0.8c-0.6-0.5-1.3-1-2-1.5c-3.7-2.9-3.7-2.9-3.5-7.6c0-0.6,0.2-0.8,0.8-0.8c4.4,0,8.8,0,13.2,0
					c0.6,0,0.7,0.2,0.7,0.7c0,1.4,0,2.8,0,4.3c0,0.6-0.2,0.8-0.8,0.8C280.7,35.2,279,35.2,276.9,35.2z"/>
				<path d="M266.1,37.4c0,2.3,0,4.6,0,6.9c0,0.8-0.2,1-1,1c-4.2,0-8.4,0-12.6,0c-0.7,0-1-0.1-0.9-0.9c0.1-1.3,0.1-2.6,0-3.9
					c0-0.8,0.3-0.9,1-0.9c2.1,0,4.2,0,6.2,0c0.9,0,1.1-0.3,1.1-1.1c0-2.7,0-5.4,0-8.1c0-0.7,0.1-0.9,0.9-0.9c1.5,0,3,0,4.5,0
					c0.7,0,0.9,0.2,0.9,0.9C266.1,32.7,266.1,35,266.1,37.4z"/>
				<path class="st13" d="M267.4,69.2c0-3,0-6.1,0-9.1c0-0.9,0.3-1.1,1.1-1.1c10.5,0,21,0,31.5,0c1,0,1.2,0.4,1.1,1.3
					c-0.5,4.6-0.9,9.2-1.3,13.9c-0.4,5.1-1,10.1-1.5,15.2c-0.3,3.4-0.5,6.8-0.8,10.2c-0.4,4.2-0.8,8.3-1.2,12.5
					c-0.3,3.3-0.5,6.6-0.8,9.9c-0.2,2.8-0.5,5.5-0.7,8.3c0,0.6-0.3,0.8-0.8,0.9c-8.5,2.3-17.1,4.7-25.6,7.1c-0.9,0.2-1-0.1-1-0.9
					c0-3.2,0-6.3,0-9.5l0.5-0.2c6.7-1.8,13.4-3.7,20.1-5.5c0.5-0.2,0.6-0.5,0.6-0.9c0.6-6.6,1.2-13.2,1.8-19.8
					c0.5-5.9,1.1-11.8,1.6-17.8c0.4-4.5,0.8-9,1.1-13.6c0.4-1.2-0.5-0.8-1-0.8C283.9,69.2,275.7,69.2,267.4,69.2z"/>
				<path class="st13" d="M267.4,116.7c0-11.8,0-23.6,0-35.5c0-1.3-0.4-1.6-1.6-1.6c-7.3,0.1-14.6,0-22,0c-0.5,0-1,0.2-1.4-0.2h25
					c0.5,0,0.9,0,1.4,0c4.1,0,8.2,0,12.4,0c0.7,0,1,0.1,0.9,0.9c-1.1,10.7-2.1,21.4-3.1,32.1c0,0.8-0.6,1.5-1.3,1.5
					c-3.2,0.8-6.5,1.8-9.7,2.6L267.4,116.7z"/>
				<path class="st14" d="M267.4,116.7h0.5c-0.3,0.2-0.5,0.6-0.5,1c0,2.9,0,5.8,0,8.7c0,0.4-0.1,0.9,0.5,0.9l-0.5,0.2l-14.4-4
					c-2-0.6-3.9-1.1-5.9-1.6c-0.6-0.2-1-0.4-1-1.1c-0.3-4.8-0.7-9.6-1.2-14.4c-0.1-0.9,0.3-1,1-1c2.7,0,5.3,0.1,8,0
					c1.1,0,1.3,0.4,1.4,1.3c0.1,2,0.3,4.1,0.5,6.1c0,0.4,0,0.8,0.6,1C260.1,114.8,263.7,116,267.4,116.7z"/>
				<path class="st14" d="M267.4,79.5h-25c-0.2-3-0.4-6.1-0.7-9.1c-0.1-1,0.2-1.2,1.1-1.2c7.7,0,15.4,0,23.1,0c0.5,0,1,0,1.5,0
					c8.3,0,16.5,0,24.8,0c0.4,0,1.4-0.4,1,0.8c-0.1-0.7-0.6-0.6-1.1-0.6c-7.9,0-15.7,0-23.6,0c-0.9,0-1.1,0.2-1.1,1.1
					C267.4,73.6,267.4,76.5,267.4,79.5z"/>
				<path class="st15" d="M267.4,79.5c0-3,0-5.9,0-8.9c0-0.9,0.3-1.1,1.1-1.1c7.9,0,15.7,0,23.6,0c0.4,0,1-0.1,1.1,0.6
					c-0.4,4.5-0.7,9-1.1,13.6c-0.5,5.9-1.1,11.8-1.6,17.8c-0.6,6.6-1.2,13.2-1.8,19.8c0,0.4-0.1,0.8-0.6,0.9
					c-6.7,1.8-13.4,3.6-20.1,5.5c-0.6-0.1-0.5-0.5-0.5-0.9c0-2.9,0-5.8,0-8.7c0-0.4,0.2-0.8,0.5-1c3.2-0.9,6.5-1.8,9.7-2.6
					c0.8-0.1,1.4-0.7,1.3-1.5c1-10.7,2-21.4,3.1-32.1c0.1-0.9-0.2-0.9-0.9-0.9c-4.1,0-8.2,0-12.4,0
					C268.3,79.5,267.9,79.5,267.4,79.5z"/>
			</g>
			<g id="HTML">
				<path class="st16" d="M16.4,52.3c0.5,0,1.1,0,1.6,0c26.4,0,52.7,0,79.1,0c1.3,0,1.5,0.4,1.4,1.5c-1.1,12.1-2.2,24.2-3.3,36.2
					c-1.3,14.4-2.6,28.8-3.9,43.2c-0.2,2.8-0.3,2.8-2.9,3.5l-29.8,8.3c-0.8,0.2-1.5,0.2-2.3,0c-10.4-2.9-20.8-5.8-31.2-8.7
					c-0.8-0.1-1.4-0.8-1.3-1.6c-0.8-8.9-1.6-17.9-2.4-26.8c-0.7-7.9-1.4-15.8-2.1-23.7S18,68.6,17.3,60.7c-0.2-2.2-0.4-4.3-0.6-6.5
					c0-0.3,0.1-0.7-0.3-0.9L16.4,52.3z M57.3,116.8c-3.5-0.9-7-1.9-10.6-2.8c-0.6-0.2-0.6-0.6-0.6-1c-0.2-2.2-0.4-4.3-0.6-6.4
					c-0.1-0.7-0.3-1-1.1-1c-2.7,0-5.5,0-8.2,0c-0.9,0-1.2,0.2-1.1,1.1c0.5,4.8,0.9,9.6,1.3,14.4c0,0.5,0.3,0.9,0.8,0.9
					c6.7,1.8,13.5,3.7,20.2,5.6c0.1,0,0.2,0,0.2,0.1v9.1c0,1.4,0,1.5,1.4,1.1s2.9-0.8,4.3-1.2c6.9-1.9,13.8-3.8,20.7-5.7
					c0.5-0.1,0.7-0.3,0.8-0.8c0.1-1,0.2-2.1,0.3-3.1c0.2-2.3,0.4-4.5,0.6-6.8c0.2-3.3,0.6-6.7,0.9-10c0.2-2.2,0.3-4.4,0.6-6.6
					c0.3-3.2,0.7-6.5,0.9-9.7s0.5-6.4,0.8-9.6c0.3-3.5,0.7-7,1-10.5c0.2-2.1,0.4-4.3,0.6-6.4c0.2-2.4,0.5-4.9,0.7-7.3
					c0.1-0.9-0.2-1.2-1.1-1.2c-10.4,0-20.8,0-31.2,0c-1,0-1.2,0.3-1.2,1.2c0,2.6,0,5.2,0,7.7c0,1.1-0.3,1.3-1.3,1.3
					c-7.7,0-15.3,0-23,0c-0.5,0-1-0.2-1.4,0.2c0,0.6,0,1.2,0,1.7c0.6,6.6,1.2,13.1,1.8,19.7c0.3,3.2,0.6,6.4,0.9,9.5
					c0.4,0.4,1,0.2,1.4,0.2c6.7,0,13.5,0,20.2,0c1,0,1.4,0.2,1.4,1.3c-0.1,4.5,0,9,0,13.5C57.6,115.9,57.7,116.4,57.3,116.8z"/>
				<path d="M70.4,38.1l-3.3,5.1l-3.4-5.2l-0.3,0.1c0,2,0,4,0,6c0,0.9-0.2,1.3-1.2,1.2c-1-0.1-2-0.1-3,0c-0.7,0-1-0.1-1-0.9
					c0-4.7,0-9.3,0-14c0-0.7,0.2-0.9,0.8-0.8h0.1c1.5,0,3.2-0.4,4.4,0.2s1.6,2.3,2.4,3.5l1,1.7c1-1.6,2-3.1,2.8-4.6
					c0.3-0.6,0.9-0.9,1.5-0.8c1.2,0.1,2.5,0,3.7,0c0.6,0,0.8,0.2,0.8,0.8c0,4.7,0,9.4,0,14.1c0,0.7-0.2,0.9-0.9,0.8
					c-1.4-0.1-3.2,0.5-4.1-0.2s-0.2-2.6-0.3-3.9c0-1,0-2,0-3L70.4,38.1z"/>
				<path d="M24.1,37.4c0-2.3,0-4.6,0-6.9c0-0.8,0.2-1,1-0.9c1.1,0.1,2.2,0.1,3.4,0c0.7,0,1,0.1,1,0.9c-0.1,1.1,0,2.3,0,3.4
					c0,0.7,0.1,1,0.9,0.9c1-0.1,2.1,0,3.1,0c0.5,0,0.7-0.2,0.7-0.7c0-1.2,0-2.5,0-3.7c0-0.6,0.1-0.8,0.8-0.8c1.3,0,2.6,0,3.9,0
					c0.6,0,0.7,0.2,0.7,0.7c0,4.7,0,9.5,0,14.2c0,0.6-0.2,0.9-0.8,0.8c0,0-0.1,0-0.1,0c-1.4,0-3.2,0.5-4.1-0.2s-0.2-2.6-0.2-4
					c0-0.7-0.1-1.1-1-1c-1.2,0.1-2.9-0.5-3.6,0.3s-0.3,2.3-0.2,3.5s-0.2,1.7-1.5,1.5c-0.8-0.1-1.7-0.1-2.5,0
					c-1.2,0.2-1.4-0.4-1.4-1.4C24.2,41.7,24.1,39.6,24.1,37.4z"/>
				<path d="M48.9,29.6c2.1,0,4.2,0,6.3,0c0.7,0,0.9,0.2,0.9,0.9c-0.1,1.2,0,2.4,0,3.6c0,0.6-0.2,0.8-0.8,0.8c-1,0-2,0-3,0
					c-0.7,0-0.9,0.2-0.9,0.9c0,2.8,0,5.6,0,8.5c0,0.9-0.2,1.2-1.1,1.1c-1.3-0.1-3.1,0.6-3.9-0.3s-0.2-2.5-0.2-3.8
					c0-1.7-0.1-3.4,0-5.1c0.1-1.1-0.3-1.3-1.3-1.2c-0.8,0.1-1.7,0-2.5,0c-0.6,0-0.9-0.1-0.9-0.8c0.1-1.2,0-2.5,0-3.7
					c0-0.6,0.2-0.7,0.8-0.7C44.5,29.6,46.7,29.6,48.9,29.6z"/>
				<path d="M78.5,37.5c0-2.3,0-4.7,0-7c0-0.7,0.2-0.9,0.9-0.9c1.2,0.1,2.3,0.1,3.5,0c0.7,0,0.9,0.2,0.9,0.9c0,2.8,0,5.7,0,8.5
					c0,1,0.3,1.2,1.2,1.1c1.8-0.1,3.6,0,5.4,0c0.7,0,0.9,0.2,0.8,0.8c-0.1,1.4,0.5,3.3-0.2,4.1s-2.6,0.2-4,0.3c-2.4,0-4.9,0-7.4,0
					c-0.8,0-1-0.2-1-1C78.5,42.1,78.5,39.8,78.5,37.5z"/>
				<path class="st17" d="M31.9,69.5c0.4-0.4,0.9-0.2,1.4-0.2c7.7,0,15.3,0,23,0c1,0,1.4-0.2,1.3-1.3c-0.1-2.6,0-5.2,0-7.7
					c0-0.9,0.2-1.2,1.2-1.2c10.4,0,20.8,0,31.2,0c0.9,0,1.2,0.3,1.1,1.2c-0.2,2.4-0.5,4.8-0.7,7.3c-0.2,2.1-0.4,4.3-0.6,6.4
					c-0.3,3.5-0.7,7-1,10.5c-0.3,3.2-0.5,6.4-0.8,9.6s-0.6,6.5-0.9,9.7c-0.2,2.2-0.3,4.4-0.6,6.6c-0.3,3.3-0.7,6.6-0.9,10
					c-0.1,2.3-0.3,4.5-0.6,6.8c-0.1,1-0.2,2.1-0.3,3.1c0,0.5-0.3,0.7-0.8,0.8c-6.9,1.9-13.8,3.8-20.7,5.7c-1.4,0.4-2.9,0.8-4.3,1.2
					s-1.4,0.4-1.4-1.1v-9.1c0.2-0.1,0.4-0.2,0.6-0.2c6.4-1.8,12.8-3.6,19.2-5.3c0.8-0.1,1.4-0.8,1.4-1.7c0.1-1.7,0.2-3.3,0.4-5
					c0.7-8,1.4-16,2.2-23.9c0.1-1.1-0.2-1.4-1.3-1.4c-7.5,0.1-15,0-22.4,0V79.8c7.9,0,15.8,0,23.7,0c0.8,0,1.2-0.2,1.2-1.1
					c0.2-2.7,0.4-5.4,0.7-8.1c0.1-1-0.1-1.2-1.1-1.2c-6.1,0-12.1,0-18.2,0c-2.2,0-4.4,0-6.6,0.1L31.9,69.5z"/>
				<path class="st14" d="M31.9,69.5h25.5v10.2c-4.4,0-8.7,0.1-13.1,0c-0.9,0-1.2,0.2-1.1,1.2c0.3,2.7,0.5,5.4,0.7,8.2
					c0.1,0.9,0.3,1.2,1.2,1.2c4.1,0,8.2,0,12.2,0v10.2H34.6c-0.3-3.2-0.7-6.3-0.9-9.5c-0.6-6.6-1.2-13.1-1.8-19.7
					C31.9,70.7,31.9,70.1,31.9,69.5z"/>
				<path class="st15" d="M57.3,100.5V90.3l0.2-0.1c7.5,0,15,0.1,22.4,0c1.1,0,1.4,0.3,1.3,1.4c-0.8,8-1.5,16-2.2,23.9
					c-0.2,1.7-0.3,3.3-0.4,5c0.1,0.8-0.5,1.6-1.4,1.7c-6.4,1.7-12.8,3.5-19.2,5.3c-0.2,0.1-0.4,0.1-0.6,0.2c-0.1,0-0.2,0-0.2-0.1
					V117c3.5-1,7.1-2,10.7-2.9c0.7-0.2,1-0.4,1-1.1c0.3-3.7,0.6-7.4,1-11.2c0.1-1.1-0.2-1.3-1.2-1.3C65,100.6,61.2,100.5,57.3,100.5
					z"/>
				<path class="st14" d="M57.3,117v10.7c-6.7-1.9-13.5-3.8-20.2-5.6c-0.5-0.1-0.8-0.5-0.8-0.9c-0.4-4.8-0.8-9.6-1.3-14.4
					c-0.1-0.9,0.2-1.2,1.1-1.1c2.7,0,5.5,0,8.2,0c0.7,0,1,0.2,1.1,1c0.2,2.2,0.4,4.3,0.6,6.4c0,0.5,0,0.9,0.6,1
					c3.5,0.9,7,1.8,10.6,2.8L57.3,117z"/>
				<path class="st17" d="M57.3,117l-0.1-0.2c0.5-0.3,0.3-0.8,0.3-1.3c0-4.5,0-9,0-13.5c0-1.1-0.4-1.3-1.4-1.3c-6.7,0-13.5,0-20.2,0
					c-0.5,0-1,0.2-1.4-0.2h22.7c3.8,0,7.6,0.1,11.4,0c1,0,1.4,0.2,1.2,1.3c-0.4,3.7-0.7,7.4-1,11.2c-0.1,0.7-0.4,1-1,1.1
					C64.4,115,60.9,116,57.3,117z"/>
				<path class="st15" d="M57.3,79.7V69.6c2.2,0,4.4-0.1,6.6-0.1c6.1,0,12.1,0,18.2,0c1,0,1.2,0.2,1.1,1.2c-0.3,2.7-0.5,5.4-0.7,8.1
					c-0.1,0.8-0.4,1.1-1.2,1.1c-7.9,0-15.8,0-23.7,0L57.3,79.7z"/>
				<path class="st16" d="M57.3,79.7l0.2,0.1v10.4l-0.2,0.1c-4.1,0-8.1-0.1-12.2,0c-1,0-1.2-0.3-1.2-1.2c-0.2-2.7-0.4-5.5-0.7-8.2
					c-0.1-1,0.2-1.2,1.1-1.2C48.6,79.8,53,79.8,57.3,79.7z"/>
			</g>
			<g id="CSS">
				<path class="st18" d="M162.6,52.3c13.2,0,26.5,0,39.7,0c1.1,0,1.3,0.3,1.2,1.3c-0.9,9-1.6,18-2.4,27s-1.6,17.9-2.4,26.8
					c-0.7,7.9-1.4,15.8-2.1,23.7c-0.1,1.4-0.3,2.7-0.4,4.1c0,0.7-0.4,1-1,1.1c-10.7,2.9-21.3,5.9-31.9,8.8c-0.5,0.1-1,0.1-1.4,0
					c-10.7-3-21.3-5.9-31.9-8.9c-0.6-0.1-1-0.6-1-1.2c-1.2-14.2-2.5-28.3-3.8-42.5c-1.2-13.1-2.3-26.2-3.5-39.3
					c-0.1-1,0.1-1.2,1.1-1.2C136,52.3,149.3,52.3,162.6,52.3z M138.6,90.2l0.8,10.2c0.4,0.5,0.9,0.3,1.4,0.3c6.8,0,13.5,0,20.3,0
					c0.7,0,1.3-0.1,1.3,1c0,4.6,0,9.2,0,13.8c0,0.4,0.1,0.9-0.5,1c-3.3-0.9-6.6-1.8-10-2.6c-0.7-0.1-1.3-0.8-1.2-1.5
					c-0.1-2.1-0.4-4.1-0.5-6.2c-0.1-0.7-0.2-0.9-1-0.9c-3,0-6,0-9,0c-0.6,0-0.8,0.1-0.7,0.8c0.5,4.8,0.9,9.7,1.3,14.5
					c0.1,1,0.4,1.3,1.3,1.5c6.8,1.9,13.5,3.8,20.2,5.7c0,3.1,0,6.2,0,9.4c0,1,0.2,1.2,1.2,0.9c8.5-2.4,16.9-4.7,25.4-7
					c0.8-0.2,0.8-0.7,0.8-1.3c0.2-2.3,0.3-4.6,0.5-6.9c0.3-3.4,0.6-6.8,1-10.3c0.2-2.2,0.4-4.4,0.6-6.6c0.3-3.3,0.6-6.6,0.9-9.9
					s0.5-6.4,0.8-9.5c0.3-3.5,0.6-6.9,1-10.4c0.2-2.1,0.4-4.3,0.6-6.4c0.3-3.2,0.6-6.4,1-9.6c0.1-0.8-0.2-1.1-1-1.1
					c-10.5,0-21,0-31.4,0c-0.9,0-1.2,0.3-1.2,1.2c0,3.1,0,6.2,0,9.2c-8.1,0-16.1,0-24.2,0c-1.2,0-1.4,0.4-1.2,1.4
					c0.3,2.3,0.5,4.7,0.7,7.1c0.1,1.7,0.1,1.7,1.9,1.7h22.8c0,3,0,5.9,0,8.8c0,1.1-0.3,1.4-1.4,1.4c-7,0-14,0-20.9,0
					C139.6,90,139.1,89.8,138.6,90.2L138.6,90.2z"/>
				<path d="M161.2,39.9c-1.8-1.3-3.5-2.7-5.3-4.1c-0.5-0.3-0.8-0.9-0.8-1.5c0.1-1.3,0.1-2.6,0-3.9c0-0.7,0.1-0.9,0.9-0.9
					c4.3,0,8.6,0,13,0c0.7,0,0.9,0.2,0.9,0.9c-0.1,1.3-0.1,2.6,0,3.9c0,0.8-0.2,1-1,1c-1.7,0-3.3,0-5.3,0c1.9,1.5,3.5,2.8,5.1,4
					c0.8,0.5,1.3,1.4,1.2,2.4c-0.2,1.1,0.5,2.7-0.2,3.4s-2.2,0.2-3.4,0.2c-3.4,0-6.7,0-10.1,0c-0.8,0-1.1-0.2-1.1-1c0.1-1,0.1-2,0-3
					c-0.1-1,0.3-1.2,1.2-1.1c1.6,0.1,3.2,0,4.8,0L161.2,39.9z"/>
				<path d="M178,39.8c-1.8-1.4-3.5-2.8-5.3-4.1c-0.5-0.3-0.8-0.9-0.7-1.5c0-1.3,0-2.6,0-3.9c0-0.7,0.1-0.9,0.9-0.9
					c4.3,0,8.6,0,13,0c0.6,0,0.9,0.1,0.9,0.8c-0.1,1.3-0.1,2.7,0,4c0,0.8-0.3,1-1,0.9c-1.6,0-3.3,0-5.3,0c2,1.6,3.7,3,5.5,4.3
					c0.5,0.3,0.8,0.9,0.8,1.5c-0.1,1.1,0,2.2,0,3.4c0,0.6-0.2,0.8-0.8,0.8c-4.4,0-8.7,0-13.1,0c-0.6,0-0.8-0.2-0.8-0.8
					c0-1.2,0-2.3,0-3.5c0-0.7,0.2-0.9,0.9-0.8c1.7,0,3.4,0,5.2,0L178,39.8z"/>
				<path d="M138.4,37.3c0-2.2,0-4.5,0-6.8c0-0.8,0.1-1.1,1-1c4.2,0.1,8.3,0,12.5,0c0.8,0,1.1,0.1,1.1,1c-0.1,1.2-0.1,2.4,0,3.6
					c0.1,0.8-0.2,1.1-1,1c-2.1-0.1-4.2,0-6.2,0c-0.8,0-1,0.2-1,1c0.1,1.3-0.4,2.9,0.2,3.7s2.4,0.2,3.7,0.3c1.1,0.1,2.2,0.1,3.4,0
					c0.8,0,1,0.2,0.9,1c-0.1,1.1-0.1,2.2,0,3.2c0,0.7-0.2,0.9-0.9,0.9c-4.2,0-8.4,0-12.6,0c-0.7,0-1-0.2-1-1
					C138.4,41.9,138.4,39.6,138.4,37.3z"/>
				<path class="st19" d="M162.4,69.5c0-3.1,0-6.2,0-9.2c0-0.9,0.3-1.2,1.2-1.2c10.5,0,21,0,31.4,0c0.8,0,1.1,0.3,1,1.1
					c-0.3,3.2-0.6,6.4-1,9.6c-0.2,2.1-0.4,4.3-0.6,6.4c-0.3,3.5-0.6,6.9-1,10.4c-0.3,3.2-0.5,6.3-0.8,9.5s-0.6,6.6-0.9,9.9
					c-0.2,2.2-0.4,4.4-0.6,6.6c-0.3,3.4-0.6,6.8-1,10.3c-0.2,2.3-0.4,4.6-0.5,6.9c0,0.6-0.1,1.1-0.8,1.3c-8.5,2.3-16.9,4.6-25.4,7
					c-1,0.3-1.2,0.1-1.2-0.9c0-3.1,0-6.2,0-9.4l0.5-0.2c6.7-1.8,13.3-3.7,20.1-5.5c0.6-0.2,0.7-0.5,0.7-1c0.2-2,0.3-3.9,0.5-5.8
					c0.7-7.2,1.3-14.5,1.9-21.7c0.4-4.5,0.8-9.1,1.2-13.7c0.3-3.3,0.5-6.7,0.8-10c-0.4-0.4-0.9-0.2-1.3-0.2L162.4,69.5z"/>
				<path class="st14" d="M162.9,127.4l-0.5,0.2c-6.7-1.9-13.5-3.8-20.2-5.7c-0.9-0.2-1.2-0.6-1.3-1.5c-0.4-4.8-0.9-9.7-1.3-14.5
					c-0.1-0.6,0.1-0.8,0.7-0.8c3,0,6,0,9,0c0.7,0,0.9,0.2,1,0.9c0.1,2.1,0.4,4.1,0.5,6.2c-0.1,0.8,0.5,1.4,1.2,1.5
					c3.4,0.8,6.7,1.7,10,2.6c0.2,0.2,0.5,0.2,0.8,0.2c0,3.2,0,6.3,0,9.5C162.6,126.6,162.5,127.1,162.9,127.4z"/>
				<path class="st14" d="M162.4,69.5h24.4c0.4,0,0.9-0.2,1.3,0.2c-8.1,0-16.1,0-24.2,0c-0.9,0-1.3,0.2-1.3,1.2c0.1,2.9,0,5.8,0,8.7
					l-0.2,0.1h-22.8c-1.8,0-1.8,0-1.9-1.7c-0.2-2.4-0.4-4.7-0.7-7.1c-0.1-1,0-1.4,1.2-1.4C146.2,69.5,154.3,69.5,162.4,69.5z"/>
				<path class="st14" d="M139.4,100.4l-0.8-10.2h24v10.2L139.4,100.4z"/>
				<path class="st19" d="M139.4,100.4h23.2c0.5,0,0.9,0,1.4,0c3.3,0,6.7,0,10.1,0c0.6,0,1.1-0.1,1,0.8c-0.4,3.7-0.8,7.4-1.1,11.2
					c0,0.7-0.5,1.4-1.3,1.5c-3.4,0.9-6.7,1.8-10.1,2.8c-0.3,0-0.6,0-0.8-0.2c0.6-0.1,0.5-0.6,0.5-1c0-4.6,0-9.2,0-13.8
					c0-1-0.6-1-1.3-1c-6.8,0-13.5,0-20.3,0C140.4,100.7,139.8,100.9,139.4,100.4z"/>
				<path class="st19" d="M162.6,90.2h-24c0.4-0.4,0.9-0.2,1.4-0.2c7,0,14,0,20.9,0c1.1,0,1.4-0.3,1.4-1.4c-0.1-3,0-5.9,0-8.8
					l0.2-0.1c4.4,0,8.7,0.1,13.1,0c1,0,1.5,0,1.2,1.3c-0.4,2.5-0.7,5-0.8,7.6c-0.1,1.4-0.6,1.7-1.9,1.6
					C170.4,90.1,166.5,90.2,162.6,90.2z"/>
				<path class="st15" d="M162.6,90.2c3.9,0,7.8-0.1,11.7,0c1.3,0,1.8-0.2,1.9-1.6c0.1-2.5,0.4-5.1,0.8-7.6c0.2-1.3-0.2-1.3-1.2-1.3
					c-4.4,0-8.7,0-13.1,0c0-2.9,0-5.8,0-8.7c0-1,0.3-1.2,1.3-1.2c8.1,0,16.1,0,24.2,0c-0.3,3.3-0.5,6.7-0.8,10
					c-0.4,4.6-0.8,9.1-1.2,13.7c-0.7,7.3-1.3,14.5-1.9,21.7c-0.2,2-0.4,3.9-0.5,5.8c0,0.5-0.1,0.8-0.7,1c-6.7,1.8-13.3,3.6-20.1,5.5
					c-0.4-0.4-0.3-0.8-0.3-1.3c0-3.2,0-6.3,0-9.5c3.4-0.9,6.7-1.9,10.1-2.8c0.7-0.1,1.3-0.7,1.3-1.5c0.3-3.7,0.7-7.4,1.1-11.2
					c0.1-0.9-0.4-0.8-1-0.8c-3.4,0-6.7,0-10.1,0c-0.5,0-0.9,0-1.4,0L162.6,90.2z"/>
			</g>
		</g>
	</g>
</g>
</svg>
