<svg xmlns="http://www.w3.org/2000/svg" viewBox="0 0 132.29 150"><defs><style>.cls-1{fill:#63a714;}.cls-2{fill:#89ce17;}.cls-3{fill:#eaeaea;}.cls-4{fill:#fefefe;}</style></defs><title>skills-bullet-javascript</title><g id="Layer_2" data-name="Layer 2"><g id="Intro"><path class="cls-1" d="M132.29,4c-1,2.92-.85,6-1.14,9-1.39,14.69-2.67,29.39-4,44.08q-1.71,19.14-3.38,38.29c-1.11,12.55-2.26,25.11-3.32,37.67-.14,1.66-.79,2.31-2.38,2.75q-25,6.83-50,13.84a7.55,7.55,0,0,1-4.29,0q-25.05-7-50.15-13.92c-1.2-.33-1.84-.74-2-2.21C9.56,108.63,7.29,83.72,5.07,58.8,3.39,39.9,1.77,21,0,2.09-.13.3.33,0,2,0q63.95.06,127.9,0c.8,0,1.61,0,2.41-.06ZM65.83,104c-6-1.2-11.77-3.1-17.68-4.5-.91-.22-.87-.87-.92-1.54-.28-3.27-.61-6.54-.83-9.81-.09-1.51-.49-2.23-2.24-2.17-4.29.14-8.58.08-12.88,0-1.23,0-1.77.18-1.64,1.64q1,11.63,1.87,23.25c.08,1.24.63,1.58,1.61,1.83q4.76,1.26,9.5,2.56l23.2,6.48c0,5.1,0,10.2,0,15.31,0,1.16.19,1.77,1.61,1.38Q88.1,132.64,108.79,127c.84-.23,1.26-.54,1.34-1.43.38-4.46.82-8.9,1.19-13.36.45-5.32.79-10.65,1.27-16,.6-6.71,1.35-13.4,2-20.11.48-5.46.77-10.93,1.27-16.38.73-8.17,1.64-16.32,2.34-24.5.65-7.44,1.14-14.9,2-22.32.17-1.37-.12-2.05-1.77-2q-25.38.08-50.76,0c-1.39,0-1.87.39-1.85,1.82.07,4.9,0,9.8,0,14.7-.8,0-1.61.09-2.41.09-12.42,0-24.83,0-37.25,0-1.53,0-2,.38-1.81,1.91.47,4.87.81,9.75,1.2,14.62.69.64,1.53.34,2.31.35,11.81,0,23.62.06,35.43,0,2,0,2.6.42,2.59,2.53C65.79,65.85,65.83,84.9,65.83,104Z"/><path class="cls-2" d="M65.82,27.37c0-4.9.05-9.8,0-14.7,0-1.43.46-1.83,1.85-1.82q25.38,0,50.76,0c1.65,0,1.94.67,1.77,2-.89,7.42-1.38,14.88-2,22.32-.7,8.18-1.61,16.33-2.34,24.5-.5,5.45-.79,10.92-1.27,16.38-.6,6.71-1.35,13.4-2,20.11-.48,5.32-.82,10.65-1.27,16-.37,4.46-.81,8.9-1.19,13.36-.08.89-.5,1.2-1.34,1.43q-20.7,5.69-41.36,11.46c-1.42.39-1.62-.22-1.61-1.38,0-5.11,0-10.21,0-15.31l.85-.41q16.18-4.43,32.37-8.82c.88-.24,1-.75,1-1.45q1.41-15.93,2.84-31.86c.87-9.55,1.78-19.1,2.63-28.65.64-7.28,1.22-14.56,1.83-21.84.66-1.87-.85-1.23-1.55-1.23Q85.82,27.37,65.82,27.37Z"/><path class="cls-2" d="M65.83,104c0-19.06,0-38.11,0-57.17,0-2.11-.61-2.54-2.59-2.53-11.81.1-23.62.06-35.43,0-.78,0-1.62.29-2.31-.35l40.28-.06c.73,0,1.47.08,2.2.08,6.64,0,13.28,0,19.91,0,1.14,0,1.62.11,1.48,1.53q-2.58,25.89-5,51.8a2.4,2.4,0,0,1-2.16,2.49c-5.25,1.35-10.47,2.82-15.7,4.24Z"/><path class="cls-3" d="M65.83,104l.77.06a2,2,0,0,0-.81,1.71c0,4.68,0,9.36,0,14,0,.67-.09,1.39.86,1.53l-.85.41-23.2-6.48q-4.74-1.3-9.5-2.56c-1-.25-1.53-.59-1.61-1.83Q30.7,99.21,29.64,87.6c-.13-1.46.41-1.65,1.64-1.64,4.3.06,8.59.12,12.88,0,1.75-.06,2.15.66,2.24,2.17.22,3.27.55,6.54.83,9.81.05.67,0,1.32.92,1.54C54.06,100.86,59.86,102.76,65.83,104Z"/><path class="cls-3" d="M65.83,43.89,25.55,44c-.39-4.87-.73-9.75-1.2-14.62-.15-1.53.28-1.91,1.81-1.91,12.42.07,24.83,0,37.25,0,.8,0,1.61-.06,2.41-.09q20,0,40,.09c.7,0,2.21-.64,1.55,1.23-.19-1.06-1-.88-1.73-.88-12.67,0-25.34,0-38,0-1.4,0-1.85.41-1.83,1.83C65.86,34.37,65.82,39.13,65.83,43.89Z"/><path class="cls-4" d="M65.83,43.89c0-4.76,0-9.52,0-14.28,0-1.42.43-1.83,1.83-1.83,12.68,0,25.35,0,38,0,.71,0,1.54-.18,1.73.88-.61,7.28-1.19,14.56-1.83,21.84-.85,9.55-1.76,19.1-2.63,28.65q-1.44,15.93-2.84,31.86c-.06.7-.14,1.21-1,1.45q-16.2,4.37-32.37,8.82c-1-.14-.86-.86-.86-1.53,0-4.69,0-9.37,0-14A2,2,0,0,1,66.6,104c5.23-1.42,10.45-2.89,15.7-4.24a2.4,2.4,0,0,0,2.16-2.49q2.36-25.91,5-51.8c.14-1.42-.34-1.53-1.48-1.53C81.31,44,74.67,44,68,44,67.3,44,66.56,43.92,65.83,43.89Z"/></g></g></svg>