<svg xmlns="http://www.w3.org/2000/svg" viewBox="0 0 170.83 150"><defs><style>.cls-1{fill:#9edcf2;}.cls-2{fill:#7dbce7;}.cls-3{fill:#010101;}.cls-4{fill:#f5ccb3;}.cls-5{fill:#fff;}.cls-6{fill:#af5c51;}.cls-7{fill:#c4e5d9;}</style></defs><title>skills-bullet-github</title><g id="Layer_2" data-name="Layer 2"><g id="Intro"><path class="cls-1" d="M134,133.26c0,9.27-21.48,16.74-47.95,16.74s-47.95-7.54-47.95-16.74,21.47-16.74,47.95-16.74S134,124,134,133.26Z"/><path class="cls-2" d="M73.25,137.5v11.89c-2.79-.27-5.49-.63-8-1.07V137.7s-.47-5.07-5.12-6.81c0,0-2.8-1.93.2-3,0,0,8.75-.72,11.86,4.93a5.81,5.81,0,0,0,.27.6l0,0A9.71,9.71,0,0,1,73.25,137.5Z"/><path class="cls-2" d="M111,130.89c-4.72,1.67-5.11,6.81-5.11,6.81v10.81c-2.57.42-5.26.74-8,1v-12a9.66,9.66,0,0,1,.8-4.06c-3.17,2.33-3.37,8.52-3.37,8.52v7.74q-4.12.27-8.46.29l.07-7.63c.4-10.46,9.25-11.73,9.25-11.73,3.66-.8,3.1,1.42,2.71,2.38,3-5.85,12-5.11,12-5.11C113.69,129,111,130.89,111,130.89Z"/><path class="cls-2" d="M75.82,149.61V142s-.2-6.12-3.35-8.49l0,0a5.81,5.81,0,0,1-.27-.6c-.38-1-.69-3,2.8-2.2,0,0,8.94,1.33,9.33,11.73l.08,7.63C81.44,150,78.59,149.83,75.82,149.61Z"/><path class="cls-1" d="M31.32,84l-1.4,4.8a1.72,1.72,0,0,0,1.27,2.06,1.56,1.56,0,0,0,1.47-2.13L31.32,84Z"/><path class="cls-3" d="M170.7,63.77l.13-.6A162,162,0,0,0,133.6,60.7,68.73,68.73,0,0,0,135.46,43a31.36,31.36,0,0,0-9.34-22.88c1-3.27,2.34-10.55-1.33-19.82,0,0-6.54-2.07-21.42,7.87a74.76,74.76,0,0,0-18.22-2.2A78.54,78.54,0,0,0,65,8.52C49.65-2,42.91.18,42.91.18,38.5,11.19,41.24,19.4,42,21.4A30.71,30.71,0,0,0,33.7,42.89c0,6.6.73,12.54,2.6,17.68-8.81-.33-22.69-.2-36.3,2.54l.13.6C13.75,61,27.76,60.9,36.5,61.24c.4,1.07.87,2.13,1.34,3.13-8.68.27-23.43,1.41-37.57,5.41l.2.6c14.28-4,29.16-5.07,37.77-5.34,5.2,9.61,15.35,15.88,33.5,17.82a14.79,14.79,0,0,0-6.28,9.68c-3.53,1.66-14.61,5.8-21.28-5.68,0,0-3.74-6.8-10.88-7.34,0,0-6.94-.13-.47,4.34,0,0,4.61,2.2,7.81,10.41,0,0,4.2,14,24.29,9.48v14.32s-.4,5.12-5.12,6.78c0,0-2.79,1.93.2,3,0,0,13,1.07,13-9.57v-15.7s-.54-6.35,2.57-8.51V120s-.2,6.2-3.4,8.54c0,0-2.13,3.8,2.53,2.8,0,0,8.93-1.27,9.33-11.74l.2-26.21h2.16l.2,26.21c.4,10.41,9.33,11.74,9.33,11.74,4.67,1.07,2.54-2.8,2.54-2.8C95.23,126.18,95,120,95,120V94.26c3.1,2.43,2.56,8.31,2.56,8.31v15.7c0,10.64,13,9.57,13,9.57,3-1.06.19-3,.19-3-4.65-1.73-5.11-6.78-5.11-6.78V97.41c0-8.08-3.41-12.35-6.74-14.55,19.35-1.94,28.62-8.14,32.89-17.88,8.48.2,23.76,1.26,38.31,5.4l.2-.6c-14.48-4.07-29.63-5.14-38.24-5.41.4-1,.74-2,1.07-3.06,8.94-.34,23.42-.34,37.57,2.46Z"/><path class="cls-4" d="M116.49,42.49c4.13,3.8,6.6,8.34,6.6,13.21,0,22.94-17.07,23.54-38.15,23.54S46.8,76,46.8,55.7c0-4.87,2.4-9.41,6.53-13.14,6.87-6.27,18.47-2.93,31.61-2.93s24.68-3.41,31.55,2.86Z"/><path class="cls-5" d="M72.27,56.9c0,6.33-3.53,11.4-7.93,11.4S56.4,63.17,56.4,56.9s3.53-11.41,7.94-11.41S72.27,50.56,72.27,56.9Z"/><path class="cls-6" d="M69.74,57c0,4.2-2.4,7.6-5.27,7.6S59.2,61.23,59.2,57s2.4-7.6,5.27-7.6S69.74,52.83,69.74,57Z"/><path class="cls-5" d="M114.89,56.9c0,6.33-3.54,11.4-7.94,11.4S99,63.17,99,56.9s3.53-11.41,7.93-11.41S114.89,50.56,114.89,56.9Z"/><path class="cls-6" d="M112.29,57c0,4.2-2.4,7.6-5.27,7.6s-5.27-3.4-5.27-7.6,2.4-7.6,5.27-7.6S112.29,52.83,112.29,57ZM87.08,67a2,2,0,0,1-4,0,2,2,0,0,1,2-2A2,2,0,0,1,87.08,67Zm-6.61,5a.64.64,0,0,1,1.21-.4,3.59,3.59,0,0,0,3.4,2.4,3.69,3.69,0,0,0,3.4-2.4.61.61,0,0,1,.8-.4.62.62,0,0,1,.4.8,4.88,4.88,0,0,1-9.21,0Z"/><path class="cls-7" d="M36.39,81.11c0,.53-.6.93-1.4.93s-1.4-.4-1.4-.93.6-.94,1.4-.94S36.39,80.57,36.39,81.11Zm3.87,2.13c0,.54-.6.94-1.4.94s-1.4-.4-1.4-.94.6-.93,1.4-.93S40.26,82.71,40.26,83.24ZM42.59,86c0,.54-.6.94-1.4.94s-1.4-.4-1.4-.94.6-.93,1.4-.93S42.59,85.51,42.59,86Zm2.14,3.2c0,.54-.6.94-1.4.94s-1.4-.4-1.4-.94.6-.93,1.4-.93S44.73,88.71,44.73,89.24Zm2.33,2.94c0,.53-.6.93-1.4.93s-1.4-.4-1.4-.93.6-.94,1.4-.94S47.06,91.64,47.06,92.18Zm3.2,2.6c0,.53-.6.93-1.4.93s-1.4-.4-1.4-.93.6-.93,1.4-.93S50.26,94.25,50.26,94.78Zm4.47,1.67c0,.53-.6.93-1.4.93s-1.4-.4-1.4-.93.6-.94,1.4-.94S54.73,95.91,54.73,96.45Zm4.47,0c0,.53-.6.93-1.4.93s-1.4-.4-1.4-.93.6-.94,1.4-.94S59.2,95.91,59.2,96.45Zm4.54-.74c0,.54-.61.94-1.41.94s-1.4-.4-1.4-.94.6-.93,1.4-.93S63.74,95.18,63.74,95.71Z"/></g></g></svg>