<?xml version="1.0" encoding="utf-8"?>
<!-- Generator: Adobe Illustrator 22.0.1, SVG Export Plug-In . SVG Version: 6.00 Build 0)  -->
<svg version="1.1" id="Layer_1" xmlns="http://www.w3.org/2000/svg" xmlns:xlink="http://www.w3.org/1999/xlink" x="0px" y="0px"
	 viewBox="0 0 1465.3 796.8" style="enable-background:new 0 0 1465.3 796.8;" xml:space="preserve">
<style type="text/css">
	.st0{fill:#FFFDF5;stroke:#6A685F;stroke-width:3;stroke-miterlimit:10;}
	.st1{fill:#CCCCCC;}
	.st2{fill:#A6120D;}
	.st3{fill:#B3B3B3;}
	.st4{fill:#DD1B16;}
	.st5{fill:#F2F2F2;}
	.st6{fill:#563D7C;}
	.st7{fill:#FFFFFF;}
	.st8{fill:#1A1918;}
	.st9{fill:#21609B;}
	.st10{fill:url(#SVGID_1_);}
	.st11{fill:url(#SVGID_2_);}
	.st12{fill:#63A714;}
	.st13{fill:#89CE17;}
	.st14{fill:#EAEAEA;}
	.st15{fill:#FEFEFE;}
	.st16{fill:#E34D26;}
	.st17{fill:#F06529;}
	.st18{fill:#0070B9;}
	.st19{fill:#29A7DF;}
</style>
<title>skills-languages-lg</title>
<g id="Layer_2_1_">
	<g id="Intro">
		<g id="languages-lg">
			<path id="speech-bubble" class="st0" d="M0,131.3v534.1C0,738,58.8,796.8,131.3,796.8c0,0,0,0,0,0h1042.5
				c72.5,0,131.3-58.8,131.3-131.4v-88.7c12.4,2.3,25.6,4.2,39.6,5.5c40.2,3.7,80.8,2.1,120.6-4.9
				c-62.5-25.5-117.6-66.3-160.1-118.7V131.3c0-72.5-58.8-131.3-131.3-131.3c0,0,0,0,0,0H131.4C58.8,0,0,58.8,0,131.3
				C0,131.3,0,131.3,0,131.3z"/>
			<g id="AngularJS">
				<path class="st1" d="M280.3,690.3v-87.5h11.4l53.7,70.6v-70.6h10.5v87.5h-11.1l-53.6-71.1v71.1H280.3z M443.1,687
					c-7.3,2.7-15,4.1-22.8,4c-31.7,0-47.6-15.2-47.6-45.6c0-28.8,15.3-43.2,45.9-43.2c8.8,0,24.8,3.7,24.8,3.7v9.8
					c0,0-15.6-4.3-23.6-4.3c-23.9,0-35.8,11.3-35.8,34c0,24.3,11.8,36.5,35.3,36.5c4.2-0.1,8.4-0.5,12.5-1.5v-29.9h11.2V687z
					 M461.1,656.7v-53.8h11.2v53.8c0,16.8,8.4,25.2,25.2,25.2c16.8,0,25.2-8.4,25.2-25.2v-53.8H534v53.8c0,23-12.1,34.5-36.4,34.5
					C473.3,691,461.1,679.6,461.1,656.7L461.1,656.7z M565.7,602.9v78.3h46v9.2h-57.2v-87.5H565.7z M627.8,690.4H616l43.6-99.2
					l43.6,99.2h-12.6l-11.3-27.6h-29l3.1-9.2h22.1l-16.4-39.7L627.8,690.4L627.8,690.4z M715.1,690.4v-87.5h37.3c16.7,0,25,7,25,21
					c0,11.4-8.1,19.8-24.4,25.3l30,41.2h-14.8L740.3,651v-7.4c16.8-2.7,25.1-9.1,25.1-19.3c0-8.1-4.7-12.2-14-12.2h-25.1v78.3
					L715.1,690.4z M825.4,602.9v62.4c0,16.8-9.9,25.2-29.6,25.2v-9.2c12.3,0,18.4-5.4,18.4-16v-62.4L825.4,602.9z M845.9,687.6
					v-10.5c9.6,3.3,19.6,5,29.7,4.9c15.1,0,22.6-5.6,22.6-16.7c0-9.5-5.6-14.2-16.7-14.2h-11.3c-18.3,0-27.5-8-27.5-24.1
					c0-16.9,11.7-25.3,35.2-25.3c9.6-0.1,19.2,1.2,28.5,3.7V616c-9.1-3.4-18.8-5.1-28.5-5c-15.9,0-23.9,5.4-23.9,16
					c0,9.5,5.4,14.2,16.2,14.2h11.3c18.7,0,28,8,28,24.1c0,17.3-11.3,25.9-33.9,25.9C865.6,691.3,855.6,690.1,845.9,687.6
					L845.9,687.6z"/>
				<path d="M283.4,687.5v-87.4h12.3l52.8,70.2v-70.2H359v87.2h-11.3l-53.8-70.9v71.3L283.4,687.5L283.4,687.5z M446.1,684.1
					c-7.4,2.7-15.2,4.1-23,4c-31.7,0-47.6-15.2-47.6-45.6c0-28.8,15.3-43.2,46-43.2c8.8,0,24.3,3.7,24.3,3.7v9.8
					c-7.4-2.8-15.2-4.3-23.1-4.3c-23.7,0-35.5,11.3-35.5,34c0,24.3,11.7,36.5,35,36.5c4.2-0.1,8.3-0.5,12.4-1.5v-29.7h11.6
					L446.1,684.1z M464.2,653.9v-53.8h11.2v53.8c0,16.8,8.4,25.2,25.2,25.2s25.2-8.4,25.2-25.2v-53.8H537v53.8
					c0,23-12.1,34.4-36.4,34.4C476.3,688.3,464.2,676.8,464.2,653.9z M568.4,600.1v78.3h46v9.2h-57.2v-87.5H568.4z M630.7,687.6
					h-11.8l43.6-99.2l43.6,99.2h-12.6L682.2,660h-29l3.1-9.2h22.1L662,611.1L630.7,687.6z M718.2,687.6v-87.5h37
					c16.5,0,24.8,7,24.8,21c0,11.4-8.1,19.8-24.2,25.3l29.8,41.2h-14.1l-28.1-39.4v-7.4c16.9-2.7,25.3-9.1,25.3-19.3
					c0-8.1-4.7-12.1-14.1-12.1h-25.2v78.3L718.2,687.6z"/>
				<path class="st2" d="M828.5,599.7v62.4c0,16.8-9.9,25.2-29.6,25.2v-9.2c12.3,0,18.4-5.4,18.4-16.1v-62.4H828.5z M848.6,684.8
					v-10.5c9.6,3.4,19.6,5,29.8,4.9c15.1,0,22.6-5.6,22.6-16.7c0-9.5-5.6-14.2-16.7-14.2H873c-18.3,0-27.5-8-27.5-24.1
					c0-16.9,11.7-25.3,35.2-25.3c9.6-0.1,19.2,1.2,28.5,3.7v10.5c-9.1-3.4-18.8-5-28.5-4.9c-15.9,0-23.9,5.3-23.9,16
					c0,9.5,5.4,14.2,16.2,14.2h11.3c18.7,0,28,8,28,24c0,17.3-11.3,25.9-33.9,25.9C868.3,688.6,858.3,687.3,848.6,684.8L848.6,684.8
					z"/>
				<path class="st3" d="M164.2,532.5l-102.3,36l16.2,134l86.2,47.4l86.7-48l16.2-134L164.2,532.5L164.2,532.5z"/>
				<path class="st2" d="M256.9,575.6l-93-31.7v194.7l77.9-43.1L256.9,575.6L256.9,575.6z"/>
				<path class="st4" d="M73.3,576.2L87.2,696l76.7,42.6V543.9L73.3,576.2z"/>
				<path class="st5" d="M189.5,647.4l-25.6,12H137l-12.7,31.7l-23.6,0.4L164,550.8L189.5,647.4z M187.1,641.4l-22.9-45.4
					l-18.8,44.7h18.6L187.1,641.4L187.1,641.4z"/>
				<path class="st3" d="M163.9,551v45l21.6,44.6h-21.3v19.1h29.4l13.9,32l22.6,0.4L163.9,551L163.9,551z"/>
			</g>
			<g id="Bootstrap">
				<path class="st6" d="M734.3,274c0,15.5,12.5,28,28,28h161.4c15.5,0,28-12.5,28-28V112.7c0-15.5-12.5-28-28-28H762.4
					c-15.5,0-28,12.5-28,28L734.3,274L734.3,274z"/>
				<path class="st7" d="M824.5,180.8v-30.8h27.1c2.5,0,5,0.2,7.5,0.6c2.2,0.4,4.4,1.2,6.4,2.3c1.9,1.1,3.4,2.7,4.4,4.6
					c1.2,2.3,1.8,4.9,1.7,7.6c0,5.5-1.7,9.5-5,12c-3.3,2.5-7.6,3.7-12.7,3.7L824.5,180.8z M795.5,127.5v131.7h63.9
					c5.8,0,11.6-0.7,17.2-2.2c5.3-1.4,10.4-3.7,14.9-6.8c4.4-3.1,7.9-7.2,10.4-11.9c2.7-5.4,4-11.3,3.9-17.3c0-8.2-2-15.3-6-21.1
					c-4-5.8-10.1-9.9-18.2-12.3c5.9-2.8,10.4-6.5,13.4-10.9c3-4.4,4.5-10,4.5-16.6c0-6.1-1-11.3-3-15.5c-1.9-4-4.9-7.5-8.6-10
					c-4-2.7-8.5-4.5-13.3-5.4c-5.6-1.2-11.4-1.7-17.2-1.7L795.5,127.5z M824.5,236.8v-36.2h31.6c6.3,0,11.3,1.4,15.1,4.3
					c3.8,2.9,5.7,7.7,5.8,14.5c0.1,2.9-0.5,5.9-1.8,8.5c-1.1,2.1-2.7,3.9-4.7,5.3c-2.1,1.3-4.4,2.3-6.8,2.8
					c-2.7,0.6-5.4,0.8-8.1,0.8L824.5,236.8z"/>
			</g>
			<g id="jQuery">
				<path class="st8" d="M1220.2,375l30.1,0.2c0,0-56.1,76-60.6,82.2c-1.5,2-3.8,4.2-4.9,6.9c-2.9,6.7-5.9,21.5-5.9,21.5l-27.5,0.1
					c0,0,4.3-15.4,4.1-23.6c-0.2-7.2-3.8-14.4-5.9-21.5s-4.9-21.5-4.9-21.5h28.4l3.9,15.6L1220.2,375"/>
				<path class="st8" d="M1163,390.9c5.6,3.4,9,21.8,9,21.8l-44.9,0.3h-13.7l-16.6,72.4h-25.4c0,0,15.8-78.5,19.5-92.8
					c1.2-4.6,8.3-3.8,20.2-3.8h19.1C1142.6,388.9,1157,387.3,1163,390.9 M1044.7,426.3c0,0,0.8-4.6-2.7-10c-3-4.6-5.7-5.6-13.5-5.9
					c-22.1-0.7-21.7,15.7-21.7,15.7L1044.7,426.3z M1068.8,407.5c3.2,11.7-2.9,39.1-2.9,39.1s-32.2-0.5-49.8,0
					c-5.5,0.2-12-0.6-13.7,2c-2.3,3.6,0.8,9.1,3.5,11.4c3.1,2.7,9,3,11.2,3.3c14.3,1.8,44.3,0.5,44.3,0.5l-5.2,23
					c0,0-42.3,2.1-63.5-2.9c-4.1-0.9-7.8-2.9-10.8-5.9c-0.7-0.8-1.3-1.9-2-2.8c-1.1-1.6-2.1-3.3-2.8-5.1
					c-4.8-12.9,0.6-37.6,5.9-50.8c0.6-1.5,1.4-3.5,2.2-5.1c1-2.1,1.9-4.4,2.7-5.6c0.5-0.9,1.2-1.4,1.8-2.2c0.7-1,1.4-1.9,2.1-2.7
					c2.1-2.2,4.4-4.2,6.8-5.9c8.8-6.6,24.8-11.7,44-9.8c7.2,0.7,18.1,3.3,23.4,10.8C1067.4,400.7,1068.1,404.6,1068.8,407.5
					L1068.8,407.5z M952.1,388.9l24.7-0.1c0,0-13.8,65.2-20.8,97h-28.3c-19.8,0-37.5,2.5-45-11.8c-7.3-13.8-0.3-36.5,2.9-51.9
					c2.3-10.9,7.2-33.2,7.2-33.2l25.5-0.2c0,0-7.2,34.6-10.2,51.9c-1.1,6.2-3.3,12-1,16.6c2.2,4.4,5.3,4.7,14.7,4.9
					c3,0.1,12.7,0,12.7,0l17.6-73.3 M836.8,435.7c2.6-9.2,6.3-19.1,5.9-27.4c-0.5-8.8-7.9-16.9-12.7-18.6c-14.4-5.1-27.9,2-33.2,7.8
					c-6.9,7.5-9.3,16.3-11.7,28.3c-1.8,9-3.3,18.4,0,25.4c5.9,12.4,24.2,9.7,44,9.8C832,453.3,834.4,444.4,836.8,435.7L836.8,435.7z
					 M871,399.6c2.8,20.5-8,43-15.4,62.7c7.6,0.7,14.2-0.1,14.7,0.5c0.5,0.7-5.1,23.4-7,23.5c-6,0.2-26,0.3-34.3,0.3
					c-27.1,0-52.5,1.8-65.5-11.7c-5.3-5.5-8.9-14.9-9.8-21.5c-1.5-11,0.4-23.2,2.9-33.2c2.3-9,5.3-17.6,9.8-25.4
					c11.4-19.9,31.2-34.7,64.5-31.3c7.5,0.9,14.8,3.3,21.5,6.8c0.4,0.2,1.8,1.4,2.1,1.5C862.4,376.8,869.5,388.6,871,399.6
					L871,399.6z M750.9,389c-1.6,7.4-3.3,15.9-5,23.2h-27.2c2.1-8.1,3.7-16.3,5.8-23.4C733.2,388.9,750.9,389,750.9,389
					 M717.7,419.1H744c-3.5,19.1-10.3,49.9-15.6,71.3c-3.4,13.4-5.6,23.2-14.7,30.3c-0.8,0.6-1.3,0.3-2,1c-1.7,1.6-9.4,3.4-13.7,3.9
					c-7,0.8-14.8,0.1-23.4-0.1c2.2-8.2,4.8-18,6.8-25.3c20.8,2.5,21.4-17.2,25.4-36.2c2.3-11,9.4-40.5,10.8-45"/>
				<path class="st9" d="M656,468.9l-0.6,1.5c-9.6,18.8-26.7,30.3-51.1,30.8c-10.1,0.1-20.1-1.9-29.3-5.9
					c-15-6.9-27.4-18.6-35.2-33.2c-10-19.5-11.9-46.7,9.1-66.9c0.3,0-2.5,4.4-2.2,4.4l-0.6,1.9c-15.1,47.3,31.4,87.8,76.6,83.1
					C633.7,483.5,647.6,477.5,656,468.9"/>
				<path class="st9" d="M628.7,449.4c11.4,0.1,23.2-5.2,30.3-12.7c-6.2,15.6-24,25.7-47.9,22.5c-20-2.7-39.1-22.8-41-43
					c-1.4-14.7,3.7-23.5,12.1-34.1c-2.9,5.6-4,9.9-4.3,12.6C574.7,426.4,603.2,449.2,628.7,449.4"/>
				<path class="st9" d="M657.8,409.9c-1.8,4.1-12,11.7-16.5,12.7c-17.8,3.8-29.2-4.6-35.2-14.3c-1.1-2-2.1-4.2-2.8-6.4
					c-2.3-7.9-1.3-19.8,5.7-26c-2.1,5.9-2.4,12.7-1.3,17.1c1.1,3.6,2.6,7.1,4.7,10.3c3.7,5.4,6,6.6,10.7,9.5c1.7,1,3.5,1.9,5.4,2.6
					C633.1,416.8,642.6,420.3,657.8,409.9"/>
			</g>
			<g id="Python">
				
					<linearGradient id="SVGID_1_" gradientUnits="userSpaceOnUse" x1="-2751.2468" y1="2199.55" x2="-2751.187" y2="2199.6099" gradientTransform="matrix(1849.27 0 0 1853.39 5088829 -4076529.75)">
					<stop  offset="0" style="stop-color:#387EB8"/>
					<stop  offset="1" style="stop-color:#366994"/>
				</linearGradient>
				<path class="st10" d="M1128.2,84.6c-55.5,0-52,24.1-52,24.1l0.1,25h53v7.4h-74c0,0-35.5-4-35.5,52s31,54,31,54h18.6v-26
					c0,0-1-31,30.5-31h52.4c0,0,29.5,0.5,29.5-28.5v-48C1181.8,113.7,1186.2,84.6,1128.2,84.6z M1108.5,110.9L1108.5,110.9
					c0,5.2-4.3,9.5-9.5,9.5l0,0c-5.3,0-9.5-4.3-9.5-9.5c0,0,0,0,0,0l0,0c0-5.2,4.3-9.5,9.5-9.5l0,0
					C1104.3,101.4,1108.5,105.7,1108.5,110.9C1108.6,110.9,1108.6,110.9,1108.5,110.9L1108.5,110.9z"/>
				
					<linearGradient id="SVGID_2_" gradientUnits="userSpaceOnUse" x1="-2751.5569" y1="2199.25" x2="-2751.4968" y2="2199.3098" gradientTransform="matrix(1849.27 0 0 1853.39 5089472.5 -4075902.75)">
					<stop  offset="0" style="stop-color:#FFE052"/>
					<stop  offset="1" style="stop-color:#FFC331"/>
				</linearGradient>
				<path class="st11" d="M1129.8,302.1c55.5,0,52-24.1,52-24.1l-0.1-24.9h-53v-7.5h74c0,0,35.5,4,35.5-51.9s-31-54-31-54h-18.5
					v26.1c0,0,1,31-30.5,31h-52.4c0,0-29.5-0.5-29.5,28.5v47.9C1076.3,273.1,1071.8,302.1,1129.8,302.1L1129.8,302.1z M1159,285.3
					c-5.3,0-9.5-4.2-9.6-9.5c0,0,0,0,0,0l0,0c0-5.3,4.3-9.5,9.5-9.5l0,0l0,0c5.3,0,9.5,4.3,9.5,9.5c0,0,0,0,0,0l0,0
					C1168.5,281,1164.2,285.2,1159,285.3L1159,285.3z"/>
			</g>
			<g id="JavaScript">
				<path class="st12" d="M666.4,110.8c-1.3,3.8-1.1,7.9-1.5,11.8c-1.8,19.2-3.5,38.5-5.2,57.8c-1.5,16.7-2.9,33.4-4.4,50.2
					c-1.5,16.4-3,32.9-4.4,49.4c-0.2,2.2-1,3-3.1,3.6c-21.8,6-43.7,12-65.5,18.1c-1.8,0.5-3.8,0.5-5.6,0
					c-21.9-6.1-43.8-12.2-65.7-18.2c-1.6-0.4-2.4-1-2.6-2.9c-2.9-32.6-5.8-65.3-8.7-97.9c-2.2-24.8-4.3-49.6-6.6-74.3
					c-0.2-2.3,0.4-2.7,2.6-2.7c55.9,0.1,111.7,0.1,167.6,0c1.1,0,2.1-0.1,3.2-0.1V110.8z M579.3,241.8c-7.8-1.6-15.4-4.1-23.2-5.9
					c-1.2-0.3-1.1-1.1-1.2-2c-0.3-4.3-0.8-8.6-1.1-12.9c-0.1-2-0.7-2.9-2.9-2.8c-5.6,0.2-11.2,0.1-16.9,0c-1.6,0-2.3,0.2-2.2,2.1
					c0.9,10.1,1.7,20.3,2.5,30.5c0.1,1.6,0.8,2.1,2.1,2.4c4.2,1.1,8.3,2.2,12.5,3.4c10.1,2.8,20.3,5.6,30.4,8.5c0,6.7,0,13.4,0,20.1
					c0,1.5,0.3,2.3,2.1,1.8c18.1-5,36.1-10,54.2-15c1.1-0.3,1.7-0.7,1.8-1.9c0.5-5.8,1.1-11.7,1.6-17.5c0.6-7,1-14,1.7-20.9
					c0.8-8.8,1.8-17.6,2.5-26.4c0.6-7.1,1-14.3,1.7-21.5c1-10.7,2.2-21.4,3.1-32.1c0.8-9.8,1.5-19.5,2.7-29.2
					c0.2-1.8-0.2-2.7-2.3-2.7c-22.2,0.1-44.4,0.1-66.5,0c-1.8,0-2.5,0.5-2.4,2.4c0.1,6.4,0,12.8,0,19.3c-1,0-2.1,0.1-3.2,0.1
					c-16.3,0-32.5,0-48.8,0c-2,0-2.6,0.5-2.4,2.5c0.6,6.4,1.1,12.8,1.6,19.2c0.9,0.8,2,0.4,3,0.4c15.5,0,31,0.1,46.4,0
					c2.6,0,3.4,0.5,3.4,3.3C579.3,191.8,579.3,216.8,579.3,241.8z"/>
				<path d="M599.3,69.6c4.2,3.3,7.8,6.2,11.5,9c1.3,0.8,2.1,2.4,1.9,3.9c-0.1,2.2-0.1,4.4,0,6.6c0.1,1.3-0.4,1.6-1.7,1.6
					c-9.2-0.1-18.5-0.1-27.7,0c-1.2,0-1.8-0.2-1.8-1.6c0.1-2.6,0.1-5.1,0-7.7c0-1.4,0.6-1.6,1.8-1.6c3.6,0,7.2,0,10.8,0
					c0.3-1.1-0.7-1.2-1.1-1.6c-1.3-1.1-2.8-2.2-4.2-3.2c-7.8-6.1-7.8-6.1-7.3-16c0.1-1.3,0.5-1.6,1.7-1.6c9.3,0,18.7,0,28,0
					c1.2,0,1.5,0.4,1.5,1.5c-0.1,3-0.1,6,0,9c0,1.3-0.4,1.7-1.6,1.6C607.3,69.5,603.7,69.6,599.3,69.6z"/>
				<path d="M576.6,74.1c0,4.8-0.1,9.7,0,14.5c0,1.6-0.4,2.1-2.1,2.1c-8.9-0.1-17.8-0.1-26.6,0c-1.4,0-2.1-0.2-2-1.8
					c0.1-2.7,0.1-5.4,0-8.2c-0.1-1.6,0.6-1.9,2-1.8c4.4,0.1,8.8-0.1,13.2,0.1c1.9,0.1,2.3-0.6,2.3-2.4c-0.1-5.7,0-11.4-0.1-17.2
					c0-1.4,0.3-2,1.8-1.9c3.2,0.1,6.3,0.1,9.5,0c1.5,0,2,0.4,1.9,1.9C576.5,64.3,576.6,69.2,576.6,74.1z"/>
				<path class="st13" d="M579.3,141.4c0-6.4,0.1-12.9,0-19.3c0-1.9,0.6-2.4,2.4-2.4c22.2,0,44.3,0,66.5,0c2.2,0,2.5,0.9,2.3,2.7
					c-1.2,9.7-1.8,19.5-2.7,29.2c-0.9,10.7-2.1,21.4-3.1,32.1c-0.7,7.1-1,14.3-1.7,21.5c-0.8,8.8-1.8,17.6-2.5,26.4
					c-0.6,7-1.1,14-1.7,20.9c-0.5,5.8-1.1,11.7-1.6,17.5c-0.1,1.2-0.7,1.6-1.8,1.9c-18.1,5-36.1,10-54.2,15
					c-1.9,0.5-2.1-0.3-2.1-1.8c0-6.7,0-13.4,0-20.1l1.1-0.5c14.1-3.9,28.3-7.7,42.4-11.6c1.2-0.3,1.2-1,1.3-1.9
					c1.2-13.9,2.5-27.8,3.7-41.8c1.1-12.5,2.3-25,3.4-37.5c0.8-9.5,1.6-19.1,2.4-28.6c0.9-2.4-1.1-1.6-2-1.6
					C614.2,141.4,596.8,141.4,579.3,141.4z"/>
				<path class="st13" d="M579.3,241.8c0-25,0-49.9,0.1-74.9c0-2.8-0.8-3.3-3.4-3.3c-15.5,0.1-31,0.1-46.4,0c-1,0-2.1,0.4-3-0.4
					l52.8-0.1c1,0,1.9,0.1,2.9,0.1c8.7,0,17.4,0,26.1,0c1.5,0,2.1,0.1,1.9,2c-2.3,22.6-4.4,45.2-6.5,67.9c-0.2,2.1-1,2.8-2.8,3.3
					c-6.9,1.8-13.7,3.7-20.6,5.6L579.3,241.8z"/>
				<path class="st14" d="M579.3,241.8l1,0.1c-0.7,0.5-1.1,1.4-1.1,2.2c0,6.1,0,12.3,0,18.4c0,0.9-0.1,1.8,1.1,2l-1.1,0.5
					c-10.1-2.8-20.3-5.7-30.4-8.5c-4.1-1.1-8.3-2.3-12.5-3.4c-1.3-0.3-2-0.8-2.1-2.4c-0.7-10.2-1.5-20.3-2.5-30.5
					c-0.2-1.9,0.5-2.2,2.2-2.1c5.6,0.1,11.3,0.2,16.9,0c2.3-0.1,2.8,0.9,2.9,2.8c0.3,4.3,0.7,8.6,1.1,12.9c0.1,0.9,0,1.7,1.2,2
					C563.9,237.7,571.5,240.2,579.3,241.8z"/>
				<path class="st14" d="M579.3,163.1l-52.8,0.1c-0.5-6.4-1-12.8-1.6-19.2c-0.2-2,0.4-2.5,2.4-2.5c16.3,0.1,32.5,0.1,48.8,0
					c1,0,2.1-0.1,3.2-0.1c17.5,0,34.9,0,52.4,0.1c0.9,0,2.9-0.8,2,1.6c-0.2-1.4-1.3-1.1-2.3-1.1c-16.6,0-33.2,0-49.8,0
					c-1.8,0-2.4,0.6-2.4,2.4C579.3,150.6,579.3,156.8,579.3,163.1z"/>
				<path class="st15" d="M579.3,163.1c0-6.2,0-12.5-0.1-18.7c0-1.9,0.6-2.4,2.4-2.4c16.6,0.1,33.2,0,49.8,0c0.9,0,2-0.2,2.3,1.1
					c-0.8,9.5-1.6,19.1-2.4,28.6c-1.1,12.5-2.3,25-3.4,37.5c-1.3,13.9-2.5,27.8-3.7,41.8c-0.1,0.9-0.2,1.6-1.3,1.9
					c-14.2,3.8-28.3,7.7-42.4,11.5c-1.2-0.2-1.1-1.1-1.1-2c0-6.1,0-12.3,0-18.4c-0.1-0.9,0.3-1.7,1.1-2.2c6.9-1.9,13.7-3.8,20.6-5.6
					c1.8-0.5,2.6-1.2,2.8-3.3c2.1-22.6,4.2-45.3,6.5-67.9c0.2-1.9-0.4-2-1.9-2c-8.7,0-17.4,0-26.1,0
					C581.2,163.2,580.3,163.1,579.3,163.1z"/>
			</g>
			<g id="HTML">
				<path class="st16" d="M49,105.7c1.1,0,2.3,0.1,3.4,0.1c55.7,0,111.4,0,167.1-0.1c2.7,0,3.1,0.8,2.9,3.3
					c-2.4,25.5-4.6,51-6.9,76.6c-2.7,30.4-5.5,60.8-8.2,91.2c-0.5,5.9-0.6,5.9-6.2,7.5c-20.9,5.8-41.9,11.6-62.8,17.5
					c-1.6,0.5-3.3,0.5-4.9,0c-22-6.1-43.9-12.2-65.9-18.3c-1.9-0.5-2.6-1.2-2.8-3.3c-1.6-18.9-3.3-37.8-5-56.6
					c-1.5-16.7-3-33.4-4.4-50.1s-3-33.4-4.5-50.1c-0.4-4.6-0.8-9.1-1.2-13.6c-0.1-0.6,0.3-1.4-0.6-1.8L49,105.7z M135.4,241.8
					c-7.4-2-14.9-3.9-22.3-5.8c-1.3-0.3-1.3-1.2-1.3-2.2c-0.4-4.5-0.9-9.1-1.2-13.6c-0.1-1.6-0.7-2-2.3-2c-5.8,0.1-11.6,0.1-17.4,0
					c-1.8,0-2.4,0.5-2.2,2.4c1,10.1,1.8,20.3,2.7,30.4c-0.1,1,0.7,1.9,1.7,2c14.2,3.9,28.5,7.9,42.7,11.9c0.2,0,0.3,0.1,0.5,0.1
					v19.2c0,3.1,0,3.1,3.1,2.3s6.1-1.7,9.1-2.6c14.6-4,29.1-8.1,43.7-12.1c1-0.3,1.5-0.7,1.6-1.7c0.2-2.2,0.3-4.4,0.5-6.5
					c0.5-4.8,0.9-9.6,1.2-14.4c0.5-7,1.3-14.1,2-21.1c0.4-4.6,0.7-9.2,1.2-13.8c0.6-6.9,1.4-13.7,2-20.6s1.1-13.6,1.7-20.4
					c0.6-7.4,1.4-14.8,2-22.1c0.4-4.5,0.8-9,1.2-13.6c0.5-5.1,0.9-10.2,1.4-15.4c0.2-1.8-0.5-2.4-2.4-2.4c-22,0.1-43.9,0.1-65.9,0
					c-2.1,0-2.5,0.7-2.5,2.6c0.1,5.4-0.1,10.9,0.1,16.3c0.1,2.3-0.7,2.8-2.9,2.8c-16.2-0.1-32.3,0-48.5,0c-1,0-2.1-0.4-3,0.5
					c0,1.2,0,2.5,0.1,3.7c1.2,13.9,2.5,27.8,3.7,41.6c0.6,6.7,1.3,13.4,2,20.1c0.9,0.9,2,0.5,3,0.5c14.2,0,28.4,0.1,42.7,0
					c2.1,0,2.9,0.4,2.9,2.7c-0.1,9.5,0,19-0.1,28.4C136,240.1,136.4,241.1,135.4,241.8z"/>
				<path d="M163.2,75.7l-7.1,10.8L149,75.6l-0.6,0.1c0,4.2-0.1,8.5,0,12.7c0.1,1.9-0.4,2.7-2.5,2.5c-2.1-0.2-4.2-0.2-6.3,0
					c-1.5,0.1-2.1-0.2-2.1-2c0.1-9.8,0.1-19.7,0-29.5c0-1.4,0.4-1.9,1.8-1.7c0.1,0,0.2,0,0.3,0c3.2,0,6.8-0.9,9.3,0.4
					s3.4,4.9,5.1,7.5c0.7,1.1,1.4,2.2,2.2,3.6c2.1-3.4,4.1-6.6,5.9-9.8c0.6-1.2,1.8-1.9,3.1-1.7c2.6,0.1,5.3,0.1,7.9,0
					c1.3,0,1.6,0.3,1.6,1.6c-0.1,9.9-0.1,19.8,0,29.8c0,1.4-0.4,1.8-1.8,1.8c-3-0.1-6.8,1-8.7-0.4s-0.4-5.4-0.6-8.3
					c-0.1-2.1,0-4.3,0-6.4L163.2,75.7z"/>
				<path d="M65.4,74.2c0-4.8,0.1-9.7-0.1-14.5c0-1.7,0.5-2.1,2.1-2c2.4,0.1,4.7,0.1,7.1,0c1.6-0.1,2.2,0.2,2.1,2
					c-0.2,2.4,0,4.7-0.1,7.1c-0.1,1.4,0.3,2,1.9,2c2.2-0.1,4.4-0.1,6.6,0c1.2,0,1.5-0.3,1.5-1.5c-0.1-2.6,0-5.3-0.1-7.9
					c0-1.2,0.3-1.7,1.6-1.6c2.7,0.1,5.4,0.1,8.2,0c1.2,0,1.5,0.4,1.5,1.5c0,10,0,20,0,30c0,1.3-0.4,1.8-1.7,1.6c-0.1,0-0.2,0-0.3,0
					c-3,0-6.8,1-8.7-0.4s-0.5-5.6-0.5-8.5c0-1.6-0.3-2.2-2-2c-2.6,0.3-6.1-1.1-7.6,0.5c-1.3,1.4-0.6,4.8-0.4,7.3s-0.4,3.5-3.1,3.2
					c-1.7-0.2-3.5-0.2-5.3,0c-2.6,0.3-3-0.8-2.9-3C65.5,83.3,65.4,78.8,65.4,74.2z"/>
				<path d="M117.6,57.8c4.5,0,8.9,0.1,13.4,0c1.5,0,1.9,0.4,1.9,1.9c-0.1,2.5-0.1,5.1,0,7.6c0.1,1.3-0.3,1.7-1.6,1.6
					c-2.1-0.1-4.2,0.1-6.3-0.1c-1.5-0.1-1.9,0.4-1.9,1.9c0.1,6,0,11.9,0.1,17.9c0,1.8-0.4,2.5-2.3,2.3c-2.8-0.3-6.6,1.2-8.3-0.6
					s-0.4-5.3-0.4-8.1c-0.1-3.6-0.2-7.2,0-10.8c0.2-2.3-0.7-2.8-2.8-2.6c-1.7,0.2-3.5,0-5.3,0c-1.2,0.1-1.9-0.1-1.8-1.7
					c0.1-2.6,0.1-5.3,0-7.9c0-1.3,0.5-1.6,1.7-1.5C108.5,57.8,113.1,57.8,117.6,57.8z"/>
				<path d="M180.2,74.4c0-4.9,0.1-9.8,0-14.8c0-1.5,0.4-2,1.9-1.9c2.4,0.1,4.9,0.1,7.4,0c1.5-0.1,1.9,0.5,1.9,1.9
					c-0.1,6,0.1,11.9-0.1,17.9c-0.1,2.1,0.6,2.5,2.5,2.4c3.8-0.2,7.6,0,11.3-0.1c1.4,0,1.8,0.4,1.8,1.8c-0.1,3,1,6.9-0.5,8.7
					s-5.6,0.5-8.5,0.6c-5.2,0.1-10.4,0-15.5,0.1c-1.7,0-2.1-0.5-2-2.1C180.3,84,180.2,79.2,180.2,74.4z"/>
				<path class="st17" d="M81.7,142.1c0.9-0.9,2-0.5,3-0.5c16.2,0,32.3,0,48.5,0c2.1,0,2.9-0.5,2.9-2.8c-0.1-5.4,0-10.9-0.1-16.3
					c0-1.9,0.4-2.6,2.5-2.6c22,0.1,43.9,0.1,65.9,0c1.9,0,2.5,0.6,2.4,2.4c-0.5,5.1-1,10.2-1.4,15.4c-0.4,4.5-0.8,9-1.2,13.6
					c-0.7,7.4-1.4,14.8-2,22.1c-0.6,6.8-1.1,13.6-1.7,20.4s-1.4,13.7-2,20.6c-0.4,4.6-0.7,9.2-1.2,13.8c-0.6,7-1.5,14-2,21.1
					c-0.3,4.8-0.7,9.6-1.2,14.4c-0.2,2.2-0.4,4.3-0.5,6.5c-0.1,1-0.6,1.5-1.6,1.7c-14.6,4-29.2,8-43.7,12.1c-3,0.8-6.1,1.8-9.1,2.6
					s-3,0.8-3.1-2.3V265c0.4-0.2,0.8-0.3,1.2-0.5c13.5-3.7,27-7.5,40.6-11.1c2.1-0.6,2.8-1.6,2.9-3.6c0.2-3.5,0.5-7,0.8-10.5
					c1.5-16.9,3-33.7,4.6-50.6c0.2-2.3-0.4-2.9-2.7-2.9c-15.8,0.1-31.6,0-47.4,0v-22c16.7,0,33.3-0.1,50,0c1.8,0,2.4-0.5,2.6-2.2
					c0.4-5.7,0.9-11.4,1.5-17c0.2-2-0.2-2.5-2.2-2.5c-12.8,0.1-25.6,0-38.4,0c-4.6,0-9.3,0.1-13.9,0.1L81.7,142.1z"/>
				<path class="st14" d="M81.7,142.1l53.8,0.1c0,7.2,0,14.3,0,21.5c-9.2,0-18.4,0.1-27.7,0.1c-1.9,0-2.6,0.4-2.4,2.4
					c0.7,5.8,1.1,11.5,1.6,17.3c0.1,1.8,0.6,2.5,2.6,2.5c8.6-0.1,17.2,0,25.8,0c0,7.2,0,14.3,0,21.5l-48,0.1
					c-0.7-6.7-1.4-13.4-2-20.1c-1.3-13.9-2.5-27.8-3.7-41.6C81.7,144.5,81.8,143.3,81.7,142.1z"/>
				<path class="st15" d="M135.5,207.4c0-7.2,0-14.3,0-21.5l0.5-0.2c15.8,0,31.6,0.1,47.4,0c2.4,0,2.9,0.6,2.7,2.9
					c-1.6,16.9-3.1,33.7-4.6,50.6c-0.3,3.5-0.6,7-0.8,10.5c-0.1,2-0.8,3-2.9,3.6c-13.5,3.6-27,7.4-40.6,11.2
					c-0.4,0.2-0.9,0.3-1.3,0.5c-0.2-0.1-0.3-0.1-0.5-0.1v-22.6c7.5-2.1,15-4.1,22.5-6.1c1.4-0.4,2.1-0.9,2.2-2.4
					c0.6-7.9,1.3-15.7,2.1-23.5c0.2-2.3-0.5-2.7-2.7-2.7C151.7,207.6,143.6,207.5,135.5,207.4z"/>
				<path class="st14" d="M135.5,242.3v22.5c-14.2-4-28.4-8-42.7-11.9c-1-0.1-1.7-1-1.7-2c-0.9-10.1-1.7-20.3-2.7-30.4
					c-0.2-1.9,0.4-2.4,2.2-2.4c5.8,0.1,11.6,0.1,17.4,0c1.6,0,2.2,0.4,2.3,2c0.3,4.6,0.8,9.1,1.2,13.6c0.1,1,0,1.8,1.3,2.2
					c7.5,1.9,14.9,3.9,22.3,5.8C135.4,242,135.5,242.1,135.5,242.3z"/>
				<path class="st17" d="M135.5,242.3c0-0.1-0.1-0.3-0.1-0.4c1-0.7,0.6-1.8,0.6-2.7c0-9.5-0.1-19,0.1-28.4c0-2.3-0.8-2.8-2.9-2.7
					c-14.2,0.1-28.4,0.1-42.7,0c-1,0-2.1,0.4-3-0.5l48-0.1c8.1,0,16.1,0.2,24.2,0.1c2.1,0,2.9,0.4,2.7,2.7
					c-0.8,7.8-1.5,15.7-2.1,23.5c-0.1,1.5-0.8,2-2.2,2.4C150.5,238.1,143,240.2,135.5,242.3z"/>
				<path class="st15" d="M135.5,163.6c0-7.2,0-14.3,0-21.5c4.6,0,9.3-0.1,13.9-0.1c12.8,0,25.6,0,38.4,0c2,0,2.5,0.5,2.2,2.5
					c-0.7,5.7-1.1,11.3-1.5,17c-0.1,1.8-0.8,2.2-2.6,2.2c-16.7-0.1-33.3,0-50,0L135.5,163.6z"/>
				<path class="st16" d="M135.5,163.6l0.5,0.2v22l-0.5,0.2c-8.6,0-17.2-0.1-25.8,0c-2,0-2.5-0.7-2.6-2.5
					c-0.4-5.8-0.9-11.6-1.6-17.3c-0.2-2.1,0.4-2.5,2.4-2.4C117.1,163.8,126.3,163.7,135.5,163.6z"/>
			</g>
			<g id="CSS">
				<path class="st18" d="M357.9,105.6c28,0,55.9,0,83.9,0c2.3,0,2.7,0.6,2.5,2.8c-1.8,19-3.4,38-5.1,56.9s-3.4,37.8-5.1,56.7
					c-1.5,16.7-3,33.4-4.4,50.1c-0.2,2.9-0.6,5.8-0.8,8.7c-0.1,1.6-0.8,2-2.1,2.4c-22.5,6.2-45,12.4-67.5,18.7c-1,0.3-2.1,0.3-3.1,0
					c-22.5-6.2-45-12.5-67.5-18.7c-1.2-0.2-2.1-1.2-2.1-2.5c-2.6-29.9-5.2-59.9-7.9-89.8c-2.5-27.7-5-55.3-7.5-83
					c-0.2-2.1,0.3-2.5,2.3-2.5C301.6,105.6,329.8,105.6,357.9,105.6z M307.3,185.7c0.5,7.2,1.1,14.3,1.7,21.5
					c0.8,1.1,1.9,0.6,2.9,0.6c14.3,0,28.6,0,42.9,0c1.5,0,2.7-0.1,2.7,2.1c-0.1,9.7,0,19.5,0,29.2c0,0.9,0.1,1.8-1.1,2
					c-7-1.9-14-3.8-21.1-5.5c-2-0.5-2.4-1.5-2.6-3.2c-0.3-4.4-0.8-8.8-1.1-13.1c-0.1-1.4-0.5-1.9-2-1.9c-6.3,0.1-12.6,0.1-19,0
					c-1.2,0-1.6,0.3-1.5,1.6c1,10.2,2,20.4,2.8,30.7c0.2,2,0.9,2.7,2.8,3.2c14.3,3.9,28.5,8,42.8,12c0,6.6,0.1,13.2,0,19.8
					c0,2.1,0.5,2.6,2.6,2c17.9-5,35.7-10,53.7-14.9c1.7-0.5,1.7-1.4,1.8-2.7c0.3-4.9,0.7-9.8,1.1-14.6c0.6-7.2,1.4-14.4,2-21.7
					c0.4-4.6,0.8-9.2,1.2-13.9c0.6-7,1.4-13.9,2-20.9c0.6-6.7,1.1-13.4,1.7-20.1c0.6-7.3,1.4-14.6,2-21.9c0.4-4.5,0.7-9.1,1.2-13.6
					c0.6-6.8,1.3-13.6,2-20.3c0.2-1.7-0.4-2.3-2.2-2.3c-22.2,0-44.3,0-66.4,0c-2,0-2.6,0.7-2.6,2.6c0.1,6.5,0,13,0,19.5
					c-17,0-34.1,0.1-51.1,0c-2.6,0-2.9,0.9-2.6,3c0.6,5,1,9.9,1.4,14.9c0.3,3.7,0.3,3.7,4,3.7l48.2,0.1c0,6.2-0.1,12.5,0.1,18.7
					c0.1,2.3-0.6,3-2.9,3c-14.8-0.1-29.5-0.1-44.2,0C309.3,185.2,308.2,184.8,307.3,185.7L307.3,185.7z"/>
				<path d="M354.9,79.4c-3.7-2.9-7.4-5.8-11.1-8.6c-1.1-0.7-1.8-1.9-1.6-3.2c0.1-2.7,0.1-5.5,0-8.2c0-1.4,0.3-2,1.8-1.9
					c9.1,0.1,18.3,0.1,27.4,0c1.5,0,2,0.5,1.9,1.9c-0.1,2.7-0.1,5.4,0,8.2c0.1,1.7-0.5,2.1-2.1,2c-3.5-0.1-7,0-11.2,0
					c3.9,3.1,7.3,5.9,10.9,8.5c1.8,1.3,2.8,2.6,2.5,5s1,5.6-0.5,7.1s-4.7,0.4-7.1,0.5c-7.1,0.1-14.2,0-21.3,0.1
					c-1.6,0-2.4-0.3-2.2-2.1c0.2-2.1,0.2-4.2,0-6.3c-0.2-2.2,0.7-2.4,2.5-2.4c3.4,0.1,6.7,0,10.1,0L354.9,79.4z"/>
				<path d="M390.5,79.3c-3.8-2.9-7.5-5.8-11.3-8.6c-1-0.7-1.6-1.9-1.5-3.1c0.1-2.7,0.1-5.4,0-8.2c0-1.4,0.2-2,1.8-2
					c9.1,0.1,18.3,0.1,27.4,0c1.3,0,1.9,0.3,1.8,1.7c-0.1,2.8-0.1,5.6,0,8.4c0.1,1.8-0.6,2-2.1,2c-3.5-0.1-6.9,0-11.1,0
					c4.2,3.3,7.9,6.3,11.6,9.1c1.1,0.7,1.8,2,1.6,3.3c-0.1,2.4-0.1,4.7,0,7.1c0,1.3-0.4,1.6-1.6,1.6c-9.2,0-18.4,0-27.7,0
					c-1.2,0-1.7-0.3-1.7-1.6c0.1-2.4,0.1-4.9,0-7.4c0-1.4,0.5-1.8,1.8-1.8c3.6,0.1,7.3,0,10.9,0L390.5,79.3z"/>
				<path d="M306.8,73.9c0-4.8,0.1-9.5,0-14.2c0-1.6,0.2-2.2,2.1-2.2c8.8,0.1,17.6,0.1,26.4,0c1.6,0,2.4,0.2,2.2,2.1
					c-0.2,2.5-0.2,5.1,0,7.6c0.1,1.7-0.4,2.3-2.1,2.2c-4.4-0.1-8.8,0-13.2-0.1c-1.6,0-2.2,0.4-2.1,2.1c0.2,2.7-0.9,6.2,0.5,7.9
					s5.1,0.5,7.8,0.6c2.4,0.1,4.7,0.1,7.1,0c1.7-0.1,2.1,0.5,2,2.1c-0.1,2.3-0.1,4.6,0,6.9c0.1,1.6-0.5,1.9-2,1.8
					c-8.9-0.1-17.8-0.1-26.6,0c-1.6,0-2.1-0.3-2.1-2C306.8,83.8,306.8,78.8,306.8,73.9z"/>
				<path class="st19" d="M357.4,141.9c0-6.5,0.1-13,0-19.5c0-1.9,0.6-2.6,2.6-2.6c22.1,0,44.3,0,66.4,0c1.8,0,2.4,0.6,2.2,2.3
					c-0.7,6.8-1.3,13.6-2,20.4c-0.4,4.5-0.8,9.1-1.2,13.6c-0.7,7.3-1.4,14.6-2,21.9c-0.6,6.7-1.1,13.4-1.7,20.1
					c-0.6,7-1.3,13.9-2,20.9c-0.4,4.6-0.8,9.2-1.2,13.9c-0.6,7.2-1.4,14.4-2,21.7c-0.4,4.9-0.8,9.8-1.1,14.6
					c-0.1,1.3-0.1,2.2-1.8,2.7c-17.9,4.9-35.8,9.8-53.7,14.9c-2.1,0.6-2.6,0.1-2.6-2c0.1-6.6,0-13.2,0-19.8l1.1-0.5
					c14.1-3.9,28.2-7.8,42.4-11.6c1.3-0.3,1.4-1.1,1.5-2.1c0.3-4.1,0.7-8.2,1.1-12.3c1.4-15.3,2.8-30.6,4.1-45.9
					c0.8-9.6,1.7-19.2,2.5-28.8c0.6-7.1,1.1-14.2,1.7-21.2c-0.8-0.9-1.8-0.4-2.7-0.5C391.8,141.9,374.6,141.9,357.4,141.9z"/>
				<path class="st14" d="M358.5,264.4l-1.1,0.5c-14.2-4-28.5-8.1-42.8-12c-1.9-0.5-2.6-1.2-2.8-3.2c-0.8-10.2-1.8-20.5-2.8-30.7
					c-0.1-1.4,0.3-1.6,1.5-1.6c6.3,0,12.7,0.1,19,0c1.5,0,1.9,0.5,2,1.9c0.3,4.4,0.8,8.8,1.1,13.1c0.1,1.7,0.6,2.8,2.6,3.2
					c7.1,1.7,14.1,3.7,21.1,5.5c0.4,0.5,1,0.4,1.6,0.5c0,6.7,0,13.3,0,20C357.9,262.6,357.6,263.6,358.5,264.4z"/>
				<path class="st14" d="M357.4,141.9c17.2,0,34.4,0,51.6,0.1c0.9,0,1.9-0.5,2.7,0.5c-17,0-34,0-51.1,0c-2,0-2.8,0.4-2.7,2.6
					c0.2,6.1,0.1,12.3,0.1,18.4l-0.5,0.2l-48.2-0.1c-3.8,0-3.7,0-4-3.7c-0.4-5-0.9-10-1.4-14.9c-0.3-2.2,0-3,2.6-3
					C323.3,142.1,340.4,142,357.4,141.9z"/>
				<path class="st14" d="M309,207.2c-0.6-7.2-1.1-14.4-1.7-21.5H358v21.6L309,207.2z"/>
				<path class="st19" d="M309,207.2l49,0.1c1,0,1.9,0.1,2.9,0.1c7.1,0,14.2,0,21.3,0c1.2,0,2.2-0.1,2,1.7
					c-0.9,7.9-1.7,15.7-2.3,23.6c-0.2,2-1,2.6-2.7,3.1c-7.1,1.9-14.2,3.9-21.3,5.9c-0.6-0.1-1.2,0-1.6-0.5c1.2-0.2,1.1-1.2,1.1-2
					c0-9.7,0-19.5,0-29.2c0-2.2-1.2-2.1-2.7-2.1c-14.3,0-28.6,0-42.9,0C310.9,207.8,309.8,208.4,309,207.2z"/>
				<path class="st19" d="M357.9,185.8h-50.6c0.9-0.9,2-0.5,3-0.5c14.8,0,29.5-0.1,44.2,0c2.3,0,3-0.6,2.9-3
					c-0.2-6.2-0.1-12.5-0.1-18.7l0.5-0.2c9.2,0,18.4,0.1,27.6,0.1c2.1,0,3.1,0.1,2.6,2.8c-0.9,5.3-1.4,10.6-1.6,16
					c-0.1,3-1.2,3.5-3.9,3.5C374.4,185.6,366.2,185.7,357.9,185.8z"/>
				<path class="st15" d="M357.9,185.8c8.2,0,16.5-0.2,24.8,0c2.7,0,3.8-0.5,3.9-3.5c0.2-5.4,0.8-10.7,1.6-16
					c0.4-2.7-0.5-2.8-2.6-2.8c-9.2,0.1-18.4,0-27.6-0.1c0-6.1,0.1-12.3-0.1-18.4c0-2.2,0.7-2.6,2.7-2.6c17,0.1,34,0,51.1,0
					c-0.6,7.1-1.1,14.2-1.7,21.2c-0.8,9.6-1.6,19.2-2.5,28.8c-1.3,15.3-2.7,30.6-4.1,45.9c-0.4,4.1-0.7,8.2-1.1,12.3
					c-0.1,1-0.2,1.7-1.5,2.1c-14.1,3.8-28.2,7.7-42.4,11.6c-0.9-0.7-0.6-1.8-0.6-2.7c0-6.7,0-13.3,0-20c7.1-2,14.2-4,21.3-5.9
					c1.7-0.5,2.5-1.1,2.7-3.1c0.6-7.9,1.5-15.7,2.3-23.6c0.2-1.8-0.8-1.7-2-1.7c-7.1,0-14.2,0-21.3,0c-1,0-1.9-0.1-2.9-0.1
					L357.9,185.8z"/>
			</g>
		</g>
	</g>
</g>
</svg>
