<svg xmlns="http://www.w3.org/2000/svg" viewBox="0 0 153.81 150"><defs><style>.cls-1{fill:#2e001e;}.cls-2{fill:#ff2bc2;}</style></defs><title>skills-bullet-adobexd</title><g id="Layer_2" data-name="Layer 2"><g id="Intro"><g id="adobe_xd" data-name="adobe xd"><path class="cls-1" d="M6.4,6.46h141V143.6H6.4Z"/><path class="cls-2" d="M0,0V150H153.81V0ZM6.4,6.46h141V143.6H6.4Z"/><path class="cls-2" d="M111.73,63a8.77,8.77,0,0,0-3.71-.64c-8.08,0-13.46,6.22-13.46,16.54,0,11.79,5.51,16.53,12.69,16.53a12.14,12.14,0,0,0,4.42-.7V63ZM82.89,79.46c0-14.93,9.63-26.6,25.44-26.6a28.18,28.18,0,0,1,3.34.13V36.33a.65.65,0,0,1,.64-.65h10.35c.51,0,.64.2.64.52V94.78a45.77,45.77,0,0,0,.32,6.28c0,.44,0,.51-.39.7a38.37,38.37,0,0,1-16.44,3.72c-13.94,0-23.9-8.59-23.9-26ZM61.14,69.08l18,34.8c.32.51.12,1-.39,1H67.56a1.26,1.26,0,0,1-1.35-.83Q60,91.37,53.64,77.71h-.12c-3.85,8.59-8.08,18-12.19,26.42a1.22,1.22,0,0,1-1.15.71H29.55c-.65,0-.71-.51-.39-.9L46.72,70.17l-17-33.59a.57.57,0,0,1,.45-1h11c.64,0,1,.13,1.15.71,4,8.52,8.14,16.92,12,25.5h.13c3.71-8.46,7.81-17,11.72-25.37.32-.52.52-.84,1.16-.84H77.68c.51,0,.7.39.38,1L61.14,69.08Z"/></g></g></g></svg>