<svg xmlns="http://www.w3.org/2000/svg" xmlns:xlink="http://www.w3.org/1999/xlink" viewBox="0 0 1341.56 1109.51"><defs><style>.cls-1{fill:none;}.cls-2,.cls-3{stroke:#c3c3c3;stroke-miterlimit:10;stroke-width:3px;}.cls-3,.cls-6{fill:#c3c3c3;}.cls-4{fill:#e6e6e6;}.cls-5{fill:#acacac;}.cls-7{fill:#21759b;}.cls-8{fill:url(#radial-gradient);}.cls-9{fill:#31c5f0;}.cls-10{fill:#9edcf2;}.cls-11{clip-path:url(#clip-path);}.cls-12{fill:#7dbce7;}.cls-13{fill:#010101;}.cls-14{fill:#f5ccb3;}.cls-15{fill:#fff;}.cls-16{fill:#af5c51;}.cls-17{fill:#c4e5d9;}.cls-18{fill:#2e001e;}.cls-19{fill:#ff2bc2;}.cls-20{fill:url(#radial-gradient-2);}.cls-21{fill:#ff7f18;}.cls-22{fill:#dfa22f;}.cls-23{fill:#3cb187;}.cls-24{fill:#ce1e5b;}.cls-25{fill:#392538;}.cls-26{fill:#bb242a;}.cls-27{fill:#72c5cd;}.cls-28{fill:#248c73;}.cls-29{fill:#62803a;}.cls-30{fill:#56676e;}.cls-31{fill:#4e4f50;}.cls-32{fill:#4e5050;}.cls-33{fill:gray;}.cls-34{fill:#4b4b4b;}.cls-35{fill:#f48f1c;}.cls-36{fill:#fc961f;}</style><radialGradient id="radial-gradient" cx="-4683.15" cy="-1643.41" r="0.05" gradientTransform="matrix(2287.08, 0, 0, -2214.31, 10711387.31, -3638899.07)" gradientUnits="userSpaceOnUse"><stop offset="0" stop-color="#34364e" stop-opacity="0.98"/><stop offset="1" stop-color="#0c0824"/></radialGradient><clipPath id="clip-path"><path class="cls-1" d="M890.41,256.72a15.59,15.59,0,0,0,6.59,10.2h28.92c3.5-2.39,7.08-6.9,7.08-15.34V229.77s.42-5.42,5.4-7.18c0,0,2.88-2-.21-3.17,0,0-13.68-1.12-13.68,10.14v16.58s.57,6.2-2.7,8.76V234.27s.21-6.55,3.55-9c0,0,2.23-4-2.65-3,0,0-9.34,1.34-9.76,12.39l-.21,21.11h-2.27l-.22-21.11c-.42-11-9.85-12.39-9.85-12.39-4.92-1.12-2.67,3-2.67,3,3.38,2.46,3.59,9,3.59,9v20.85c-3.28-2.36-2.71-9-2.71-9V229.56c0-11.26-13.68-10.14-13.68-10.14-3.15,1.13-.21,3.17-.21,3.17,4.91,1.83,5.4,7.18,5.4,7.18V245l.29,11.68Z"/></clipPath><radialGradient id="radial-gradient-2" cx="-4683.37" cy="-1643.41" r="0.05" gradientTransform="matrix(2287.08, 0, 0, -2214.31, 10711387.31, -3638899.07)" gradientUnits="userSpaceOnUse"><stop offset="0" stop-color="#423325" stop-opacity="0.98"/><stop offset="1" stop-color="#1c0a00"/></radialGradient></defs><title>skills-platforms</title><g id="Layer_2" data-name="Layer 2"><g id="Intro"><g id="platforms"><path class="cls-2" d="M1283.59,1.5H58A56.47,56.47,0,0,0,1.5,58V789.49H1340.06V58A56.47,56.47,0,0,0,1283.59,1.5Z"/><path class="cls-3" d="M1.5,789.49v119A56.47,56.47,0,0,0,58,965H1283.59a56.47,56.47,0,0,0,56.47-56.47v-119Z"/><rect class="cls-4" x="56.56" y="60" width="1225" height="688.2"/><rect class="cls-5" x="541.74" y="964.99" width="258.08" height="127.32"/><path class="cls-6" d="M866.56,1109.51H473.24a8.36,8.36,0,0,1-7.94-5.19c-2.28-6.17,2-12,7.52-12H866.15a8.36,8.36,0,0,1,7.94,5.19C876.36,1103.66,872.11,1109.51,866.56,1109.51Z"/><g id="wordpress"><path class="cls-7" d="M1164.17,246.75c-45,0-81.47-35.84-81.13-81.14s34.48-81.13,81.13-81.13,81.14,36.51,81.14,81.13A81.16,81.16,0,0,1,1164.17,246.75Zm24-12.51-23-61.87-21.64,63.22c15.89,3.73,26.71,4.74,44.62-1.35Zm-56.11-3.38-34.49-94.32c-4.73,10.14-5.74,18.6-6.42,29.07A73.25,73.25,0,0,0,1132.06,230.86Zm104.8-65.25c.33-17.91-7.78-32.11-8.45-34.14.67,13.86-1.36,21-3.72,28.74L1201,228.16c29.75-17.92,35.5-44.63,36.17-62.55Zm-75-3-11.5-31.44-8.45-.67c-3.38-2.37-1.35-6.09,1-6.09a247.38,247.38,0,0,0,38.88,0,3,3,0,1,1,.34,6.09l-8.12.67,26.37,77.76,12.51-42.6c.68-18.59-4.4-20.62-11.16-34.14-5.41-10.48.34-20.63,10.82-21-8.45-8.12-25.69-18.26-48.34-18.6s-46.66,11.16-60.86,32.8l25-.68c3.05,1.35,1.69,5.75,0,6.09l-8.79.67,26.37,79.11,15.9-48Z"/></g><g id="photoshop"><path class="cls-8" d="M596.18,91.4H748.74V239.76H596.18Z"/><path class="cls-9" d="M596.18,91.4H748.74V239.76H596.18Zm-6.92,155.35h166.4V84.48H589.26Zm112.17-95.7c-5.47,0-7.34,2.77-7.34,5.06,0,2.49,1.24,4.23,8.59,8,10.88,5.26,14.27,10.32,14.27,17.73,0,11.09-8.45,17-19.88,17-6,0-11.23-1.24-14.21-3-.48-.21-.55-.56-.55-1.11V184.65c0-.69.35-.9.83-.55a25.73,25.73,0,0,0,13.93,4.09c5.47,0,7.76-2.29,7.76-5.41,0-2.49-1.6-4.71-8.59-8.31-9.84-4.71-13.93-9.49-13.93-17.46,0-8.94,7-16.35,19.12-16.35,6,0,10.12.9,12.4,1.94a1.53,1.53,0,0,1,.69,1.39v9.49c0,.55-.34.9-1,.69a23.43,23.43,0,0,0-12.06-3.12Zm-59.65,8.24c1.59.14,2.84.14,5.61.14,8.11,0,15.74-2.85,15.74-13.87,0-8.8-5.48-13.24-14.7-13.24-2.77,0-5.41.14-6.65.21Zm-12.32-36.81c0-.48,1-.83,1.52-.83,4.43-.21,11-.34,17.86-.34,19.16,0,26.63,10.53,26.63,24,0,17.61-12.73,25.16-28.36,25.16-2.63,0-3.53-.14-5.4-.14v26.62c0,.56-.21.83-.83.83H630.29c-.55,0-.83-.21-.83-.83V122.48Z"/></g><g id="github"><path class="cls-10" d="M962.74,225.08c0,9.79-22.66,17.67-50.6,17.67s-50.59-8-50.59-17.67,22.66-17.66,50.59-17.66S962.74,215.3,962.74,225.08Z"/><g class="cls-11"><path class="cls-12" d="M962.74,225.08c0,9.79-22.66,17.67-50.6,17.67s-50.59-8-50.59-17.67,22.66-17.66,50.59-17.66S962.74,215.3,962.74,225.08Z"/></g><path class="cls-10" d="M854.37,173.08l-1.47,5.07a1.81,1.81,0,0,0,1.33,2.18,1.65,1.65,0,0,0,1.55-2.25l-1.41-5Z"/><path class="cls-13" d="M1001.43,151.77l.14-.64c-14.85-2.95-30.06-3-39.29-2.6,1.48-5.42,2-11.76,2-18.73a33.15,33.15,0,0,0-9.85-24.15c1.05-3.45,2.46-11.12-1.41-20.91,0,0-6.9-2.18-22.6,8.31a79,79,0,0,0-19.22-2.33,82.73,82.73,0,0,0-21.27,2.75c-16.19-11.06-23.3-8.8-23.3-8.8-4.65,11.62-1.76,20.28-.92,22.39a32.36,32.36,0,0,0-8.8,22.67c0,7,.78,13.24,2.75,18.66-9.3-.35-23.94-.21-38.31,2.67l.14.64c14.37-2.89,29.15-3,38.38-2.61.42,1.13.91,2.26,1.41,3.31-9.16.28-24.72,1.48-39.64,5.7l.21.64c15.06-4.23,30.77-5.35,39.85-5.63,5.49,10.13,16.19,16.75,35.34,18.8a15.61,15.61,0,0,0-6.61,10.2c-3.74,1.76-15.42,6.13-22.47-6,0,0-3.94-7.18-11.47-7.75,0,0-7.32-.14-.49,4.58,0,0,4.85,2.32,8.23,11,0,0,4.44,14.78,25.63,10v15.12s-.42,5.4-5.4,7.15c0,0-2.95,2,.21,3.16,0,0,13.68,1.12,13.68-10.1V192.7s-.57-6.7,2.71-9v27.35s-.21,6.55-3.59,9c0,0-2.25,4,2.67,3,0,0,9.42-1.34,9.84-12.39l.21-27.65h2.28l.21,27.65c.42,11,9.85,12.39,9.85,12.39,4.93,1.12,2.68-3,2.68-3-3.38-2.46-3.59-9-3.59-9V183.94c3.27,2.56,2.7,8.76,2.7,8.76v16.57c0,11.22,13.68,10.1,13.68,10.1,3.16-1.12.21-3.16.21-3.16-4.91-1.82-5.4-7.15-5.4-7.15V187.25c0-8.52-3.59-13-7.11-15.34,20.42-2,30.21-8.59,34.71-18.87,8.94.21,25.07,1.33,40.42,5.7l.21-.64c-15.28-4.29-31.26-5.42-40.35-5.7.43-1.05.78-2.11,1.13-3.24,9.44-.35,24.71-.35,39.64,2.61Z"/><path class="cls-14" d="M944.23,129.31c4.37,4,7,8.8,7,13.94,0,24.2-18,24.84-40.25,24.84s-40.25-3.38-40.25-24.84c0-5.14,2.53-9.92,6.89-13.87,7.25-6.61,19.5-3.09,33.36-3.09s26-3.59,33.28,3Z"/><path class="cls-15" d="M897.58,144.51c0,6.69-3.73,12-8.37,12s-8.38-5.42-8.38-12,3.73-12,8.38-12S897.58,137.83,897.58,144.51Z"/><path class="cls-16" d="M894.9,144.65c0,4.44-2.53,8-5.55,8s-5.56-3.59-5.56-8,2.53-8,5.56-8S894.9,140.22,894.9,144.65Z"/><path class="cls-15" d="M942.54,144.51c0,6.69-3.73,12-8.37,12s-8.37-5.42-8.37-12,3.73-12,8.37-12S942.54,137.83,942.54,144.51Z"/><path class="cls-16" d="M939.8,144.65c0,4.44-2.53,8-5.56,8s-5.56-3.59-5.56-8,2.53-8,5.56-8S939.8,140.22,939.8,144.65Zm-26.6,10.56a2.11,2.11,0,1,1-4.22,0,2.07,2.07,0,0,1,2.11-2.11A2.11,2.11,0,0,1,913.2,155.21Zm-7,5.28a.66.66,0,0,1,.43-.85.65.65,0,0,1,.84.42,3.79,3.79,0,0,0,3.59,2.54,3.88,3.88,0,0,0,3.59-2.54.67.67,0,1,1,1.26.43,5.15,5.15,0,0,1-9.71,0Z"/><path class="cls-17" d="M859.72,170.06c0,.56-.63,1-1.48,1s-1.47-.42-1.47-1,.63-1,1.47-1S859.72,169.49,859.72,170.06Zm4.08,2.25c0,.56-.63,1-1.48,1s-1.47-.42-1.47-1,.63-1,1.47-1S863.8,171.75,863.8,172.31Zm2.47,2.95c0,.57-.64,1-1.48,1s-1.48-.42-1.48-1,.63-1,1.48-1S866.27,174.7,866.27,175.26Zm2.25,3.38c0,.56-.64,1-1.48,1s-1.48-.43-1.48-1,.63-1,1.48-1S868.52,178.08,868.52,178.64Zm2.46,3.1c0,.56-.63,1-1.48,1s-1.48-.42-1.48-1,.64-1,1.48-1S871,181.17,871,181.74Zm3.38,2.74c0,.57-.64,1-1.48,1s-1.48-.42-1.48-1,.64-1,1.48-1S874.36,183.92,874.36,184.48Zm4.71,1.76c0,.56-.63,1-1.48,1s-1.47-.43-1.47-1,.63-1,1.47-1S879.07,185.68,879.07,186.24Zm4.72,0c0,.56-.64,1-1.48,1s-1.48-.43-1.48-1,.63-1,1.48-1S883.79,185.68,883.79,186.24Zm4.78-.77c0,.56-.63,1-1.48,1s-1.47-.42-1.47-1,.63-1,1.47-1S888.57,184.9,888.57,185.47Z"/></g><g id="adobe_xd" data-name="adobe xd"><path class="cls-18" d="M346.26,91.47H498.81V239.83H346.26Z"/><path class="cls-19" d="M339.33,84.48V246.75h166.4V84.48Zm6.93,7H498.81V239.83H346.26Z"/><path class="cls-19" d="M460.21,152.64a9.45,9.45,0,0,0-4-.7c-8.74,0-14.56,6.73-14.56,17.89,0,12.76,6,17.89,13.73,17.89a13.18,13.18,0,0,0,4.78-.76V152.64ZM429,170.44c0-16.16,10.43-28.78,27.53-28.78a30.53,30.53,0,0,1,3.61.14v-18a.7.7,0,0,1,.69-.7H472c.56,0,.7.21.7.56V187a48.83,48.83,0,0,0,.35,6.79c0,.49,0,.56-.42.77a41.52,41.52,0,0,1-17.79,4c-15.08,0-25.86-9.29-25.86-28.15Zm-23.52-11.23,19.41,37.64c.35.56.14,1.11-.42,1.11H412.42a1.37,1.37,0,0,1-1.46-.9q-6.66-13.74-13.6-28.52h-.13c-4.16,9.3-8.74,19.43-13.18,28.59a1.33,1.33,0,0,1-1.25.77H371.3c-.7,0-.77-.56-.42-1l19-36.54L371.5,124.06a.61.61,0,0,1,.49-1h11.93c.69,0,1,.14,1.24.76,4.37,9.22,8.81,18.3,13,27.59h.14c4-9.15,8.45-18.37,12.68-27.45.35-.56.56-.9,1.25-.9h11.17c.55,0,.76.41.41,1l-18.3,35.15Z"/></g><g id="illustrator"><path class="cls-20" d="M96.33,91.47H248.88V239.83H96.33Z"/><path class="cls-21" d="M96.33,91.47H248.88V239.83H96.33ZM89.41,246.75h166.4V84.48H89.41Zm109-104.43c0-.53.2-.8.8-.8h10.94c.56,0,.84.21.84.83v54.71c0,.56-.14.84-.84.84H199.34c-.7,0-.91-.35-.91-.91V142.32Zm-.74-15.73a7.07,7.07,0,1,1,14.14,0c0,4.57-3,7.07-7.21,7.07C200.54,133.66,197.63,131.16,197.63,126.59Zm-31.2,38.56c-1.94-7.7-6.52-24.5-8.25-32.62H158c-1.46,8.12-5.14,21.86-8,32.62ZM147.15,176.4l-5.48,20.8c-.14.56-.35.7-1,.7H130.44c-.69,0-.83-.21-.69-1l19.69-68.93a22.29,22.29,0,0,0,.69-5.75c0-.49.21-.69.56-.69h14.56c.48,0,.69.13.83.69l22,74.81c.14.56,0,.91-.56.91h-11.5c-.56,0-.9-.14-1-.63l-5.69-20.87Z"/></g><g id="slack"><path class="cls-22" d="M184.48,334.68a14.46,14.46,0,0,0-27.5,8.93l37.38,115a14.46,14.46,0,0,0,17.59,9c7.67-2.21,12.34-10.35,9.9-17.89l-37.37-115"/><path class="cls-23" d="M126.56,353.5a14.45,14.45,0,0,0-27.49,8.93l37.38,115a14.44,14.44,0,0,0,17.58,9c7.67-2.21,12.35-10.36,9.9-17.89l-37.37-115"/><path class="cls-24" d="M231.53,429.92a14.45,14.45,0,1,0-8.94-27.49l-115,37.37a14.47,14.47,0,0,0-9,17.59c2.21,7.67,10.36,12.34,17.89,9.9l115-37.37"/><path class="cls-25" d="M131.56,462.4l27.49-8.93L150.12,426l-27.49,8.94,8.93,27.48"/><path class="cls-26" d="M189.48,443.58,217,434.65,208,407.16l-27.49,8.93,8.94,27.49"/><path class="cls-27" d="M212.71,372a14.45,14.45,0,1,0-8.94-27.49l-115,37.38a14.45,14.45,0,0,0-9,17.58c2.21,7.67,10.36,12.35,17.9,9.9l115-37.37"/><path class="cls-28" d="M112.74,404.49l27.49-8.94c-3.38-10.39-6.52-20.05-8.93-27.48L103.8,377l8.94,27.49"/><path class="cls-29" d="M170.65,385.67l27.49-8.93q-4.45-13.75-8.93-27.5l-27.49,8.94,8.93,27.49"/></g><g id="replit"><path class="cls-30" d="M953.66,378.14c5.28,80.05-79.07,69.06-79.07,69.06,57.93.82,82.36-109-11.63-120.48a80.77,80.77,0,0,1,90.7,51.42Z"/><path class="cls-30" d="M917.65,411.12s19.92-83.84-69.76-80.09a80.13,80.13,0,0,0-50.52,86.3c18.87-94.85,126.39-64.13,120.28-6.21Z"/><path class="cls-30" d="M801.92,435.84c-1.3-91.66,82.9-68.18,82.9-68.18-57.79-8.42-93.7,97,.77,119.54-2.62.25-5.29.4-8,.4h-.41a81.33,81.33,0,0,1-10.69-.83c-1-.14-2.09-.3-3.13-.48a81.23,81.23,0,0,1-10.09-2.38c-.39-.12-.76-.27-1.14-.41h0c-.29-.11-.57-.22-.87-.32a79.08,79.08,0,0,1-8.11-3.29l-.61-.28c-.7-.33-1.41-.67-2.1-1a79.61,79.61,0,0,1-8.89-5.27c-.22-.15-.44-.32-.66-.49h0l-.55-.41a82.5,82.5,0,0,1-7.7-6.26l-.43-.39,0,0h0l-.63-.57A81.07,81.07,0,0,1,801.92,435.84Z"/><path class="cls-30" d="M906,482.18c-90.44-.73-67.87-83.72-67.87-83.72-9.23,57.55,96.47,94.33,120.37.43.22,2.45.37,4.93.37,7.44,0,.31,0,.61,0,.91h0c0,.27,0,.54,0,.81,0,2.2-.12,4.4-.34,6.55A81,81,0,0,1,906,482.18Z"/><path class="cls-31" d="M900.4,406.33a22.72,22.72,0,1,1-6.66-16,22.62,22.62,0,0,1,6.66,16Z"/><path class="cls-32" d="M1137.1,440.66h7.75V368.31h-7.75v72.35Zm-125.92-44.79v-7.75h-.52a18.86,18.86,0,0,0-8.31,1.66q-8.33,3.83-10.81,11.9V389h-7.75v51.68h7.75V417.91a24.14,24.14,0,0,1,5-15.31,16.64,16.64,0,0,1,13.71-6.73Z"/><path class="cls-32" d="M1041.59,434.6q10.53,0,15.11-8.75h8.55a25,25,0,0,1-8.65,11.47q-5.83,4.38-15.11,4.37-11.79,0-19.18-7.81-7.2-7.62-7.2-19.09t6.88-19.07q7.3-7.83,19-7.82t19,7.82q6.87,7.5,6.88,19.08v3.12h-43.68a19,19,0,0,0,5.73,11.89,17.63,17.63,0,0,0,12.72,4.79Zm-.41-39.43a17.09,17.09,0,0,0-12,4.45,18.39,18.39,0,0,0-5.59,11.07h35.18a18.34,18.34,0,0,0-5.59-11.07,17.09,17.09,0,0,0-12-4.45Zm42.18,2.13c4.25-6.07,10.42-9.11,18.63-9.11q11.17,0,18.11,7.76t6.93,18.94q0,11.28-6.93,18.93t-18.62,7.76c-7.8,0-18-9.21-18-9.21v28.79h-7.75V389h7.58v8.32Zm17.6-2.07q-8.39,0-13.24,5.79-4.67,5.49-4.66,13.87t4.66,13.86q4.86,5.81,13.24,5.8a17.17,17.17,0,0,0,13.45-5.8q4.86-5.47,4.86-13.86T1114.41,401a17.19,17.19,0,0,0-13.45-5.79Z"/><path class="cls-32" d="M1180.68,389h7.76v51.68h-7.76V389Zm8.1-8.61V370.21h-8.44v10.16Zm18.78,60.46v-45h-10.51V389h10.51v-18.6h7.75V389h11.88v6.89h-11.88v45Zm-53.23-27.39h9.47v9.48h-9.47Zm9.47,18.95v-9.47h9.48v9.47Zm0,0v9.48h-9.47v-9.48Z"/></g><g id="terminal"><rect x="306.43" y="326.04" width="195.16" height="159.57" rx="3.81" ry="3.81"/><path class="cls-15" d="M328,342.63a3.35,3.35,0,0,0-4.73,4.74l10.24,10.24-10.23,10.24a3.35,3.35,0,1,0,4.73,4.74l11.39-11.4q3.58-3.57,0-7.16Zm44.63,25.25a5.82,5.82,0,0,0-2.38-1h-22a3.27,3.27,0,0,0-2.38,1,3.22,3.22,0,0,0-1,2.48,3.32,3.32,0,0,0,.92,2.21,3.26,3.26,0,0,0,2.45,1h21.94v.05a3.31,3.31,0,0,0,2.46-1,3.26,3.26,0,0,0,1-2.39,3.2,3.2,0,0,0-1-2.37Z"/></g><g id="codepen"><path class="cls-33" d="M274.31,590a41.16,41.16,0,0,1,26.53,9.68l9.78-11.65a56.51,56.51,0,1,0,0,86.52l-9.78-11.65A41.28,41.28,0,1,1,274.32,590Zm313-11.89H556.82a7.62,7.62,0,0,0-7.61,7.62v91.39a7.62,7.62,0,0,0,7.61,7.62h30.06c27.76,0,51.24-21.12,53.53-48.79a53.36,53.36,0,0,0-53.13-57.84Zm-.15,91.14h-22.8v-76h22.8a38,38,0,0,1,0,76Zm94.63-83.56v91.44a7.61,7.61,0,0,0,7.6,7.61h63.36V669.29H696.9V639h35.3V623.9H696.54V593.28h55.83V578.15H689.14s-7.59,3.36-7.73,7.55v0h.36Zm230.18,0v91.08a7.61,7.61,0,0,0,7.6,7.61h63.36V669.29H927.07V639h35.67V623.9H927.07V593.28h55.84V578.15H919.4s-7.6,3.36-7.81,7.56H912Zm-72.62-7.58H806.4a7.59,7.59,0,0,0-7.56,7.62v99H814V639h25.36a30.44,30.44,0,1,0,0-60.88Zm-.14,45.39H814V593.28h25.22a15.13,15.13,0,0,1,0,30.26Zm262.59-45.38v78l-62.57-75.23a7.6,7.6,0,0,0-13.44,4.87v99h15.13v-78L1103.48,682a7.6,7.6,0,0,0,13.43-4.88v-99h-15.13ZM505.86,605.53c0-.2-.07-.39-.12-.59s-.07-.22-.11-.34l-.18-.5a3.54,3.54,0,0,0-.16-.34c-.07-.16-.15-.31-.23-.46s-.13-.21-.2-.32a6.71,6.71,0,0,0-.88-1.11l-.28-.27a4.12,4.12,0,0,0-.4-.33L503,601l-.12-.09L428.79,551.5a7,7,0,0,0-7.72,0L347,600.94l-.12.09-.32.24a5.42,5.42,0,0,0-.67.6A6.25,6.25,0,0,0,345,603l-.2.33-.26.5c-.06.14-.16.36-.21.5s-.07.2-.1.3l-.11.33c-.05.19-.08.39-.12.59s0,.2-.05.3a5.49,5.49,0,0,0-.07.91v49.45a5.49,5.49,0,0,0,.07.91c0,.11,0,.2.06.31a4.56,4.56,0,0,0,.14.59c0,.1.06.22.1.33s.11.35.18.51.11.22.15.33a6.15,6.15,0,0,0,.74,1.2c.08.11.16.2.24.3a4.26,4.26,0,0,0,.35.38,1.42,1.42,0,0,0,.29.26l.39.34c.11.08.22.15.31.23s.06.07.11.09l74.06,49.47a6.86,6.86,0,0,0,3.86,1.17,7,7,0,0,0,3.87-1.17L502.88,662l.11-.08.32-.24.4-.33.24-.24a5.66,5.66,0,0,0,.47-.52,8.52,8.52,0,0,0,.65-1,3.68,3.68,0,0,0,.23-.44,3.49,3.49,0,0,0,.15-.34,4.4,4.4,0,0,0,.18-.51c0-.11.08-.22.11-.33s.09-.39.13-.59,0-.2.05-.3a6.84,6.84,0,0,0,.06-.91V606.74a7,7,0,0,0-.06-.91c0-.1-.05-.19-.07-.3Zm-81,42.33-24.66-16.49,24.66-16.5,24.67,16.5Zm-7.11-45.21-30.24,20.22-24.4-16.33,54.64-36.42v32.53ZM375,631.47l-17.44,11.66V619.8L375,631.47Zm12.46,8.27L417.73,660v32.55L363,656.06l24.43-16.33h0ZM431.78,660,462,639.75l24.4,16.33L431.78,692.5Zm42.86-28.6,17.29-11.57v23.13l-17.29-11.57ZM462,623l-30.23-20.22V570.23l54.63,36.42L462,623Z"/></g><g id="sublime"><rect class="cls-34" x="582.88" y="324.32" width="163" height="163" rx="11" ry="11"/><path class="cls-35" d="M704.52,432.41c-.64.61-1.27,1.22-1.93,1.83-.19,0-76.32,23.69-76.63,23.77-1.71.43-2.38,0-2.42-1.79,0-2.32,0-20.87,0-23.87,0-2.29.88-3.23,3-3.92,2.65-.86,28.63-8.76,28.8-8.79l1-.3,1.95-.86c2.8.89,5.63,1.76,8.42,2.67,11.83,3.85,23.64,7.72,35.48,11.52A6,6,0,0,0,704.52,432.41Z"/><path class="cls-36" d="M627.28,408.39c-2.9-.95-3.31-1.6-3.3-4.63,0-1.74,0-17.3,0-22.24,0-3.22.8-4,3.95-4.81,1.6-.41,74.49-22.94,74.8-23,1.93-.55,2.44,0,2.46,2,0,1.47.1,18.4,0,23.32a15.81,15.81,0,0,1-.44,2.61,14.88,14.88,0,0,1-2.8,1.61c-9.69,3.05-30.19,9.41-31.18,9.75l32.38,10.47,1,.71.58.66a18.77,18.77,0,0,1,.25,2.48c0,6.77,0,13.55,0,20.32-.14,1.59-.27,3.17-.4,4.76a6,6,0,0,1-2.33.26C690.36,428.87,632.17,410,627.28,408.39Z"/></g></g></g></g></svg>