<svg xmlns="http://www.w3.org/2000/svg" viewBox="0 0 150 150"><defs><style>.cls-1{fill:#21759b;}</style></defs><title>skills-bullet-wordpress</title><g id="Layer_2" data-name="Layer 2"><g id="Intro"><g id="wordpress"><path class="cls-1" d="M75,150C33.44,150-.31,116.87,0,75S31.88,0,75,0s75,33.75,75,75A75,75,0,0,1,75,150Zm22.19-11.56L75.94,81.25l-20,58.44c14.69,3.44,24.69,4.37,41.25-1.25Zm-51.87-3.13L13.44,48.13C9.06,57.5,8.13,65.31,7.5,75A67.71,67.71,0,0,0,45.32,135.31ZM142.19,75c.31-16.56-7.18-29.69-7.81-31.56A67.19,67.19,0,0,1,130.94,70l-21.87,62.81c27.5-16.56,32.81-41.25,33.43-57.81ZM72.82,72.19,62.19,43.13l-7.81-.63c-3.13-2.19-1.25-5.62.93-5.62a231.83,231.83,0,0,0,35.94,0,2.81,2.81,0,1,1,.31,5.62l-7.5.63L108.44,115,120,75.62c.62-17.18-4.07-19.06-10.32-31.56-5-9.69.32-19.06,10-19.37C111.87,17.19,95.93,7.81,75,7.5S31.87,17.81,18.75,37.81l23.12-.62c2.82,1.25,1.56,5.31,0,5.62l-8.12.63,24.37,73.12,14.7-44.37Z"/></g></g></g></svg>