<svg xmlns="http://www.w3.org/2000/svg" viewBox="0 0 150 150"><defs><style>.cls-1{fill:#563d7c;}.cls-2{fill:#fff;}</style></defs><title>skills-bullet-bootstrap</title><g id="Layer_2" data-name="Layer 2"><g id="Intro"><g id="Bootstrap"><path class="cls-1" d="M0,130.66A19.34,19.34,0,0,0,19.34,150H130.66A19.34,19.34,0,0,0,150,130.66V19.34A19.34,19.34,0,0,0,130.66,0H19.34A19.34,19.34,0,0,0,0,19.34V130.66Z"/><path class="cls-2" d="M62.22,66.36V45.12h18.7a28.85,28.85,0,0,1,5.15.45,12.88,12.88,0,0,1,4.39,1.58,8.63,8.63,0,0,1,3.05,3.18,10.62,10.62,0,0,1,1.14,5.22q0,5.72-3.43,8.27a14.41,14.41,0,0,1-8.78,2.54Zm-20-36.78v90.84h44a46.4,46.4,0,0,0,11.9-1.53,31.6,31.6,0,0,0,10.3-4.7,23.2,23.2,0,0,0,7.19-8.21,25,25,0,0,0,2.67-11.9,25.2,25.2,0,0,0-4.13-14.56q-4.14-6-12.54-8.46a22.64,22.64,0,0,0,9.23-7.51A19.87,19.87,0,0,0,114,52.1a24.39,24.39,0,0,0-2.1-10.69A17.45,17.45,0,0,0,106,34.48a25.44,25.44,0,0,0-9.16-3.75A56.12,56.12,0,0,0,85,29.58Zm20,75.36V80H84q6.5,0,10.44,3t4,10a12.59,12.59,0,0,1-1.21,5.86,9.61,9.61,0,0,1-3.25,3.63,14,14,0,0,1-4.71,1.91,26.88,26.88,0,0,1-5.61.57Z"/></g></g></g></svg>