<svg xmlns="http://www.w3.org/2000/svg" viewBox="0 0 151.4 150"><defs><style>.cls-1{fill:#21609b;}</style></defs><title>skills-bullet-jquery</title><g id="Layer_2" data-name="Layer 2"><g id="Intro"><path class="cls-1" d="M147.88,111.34l-.68,1.75c-11.54,22.49-32,36.29-61.19,36.89a85.52,85.52,0,0,1-35.14-7A90.81,90.81,0,0,1,8.71,103.14C-3.37,79.75-5.54,47.21,19.57,22.91c.38,0-3.05,5.27-2.66,5.27l-.69,2.25c-18.1,56.65,37.65,105.2,91.84,99.64,13-1.33,29.63-8.46,39.82-18.73"/><path class="cls-1" d="M115.09,87.91C128.72,88,143,81.63,151.4,72.69,144,91.41,122.66,103.45,94,99.62,70,96.41,47.17,72.28,44.82,48.09,43.1,30.49,49.23,20,59.34,7.24,55.83,13.9,54.51,19,54.19,22.32,50.35,60.4,84.6,87.71,115.09,87.91"/><path class="cls-1" d="M150,40.62c-2.12,4.86-14.33,14-19.71,15.19-21.34,4.54-35-5.58-42.17-17.09a53.11,53.11,0,0,1-3.38-7.61C82,21.67,83.27,7.39,91.55,0,89.05,7,88.69,15.19,90,20.5a45.59,45.59,0,0,0,5.65,12.33c4.41,6.42,7.21,8,12.88,11.38A34.13,34.13,0,0,0,115,47.32c5.37,1.58,16.72,5.75,35-6.7"/></g></g></svg>