<svg xmlns="http://www.w3.org/2000/svg" viewBox="0 0 150 150"><defs><style>.cls-1{fill:#dfa22f;}.cls-2{fill:#3cb187;}.cls-3{fill:#ce1e5b;}.cls-4{fill:#392538;}.cls-5{fill:#bb242a;}.cls-6{fill:#72c5cd;}.cls-7{fill:#248c73;}.cls-8{fill:#62803a;}</style></defs><title>skills-bullet-slack</title><g id="Layer_2" data-name="Layer 2"><g id="Intro"><g id="slack"><path class="cls-1" d="M97.27,9.24a13.36,13.36,0,0,0-25.41,8.25L106.41,123.8a13.36,13.36,0,0,0,16.25,8.28c7.1-2,11.42-9.57,9.16-16.54L97.27,9.24"/><path class="cls-2" d="M43.74,26.63a13.36,13.36,0,1,0-25.42,8.26l34.55,106.3a13.36,13.36,0,0,0,16.26,8.28c7.09-2,11.41-9.57,9.15-16.53L43.74,26.63"/><path class="cls-3" d="M140.76,97.28a13.36,13.36,0,0,0-8.25-25.42L26.2,106.41a13.36,13.36,0,0,0-8.28,16.25c2,7.1,9.57,11.42,16.54,9.16l106.3-34.54"/><path class="cls-4" d="M48.36,127.3,73.77,119l-8.26-25.4L40.1,101.89l8.26,25.41"/><path class="cls-5" d="M101.9,109.9l25.4-8.25L119,76.24l-25.4,8.25,8.26,25.41"/><path class="cls-6" d="M123.37,43.74a13.36,13.36,0,0,0-8.26-25.42L8.81,52.88A13.35,13.35,0,0,0,.53,69.13c2,7.09,9.57,11.41,16.53,9.15L123.37,43.74"/><path class="cls-7" d="M31,73.77l25.41-8.26L48.12,40.1,22.7,48.36,31,73.77"/><path class="cls-8" d="M84.49,56.37l25.42-8.26q-4.14-12.7-8.26-25.41L76.24,31l8.25,25.41"/></g></g></g></svg>