<svg xmlns="http://www.w3.org/2000/svg" xmlns:xlink="http://www.w3.org/1999/xlink" viewBox="0 0 1341.56 1109.51"><defs><style>.cls-1,.cls-2{stroke:#c3c3c3;stroke-miterlimit:10;stroke-width:3px;}.cls-2,.cls-5{fill:#c3c3c3;}.cls-3{fill:#e6e6e6;}.cls-4{fill:#acacac;}.cls-6{fill:#ccc;}.cls-7{fill:#a6120d;}.cls-8{fill:#b3b3b3;}.cls-9{fill:#dd1b16;}.cls-10{fill:#f2f2f2;}.cls-11{fill:#1a1918;}.cls-12{fill:#21609b;}.cls-13{fill:#563d7c;}.cls-14{fill:#fff;}.cls-15{fill:url(#linear-gradient);}.cls-16{fill:url(#linear-gradient-2);}.cls-17{fill:#63a714;}.cls-18{fill:#89ce17;}.cls-19{fill:#eaeaea;}.cls-20{fill:#fefefe;}.cls-21{fill:#e34d26;}.cls-22{fill:#f06529;}.cls-23{fill:#0070b9;}.cls-24{fill:#29a7df;}</style><linearGradient id="linear-gradient" x1="-2954.51" y1="-1314.83" x2="-2954.45" y2="-1314.88" gradientTransform="matrix(1849.27, 0, 0, -1853.39, 5464731.6, -2436778.82)" gradientUnits="userSpaceOnUse"><stop offset="0" stop-color="#387eb8"/><stop offset="1" stop-color="#366994"/></linearGradient><linearGradient id="linear-gradient-2" x1="-2954.82" y1="-1314.52" x2="-2954.76" y2="-1314.58" gradientTransform="matrix(1849.27, 0, 0, -1853.39, 5465375.18, -2436151.64)" gradientUnits="userSpaceOnUse"><stop offset="0" stop-color="#ffe052"/><stop offset="1" stop-color="#ffc331"/></linearGradient></defs><title>skills-languages</title><g id="Layer_2" data-name="Layer 2"><g id="Intro"><path class="cls-1" d="M1283.59,1.5H58A56.47,56.47,0,0,0,1.5,58V789.49H1340.06V58A56.47,56.47,0,0,0,1283.59,1.5Z"/><path class="cls-2" d="M1.5,789.49v119A56.47,56.47,0,0,0,58,965H1283.59a56.47,56.47,0,0,0,56.47-56.47v-119Z"/><rect class="cls-3" x="56.56" y="60" width="1225" height="688.2"/><rect class="cls-4" x="541.74" y="964.99" width="258.08" height="127.32"/><path class="cls-5" d="M866.56,1109.51H473.24a8.36,8.36,0,0,1-7.94-5.19c-2.28-6.17,2-12,7.52-12H866.15a8.36,8.36,0,0,1,7.94,5.19C876.36,1103.66,872.11,1109.51,866.56,1109.51Z"/><g id="AngularJS"><path class="cls-6" d="M375.9,668.94V581.43h11.35L440.93,652V581.43h10.56v87.51H440.4l-53.61-71.13v71.13H375.9Zm162.75-3.37a62.89,62.89,0,0,1-22.79,4q-47.58,0-47.59-45.64,0-43.18,45.94-43.19c8.78,0,24.78,3.68,24.78,3.68v9.8S523.4,590,515.43,590q-35.83,0-35.83,34,0,36.43,35.29,36.45A60.19,60.19,0,0,0,527.42,659V629.1h11.23v36.47Zm18.05-30.34v-53.8h11.24v53.78q0,25.23,25.19,25.25t25.2-25.25V581.43h11.23v53.8q0,34.44-36.43,34.44T556.7,635.23Zm104.53-53.8v78.31h46v9.2H650V581.43Zm62.16,87.51H711.63l43.57-99.19,43.56,99.19H786.21l-11.35-27.58h-29l3.12-9.2h22.07l-16.37-39.73-31.32,76.51Zm87.32,0v-87.5H848q25,0,25,21,0,17.07-24.41,25.27l30,41.25H863.8l-27.9-39.43v-7.42q25.14-4,25.14-19.32,0-12.13-14-12.15H821.94v78.32H810.71ZM921,581.43v62.36Q921,669,891.4,669v-9.19q18.39,0,18.39-16.05V581.43Zm20.43,84.76V655.7a87.62,87.62,0,0,0,29.76,4.94q22.59,0,22.59-16.67,0-14.18-16.66-14.19H965.88q-27.48,0-27.49-24.07,0-25.29,35.21-25.31a105,105,0,0,1,28.46,3.71v10.5a80.22,80.22,0,0,0-28.46-5q-23.88,0-23.88,16.05,0,14.19,16.16,14.2h11.26q28,0,28,24.06,0,25.93-33.92,25.93a114.25,114.25,0,0,1-29.75-3.71Z"/><path d="M379,666.14V578.71h12.27L444,648.93V578.71h10.55v87.16H443.26L389.52,595v71.26H379Zm162.76-3.43a64.76,64.76,0,0,1-23,4q-47.6,0-47.6-45.63,0-43.2,46-43.19c8.78,0,24.3,3.68,24.3,3.68v9.85a64.32,64.32,0,0,0-23.1-4.29q-35.55,0-35.55,34,0,36.45,35,36.45a58.67,58.67,0,0,0,12.4-1.48V626.37h11.58Zm18-30.22V578.71H571v53.78q0,25.25,25.2,25.24t25.19-25.24V578.71h11.24v53.78q0,34.44-36.43,34.43T559.76,632.49ZM664,578.71V657h46v9.19h-57.2v-87.5Zm62.31,87.5H714.49L758.06,567l43.57,99.2H789.07l-11.34-27.58h-29l3.13-9.19h22.06l-16.36-39.72-31.32,76.49Zm87.51,0v-87.5h37.05q24.79,0,24.78,21,0,17.07-24.23,25.27l29.82,41.25H867.06L839,626.78v-7.42q25.31-4,25.32-19.32,0-12.13-14.09-12.14H825v78.31Z"/><path class="cls-7" d="M924.09,578.37v62.36q0,25.24-29.62,25.24v-9.19q18.38,0,18.38-16V578.37Zm20.09,85.08V653a87.61,87.61,0,0,0,29.75,4.94q22.59,0,22.59-16.66,0-14.18-16.65-14.18H968.6q-27.48,0-27.49-24.06,0-25.29,35.21-25.3a105.17,105.17,0,0,1,28.47,3.71V591.9A80.27,80.27,0,0,0,976.32,587q-23.88,0-23.87,16,0,14.18,16.15,14.18h11.27q28,0,28,24.06,0,25.92-33.91,25.91a114.63,114.63,0,0,1-29.75-3.7Z"/><path class="cls-8" d="M259.77,511.08l-102.31,36,16.17,134,86.25,47.4,86.69-48,16.16-134-103-35.37Z"/><path class="cls-7" d="M352.44,554.19l-93-31.71V717.2l77.94-43.13,15.06-119.88Z"/><path class="cls-9" d="M168.88,554.77l13.85,119.86,76.72,42.55V522.49l-90.57,32.28Z"/><path class="cls-10" d="M285.13,626l-25.6,12h-27l-12.68,31.72-23.59.44,63.25-140.72Zm-2.48-6L259.7,574.56l-18.83,44.66h18.66l23.12.79Z"/><path class="cls-8" d="M259.45,529.68v45l21.61,44.55H259.79v19.07h29.45l13.88,32,22.58.42-66.17-141Z"/></g><g id="jQuery"><path class="cls-11" d="M1172.77,365.75l30.07.17s-56.06,76-60.64,82.16c-1.49,2-3.74,4.17-4.89,6.85-2.9,6.74-5.87,21.52-5.87,21.52l-27.53.14s4.3-15.43,4.12-23.64c-.16-7.18-3.82-14.35-5.87-21.55s-4.9-21.54-4.9-21.54h28.35l3.91,15.64,43.16-59.78"/><path class="cls-11" d="M1115.63,381.67c5.56,3.36,9,21.85,9,21.85l-44.93.28H1066l-16.62,72.36H1024s15.8-78.52,19.53-92.75c1.21-4.61,8.28-3.82,20.22-3.82h19.11c12.32,0,26.72-1.57,32.78,2.07M997.35,417s.79-4.64-2.69-10c-3-4.58-5.72-5.64-13.54-5.89-22.07-.69-21.64,15.67-21.64,15.67Zm24.08-18.83c3.23,11.67-2.93,39.09-2.93,39.09s-32.2-.54-49.84,0c-5.49.17-12-.6-13.68,2-2.3,3.57.84,9.08,3.49,11.4,3.06,2.68,9,3,11.17,3.25,14.31,1.82,44.27.47,44.27.47l-5.19,23s-42.34,2.12-63.52-2.93a21.57,21.57,0,0,1-10.75-5.87,34,34,0,0,1-2-2.76,25.42,25.42,0,0,1-2.85-5.06c-4.84-12.89.56-37.58,5.86-50.81.62-1.53,1.39-3.48,2.2-5.13,1-2.06,1.88-4.39,2.69-5.62.54-.85,1.22-1.4,1.79-2.2a30.66,30.66,0,0,1,2.12-2.69,40.24,40.24,0,0,1,6.84-5.86c8.82-6.61,24.79-11.74,44-9.77,7.23.74,18.13,3.32,23.46,10.75,1.42,2,2.13,5.92,2.93,8.79Zm-116.75-18.6,24.72-.14s-13.75,65.2-20.75,97H880.37c-19.85,0-37.52,2.46-45-11.75-7.3-13.8-.34-36.49,2.93-51.9,2.32-10.91,7.18-33.21,7.18-33.21l25.55-.23S863.78,414,860.77,431.3c-1.07,6.19-3.29,12-1,16.61,2.2,4.36,5.28,4.67,14.66,4.89,3,.07,12.7,0,12.7,0l17.59-73.3M789.43,426.45c2.58-9.16,6.35-19.1,5.87-27.36-.52-8.83-7.93-16.88-12.71-18.57-14.39-5.08-27.87,2-33.22,7.82-6.93,7.51-9.28,16.27-11.73,28.34-1.83,9-3.32,18.42,0,25.41,5.88,12.35,24.23,9.65,44,9.77,2.93-7.85,5.35-16.68,7.81-25.41Zm34.21-36.15c2.81,20.46-8,43-15.42,62.69,7.58.68,14.23-.11,14.71.46.49.73-5.09,23.44-7,23.5-6,.16-26,.32-34.28.32-27.14,0-52.53,1.77-65.48-11.73-5.26-5.48-8.89-14.88-9.77-21.5-1.47-11,.37-23.2,2.93-33.22,2.32-9.05,5.29-17.59,9.77-25.41,11.41-19.91,31.25-34.68,64.5-31.27a61.92,61.92,0,0,1,21.5,6.84c.4.23,1.8,1.35,2.12,1.54,7.82,5,14.94,16.85,16.45,27.78ZM703.49,379.71c-1.63,7.44-3.27,15.88-5,23.23H671.26c2.11-8.15,3.73-16.26,5.84-23.35,8.71,0,26.37.12,26.37.12m-33.15,30.15H696.6C693.15,429,686.31,459.76,681,481.2c-3.35,13.42-5.59,23.21-14.66,30.29-.81.64-1.28.34-1.95,1-1.68,1.59-9.41,3.44-13.68,3.91-7,.75-14.83.1-23.38-.08,2.24-8.18,4.77-18,6.76-25.33,20.85,2.52,21.38-17.18,25.41-36.16,2.34-11,9.41-40.55,10.75-44.95"/><path class="cls-12" d="M608.64,459.68l-.56,1.47c-9.64,18.76-26.71,30.27-51.07,30.78a71.53,71.53,0,0,1-29.31-5.86,75.7,75.7,0,0,1-35.18-33.23c-10.08-19.52-11.9-46.66,9.06-66.94.32,0-2.55,4.4-2.22,4.4l-.58,1.87c-15.1,47.27,31.42,87.78,76.64,83.15,10.86-1.12,24.72-7.07,33.22-15.64"/><path class="cls-12" d="M581.28,440.14c11.38.07,23.26-5.24,30.29-12.71-6.15,15.63-24,25.67-47.88,22.48-20-2.68-39.08-22.82-41-43-1.44-14.69,3.68-23.45,12.11-34.09-2.93,5.56-4,9.85-4.3,12.59-3.2,31.77,25.38,54.56,50.82,54.73"/><path class="cls-12" d="M610.43,400.67c-1.77,4.06-11.95,11.72-16.45,12.68-17.8,3.79-29.2-4.65-35.18-14.26a43.38,43.38,0,0,1-2.82-6.35c-2.32-7.88-1.25-19.79,5.66-26-2.08,5.87-2.39,12.68-1.29,17.1a37.64,37.64,0,0,0,4.71,10.29c3.68,5.36,6,6.66,10.75,9.5a28.36,28.36,0,0,0,5.4,2.59c4.49,1.32,14,4.8,29.22-5.59"/></g><g id="Bootstrap"><path class="cls-13" d="M762.73,277.67a28,28,0,0,0,28,28H952.14a28,28,0,0,0,28-28V116.3a28,28,0,0,0-28-28H790.77a28,28,0,0,0-28,28V277.67Z"/><path class="cls-14" d="M852.93,184.46V153.67H880a42.29,42.29,0,0,1,7.47.65,18.72,18.72,0,0,1,6.36,2.3,12.35,12.35,0,0,1,4.43,4.61,15.39,15.39,0,0,1,1.66,7.56q0,8.29-5,12t-12.73,3.69Zm-29-53.32V262.83h63.82A67.53,67.53,0,0,0,905,260.62,46,46,0,0,0,920,253.79a33.54,33.54,0,0,0,10.42-11.89,36.18,36.18,0,0,0,3.88-17.25q0-12.36-6-21.11T910.1,191.27Q919,187,923.47,180.39t4.52-16.6q0-9.22-3-15.49a25.28,25.28,0,0,0-8.57-10.05,37,37,0,0,0-13.28-5.45,82.51,82.51,0,0,0-17.16-1.66Zm29,109.25V204.21H884.5q9.4,0,15.14,4.34T905.36,223a18.13,18.13,0,0,1-1.76,8.49,13.94,13.94,0,0,1-4.7,5.26,19.94,19.94,0,0,1-6.83,2.77,39,39,0,0,1-8.13.83Z"/></g><g id="Python"><path class="cls-15" d="M1138.65,88.26c-55.47,0-52,24.06-52,24.06l.06,25h53v7.45h-74s-35.5-4-35.5,52,31,54,31,54h18.55v-26s-1-31,30.49-31h52.44s29.5.48,29.5-28.51V117.27S1196.64,88.26,1138.65,88.26ZM1119,114.54h0a9.5,9.5,0,0,1-9.5,9.5h0a9.51,9.51,0,0,1-9.52-9.51h0a9.5,9.5,0,0,1,9.5-9.5h0A9.51,9.51,0,0,1,1119,114.54Z"/><path class="cls-16" d="M1140.21,305.71c55.5,0,52-24.06,52-24.06l-.06-24.93h-53v-7.53h74s35.52,4,35.52-52-31-54-31-54h-18.51v26.07s1,31-30.49,31h-52.53s-29.5-.48-29.5,28.5v47.92s-4.48,29,53.51,29Zm29.25-16.82a9.54,9.54,0,0,1-9.56-9.51h0a9.51,9.51,0,0,1,9.51-9.51h0a9.51,9.51,0,0,1,9.51,9.51v0a9.49,9.49,0,0,1-9.49,9.49Z"/></g><g id="JavaScript"><path class="cls-17" d="M712.73,128c-1.35,3.84-1.11,7.89-1.49,11.84-1.83,19.24-3.5,38.5-5.21,57.76q-2.22,25.08-4.42,50.16c-1.46,16.46-3,32.91-4.35,49.37-.19,2.17-1,3-3.12,3.6q-32.77,8.94-65.47,18.14a9.83,9.83,0,0,1-5.61,0q-32.84-9.18-65.72-18.23c-1.57-.44-2.41-1-2.58-2.9-2.84-32.66-5.82-65.3-8.73-97.95-2.2-24.77-4.32-49.55-6.6-74.31-.22-2.34.39-2.71,2.55-2.71q83.81.09,167.59,0c1,0,2.11-.06,3.16-.08ZM625.65,259c-7.83-1.57-15.42-4.06-23.18-5.9-1.18-.29-1.13-1.14-1.2-2-.36-4.29-.8-8.57-1.08-12.86-.12-2-.64-2.91-2.94-2.84-5.62.19-11.25.11-16.87,0-1.62,0-2.33.22-2.15,2.15q1.38,15.21,2.44,30.45c.12,1.63.83,2.07,2.12,2.41q6.23,1.63,12.44,3.35l30.4,8.48c0,6.69,0,13.38,0,20.06,0,1.53.26,2.33,2.11,1.81q27.07-7.56,54.19-15c1.1-.3,1.66-.7,1.76-1.88.5-5.83,1.08-11.66,1.57-17.5.58-7,1-14,1.66-20.93.79-8.79,1.76-17.56,2.55-26.35.63-7.14,1-14.31,1.66-21.46,1-10.7,2.16-21.39,3.08-32.1.84-9.75,1.48-19.52,2.65-29.25.22-1.8-.15-2.68-2.32-2.68q-33.25.12-66.52,0c-1.82,0-2.44.51-2.41,2.38.09,6.42,0,12.85,0,19.27-1,0-2.1.11-3.15.11-16.27,0-32.54,0-48.81,0-2,0-2.57.49-2.38,2.5.62,6.37,1.06,12.77,1.57,19.16.91.84,2,.45,3,.45,15.47,0,31,.08,46.42,0,2.6,0,3.42.54,3.4,3.3C625.59,209,625.64,234,625.65,259Z"/><path d="M645.6,86.77c4.2,3.32,7.76,6.25,11.46,9a4.1,4.1,0,0,1,1.86,4,63,63,0,0,0,0,6.59c.05,1.29-.42,1.62-1.66,1.61q-13.85-.07-27.7,0c-1.16,0-1.8-.18-1.75-1.56q.13-3.82,0-7.65c-.06-1.39.63-1.57,1.75-1.56,3.6,0,7.2,0,10.79,0,.27-1.11-.66-1.24-1.12-1.63-1.34-1.13-2.77-2.16-4.15-3.24-7.84-6.06-7.81-6.06-7.29-16,.07-1.33.51-1.58,1.71-1.58q14,.06,28,0c1.19,0,1.48.38,1.46,1.5-.07,3-.08,6,0,9,0,1.26-.36,1.66-1.64,1.64C653.67,86.72,650.06,86.77,645.6,86.77Z"/><path d="M622.9,91.34c0,4.84-.07,9.67,0,14.5,0,1.62-.41,2.1-2,2.08-8.88-.08-17.76-.06-26.64,0-1.4,0-2.07-.22-2-1.83.13-2.72.13-5.46,0-8.18-.08-1.63.63-1.85,2-1.83,4.39.06,8.79-.07,13.18.07,1.9,0,2.34-.6,2.31-2.39-.11-5.71,0-11.43-.08-17.14,0-1.44.3-2,1.85-1.93,3.16.12,6.33.11,9.5,0,1.47-.05,2,.37,1.92,1.89C622.84,81.49,622.9,86.42,622.9,91.34Z"/><path class="cls-18" d="M625.63,158.62c0-6.42.07-12.85,0-19.27,0-1.87.59-2.39,2.41-2.38q33.27.08,66.52,0c2.17,0,2.54.88,2.32,2.68-1.17,9.73-1.81,19.5-2.65,29.25-.92,10.71-2.11,21.4-3.08,32.1-.64,7.15-1,14.32-1.66,21.46-.79,8.79-1.76,17.56-2.55,26.35-.63,7-1.08,14-1.66,20.93-.49,5.84-1.07,11.67-1.57,17.5-.1,1.18-.66,1.58-1.76,1.88q-27.1,7.45-54.19,15c-1.85.52-2.12-.28-2.11-1.81,0-6.68,0-13.37,0-20.06l1.12-.53q21.19-5.81,42.41-11.56c1.15-.31,1.25-1,1.34-1.9q1.85-20.88,3.72-41.75c1.14-12.51,2.33-25,3.44-37.53.85-9.54,1.61-19.08,2.41-28.63.86-2.45-1.12-1.6-2-1.61Q651.84,158.63,625.63,158.62Z"/><path class="cls-18" d="M625.65,259c0-25-.06-50,.06-74.92,0-2.76-.8-3.32-3.4-3.3-15.47.12-30.95.06-46.42,0-1,0-2.12.39-3-.45l52.78-.09c1,0,1.93.12,2.89.12,8.7,0,17.4,0,26.09,0,1.49,0,2.12.14,1.94,2q-3.39,33.91-6.51,67.87c-.19,2.08-1,2.78-2.83,3.26-6.87,1.77-13.71,3.69-20.56,5.56Z"/><path class="cls-19" d="M625.65,259l1,.08a2.54,2.54,0,0,0-1.06,2.23c0,6.14,0,12.28,0,18.41,0,.88-.12,1.83,1.13,2l-1.12.53-30.4-8.48Q589,272,582.79,270.41c-1.29-.34-2-.78-2.12-2.41q-1-15.24-2.44-30.45c-.18-1.93.53-2.18,2.15-2.15,5.62.07,11.25.15,16.87,0,2.3-.07,2.82.87,2.94,2.84.28,4.29.72,8.57,1.08,12.86.07.88,0,1.73,1.2,2C610.23,254.92,617.82,257.41,625.65,259Z"/><path class="cls-19" d="M625.64,180.26l-52.78.09c-.51-6.39-1-12.79-1.57-19.16-.19-2,.38-2.51,2.38-2.5,16.27.08,32.54.05,48.81,0,1,0,2.1-.07,3.15-.11q26.21,0,52.41.11c.91,0,2.89-.84,2,1.61-.25-1.39-1.34-1.14-2.27-1.14-16.61,0-33.21,0-49.81,0-1.84,0-2.44.54-2.41,2.39C625.69,167.78,625.64,174,625.64,180.26Z"/><path class="cls-20" d="M625.64,180.26c0-6.24.05-12.48-.06-18.71,0-1.85.57-2.4,2.41-2.39,16.6.06,33.2,0,49.81,0,.93,0,2-.25,2.27,1.14-.8,9.55-1.56,19.09-2.41,28.63-1.11,12.51-2.3,25-3.44,37.53q-1.89,20.88-3.72,41.75c-.09.92-.19,1.59-1.34,1.9q-21.23,5.73-42.41,11.56c-1.25-.18-1.13-1.13-1.13-2,0-6.13,0-12.27,0-18.41a2.54,2.54,0,0,1,1.06-2.23c6.85-1.87,13.69-3.79,20.56-5.56,1.85-.48,2.64-1.18,2.83-3.26q3.11-34,6.51-67.87c.18-1.87-.45-2-1.94-2-8.69,0-17.39,0-26.09,0C627.57,180.38,626.61,180.3,625.64,180.26Z"/></g><g id="HTML"><path class="cls-21" d="M92.79,123c1.14,0,2.28.08,3.42.08q83.55,0,167.09-.06c2.74,0,3.11.82,2.88,3.26-2.35,25.51-4.59,51-6.88,76.55q-4.1,45.63-8.24,91.24c-.54,5.92-.56,5.92-6.15,7.47q-31.42,8.72-62.84,17.46a8.64,8.64,0,0,1-4.86,0q-32.93-9.19-65.87-18.29c-1.89-.52-2.62-1.26-2.79-3.31-1.59-18.89-3.34-37.76-5-56.64q-2.23-25-4.42-50.09T94.6,140.55c-.41-4.54-.79-9.09-1.23-13.63-.07-.63.29-1.46-.58-1.86Zm86.36,136.1c-7.45-1.95-14.89-3.94-22.36-5.84-1.31-.33-1.26-1.19-1.35-2.17-.41-4.54-.9-9.07-1.25-13.61-.12-1.57-.71-2-2.28-2-5.79.09-11.58.1-17.37,0-1.86,0-2.43.48-2.25,2.38,1,10.12,1.82,20.25,2.68,30.39a1.91,1.91,0,0,0,1.65,2Q158,276,179.28,282a2.46,2.46,0,0,1,.51.15q0,9.61,0,19.23c0,3.07,0,3.11,3,2.32s6.06-1.72,9.09-2.56q21.86-6.07,43.72-12.11c1-.27,1.54-.67,1.61-1.72.15-2.17.33-4.35.54-6.52q.69-7.17,1.18-14.35c.47-7,1.32-14.06,2-21.09.42-4.61.74-9.22,1.16-13.83.64-6.85,1.38-13.7,2-20.56s1.08-13.57,1.67-20.35c.64-7.38,1.36-14.76,2-22.14.41-4.51.78-9,1.2-13.55.46-5.13.93-10.25,1.45-15.36.18-1.82-.48-2.43-2.35-2.42q-32.94.08-65.88,0c-2.06,0-2.51.71-2.47,2.6.1,5.44-.07,10.89.09,16.34.06,2.26-.73,2.76-2.86,2.75-16.16-.08-32.33-.05-48.49,0-1,0-2.12-.39-3,.47,0,1.23,0,2.46.1,3.68q1.83,20.82,3.71,41.64c.62,6.72,1.33,13.43,2,20.14.89.86,2,.47,3,.47,14.22,0,28.44.06,42.66,0,2.1,0,2.91.44,2.88,2.73-.13,9.48-.05,19-.07,28.44C179.77,257.29,180.1,258.34,179.15,259.05Z"/><path d="M206.92,92.86l-7,10.83-7.14-10.88-.55.13c0,4.24-.1,8.48,0,12.72.07,1.94-.42,2.67-2.46,2.48a42.87,42.87,0,0,0-6.31,0c-1.52.08-2.14-.21-2.13-2,.1-9.83.08-19.67,0-29.51,0-1.43.45-1.89,1.78-1.69a2.25,2.25,0,0,0,.26,0c3.16,0,6.84-.92,9.31.4s3.42,4.9,5,7.49L200,86.43c2.1-3.42,4.11-6.55,5.95-9.78A3,3,0,0,1,209,74.94c2.63.12,5.27.09,7.9,0,1.26,0,1.65.35,1.65,1.62q-.07,14.9,0,29.78c0,1.37-.42,1.84-1.81,1.78-3-.13-6.78,1-8.71-.46s-.43-5.43-.57-8.29c-.1-2.13,0-4.27,0-6.41Z"/><path d="M109.14,91.41c0-4.83.08-9.66,0-14.49,0-1.7.49-2.07,2.06-2a64.86,64.86,0,0,0,7.11,0c1.55-.08,2.21.24,2.08,2-.17,2.36,0,4.74-.07,7.11-.06,1.45.33,2.06,1.89,2,2.19-.13,4.39-.09,6.58,0,1.15,0,1.54-.34,1.51-1.49-.07-2.63,0-5.27-.05-7.9,0-1.23.27-1.69,1.59-1.65,2.71.1,5.44.09,8.16,0,1.18,0,1.46.38,1.46,1.5q-.06,15,0,30c0,1.26-.39,1.8-1.65,1.61h-.26c-3,0-6.86,1-8.68-.44s-.51-5.58-.54-8.53c0-1.54-.28-2.23-2-2-2.58.29-6.06-1.1-7.55.55-1.28,1.42-.57,4.84-.38,7.35s-.45,3.51-3.09,3.15a19.64,19.64,0,0,0-5.25,0c-2.57.34-3-.77-2.92-3C109.25,100.55,109.14,96,109.14,91.41Z"/><path d="M161.36,75c4.48,0,8.95.07,13.43,0,1.5,0,1.94.41,1.87,1.89-.12,2.54-.1,5.09,0,7.63,0,1.27-.34,1.67-1.61,1.61-2.1-.1-4.21.07-6.31-.06-1.5-.08-1.92.39-1.89,1.89.09,6,0,11.93.07,17.9,0,1.82-.44,2.52-2.32,2.33-2.84-.3-6.57,1.19-8.32-.58s-.41-5.34-.46-8.13c-.07-3.6-.18-7.2,0-10.79.15-2.31-.66-2.84-2.76-2.62-1.74.18-3.51,0-5.26.06-1.25.05-1.91-.15-1.82-1.67.13-2.63.11-5.27,0-7.89,0-1.35.48-1.58,1.67-1.56C152.24,75,156.8,75,161.36,75Z"/><path d="M224,91.58c0-4.91,0-9.83,0-14.75,0-1.48.38-2,1.88-1.89,2.45.12,4.92.12,7.37,0,1.54-.08,1.91.45,1.89,1.93-.08,6,.07,11.94-.09,17.91-.06,2,.58,2.46,2.48,2.38,3.77-.15,7.55,0,11.32-.08,1.39,0,1.82.37,1.75,1.76-.14,3,1,6.88-.47,8.68s-5.6.5-8.55.55c-5.18.1-10.36,0-15.54.07-1.66,0-2.07-.47-2-2.07C224.05,101.24,224,96.41,224,91.58Z"/><path class="cls-22" d="M125.48,159.29c.89-.86,2-.47,3-.47,16.16,0,32.33-.06,48.49,0,2.13,0,2.92-.49,2.86-2.75-.16-5.45,0-10.9-.09-16.34,0-1.89.41-2.61,2.47-2.6q32.94.1,65.88,0c1.87,0,2.53.6,2.35,2.42-.52,5.11-1,10.23-1.45,15.36-.42,4.51-.79,9-1.2,13.55-.68,7.38-1.4,14.76-2,22.14-.59,6.78-1.06,13.57-1.67,20.35s-1.35,13.71-2,20.56c-.42,4.61-.74,9.22-1.16,13.83-.65,7-1.5,14-2,21.09q-.48,7.19-1.18,14.35c-.21,2.17-.39,4.35-.54,6.52-.07,1.05-.62,1.45-1.61,1.72q-21.87,6-43.72,12.11c-3,.84-6,1.75-9.09,2.56s-3,.75-3-2.32q0-9.61,0-19.23a12.69,12.69,0,0,1,1.21-.48c13.51-3.74,27-7.53,40.55-11.15,2.1-.56,2.8-1.57,2.91-3.55.2-3.5.53-7,.84-10.49,1.52-16.86,3-33.73,4.61-50.58.22-2.32-.35-2.9-2.72-2.89-15.8.09-31.61,0-47.41,0V181c16.66,0,33.32-.08,50,0,1.78,0,2.44-.46,2.57-2.25.41-5.68.86-11.36,1.53-17,.25-2-.21-2.54-2.23-2.53-12.81.09-25.61,0-38.42.05-4.64,0-9.29.09-13.93.13Z"/><path class="cls-19" d="M125.48,159.29l53.8.09q0,10.74,0,21.47c-9.21,0-18.43.12-27.65.05-1.94,0-2.6.36-2.37,2.45.65,5.75,1.14,11.52,1.57,17.29.13,1.82.63,2.53,2.64,2.5,8.61-.09,17.21,0,25.81.05q0,10.73,0,21.46l-48,.1c-.67-6.71-1.38-13.42-2-20.14q-1.9-20.82-3.71-41.64C125.47,161.75,125.51,160.52,125.48,159.29Z"/><path class="cls-20" d="M179.28,224.65q0-10.72,0-21.46l.51-.19c15.8,0,31.61.12,47.41,0,2.37,0,2.94.57,2.72,2.89-1.6,16.85-3.09,33.72-4.61,50.58-.31,3.49-.64,7-.84,10.49-.11,2-.81,3-2.91,3.55-13.54,3.62-27,7.41-40.55,11.15a12.69,12.69,0,0,0-1.21.48,2.46,2.46,0,0,0-.51-.15V259.48c7.51-2.05,15-4.13,22.53-6.1,1.38-.37,2.06-.86,2.19-2.39.62-7.85,1.28-15.71,2.12-23.54.24-2.34-.54-2.73-2.67-2.71C195.4,224.82,187.34,224.7,179.28,224.65Z"/><path class="cls-19" d="M179.28,259.48V282q-21.33-5.94-42.66-11.86a1.91,1.91,0,0,1-1.65-2c-.86-10.14-1.72-20.27-2.68-30.39-.18-1.9.39-2.42,2.25-2.38,5.79.1,11.58.09,17.37,0,1.57,0,2.16.43,2.28,2,.35,4.54.84,9.07,1.25,13.61.09,1,0,1.84,1.35,2.17,7.47,1.9,14.91,3.89,22.36,5.84C179.2,259.19,179.24,259.34,179.28,259.48Z"/><path class="cls-22" d="M179.28,259.48c0-.14-.08-.29-.13-.43.95-.71.62-1.76.62-2.68,0-9.48-.06-19,.07-28.44,0-2.29-.78-2.75-2.88-2.73-14.22.08-28.44.05-42.66,0-1,0-2.12.39-3-.47l48-.1c8.06,0,16.12.17,24.17.09,2.13,0,2.91.37,2.67,2.71-.84,7.83-1.5,15.69-2.12,23.54-.13,1.53-.81,2-2.19,2.39C194.29,255.35,186.79,257.43,179.28,259.48Z"/><path class="cls-20" d="M179.27,180.85q0-10.72,0-21.47c4.64,0,9.29-.12,13.93-.13,12.81,0,25.61,0,38.42-.05,2,0,2.48.48,2.23,2.53-.67,5.65-1.12,11.33-1.53,17-.13,1.79-.79,2.25-2.57,2.25-16.66,0-33.32,0-50,0Z"/><path class="cls-21" d="M179.27,180.85l.51.18v22l-.51.19c-8.6,0-17.2-.14-25.81-.05-2,0-2.51-.68-2.64-2.5-.43-5.77-.92-11.54-1.57-17.29-.23-2.09.43-2.46,2.37-2.45C160.84,181,170.06,180.88,179.27,180.85Z"/></g><g id="CSS"><path class="cls-23" d="M403,122.82q41.94,0,83.89,0c2.28,0,2.7.55,2.49,2.78-1.79,19-3.43,38-5.14,57s-3.43,37.79-5.11,56.69q-2.23,25.07-4.42,50.14c-.25,2.89-.65,5.77-.78,8.66-.07,1.55-.81,2-2.14,2.4q-33.75,9.3-67.48,18.67a5.49,5.49,0,0,1-3.06,0q-33.72-9.39-67.46-18.69a2.37,2.37,0,0,1-2.09-2.45q-3.89-44.9-7.93-89.78-3.69-41.48-7.45-82.94c-.2-2.08.28-2.47,2.26-2.46Q360.75,122.87,403,122.82Zm-50.61,80.1q.82,10.77,1.66,21.54c.77,1.12,1.93.58,2.9.59q21.45,0,42.9,0c1.48,0,2.72-.14,2.7,2.08-.1,9.74,0,19.48,0,29.22,0,.87.14,1.82-1.09,2-7-1.86-14.05-3.81-21.12-5.52-2-.47-2.44-1.51-2.56-3.25-.31-4.38-.81-8.74-1.08-13.12-.09-1.46-.51-2-2-1.94-6.33.07-12.65.05-19,0-1.25,0-1.65.3-1.52,1.64,1,10.22,2,20.45,2.78,30.68.16,2.05.92,2.72,2.8,3.23,14.27,3.93,28.5,8,42.75,12,0,6.59.07,13.18,0,19.77,0,2.07.47,2.56,2.6,2q26.79-7.55,53.65-14.85c1.66-.45,1.7-1.39,1.79-2.68q.5-7.33,1.13-14.65c.64-7.23,1.36-14.44,2-21.67.42-4.61.75-9.24,1.17-13.85.64-7,1.36-13.92,2-20.88.6-6.7,1.1-13.42,1.69-20.13.64-7.31,1.36-14.62,2-21.93.41-4.53.74-9.06,1.17-13.59q.94-10.17,2-20.35c.18-1.72-.44-2.28-2.19-2.28q-33.22.07-66.45,0c-2,0-2.59.72-2.57,2.63.07,6.51,0,13,0,19.52-17,0-34.09.12-51.14,0-2.57,0-2.86.85-2.6,3,.59,5,1,10,1.44,14.94.31,3.66.27,3.66,4,3.66l48.24.07c0,6.23-.08,12.47.09,18.69.07,2.33-.6,3-2.94,2.95-14.74-.11-29.49-.06-44.23,0C354.35,202.45,353.23,202,352.35,202.92Z"/><path d="M399.88,96.6c-3.71-2.87-7.39-5.78-11.15-8.57a3.46,3.46,0,0,1-1.64-3.25c.13-2.71.11-5.44,0-8.16-.06-1.42.27-2,1.83-1.94q13.69.12,27.39,0c1.53,0,1.94.45,1.88,1.93-.11,2.72-.14,5.45,0,8.16.09,1.7-.54,2.07-2.11,2-3.5-.1-7,0-11.23,0,3.93,3.11,7.32,5.91,10.85,8.53,1.75,1.3,2.81,2.64,2.49,5s1,5.59-.49,7.1-4.65.44-7.08.46c-7.11.06-14.22,0-21.33.06-1.66,0-2.36-.32-2.22-2.13a34.1,34.1,0,0,0,0-6.31c-.23-2.16.72-2.43,2.53-2.36,3.37.13,6.74,0,10.11,0Z"/><path d="M435.48,96.56c-3.75-2.89-7.48-5.82-11.27-8.65a3.29,3.29,0,0,1-1.5-3.09c.1-2.71.09-5.44,0-8.16,0-1.39.24-2,1.84-2,9.13.08,18.26.07,27.39,0,1.32,0,1.85.27,1.79,1.71-.12,2.8-.15,5.62,0,8.42.09,1.76-.63,2-2.14,2-3.47-.1-6.94,0-11.14,0,4.25,3.35,7.9,6.28,11.63,9.12a3.47,3.47,0,0,1,1.64,3.26c-.13,2.37-.09,4.75,0,7.11,0,1.27-.39,1.65-1.65,1.64q-13.83-.08-27.66,0c-1.24,0-1.73-.34-1.69-1.63.07-2.45.09-4.91,0-7.37,0-1.4.45-1.81,1.82-1.78,3.63.07,7.27,0,10.91,0Z"/><path d="M351.78,91.13c0-4.74.06-9.49,0-14.24,0-1.61.26-2.24,2.1-2.22,8.78.11,17.58.09,26.37,0,1.61,0,2.35.24,2.22,2.09a59,59,0,0,0,0,7.64c.09,1.69-.36,2.27-2.15,2.22-4.39-.13-8.79,0-13.18-.08-1.63,0-2.17.46-2.06,2.09.17,2.7-.85,6.22.49,7.9s5.09.46,7.78.57a65,65,0,0,0,7.12,0c1.7-.11,2.08.53,2,2.1a60.21,60.21,0,0,0,0,6.85c.09,1.57-.53,1.86-2,1.85-8.88-.05-17.76-.07-26.64,0-1.58,0-2.12-.32-2.08-2C351.85,101,351.78,96.06,351.78,91.13Z"/><path class="cls-24" d="M402.45,159.14c0-6.51.06-13,0-19.52,0-1.91.6-2.63,2.57-2.63q33.23.07,66.45,0c1.75,0,2.37.56,2.19,2.28q-1,10.17-2,20.35c-.43,4.53-.76,9.06-1.17,13.59-.66,7.31-1.38,14.62-2,21.93-.59,6.71-1.09,13.43-1.69,20.13-.62,7-1.34,13.92-2,20.88-.42,4.61-.75,9.24-1.17,13.85-.66,7.23-1.38,14.44-2,21.67q-.64,7.32-1.13,14.65c-.09,1.29-.13,2.23-1.79,2.68q-26.85,7.32-53.65,14.85c-2.13.6-2.62.11-2.6-2,.07-6.59,0-13.18,0-19.77l1.1-.52c14.12-3.87,28.23-7.77,42.36-11.58,1.27-.34,1.39-1,1.47-2.06.33-4.11.71-8.22,1.08-12.33q2.07-22.93,4.12-45.88,1.28-14.42,2.46-28.84c.58-7.08,1.12-14.16,1.68-21.24-.75-.95-1.79-.46-2.68-.46Q428.25,159.14,402.45,159.14Z"/><path class="cls-19" d="M403.54,281.6l-1.1.52c-14.25-4-28.48-8.07-42.75-12-1.88-.51-2.64-1.18-2.8-3.23-.81-10.23-1.79-20.46-2.78-30.68-.13-1.34.27-1.65,1.52-1.64,6.33,0,12.65.06,19,0,1.5,0,1.92.48,2,1.94.27,4.38.77,8.74,1.08,13.12.12,1.74.59,2.78,2.56,3.25,7.07,1.71,14.08,3.66,21.12,5.52.42.5,1,.41,1.58.49,0,6.67,0,13.34,0,20C403,279.81,402.63,280.85,403.54,281.6Z"/><path class="cls-19" d="M402.45,159.14q25.79,0,51.58.07c.89,0,1.93-.49,2.68.46-17,0-34.06,0-51.08,0-2,0-2.78.43-2.73,2.61.16,6.14.07,12.29.07,18.43l-.54.16-48.24-.07c-3.77,0-3.73,0-4-3.66-.43-5-.85-10-1.44-14.94-.26-2.17,0-3,2.6-3C368.36,159.26,385.41,159.16,402.45,159.14Z"/><path class="cls-19" d="M354,224.46q-.84-10.77-1.66-21.54L403,203v21.56Z"/><path class="cls-24" d="M354,224.46l49,.07c1,0,1.92.11,2.89.11q10.67,0,21.34,0c1.21,0,2.23-.12,2,1.72-.86,7.85-1.7,15.7-2.33,23.57-.15,2-.94,2.63-2.67,3.09-7.1,1.89-14.18,3.9-21.27,5.87-.55-.08-1.16,0-1.58-.49,1.23-.21,1.09-1.16,1.09-2,0-9.74-.06-19.48,0-29.22,0-2.22-1.22-2.08-2.7-2.08q-21.45,0-42.9,0C355.94,225,354.78,225.58,354,224.46Z"/><path class="cls-24" d="M403,203l-50.62-.05c.88-.9,2-.47,3-.47,14.74,0,29.49-.08,44.23,0,2.34,0,3-.62,2.94-2.95-.17-6.22-.08-12.46-.09-18.69l.54-.16c9.22,0,18.44.11,27.65,0,2.11,0,3.09.07,2.65,2.77a131.41,131.41,0,0,0-1.64,15.95c-.12,3-1.2,3.52-3.91,3.47C419.47,202.78,411.22,202.93,403,203Z"/><path class="cls-20" d="M403,203c8.25,0,16.5-.19,24.75-.05,2.71.05,3.79-.47,3.91-3.47a131.41,131.41,0,0,1,1.64-15.95c.44-2.7-.54-2.78-2.65-2.77-9.21.06-18.43,0-27.65,0,0-6.14.09-12.29-.07-18.43,0-2.18.73-2.62,2.73-2.61,17,.06,34.05,0,51.08,0-.56,7.08-1.1,14.16-1.68,21.24q-1.2,14.42-2.46,28.84-2,23-4.12,45.88c-.37,4.11-.75,8.22-1.08,12.33-.08,1-.2,1.72-1.47,2.06-14.13,3.81-28.24,7.71-42.36,11.58-.91-.75-.57-1.79-.57-2.71,0-6.67,0-13.34,0-20,7.09-2,14.17-4,21.27-5.87,1.73-.46,2.52-1.11,2.67-3.09.63-7.87,1.47-15.72,2.33-23.57.2-1.84-.82-1.72-2-1.72q-10.68,0-21.34,0c-1,0-1.93-.07-2.89-.11Z"/></g></g></g></svg>