<svg xmlns="http://www.w3.org/2000/svg" xmlns:xlink="http://www.w3.org/1999/xlink" viewBox="0 0 153.81 150"><defs><style>.cls-1{fill:url(#radial-gradient);}.cls-2{fill:#31c5f0;}</style><radialGradient id="radial-gradient" cx="-4246.67" cy="-2898.18" r="0.05" gradientTransform="matrix(2287.08, 0, 0, -2214.31, 9712531.84, -6417433.17)" gradientUnits="userSpaceOnUse"><stop offset="0" stop-color="#34364e" stop-opacity="0.98"/><stop offset="1" stop-color="#0c0824"/></radialGradient></defs><title>skills-bullet-photoshop</title><g id="Layer_2" data-name="Layer 2"><g id="Intro"><g id="photoshop"><path class="cls-1" d="M6.4,6.4h141V143.54H6.4Z"/><path class="cls-2" d="M6.4,6.4h141V143.54H6.4ZM0,150H153.81V0H0ZM103.69,61.54c-5.06,0-6.79,2.56-6.79,4.67,0,2.31,1.15,3.91,7.94,7.43C114.9,78.51,118,83.18,118,90c0,10.24-7.81,15.75-18.38,15.75-5.57,0-10.37-1.15-13.12-2.75-.45-.19-.52-.51-.52-1V92.6c0-.64.32-.83.77-.51a23.83,23.83,0,0,0,12.87,3.77c5.06,0,7.18-2.11,7.18-5,0-2.31-1.48-4.36-8-7.69C89.79,78.83,86,74.41,86,67.05c0-8.26,6.47-15.12,17.68-15.12,5.51,0,9.35.84,11.46,1.8a1.42,1.42,0,0,1,.64,1.28v8.77c0,.51-.32.83-1,.64a21.66,21.66,0,0,0-11.14-2.88ZM48.54,69.15c1.48.13,2.63.13,5.2.13,7.49,0,14.54-2.63,14.54-12.82,0-8.14-5.06-12.24-13.58-12.24-2.57,0-5,.13-6.16.19Zm-11.38-34c0-.45.9-.77,1.41-.77,4.09-.19,10.17-.32,16.5-.32,17.72,0,24.62,9.74,24.62,22.17,0,16.28-11.76,23.26-26.22,23.26-2.43,0-3.26-.13-5-.13V104c0,.51-.19.77-.77.77H37.93c-.51,0-.77-.2-.77-.77V35.13Z"/></g></g></g></svg>