<svg xmlns="http://www.w3.org/2000/svg" viewBox="0 0 132.15 150"><defs><style>.cls-1{fill:#0070b9;}.cls-2{fill:#29a7df;}.cls-3{fill:#eaeaea;}.cls-4{fill:#fefefe;}</style></defs><title>skills-bullet-css</title><g id="Layer_2" data-name="Layer 2"><g id="Intro"><path class="cls-1" d="M66.19,0q32,0,64,0c1.74,0,2.07.42,1.91,2.12-1.37,14.49-2.62,29-3.93,43.47s-2.61,28.85-3.9,43.27c-1.14,12.76-2.24,25.51-3.37,38.27-.19,2.2-.49,4.4-.59,6.61-.06,1.18-.62,1.55-1.64,1.83q-25.75,7.1-51.5,14.25a4.14,4.14,0,0,1-2.34,0q-25.72-7.16-51.48-14.26a1.81,1.81,0,0,1-1.6-1.87q-3-34.28-6-68.52Q2.9,33.54,0,1.89C-.12.3.25,0,1.76,0Q34,.09,66.19,0ZM27.56,61.17q.63,8.22,1.27,16.44c.59.86,1.47.45,2.21.45q16.38,0,32.75,0c1.13,0,2.07-.1,2.05,1.59-.07,7.43,0,14.86,0,22.3,0,.66.12,1.39-.83,1.55-5.37-1.42-10.72-2.91-16.12-4.21a2.27,2.27,0,0,1-2-2.48c-.24-3.35-.62-6.68-.83-10-.06-1.11-.39-1.49-1.53-1.48-4.83.06-9.66,0-14.49,0-.95,0-1.26.23-1.16,1.25.76,7.8,1.51,15.61,2.13,23.42.12,1.57.7,2.07,2.13,2.47,10.89,3,21.76,6.08,32.63,9.15,0,5,.06,10.06,0,15.09,0,1.58.36,1.95,2,1.5q20.46-5.76,41-11.34c1.26-.34,1.29-1.06,1.36-2q.38-5.6.87-11.19c.48-5.51,1-11,1.53-16.53.32-3.52.58-7,.9-10.58.49-5.31,1-10.62,1.51-15.93.46-5.12.84-10.24,1.29-15.36.49-5.58,1-11.16,1.54-16.74.31-3.46.57-6.92.89-10.37q.72-7.77,1.52-15.53c.14-1.32-.33-1.75-1.67-1.75q-25.35.06-50.71,0c-1.51,0-2,.55-2,2,.06,5,0,9.93,0,14.9-13,0-26,.09-39,0-2,0-2.18.64-2,2.3.45,3.79.77,7.6,1.1,11.4.24,2.8.21,2.8,3.09,2.8l36.81,0c0,4.76-.06,9.52.08,14.27,0,1.78-.47,2.26-2.25,2.25-11.25-.08-22.51-.05-33.76,0C29.09,60.81,28.23,60.49,27.56,61.17Z"/><path class="cls-2" d="M65.8,27.76c0-5,0-9.93,0-14.9,0-1.46.46-2,2-2q25.35.06,50.71,0c1.34,0,1.81.43,1.67,1.75q-.8,7.76-1.52,15.53c-.32,3.45-.58,6.91-.89,10.37-.51,5.58-1,11.16-1.54,16.74-.45,5.12-.83,10.24-1.29,15.36-.48,5.31-1,10.62-1.51,15.93-.32,3.53-.58,7.06-.9,10.58-.5,5.51-1,11-1.53,16.53q-.49,5.6-.87,11.19c-.07,1-.1,1.7-1.36,2q-20.51,5.58-41,11.34c-1.62.45-2,.08-2-1.5.06-5,0-10.06,0-15.09l.84-.4c10.78-3,21.55-5.92,32.33-8.83,1-.26,1.06-.8,1.12-1.58.26-3.14.55-6.27.83-9.41q1.57-17.5,3.14-35,1-11,1.88-22,.66-8.1,1.28-16.21c-.57-.72-1.37-.35-2-.35Q85.48,27.75,65.8,27.76Z"/><path class="cls-3" d="M66.63,121.22l-.84.4c-10.87-3.07-21.74-6.16-32.63-9.15-1.43-.4-2-.9-2.13-2.47-.62-7.81-1.37-15.62-2.13-23.42-.1-1,.21-1.26,1.16-1.25,4.83,0,9.66,0,14.49,0,1.14,0,1.47.37,1.53,1.48.21,3.34.59,6.67.83,10a2.27,2.27,0,0,0,2,2.48c5.4,1.3,10.75,2.79,16.12,4.21.32.38.79.32,1.21.37,0,5.09,0,10.18,0,15.28C66.2,119.86,65.94,120.65,66.63,121.22Z"/><path class="cls-3" d="M65.8,27.76q19.68,0,39.37,0c.67,0,1.47-.37,2,.35-13,0-26,0-39,0-1.52,0-2.12.33-2.08,2,.12,4.69,0,9.38.06,14.07l-.41.12L29,44.27c-2.88,0-2.85,0-3.09-2.8-.33-3.8-.65-7.61-1.1-11.4-.19-1.66,0-2.31,2-2.3C39.78,27.85,52.79,27.78,65.8,27.76Z"/><path class="cls-3" d="M28.83,77.61q-.64-8.22-1.27-16.44l38.63,0V77.67Z"/><path class="cls-2" d="M28.83,77.61l37.36.06c.74,0,1.47.08,2.21.08q8.14,0,16.29,0c.92,0,1.7-.1,1.55,1.31-.66,6-1.3,12-1.78,18a2.26,2.26,0,0,1-2,2.35c-5.42,1.44-10.82,3-16.23,4.48-.42,0-.89,0-1.21-.37,1-.16.83-.89.83-1.55,0-7.44,0-14.87,0-22.3,0-1.69-.92-1.59-2.05-1.59q-16.38,0-32.75,0C30.3,78.06,29.42,78.47,28.83,77.61Z"/><path class="cls-2" d="M66.19,61.21l-38.63,0c.67-.68,1.53-.36,2.29-.36,11.25,0,22.51-.05,33.76,0,1.78,0,2.29-.47,2.25-2.25-.14-4.75-.07-9.51-.07-14.27l.41-.12c7,0,14.07.09,21.1,0,1.61,0,2.36,0,2,2.11a99.38,99.38,0,0,0-1.25,12.17c-.09,2.29-.92,2.69-3,2.65C78.79,61.06,72.49,61.18,66.19,61.21Z"/><path class="cls-4" d="M66.19,61.21c6.3,0,12.6-.15,18.89,0,2.07,0,2.9-.36,3-2.65a99.38,99.38,0,0,1,1.25-12.17c.34-2.06-.41-2.12-2-2.11-7,0-14.07,0-21.1,0,0-4.69.06-9.38-.06-14.07,0-1.66.56-2,2.08-2,13,.05,26,0,39,0q-.63,8.11-1.28,16.21-.92,11-1.88,22-1.55,17.51-3.14,35c-.28,3.14-.57,6.27-.83,9.41-.06.78-.15,1.32-1.12,1.58-10.78,2.91-21.55,5.88-32.33,8.83-.69-.57-.43-1.36-.44-2.06,0-5.1,0-10.19,0-15.28,5.41-1.5,10.81-3,16.23-4.48a2.26,2.26,0,0,0,2-2.35c.48-6,1.12-12,1.78-18,.15-1.41-.63-1.32-1.55-1.31q-8.14,0-16.29,0c-.74,0-1.47-.06-2.21-.08Z"/></g></g></svg>