<svg xmlns="http://www.w3.org/2000/svg" xmlns:xlink="http://www.w3.org/1999/xlink" viewBox="0 0 157.82 157"><defs><style>.cls-1{fill:url(#linear-gradient);}.cls-2{fill:url(#linear-gradient-2);}</style><linearGradient id="linear-gradient" x1="-2863.39" y1="-2566.19" x2="-2863.35" y2="-2566.23" gradientTransform="matrix(1849.27, 0, 0, -1853.39, 5295189.45, -4756145.36)" gradientUnits="userSpaceOnUse"><stop offset="0" stop-color="#387eb8"/><stop offset="1" stop-color="#366994"/></linearGradient><linearGradient id="linear-gradient-2" x1="-2863.71" y1="-2565.88" x2="-2863.67" y2="-2565.92" gradientTransform="matrix(1849.27, 0, 0, -1853.39, 5295833.05, -4755518.37)" gradientUnits="userSpaceOnUse"><stop offset="0" stop-color="#ffe052"/><stop offset="1" stop-color="#ffc331"/></linearGradient></defs><title>skills-bullet-python</title><g id="Layer_2" data-name="Layer 2"><g id="Intro"><g id="Python"><path class="cls-1" d="M78.32,0C38.26,0,40.76,17.37,40.76,17.37l.05,18H79.05v5.38H25.63S0,37.86,0,78.28s22.37,39,22.37,39h13.4V98.51s-.72-22.37,22-22.37H95.65s21.3.34,21.3-20.59V20.94S120.18,0,78.32,0ZM64.11,19h0a6.86,6.86,0,0,1-6.86,6.85h0A6.87,6.87,0,0,1,50.38,19h0a6.86,6.86,0,0,1,6.86-6.86h0A6.87,6.87,0,0,1,64.11,19Z"/><path class="cls-2" d="M79.44,157c40.07,0,37.57-17.37,37.57-17.37l0-18H78.73v-5.44h53.44s25.65,2.91,25.65-37.51-22.39-39-22.39-39H122.07V58.52s.72,22.36-22,22.36H62.13s-21.3-.34-21.3,20.58v34.6S37.59,157,79.46,157Zm21.12-12.15a6.88,6.88,0,0,1-6.9-6.86h0a6.87,6.87,0,0,1,6.87-6.87h0a6.86,6.86,0,0,1,6.86,6.87h0a6.85,6.85,0,0,1-6.85,6.85Z"/></g></g></g></svg>