<svg xmlns="http://www.w3.org/2000/svg" viewBox="0 0 150.04 150"><defs><style>.cls-1{fill:#56676e;}.cls-2{fill:#4e4f50;}</style></defs><title>skills-bullet-replit</title><g id="Layer_2" data-name="Layer 2"><g id="Intro"><path class="cls-1" d="M145.24,48.82c4.88,74-73.09,63.84-73.09,63.84,53.55.76,76.13-100.72-10.75-111.37a74.63,74.63,0,0,1,83.84,47.53Z"/><path class="cls-1" d="M112,79.31s18.42-77.5-64.48-74A74.05,74.05,0,0,0,.77,85.05C18.22-2.63,117.6,25.77,112,79.31Z"/><path class="cls-1" d="M5,102.15c-1.19-84.72,76.64-63,76.64-63-53.42-7.78-86.62,89.71.71,110.5-2.43.24-4.89.37-7.38.37h-.38a74.18,74.18,0,0,1-9.88-.77c-1-.13-1.93-.27-2.89-.44a74.79,74.79,0,0,1-9.33-2.2c-.36-.11-.71-.25-1.05-.38h0c-.27-.11-.53-.21-.8-.3a74,74,0,0,1-7.5-3l-.56-.26c-.66-.31-1.31-.62-1.95-1a74.41,74.41,0,0,1-8.21-4.86l-.61-.46h0l-.51-.38a74.24,74.24,0,0,1-7.11-5.79l-.4-.36,0,0h0l-.59-.53A75,75,0,0,1,5,102.15Z"/><path class="cls-1" d="M101.17,145c-83.6-.67-62.75-77.38-62.75-77.38C29.9,120.8,127.61,154.8,149.69,68c.21,2.27.35,4.56.35,6.88,0,.28,0,.56,0,.84h0c0,.24,0,.49,0,.74-.05,2-.11,4.07-.31,6.07A74.87,74.87,0,0,1,101.16,145Z"/><path class="cls-2" d="M96,74.88a21,21,0,1,1-6.15-14.83A21,21,0,0,1,96,74.88Z"/></g></g></svg>