<svg xmlns="http://www.w3.org/2000/svg" viewBox="0 0 183.46 150"><defs><style>.cls-1{fill:#fff;}</style></defs><title>skills-bullet-terminal</title><g id="Layer_2" data-name="Layer 2"><g id="Intro"><g id="terminal"><rect width="183.46" height="150" rx="3.58" ry="3.58"/><path class="cls-1" d="M20.24,15.6a3.15,3.15,0,0,0-4.45,4.45l9.64,9.63L15.8,39.31a3.14,3.14,0,0,0,0,4.45,3.13,3.13,0,0,0,2.22.93,3,3,0,0,0,2.24-.93L31,33.05q3.36-3.36,0-6.74Zm42,23.73A5.56,5.56,0,0,0,60,38.4v0H39.26a3.18,3.18,0,0,0-3.17,3.26A3.1,3.1,0,0,0,37,43.71a3,3,0,0,0,2.3,1H59.88v.05a3.11,3.11,0,0,0,2.32-.93,3.06,3.06,0,0,0,.93-2.25,3,3,0,0,0-.93-2.23Z"/></g></g></g></svg>