<svg xmlns="http://www.w3.org/2000/svg" xmlns:xlink="http://www.w3.org/1999/xlink" viewBox="0 0 153.81 150"><defs><style>.cls-1{fill:url(#radial-gradient);}.cls-2{fill:#ff7f18;}</style><radialGradient id="radial-gradient" cx="-3762.84" cy="-2898.18" r="0.05" gradientTransform="matrix(2287.08, 0, 0, -2214.31, 8605975.97, -6417433.17)" gradientUnits="userSpaceOnUse"><stop offset="0" stop-color="#423325" stop-opacity="0.98"/><stop offset="1" stop-color="#1c0a00"/></radialGradient></defs><title>skills-bullet-illustrator</title><g id="Layer_2" data-name="Layer 2"><g id="Intro"><g id="illustrator"><path class="cls-1" d="M6.4,6.46h141V143.6H6.4Z"/><path class="cls-2" d="M6.4,6.46h141V143.6H6.4ZM0,150H153.81V0H0ZM100.72,53.47c0-.5.18-.74.74-.74h10.12c.51,0,.77.19.77.77v50.57c0,.51-.13.77-.77.77h-10c-.64,0-.83-.32-.83-.83V53.47ZM100,38.92a6.54,6.54,0,0,1,13.08,0c0,4.23-2.76,6.54-6.67,6.54C102.73,45.46,100,43.15,100,38.92ZM71.2,74.57c-1.8-7.12-6-22.64-7.63-30.15h-.13C62.09,51.93,58.69,64.63,56,74.57ZM53.37,85,48.31,104.2c-.13.51-.32.64-1,.64H37.93c-.64,0-.77-.19-.64-1l18.2-63.71a20.86,20.86,0,0,0,.64-5.32c0-.45.19-.64.51-.64H70.1c.45,0,.64.13.77.64L91.26,104c.12.51,0,.83-.52.83H80.11c-.52,0-.84-.13-1-.58L73.89,85Z"/></g></g></g></svg>