<svg xmlns="http://www.w3.org/2000/svg" xmlns:xlink="http://www.w3.org/1999/xlink" viewBox="0 0 2291.65 2350.19"><defs><style>.cls-1{fill:url(#linear-gradient);}.cls-2{fill:none;stroke:#c8c8c8;stroke-width:0.5px;}.cls-3{fill:url(#linear-gradient-2);}.cls-4{fill:#f91d0a;}.cls-5{fill:#1a171b;}.cls-6{fill:url(#linear-gradient-3);}.cls-7{fill:url(#linear-gradient-4);}.cls-8{fill:#fff9f9;}</style><linearGradient id="linear-gradient" x1="-1002.03" y1="436.54" x2="-832.58" y2="743.57" gradientTransform="matrix(3.86, 0, 0, -3.86, 4902.26, 3528.04)" gradientUnits="userSpaceOnUse"><stop offset="0" stop-color="#fff"/><stop offset="1" stop-color="#e1e1e1"/></linearGradient><linearGradient id="linear-gradient-2" x1="-786.99" y1="803.44" x2="-760.88" y2="827.51" gradientTransform="matrix(3.86, 0, 0, -3.86, 4898.5, 3522.52)" gradientUnits="userSpaceOnUse"><stop offset="0" stop-color="#fff"/><stop offset="1" stop-color="#c8c8c8"/></linearGradient><linearGradient id="linear-gradient-3" x1="-1625.52" y1="371.55" x2="-1706.01" y2="123.82" gradientTransform="translate(7253.74 -519.41) scale(3.86)" gradientUnits="userSpaceOnUse"><stop offset="0.13" stop-color="#8a0000"/><stop offset="0.24" stop-color="#900000"/><stop offset="0.4" stop-color="#a00000"/><stop offset="0.57" stop-color="#bc0000"/><stop offset="0.76" stop-color="#e20000"/><stop offset="0.87" stop-color="#fa0000"/></linearGradient><linearGradient id="linear-gradient-4" x1="-1622.12" y1="381.37" x2="-1708.99" y2="113.99" gradientTransform="translate(7253.74 -519.41) scale(3.86)" gradientUnits="userSpaceOnUse"><stop offset="0.32" stop-color="#5e0000"/><stop offset="0.44" stop-color="#830000"/><stop offset="0.62" stop-color="#ae0000"/><stop offset="0.78" stop-color="#cd0000"/><stop offset="0.91" stop-color="#e00000"/><stop offset="1" stop-color="#e70000"/></linearGradient></defs><title>icon-pdf</title><g id="Layer_2" data-name="Layer 2"><g id="Layer_1-2" data-name="Layer 1"><path class="cls-1" d="M520.93.25H1594.62C1833,169.56,2105.13,422.46,2291.4,698.18V2349.94H520.93V.25Z"/><path class="cls-2" d="M520.93.25H1594.62C1833,169.56,2105.13,422.46,2291.4,698.18V2349.94H520.93V.25Z"/><path class="cls-3" d="M1594.62.25c259.27,188.68,506.15,421.1,696.78,697.93-123.47-128.24-292.78-196.7-493.69-187.91,23.74-237.79-68-391.35-203.09-510Z"/><path class="cls-2" d="M1594.62.25c259.27,188.68,506.15,421.1,696.78,697.93-123.47-128.24-292.78-196.7-493.69-187.91,23.74-237.79-68-391.35-203.09-510Z"/><path class="cls-4" d="M1146.31,1545.63c43.16-84.59,92.2-179.89,131.46-275.58l15.52-37.77c-51.27-195.13-82-351.76-54.55-453,7.4-26.4,38-42.42,70.67-42.42l19.92.29H1333c44.76-.69,65.84,56.26,68.23,78.39,4,36.87-13.11,99.27-13.11,99.27,0-25.2,1-65.91-14.91-101-18.52-40.65-36.2-64.94-52-68.79-8,5.35-15.79,16.42-18.45,37.72-5.52,29.86-7.17,67.55-7.17,87,0,68.65,13.51,159.25,40.08,252.66,5-14.46,9.42-28.36,12.93-41.38,5.44-20.51,40.07-156.52,40.07-156.52s-8.72,181.05-20.91,235.83c-2.62,11.57-5.5,23-8.5,34.74,43.8,122.39,114.38,231.62,198.58,310.24,33.2,31,75.13,56,114.81,78.84,86.66-12.38,166.45-18.23,233-17.49,88.31,1.16,153.13,14.22,179.39,40.08,12.85,12.57,18.07,27.75,19.69,44.76.39,6.62-2.84,22.18-3.78,26.08.94-4.72.94-28-70-50.59-55.84-17.84-160.33-17.29-285.72-3.94,145,71,286.32,106.21,331.1,85.07,11-5.33,24.23-23.53,24.23-23.53s-7.89,35.86-13.57,44.83c-7.23,9.74-21.42,20.29-34.87,23.85-70.71,18.87-254.79-24.8-415.26-116.49-179.29,26.41-376.18,75.18-534,126.95-155.1,271.81-271.7,396.64-366.56,349.15l-34.87-17.53c-14.18-8.12-16.34-27.85-13.07-43.92,11.06-54.11,78.91-135.61,215.2-217,14.67-8.88,80-43.43,80-43.43s-48.38,46.82-59.71,56c-108.79,89.14-189.08,201.29-187.07,244.77l.39,3.79c92.41-13.17,231-201.25,409.14-549.84m56.46,28.91c-29.76,56-58.84,108-85.69,155.71,148.53-62.23,308.4-102,460.58-130.35-20.45-14.12-40.3-29.07-59-44.88-83.8-71-147.69-159.47-194-252.62-29.36,79.13-64.29,163.22-121.89,272.14"/><path class="cls-4" d="M2137.21,1789.88h5.73c6.36,0,11.79-1.92,11.79-7.42,0-4.38-2.76-7.42-10.95-7.42a30.21,30.21,0,0,0-6.57.59v14.25Zm0,25.72h-8.5v-45.77a94.38,94.38,0,0,1,15.92-1.3c7.66,0,11.47,1.3,14.46,3.51a11.7,11.7,0,0,1,4.68,9.64c0,5.75-4.05,9.26-9,11v.53c4.14,1.63,6.35,5.22,7.74,11,1.3,7.12,2.15,9.88,3.28,11.48H2157c-1.38-1.6-2.46-5.74-3.6-12-1.06-5-4.05-7.12-10.64-7.12h-5.51v19.14Zm8.83,20a43.85,43.85,0,1,1,43.85-43.84A43.84,43.84,0,0,1,2146,1835.64Zm35.06-43.84a34.82,34.82,0,1,0-35.07,35.08A35.08,35.08,0,0,0,2181.1,1791.8Z"/><path class="cls-5" d="M1346.48,2128.54l-11.89-76.8c-3.41-22.09-7.71-56.62-11.07-80.56h-1.28c-3.51,24.11-8.34,59.66-11.86,80.76l-12.81,76.6Zm-55.35,50-15.49,85.14h-57.16l71.27-354.24h70.15l64.73,354.24h-57.44L1352,2178.51Zm263.62-73.08a92.7,92.7,0,0,0-.86-15.3c-2.33-17.54-10.91-33.29-24.58-33.29-23.63,0-32.33,37-32.33,80.29,0,49.65,12.38,78,31.47,78,8.75,0,18.72-4.89,24.23-25.7a56.84,56.84,0,0,0,2.06-16.22v-67.77ZM1613.38,1900v290.15c0,23,1.1,51.35,2,73.49h-50.71l-3.26-29.58h-1.3c-8.43,18.2-27,33.7-49.09,33.7-48.57,0-72.64-58.26-72.64-131.82,0-89.65,35.94-133.28,75.05-133.28,20.45,0,33.61,11,40.31,26.69h1V1900Zm122.13,318.76c22.46,0,27.92-45.9,27.92-83.92,0-36.17-5.46-83.2-28.86-83.2-24.78,0-30,47-30,83.2,0,43.61,6.63,83.92,30.51,83.92Zm-1,49c-54.07,0-88-47.27-88-131.77,0-92.26,43.48-133.32,89.3-133.32,53.29,0,86.8,49.59,86.8,131.79,0,105.68-52.42,133.31-87.66,133.31Zm179.57-95.8a56.58,56.58,0,0,0,2.32,16.37c5.85,21.49,15.89,26.77,23.89,26.77,22.6,0,31.8-31.28,31.8-81.32,0-45.55-9.7-77-32.06-77-11.16,0-20.54,13.19-23.72,27.3a71.71,71.71,0,0,0-2.22,16.15V2172Zm-58.61-272h58.61v133.73h.94c11.61-19.73,27-31.07,49.24-31.07,44.28,0,66.46,54.76,66.46,126.26,0,90.46-33.09,138.83-76,138.83-20.46,0-34.12-9.86-46.41-34.88h-1.21l-3.35,30.76h-50.3c.79-21.34,2-50.44,2-73.49V1900h0Zm315.88,210.74c.24-36.05-9.46-61.25-28-61.25-21.23,0-30.26,33.82-30.95,61.25Zm-59.14,45.16c.69,46.41,23.11,61.57,51,61.57a115.7,115.7,0,0,0,44-8.9l7.83,45.92c-15.47,7.32-39.55,11.88-62.6,11.88-62.92,0-97.3-46.76-97.3-126.74,0-85.78,39.88-137.34,92-137.34,50.28,0,78.23,45.55,78.23,119.89,0,17-.71,26.56-1.74,34l-111.37-.32Z"/><path class="cls-6" d="M28.91,167.43H1627.22v537.2H28.91Z"/><path class="cls-7" d="M1657.74,736.86H0V135.2H1657.74Zm-59.62-542H59.59V677.09H1598.12Z"/><path class="cls-8" d="M446.65,246.25H563q51.87,0,79.53,30.61,27.87,30.38,27.86,86.77,0,56.64-27.86,87.25Q614.82,481.26,563,481.25H516.72V606.1H446.65V246.25m70.08,67.24V414h38.78q20.37,0,31.48-13,11.1-13.26,11.1-37.36T587,326.5q-11.1-13-31.48-13H516.73m273,2.89V536h25.11q43,0,65.52-28.21,22.75-28.2,22.76-81.94,0-53.52-22.58-81.48t-65.71-28h-25.1m-70.08-70.13h73.9q61.88,0,92.09,11.81,30.4,11.58,52.06,39.53a164.58,164.58,0,0,1,28.39,56.16q9.27,31.83,9.28,72.07,0,40.73-9.28,72.79a164.42,164.42,0,0,1-28.4,56.16q-21.84,27.94-52.41,39.77-30.59,11.57-91.73,11.56h-73.9V246.25m309.41,0h189.11v70.14h-119v67h111.94v70.15H1099.14V606.11h-70.07V246.25"/></g></g></svg>