<svg xmlns="http://www.w3.org/2000/svg" viewBox="0 0 2462 2162.6"><defs><style>.cls-1{fill:#9edcf2;}.cls-2{fill:none;}.cls-3{fill:#7dbce7;}.cls-4{fill:#010101;}.cls-5{fill:#f5ccb3;}.cls-6{fill:#fff;}.cls-7{fill:#af5c51;}.cls-8{fill:#c4e5d9;}</style></defs><title>icon-github</title><g id="Layer_2" data-name="Layer 2"><g id="Layer_1-2" data-name="Layer 1"><path class="cls-1" d="M1932.09,1921.21c0,133.68-309.67,241.39-691.47,241.39s-691.48-108.67-691.48-241.39c0-133.68,309.67-241.39,691.48-241.39S1932.09,1787.53,1932.09,1921.21Z"/><path class="cls-2" d="M1092.51,2157V2047.2s-2.82-87.48-47.54-122c6.94,15.9,11,34.88,11,57.52v171.1c-40.39-3.91-79.31-9.08-116.37-15.37V1985.65s-6.73-73.09-74.05-98.1c0,0-40.4-27.89,2.88-43.27,0,0,124.16-10.19,170.43,68.9-5-15.38-6.71-40.41,41.15-29.47,0,0,128.87,19.23,134.64,169.26l1.1,109.48C1173.6,2161.93,1132.41,2160.09,1092.51,2157Z"/><path class="cls-2" d="M1600.3,1887.55c-68.28,24-74,98.1-74,98.1v155.51c-37.15,5.89-76.06,10.65-116.37,14.18V1982.76c0-22.65,4.06-41.63,11-57.53-44.72,34.48-47.55,122-47.55,122v111c-39.95,2.72-81.14,4.22-123.23,4.42l1.1-109.62c5.77-151,134.64-169.26,134.64-169.26,47.51-10.18,46.16,14.12,41.25,29.31,46.33-78.92,170.32-68.74,170.32-68.74C1639.73,1859.66,1600.3,1887.55,1600.3,1887.55Z"/><path class="cls-3" d="M1092.51,2157V2047.2s-2.82-87.48-47.54-122c6.94,15.9,11,34.88,11,57.52v171.1c-40.39-3.91-79.31-9.08-116.37-15.37V1985.65s-6.73-73.09-74.05-98.1c0,0-40.4-27.89,2.88-43.27,0,0,124.16-10.19,170.43,68.9-5-15.38-6.71-40.41,41.15-29.47,0,0,128.87,19.23,134.64,169.26l1.1,109.48C1173.6,2161.93,1132.41,2160.09,1092.51,2157Z"/><path class="cls-3" d="M1600.3,1887.55c-68.28,24-74,98.1-74,98.1v155.51c-37.15,5.89-76.06,10.65-116.37,14.18V1982.76c0-22.65,4.06-41.63,11-57.53-44.72,34.48-47.55,122-47.55,122v111c-39.95,2.72-81.14,4.22-123.23,4.42l1.1-109.62c5.77-151,134.64-169.26,134.64-169.26,47.51-10.18,46.16,14.12,41.25,29.31,46.33-78.92,170.32-68.74,170.32-68.74C1639.73,1859.66,1600.3,1887.55,1600.3,1887.55Z"/><path class="cls-1" d="M451.05,1210.5l-20.2,69.24s-4.81,25,18.27,29.82c25-1,23.08-24,21.16-30.78l-19.23-68.28Z"/><path class="cls-4" d="M2460.08,919.1l1.92-8.66c-202.92-40.39-410.65-41.35-536.64-35.58,20.2-74.05,26.93-160.61,26.93-255.82,0-137.52-51.93-247.16-134.64-329.87,14.42-47.12,33.66-152-19.24-285.63,0,0-94.24-29.81-308.71,113.49C1406,95.87,1316.59,85.29,1227.15,85.29c-98.09,0-197.15,12.5-290.44,37.51C715.52-28.19,618.39,2.58,618.39,2.58c-63.48,158.68-24,277-12.51,305.83-75,80.78-120.21,183.69-120.21,309.67,0,95.21,10.58,180.8,37.51,254.86-126.95-4.81-327-2.89-523.18,36.54l1.92,8.66c196.19-39.43,398.16-40.39,524.14-35.59,5.77,15.39,12.5,30.78,19.23,45.2-125,3.85-337.56,20.2-541.44,77.9l2.88,8.66c205.81-57.7,420.27-73.09,544.33-76.94,75,138.49,221.2,228.89,482.79,256.78-37.51,25-75,67.32-90.4,139.45-51,24-210.62,83.67-306.79-81.75,0,0-53.86-98.09-156.76-105.79,0,0-100-1.92-6.73,62.52,0,0,66.35,31.73,112.52,150,0,0,60.58,202,350.06,136.57v206.77s-5.77,74-74,98.09c0,0-40.39,27.89,2.89,43.28,0,0,187.53,15.39,187.53-138.49v-227s-7.69-90.4,36.55-121.18v373.15s-2.89,89.44-49.05,123.1c0,0-30.78,54.82,36.54,40.39,0,0,128.87-18.27,134.64-169.26l2.89-378h30.77l2.89,378c5.77,150,134.64,169.26,134.64,169.26,67.32,15.39,36.55-40.39,36.55-40.39-46.17-33.66-49-123.1-49-123.1V1359.57c44.24,34.62,36.54,118.29,36.54,118.29v227c0,153.88,187.54,138.49,187.54,138.49,43.28-15.39,2.88-43.28,2.88-43.28-67.32-25-74-98.09-74-98.09V1403.81c0-116.37-49.05-177.92-97.13-209.66,278.9-27.89,412.57-117.33,474.12-257.74,122.14,2.88,342.38,18.27,552,77.9l2.89-8.66c-208.7-58.66-427-74-551.07-77.9,5.77-14.42,10.58-28.85,15.39-44.23,128.87-4.81,337.56-4.81,541.45,35.58Z"/><path class="cls-5" d="M1679.16,612.31c59.63,54.82,95.21,120.22,95.21,190.42,0,330.83-246.2,339.49-550.1,339.49s-550.11-46.16-550.11-339.49c0-70.2,34.63-135.6,94.25-189.46,99.06-90.4,266.4-42.31,455.86-42.31s355.83-49.05,454.89,41.35Z"/><path class="cls-6" d="M1041.54,820c0,91.37-51,164.46-114.44,164.46S812.65,910.44,812.65,820c0-91.36,51-164.45,114.45-164.45C990.57,654.63,1041.54,728.68,1041.54,820Z"/><path class="cls-7" d="M1005,822c0,60.58-34.63,109.63-76,109.63-42.32,0-76-49.05-76-109.63s34.63-109.64,76-109.64S1005,761.38,1005,822Z"/><path class="cls-6" d="M1656.08,820c0,91.37-51,164.46-114.44,164.46S1427.19,910.44,1427.19,820c0-91.36,51-164.45,114.45-164.45C1604.15,654.63,1656.08,728.68,1656.08,820Z"/><path class="cls-7" d="M1618.57,822c0,60.58-34.62,109.63-76,109.63-42.32,0-76-49.05-76-109.63s34.62-109.64,76-109.64C1584.91,712.33,1618.57,761.38,1618.57,822ZM1255,966.22a28.85,28.85,0,1,1-57.7,0,28.33,28.33,0,0,1,28.85-28.85A28.93,28.93,0,0,1,1255,966.22Zm-95.21,72.13c-1.92-4.81,1-9.62,5.77-11.54s9.62,1,11.54,5.77c7.7,21.16,26.93,34.62,49,34.62s41.36-14.42,49-34.62c1.92-4.81,6.73-7.69,11.54-5.77s7.69,6.73,5.77,11.54a70.28,70.28,0,0,1-132.72,0Z"/><path class="cls-8" d="M524.14,1169.15c0,7.69-8.66,13.46-20.2,13.46-10.58,0-20.2-5.77-20.2-13.46s8.66-13.47,20.2-13.47S524.14,1161.45,524.14,1169.15Zm55.78,30.77c0,7.69-8.66,13.46-20.2,13.46-10.58,0-20.2-5.77-20.2-13.46s8.66-13.46,20.2-13.46S579.92,1192.23,579.92,1199.92Zm33.66,40.39c0,7.7-8.66,13.47-20.2,13.47-10.58,0-20.2-5.77-20.2-13.47s8.66-13.46,20.2-13.46C604.92,1225.89,613.58,1232.62,613.58,1240.31Zm30.77,46.17c0,7.69-8.65,13.46-20.19,13.46-10.58,0-20.2-5.77-20.2-13.46s8.65-13.47,20.2-13.47C635.7,1272.05,644.35,1278.78,644.35,1286.48ZM678,1328.79c0,7.69-8.65,13.47-20.19,13.47-10.58,0-20.2-5.78-20.2-13.47s8.66-13.46,20.2-13.46S678,1321.1,678,1328.79Zm46.16,37.51c0,7.69-8.65,13.46-20.19,13.46-10.58,0-20.2-5.77-20.2-13.46s8.66-13.47,20.2-13.47C715.52,1351.87,724.17,1358.6,724.17,1366.3Zm64.44,24c0,7.69-8.66,13.47-20.2,13.47-10.58,0-20.19-5.78-20.19-13.47s8.65-13.46,20.19-13.46S788.61,1382.65,788.61,1390.34Zm64.43,0c0,7.69-8.65,13.47-20.19,13.47-10.58,0-20.2-5.78-20.2-13.47s8.66-13.46,20.2-13.46S853,1382.65,853,1390.34Zm65.4-10.58c0,7.7-8.65,13.47-20.19,13.47-10.58,0-20.2-5.77-20.2-13.47s8.65-13.46,20.2-13.46C908.82,1366.3,918.44,1372.07,918.44,1379.76Z"/></g></g></svg>